<svg width="283" height="169" viewBox="0 0 283 169" fill="none" xmlns="http://www.w3.org/2000/svg">
<path d="M81.4567 5.23952C79.2839 3.21602 76.443 2.05015 73.4669 1.96064C70.4909 1.87113 67.5842 2.86413 65.2923 4.75335C53.065 13.1886 45.5086 34.6535 39.9329 47.7561C37.2574 54.1083 34.9308 60.6003 32.9634 67.2033C24.1353 96.3742 9.58489 126.59 2.17517 156.126C-0.0991054 165.217 20.8095 172.753 25.9694 163.419C36.4849 144.312 38.4412 131.622 46.34 111.689C46.9025 110.06 82.1415 110.473 86.4455 110.838C88.5279 111.033 90.6286 110.827 92.6325 110.23C94.6622 115.919 96.7408 121.607 98.8195 127.247C103.27 139.523 104.248 153.525 113.663 162.884C122.271 171.441 139.072 167.989 142.08 157.609C145.087 147.229 137.629 135.731 133.374 126.639C128.483 116.04 125.402 105.32 121.513 94.2836C115.693 77.875 108.65 61.6122 102.414 45.2766C97.4989 32.4414 92.6814 14.3797 81.4567 5.23952ZM55.8284 81.2054C59.6433 70.4607 62.9447 56.8963 68.8627 46.2489C74.0367 56.8658 78.3384 67.8813 81.7257 79.1877C73.9248 81.3512 64.4853 80.9136 55.8284 81.2054Z" fill="#E93B38" stroke="#7B1E13" stroke-width="2.06282" stroke-linecap="round" stroke-linejoin="round"/>
<g style="mix-blend-mode:multiply">
<path d="M68.8632 46.2477C69.1567 46.8311 69.4501 47.4874 69.768 48.0952C69.694 46.8411 69.5057 45.5962 69.2056 44.3759C67.5182 37.8611 63.8011 43.5494 62.4317 46.4422C56.8282 58.4526 53.4246 71.3603 52.3809 84.5588C56.4296 83.7071 60.4038 82.5365 64.2658 81.0583C61.429 81.0583 58.5923 81.0583 55.8289 81.2284C59.6438 70.4595 62.9452 56.8707 68.8632 46.2477Z" fill="#C8234C"/>
</g>
<g style="mix-blend-mode:multiply">
<path d="M38.4656 118.35C36.656 128.876 30.3712 138.162 25.4069 147.667C22.4968 153.258 17.4347 162.033 11.5901 166.725C17.1168 168.475 23.4261 167.965 25.9694 163.37C36.4848 144.263 38.4412 131.574 46.34 111.641C46.6823 110.62 60.6214 110.401 72.0661 110.474C59.6677 105.369 41.2779 102.014 38.4656 118.35Z" fill="#C8234C"/>
</g>
<g style="mix-blend-mode:multiply">
<path d="M133.374 126.639C128.483 116.04 125.402 105.32 121.513 94.2836C115.693 77.875 108.65 61.6122 102.414 45.2766C97.5233 32.3198 92.6324 14.3797 81.4567 5.23953C79.2839 3.21602 76.443 2.05015 73.4669 1.96064C70.4909 1.87113 67.5842 2.86413 65.2923 4.75335C63.855 5.75623 62.5126 6.88722 61.2817 8.13231C81.2611 10.9278 95.9338 63.8487 100.825 75.9789C110.191 100.507 125.768 124.354 128.678 150.899C129.454 156.492 129.122 162.182 127.7 167.648C134.254 167.138 140.392 163.492 142.08 157.609C145.185 146.864 137.629 135.755 133.374 126.639Z" fill="#C8234C"/>
</g>
<path d="M278.316 146.695C264.915 140.228 264.303 125.424 263.961 112.662C263.496 94.8676 266.162 72.6248 255.231 57.456C240.778 37.401 192.089 45.9578 176.976 61.8802C172.354 66.7421 169.2 74.2292 172.525 80.9629C176.732 89.5196 186.929 86.8456 192.089 81.449C200.795 72.5033 210.087 64.6272 223.562 66.2073C236.303 67.7144 245.082 79.48 246.916 91.6588C223.293 71.3122 162.841 91.4158 167.61 128.463C171.083 155.616 202.262 170.031 227.01 164.076C236.792 161.289 245.383 155.388 251.465 147.278C254.424 158.193 260.024 166.725 270.735 167.6C278.805 168.573 286.826 150.851 278.316 146.695ZM234.297 131.404C229.407 139.742 217.522 142.197 208.889 139.621C201.553 137.409 194.632 130.116 195.268 122.021C196.002 112.492 205.515 109.866 213.364 108.821C219.723 107.897 229.235 108.675 233.931 113.683C237.403 117.451 236.914 125.205 235.08 129.727C234.738 130.383 234.493 130.918 234.2 131.428L234.297 131.404Z" fill="#E93B38" stroke="#7B1E13" stroke-width="2.06282" stroke-linecap="round" stroke-linejoin="round"/>
<g style="mix-blend-mode:multiply">
<path d="M208.791 139.642C201.455 137.43 194.534 130.137 195.17 122.043C195.904 112.513 205.417 109.888 213.267 108.843C217.508 108.248 221.826 108.471 225.983 109.499C223.11 107.416 219.889 105.853 216.47 104.88C208.351 103.252 197.665 103.665 192.016 110.642C186.367 117.618 183.139 127.852 190.377 135.145C193.059 137.884 196.359 139.948 200.004 141.165C203.649 142.383 207.533 142.719 211.335 142.146C212.874 141.84 214.363 141.324 215.761 140.615C213.403 140.626 211.055 140.299 208.791 139.642Z" fill="#C8234C"/>
</g>
<g style="mix-blend-mode:multiply">
<path d="M246.428 150.268C232.88 153.112 221.533 158.63 207.3 154.303C194.315 150.389 183.335 144.288 177.27 131.793C169.298 115.336 181.525 99.6806 195.856 89.0332C178.738 96.3259 165.41 110.352 167.757 128.56C171.23 155.713 202.41 170.128 227.157 164.173C234.672 162.133 241.492 158.109 246.892 152.528C246.77 151.799 246.623 151.046 246.428 150.268Z" fill="#C8234C"/>
</g>
<g style="mix-blend-mode:multiply">
<path d="M244.74 60.2495C267.042 85.385 242.294 146.887 281.715 155.687C282.4 151.919 281.715 148.394 278.316 146.717C264.915 140.251 264.303 125.446 263.961 112.684C263.496 94.8899 266.162 72.6471 255.231 57.4782C247.894 47.3413 231.925 44.5215 215.908 46.2474C221.421 46.5013 226.823 47.8746 231.781 50.2827C236.74 52.6909 241.15 56.0828 244.74 60.2495Z" fill="#C8234C"/>
</g>
</svg>
