<svg width="86" height="86" viewBox="0 0 86 86" fill="none" xmlns="http://www.w3.org/2000/svg">
<g clip-path="url(#clip0_4643_7016)">
<path d="M42.6728 85.6326C66.1103 85.6326 85.12 66.6327 85.1321 43.1952C85.1442 19.7577 66.1542 0.757812 42.7167 0.757812C19.2792 0.757812 0.269471 19.7577 0.257351 43.1952C0.24523 66.6327 19.2353 85.6326 42.6728 85.6326Z" fill="white"/>
<path fill-rule="evenodd" clip-rule="evenodd" d="M16.4873 76.5787C23.9872 82.4713 33.2522 85.6647 42.7881 85.6441C52.3241 85.6234 61.5751 82.3899 69.0495 76.465C64.4945 68.9971 54.4674 63.8066 42.8018 63.8066C31.0842 63.8066 21.0077 69.0441 16.4873 76.5787Z" fill="#EC1E79"/>
<path opacity="0.31" d="M18.1055 74.271V77.7849C19.6261 78.8674 21.2163 79.8488 22.8657 80.7226V69.8125C21.0859 71.0779 19.4847 72.5776 18.1055 74.271Z" fill="#8F5069"/>
<path opacity="0.31" d="M25.9854 67.8692V82.2116C27.5368 82.8764 29.1263 83.4486 30.7455 83.9252V65.7871C29.1049 66.3507 27.513 67.047 25.9854 67.8692Z" fill="#8F5069"/>
<path opacity="0.31" d="M33.8613 64.869V84.7183C35.433 85.0505 37.0223 85.2932 38.6215 85.4453V64.0332C37.0182 64.2071 35.428 64.4863 33.8613 64.869Z" fill="#8F5069"/>
<path opacity="0.31" d="M42.799 63.8066C42.4456 63.8066 42.0922 63.8066 41.7412 63.8215V85.6243C42.06 85.6243 42.3764 85.6441 42.6952 85.6441C43.9779 85.6441 45.2483 85.5847 46.5014 85.4735V63.9872C45.2903 63.8709 44.0545 63.8066 42.799 63.8066Z" fill="#8F5069"/>
<path opacity="0.31" d="M49.6201 64.4199V85.0754C51.2259 84.8095 52.8152 84.452 54.3803 84.0046V65.6267C52.8233 65.1149 51.2328 64.7117 49.6201 64.4199Z" fill="#8F5069"/>
<path opacity="0.31" d="M57.5 66.8184V82.9683C59.1285 82.3607 60.7182 81.6538 62.2602 80.8516V69.4766C60.7575 68.4477 59.1642 67.5579 57.5 66.8184Z" fill="#8F5069"/>
<path opacity="0.31" d="M65.376 71.9863V79.0635C66.6438 78.2609 67.8689 77.3926 69.0462 76.4621C68.0279 74.813 66.7935 73.3077 65.376 71.9863Z" fill="#8F5069"/>
<g style="mix-blend-mode:multiply" opacity="0.42">
<path d="M57.6379 66.8906H27.9646C26.2887 67.6468 24.6869 68.5575 23.1797 69.6107H62.4203C60.9137 68.558 59.3127 67.6474 57.6379 66.8906Z" fill="#9FFFFF"/>
</g>
<g style="mix-blend-mode:multiply" opacity="0.42">
<path d="M69.0466 76.4629C68.9823 76.359 68.9156 76.2576 68.8513 76.1562H16.7513C16.6623 76.2972 16.5709 76.4357 16.4844 76.5766C17.5702 77.4289 18.6964 78.226 19.863 78.9678H65.5222C66.7391 78.1939 67.9155 77.3578 69.0466 76.4629Z" fill="#9FFFFF"/>
</g>
<path d="M43.0629 69.7344C47.1385 78.4635 56.5179 71.1093 52.4547 65.3081C52.4547 65.224 52.4547 65.1399 52.4547 65.0608C46.006 63.3669 39.2254 63.4002 32.7936 65.1572C32.7936 65.2092 32.8208 65.2759 32.7936 65.3155C28.7823 70.0089 37.9888 79.0001 43.0629 69.7344Z" fill="white"/>
<path d="M71.108 13.4616C73.7302 12.3364 76.6194 11.9855 79.4346 12.4502C79.2623 11.64 79.0055 10.8501 78.6684 10.0936C76.9383 9.65345 73.7772 9.59904 70.5346 10.7761C63.2065 13.4072 61.2119 19.9725 61.2119 19.9725L64.3063 24.3865C67.2301 22.569 75.8854 24.5769 76.0733 25.8331C76.5695 25.2845 76.9909 24.6725 77.3264 24.0131C76.5849 23.3232 75.3837 22.381 72.2548 22.0151C74.1232 21.8197 76.3353 22.3192 77.7193 23.4023C78.9019 21.8336 79.6165 19.9621 79.7806 18.0041C78.5201 16.8543 75.7248 16.3647 73.3151 16.4834C74.6299 15.7415 78.226 16.2361 79.8152 17.2029C79.8601 15.9291 79.7906 14.6538 79.6076 13.3923C74.7658 12.4453 71.3551 13.4047 71.108 13.4616Z" fill="#CF840B"/>
<path d="M42.6384 10.1751C34.9346 8.79283 24.9199 13.8003 20.4761 20.7266C13.9438 30.9122 16.8281 42.6111 20.6368 49.1344C23.6026 53.0142 29.6554 58.902 41.8129 58.6028C51.2789 58.3703 56.395 57.3317 61.5432 52.0226C68.3053 45.8406 71.9681 29.5546 62.8259 17.9991C55.6584 8.93873 45.5474 9.54457 42.6384 10.1751Z" fill="#CF840B"/>
<g style="mix-blend-mode:multiply" opacity="0.4">
<path d="M42.7739 39.024C30.4162 39.1848 21.4321 34.7535 18.0585 25.6387C14.8826 34.479 17.4332 43.6432 20.6413 49.1304C23.6071 53.0103 29.6599 58.898 41.8174 58.5988C51.2834 58.3664 56.3994 57.3278 61.5477 52.0187C66.7725 47.2387 70.1412 36.4399 67.1877 26.4349C64.9114 33.4058 56.2512 38.8485 42.7739 39.024Z" fill="#BF8C32"/>
</g>
<path d="M23.0114 49.7783C20.6708 49.6967 18.8246 47.9287 18.2413 45.7946C17.4751 42.9905 18.4563 40.1937 23.0114 40.4905V49.7783Z" fill="#F6C495"/>
<g style="mix-blend-mode:multiply" opacity="0.4">
<path d="M21.4795 40.5167C21.9884 40.461 22.5013 40.4519 23.0119 40.4895V49.7774C22.4873 49.7579 21.9695 49.6518 21.4795 49.4634V40.5167Z" fill="#DE8D73"/>
</g>
<path d="M61.2217 49.7783C63.5622 49.6967 65.4233 47.9287 65.9942 45.7946C66.7604 42.9905 65.7767 40.1937 61.2217 40.4905V49.7783Z" fill="#F6C495"/>
<g style="mix-blend-mode:multiply" opacity="0.4">
<path d="M62.7443 40.5168C62.2354 40.461 61.7225 40.4519 61.2119 40.4896V49.7775C61.7365 49.7582 62.2543 49.6521 62.7443 49.4635V40.5168Z" fill="#DE8D73"/>
</g>
<path d="M35.6754 56.1858L34.9092 66.1265C34.9092 66.1265 36.2438 69.4623 42.4424 69.3412C48.903 69.2027 50.1215 66.3391 50.1215 66.3391L49.6667 56.2006C44.4369 56.1858 35.6754 56.0918 35.6754 56.1858Z" fill="#F6C495"/>
<g style="mix-blend-mode:multiply" opacity="0.6">
<path d="M50.0257 64.1839L49.6673 56.1843C44.4376 56.1843 35.676 56.0904 35.676 56.1843L35.0605 64.1666C40.1519 66.585 46.2863 65.5613 50.0257 64.1839Z" fill="#DE8D73"/>
</g>
<path d="M22.6881 38.5119C22.0578 48.2746 22.782 51.7588 24.9124 55.374C28.0266 60.6708 35.3374 64.0289 42.8187 63.7816C51.3703 63.4972 56.6248 59.8548 59.3212 55.5274C62.1981 50.9106 61.6766 43.779 61.0933 38.0371C60.6954 33.8605 57.2426 21.0563 43.4811 26.1058C43.2068 25.0054 43.4144 21.4396 42.8632 21.1602C42.2478 21.4074 41.9413 24.5479 41.7535 26.1058C30.3918 21.9069 22.9846 29.4218 22.6881 38.5119Z" fill="#F6C495"/>
<path d="M40.54 46.4023C40.4906 46.8697 40.4609 47.1689 40.4609 47.1689C40.9923 48.6946 44.2992 48.4993 44.5835 47.1343C44.5835 47.1343 44.5563 46.887 44.5068 46.4765C43.9804 47.6783 41.2592 47.8292 40.54 46.4023Z" fill="#DF9176"/>
<path opacity="0.8" d="M28.8348 48.7731C31.3491 48.7731 33.3874 47.6084 33.3874 46.1717C33.3874 44.735 31.3491 43.5703 28.8348 43.5703C26.3205 43.5703 24.2822 44.735 24.2822 46.1717C24.2822 47.6084 26.3205 48.7731 28.8348 48.7731Z" fill="#FFA485"/>
<path opacity="0.8" d="M55.6307 48.7731C58.145 48.7731 60.1833 47.6084 60.1833 46.1717C60.1833 44.735 58.145 43.5703 55.6307 43.5703C53.1164 43.5703 51.0781 44.735 51.0781 46.1717C51.0781 47.6084 53.1164 48.7731 55.6307 48.7731Z" fill="#FFA485"/>
<path d="M42.3738 57.198C38.4514 57.198 37.1366 54.6906 36.9957 53.2934C36.9875 53.2118 37.0121 53.1302 37.064 53.0667C37.1159 53.0032 37.1909 52.9629 37.2725 52.9547C37.3541 52.9465 37.4356 52.9711 37.4991 53.023C37.5626 53.0749 37.6029 53.15 37.6111 53.2316C37.7396 54.4977 39.0273 56.8246 42.9892 56.5576C45.0578 56.4216 46.8744 54.7524 47.213 53.3429C47.222 53.3034 47.2388 53.266 47.2624 53.2331C47.286 53.2001 47.316 53.1723 47.3505 53.1511C47.3851 53.1299 47.4235 53.1158 47.4635 53.1097C47.5036 53.1035 47.5445 53.1055 47.5837 53.1154C47.6633 53.1342 47.7322 53.1838 47.7753 53.2533C47.8184 53.3229 47.8322 53.4067 47.8136 53.4863C47.4182 55.1406 45.4014 57.02 43.0287 57.1782C42.8038 57.1906 42.5838 57.198 42.3738 57.198Z" fill="#9B292A"/>
<path d="M30.3129 44.8095C30.3129 44.8765 30.2931 44.942 30.2559 44.9977C30.2187 45.0534 30.1658 45.0968 30.1039 45.1225C30.042 45.1481 29.974 45.1548 29.9083 45.1417C29.8426 45.1287 29.7823 45.0964 29.7349 45.049C29.6876 45.0017 29.6553 44.9413 29.6422 44.8756C29.6292 44.8099 29.6359 44.7417 29.6615 44.6798C29.6872 44.6179 29.7305 44.565 29.7862 44.5278C29.8419 44.4906 29.9074 44.4707 29.9743 44.4707C30.0639 44.4714 30.1497 44.5072 30.2131 44.5706C30.2764 44.634 30.3123 44.7198 30.3129 44.8095Z" fill="#B45036"/>
<path d="M28.8129 45.7406C28.8134 45.8077 28.794 45.8734 28.7571 45.9295C28.7202 45.9855 28.6675 46.0293 28.6056 46.0554C28.5438 46.0814 28.4756 46.0884 28.4098 46.0756C28.344 46.0629 28.2834 46.0308 28.2358 45.9835C28.1882 45.9362 28.1557 45.8759 28.1424 45.8101C28.1292 45.7443 28.1357 45.6761 28.1613 45.614C28.1868 45.552 28.2302 45.4989 28.2859 45.4616C28.3417 45.4242 28.4073 45.4043 28.4743 45.4043C28.5637 45.4043 28.6495 45.4397 28.7129 45.5026C28.7763 45.5656 28.8123 45.6512 28.8129 45.7406Z" fill="#B45036"/>
<path d="M26.5532 46.0458C26.5532 46.1128 26.5333 46.1783 26.4961 46.234C26.4589 46.2897 26.406 46.3332 26.3442 46.3588C26.2823 46.3844 26.2142 46.3911 26.1485 46.3781C26.0828 46.365 26.0225 46.3327 25.9751 46.2854C25.9278 46.238 25.8956 46.1776 25.8825 46.1119C25.8694 46.0462 25.8761 45.9781 25.9017 45.9162C25.9274 45.8543 25.9708 45.8014 26.0265 45.7641C26.0821 45.7269 26.1476 45.707 26.2146 45.707C26.3044 45.707 26.3905 45.7427 26.454 45.8063C26.5175 45.8698 26.5532 45.956 26.5532 46.0458Z" fill="#B45036"/>
<path d="M27.8559 47.2255C27.8559 47.2925 27.8361 47.358 27.7989 47.4137C27.7616 47.4694 27.7088 47.5128 27.6469 47.5385C27.585 47.5641 27.5169 47.5708 27.4512 47.5578C27.3856 47.5447 27.3252 47.5124 27.2779 47.465C27.2305 47.4177 27.1983 47.3573 27.1852 47.2916C27.1722 47.2259 27.1788 47.1578 27.2045 47.0959C27.2301 47.0339 27.2735 46.981 27.3292 46.9438C27.3849 46.9066 27.4503 46.8867 27.5173 46.8867C27.6071 46.8867 27.6932 46.9224 27.7567 46.9859C27.8202 47.0495 27.8559 47.1356 27.8559 47.2255Z" fill="#B45036"/>
<path d="M30.3716 46.6786C30.3716 46.7456 30.3517 46.8111 30.3145 46.8668C30.2773 46.9225 30.2244 46.966 30.1625 46.9916C30.1006 47.0172 30.0326 47.024 29.9669 47.0109C29.9012 46.9978 29.8409 46.9656 29.7935 46.9182C29.7462 46.8708 29.7139 46.8104 29.7008 46.7447C29.6878 46.679 29.6945 46.6109 29.7201 46.549C29.7457 46.4871 29.7891 46.4342 29.8448 46.3969C29.9005 46.3597 29.966 46.3398 30.033 46.3398C30.1228 46.3398 30.2089 46.3755 30.2724 46.4391C30.3359 46.5026 30.3716 46.5888 30.3716 46.6786Z" fill="#B45036"/>
<path d="M28.9604 47.7372C28.9604 47.8042 28.9406 47.8697 28.9033 47.9254C28.8661 47.9811 28.8132 48.0246 28.7514 48.0502C28.6895 48.0758 28.6214 48.0826 28.5558 48.0695C28.4901 48.0564 28.4297 48.0241 28.3824 47.9768C28.335 47.9294 28.3028 47.869 28.2897 47.8033C28.2766 47.7376 28.2833 47.6695 28.309 47.6076C28.3346 47.5457 28.378 47.4928 28.4337 47.4555C28.4894 47.4183 28.5548 47.3984 28.6218 47.3984C28.7116 47.3984 28.7977 47.4341 28.8612 47.4977C28.9247 47.5612 28.9604 47.6474 28.9604 47.7372Z" fill="#B45036"/>
<path d="M54.9118 45.0877C55.0988 45.0877 55.2504 44.936 55.2504 44.7489C55.2504 44.5618 55.0988 44.4102 54.9118 44.4102C54.7248 44.4102 54.5732 44.5618 54.5732 44.7489C54.5732 44.936 54.7248 45.0877 54.9118 45.0877Z" fill="#B45036"/>
<path d="M53.642 46.1532C53.642 46.2203 53.6221 46.2859 53.5848 46.3417C53.5475 46.3975 53.4945 46.4409 53.4324 46.4665C53.3704 46.492 53.3022 46.4986 53.2365 46.4853C53.1707 46.472 53.1104 46.4395 53.0631 46.3919C53.0159 46.3443 52.9838 46.2837 52.9711 46.2178C52.9583 46.1519 52.9653 46.0837 52.9913 46.0219C53.0173 45.96 53.0611 45.9073 53.1171 45.8704C53.1731 45.8334 53.2388 45.814 53.3059 45.8145C53.3503 45.8145 53.3942 45.8232 53.4351 45.8403C53.4761 45.8573 53.5132 45.8823 53.5445 45.9138C53.5757 45.9453 53.6004 45.9827 53.6172 46.0238C53.6339 46.0649 53.6424 46.1089 53.642 46.1532Z" fill="#B45036"/>
<path d="M57.0668 44.8329C57.0668 44.8999 57.047 44.9654 57.0098 45.0211C56.9726 45.0768 56.9197 45.1203 56.8578 45.1459C56.7959 45.1715 56.7279 45.1783 56.6622 45.1652C56.5965 45.1521 56.5362 45.1198 56.4888 45.0725C56.4415 45.0251 56.4092 44.9647 56.3962 44.899C56.3831 44.8333 56.3898 44.7652 56.4154 44.7033C56.4411 44.6414 56.4844 44.5885 56.5401 44.5512C56.5958 44.514 56.6613 44.4941 56.7282 44.4941C56.818 44.4941 56.9042 44.5298 56.9677 44.5934C57.0312 44.6569 57.0668 44.7431 57.0668 44.8329Z" fill="#B45036"/>
<path d="M57.6753 46.1513C57.6753 46.2183 57.6554 46.2838 57.6182 46.3395C57.581 46.3952 57.5281 46.4386 57.4662 46.4643C57.4044 46.4899 57.3363 46.4966 57.2706 46.4835C57.2049 46.4705 57.1446 46.4382 57.0972 46.3908C57.0499 46.3434 57.0176 46.2831 57.0046 46.2174C56.9915 46.1517 56.9982 46.0835 57.0238 46.0216C57.0495 45.9597 57.0929 45.9068 57.1486 45.8696C57.2042 45.8324 57.2697 45.8125 57.3367 45.8125C57.4265 45.8125 57.5126 45.8482 57.5761 45.9117C57.6396 45.9753 57.6753 46.0614 57.6753 46.1513Z" fill="#B45036"/>
<path d="M57.727 47.6396C57.727 47.7066 57.7072 47.7721 57.6699 47.8278C57.6327 47.8835 57.5799 47.9269 57.518 47.9525C57.4561 47.9782 57.388 47.9849 57.3224 47.9718C57.2567 47.9587 57.1963 47.9265 57.149 47.8791C57.1016 47.8317 57.0694 47.7714 57.0563 47.7056C57.0433 47.6399 57.0499 47.5718 57.0756 47.5099C57.1012 47.448 57.1446 47.3951 57.2003 47.3579C57.256 47.3206 57.3214 47.3008 57.3884 47.3008C57.4782 47.3008 57.5643 47.3365 57.6278 47.4C57.6913 47.4635 57.727 47.5497 57.727 47.6396Z" fill="#B45036"/>
<path d="M56.0913 47.7939C56.0913 47.8609 56.0714 47.9264 56.0342 47.9821C55.997 48.0378 55.9441 48.0812 55.8822 48.1068C55.8204 48.1325 55.7523 48.1392 55.6866 48.1261C55.6209 48.113 55.5606 48.0808 55.5132 48.0334C55.4659 47.986 55.4336 47.9257 55.4206 47.8599C55.4075 47.7942 55.4142 47.7261 55.4398 47.6642C55.4655 47.6023 55.5089 47.5494 55.5645 47.5122C55.6202 47.4749 55.6857 47.4551 55.7527 47.4551C55.8425 47.4551 55.9286 47.4908 55.9921 47.5543C56.0556 47.6178 56.0913 47.704 56.0913 47.7939Z" fill="#B45036"/>
<path d="M55.384 46.6194C55.3865 46.6868 55.3688 46.7534 55.3332 46.8106C55.2976 46.8679 55.2458 46.9132 55.1843 46.9408C55.1229 46.9684 55.0545 46.9771 54.9881 46.9656C54.9217 46.9542 54.8603 46.9232 54.8116 46.8766C54.7629 46.83 54.7292 46.7699 54.7148 46.7041C54.7005 46.6382 54.706 46.5695 54.7309 46.5069C54.7557 46.4442 54.7987 46.3904 54.8543 46.3523C54.9099 46.3142 54.9756 46.2935 55.0429 46.293C55.1312 46.2917 55.2165 46.3252 55.2804 46.3862C55.3442 46.4473 55.3814 46.5311 55.384 46.6194Z" fill="#B45036"/>
<path d="M63.969 22.1012C66.0507 21.6665 67.3861 19.6256 66.9516 17.5427C66.5171 15.4598 64.4772 14.1238 62.3954 14.5585C60.3136 14.9933 58.9782 17.0342 59.4128 19.1171C59.8473 21.1999 61.8872 22.536 63.969 22.1012Z" fill="#FF67AB"/>
<g style="mix-blend-mode:multiply">
<path d="M66.6294 16.6191C66.6294 16.6909 66.6145 16.7601 66.6022 16.8318C66.4619 17.6305 66.0731 18.3644 65.4913 18.929C64.9096 19.4936 64.1645 19.86 63.3623 19.9759C62.5601 20.0919 61.7419 19.9514 61.0242 19.5747C60.3065 19.1979 59.726 18.6041 59.3655 17.8778C59.2938 18.4737 59.3623 19.0781 59.5655 19.6428C59.7688 20.2075 60.1011 20.7168 60.5361 21.1301C60.9711 21.5434 61.4966 21.8492 62.0707 22.0232C62.6449 22.1971 63.2517 22.2344 63.8428 22.132C64.4338 22.0295 64.9928 21.7903 65.475 21.4333C65.9572 21.0763 66.3493 20.6114 66.6201 20.0759C66.8908 19.5403 67.0326 18.9488 67.0342 18.3486C67.0359 17.7484 66.8972 17.1562 66.6294 16.6191Z" fill="#BE67AB"/>
</g>
<path d="M63.0333 16.3267C63.0061 16.4797 62.9341 16.6212 62.8265 16.7334C62.7189 16.8455 62.5805 16.9232 62.4287 16.9566C62.277 16.9901 62.1188 16.9778 61.974 16.9213C61.8293 16.8648 61.7045 16.7667 61.6155 16.6393C61.5264 16.5119 61.4771 16.361 61.4738 16.2056C61.4705 16.0501 61.5133 15.8972 61.5968 15.7661C61.6803 15.635 61.8007 15.5316 61.9429 15.469C62.0851 15.4064 62.2427 15.3873 62.3957 15.4142C62.4975 15.4321 62.5948 15.47 62.6819 15.5255C62.7691 15.5811 62.8445 15.6533 62.9037 15.7381C62.963 15.8229 63.0049 15.9185 63.0271 16.0195C63.0494 16.1205 63.0515 16.2249 63.0333 16.3267Z" fill="white"/>
<path d="M68.1436 24.6044C68.8257 23.1808 68.2251 21.4735 66.8022 20.7911C65.3793 20.1087 63.6729 20.7096 62.9908 22.1332C62.3088 23.5569 62.9094 25.2641 64.3323 25.9465C65.7552 26.6289 67.4616 26.0281 68.1436 24.6044Z" fill="#FF67AB"/>
<g style="mix-blend-mode:multiply">
<path d="M68.1418 22.1055C68.1418 22.1574 68.1418 22.2118 68.1221 22.2637C68.0181 22.8562 67.7297 23.4007 67.2982 23.8196C66.8667 24.2384 66.314 24.5103 65.7189 24.5963C65.1239 24.6824 64.5168 24.5783 63.9844 24.2989C63.452 24.0194 63.0213 23.5789 62.7539 23.0402C62.7007 23.4823 62.7515 23.9307 62.9023 24.3496C63.0532 24.7685 63.2998 25.1463 63.6225 25.4529C63.9452 25.7595 64.3351 25.9863 64.7611 26.1153C65.187 26.2443 65.6372 26.2718 66.0757 26.1958C66.5142 26.1197 66.9289 25.9421 67.2865 25.6772C67.6442 25.4122 67.935 25.0673 68.1358 24.6699C68.3365 24.2725 68.4416 23.8337 68.4427 23.3884C68.4437 22.9432 68.3407 22.5038 68.1418 22.1055Z" fill="#BE67AB"/>
</g>
<path d="M65.4626 21.8888C65.4428 22.0025 65.3898 22.1078 65.3102 22.1914C65.2306 22.2749 65.128 22.3329 65.0154 22.3582C64.9028 22.3834 64.7853 22.3746 64.6777 22.333C64.5701 22.2914 64.4772 22.2188 64.4109 22.1244C64.3445 22.03 64.3076 21.918 64.3049 21.8026C64.3021 21.6872 64.3336 21.5736 64.3954 21.4761C64.4572 21.3787 64.5464 21.3017 64.6519 21.255C64.7574 21.2083 64.8744 21.1939 64.9881 21.2137C65.1401 21.2409 65.2754 21.3271 65.3642 21.4535C65.4531 21.58 65.4885 21.7364 65.4626 21.8888Z" fill="white"/>
<path d="M13.6945 13.4625C11.0731 12.3375 8.18475 11.9866 5.37042 12.4511C5.54154 11.6406 5.79838 10.8506 6.13659 10.0945C8.60813 9.65435 10.9734 9.30816 14.221 10.4555C22.4018 13.3438 23.5931 19.9734 23.5931 19.9734L20.4962 24.3874C17.5724 22.5699 8.91955 24.5778 8.73171 25.834C8.23466 25.2855 7.81248 24.6735 7.47618 24.014C8.21764 23.3241 9.42126 22.3819 12.5502 22.016C10.6817 21.8206 8.46972 22.3201 7.08566 23.4032C5.90255 21.8346 5.18709 19.9632 5.02193 18.0051C6.28241 16.8552 9.0802 16.3656 11.49 16.4843C10.1726 15.7424 6.579 16.237 4.9898 17.2039C4.94488 15.93 5.01435 14.6547 5.1974 13.3933C10.0268 12.4462 13.4326 13.4056 13.6945 13.4625Z" fill="#CF840B"/>
<path d="M25.3704 19.2503C25.8737 17.183 24.6067 15.0989 22.5405 14.5953C20.4742 14.0918 18.3912 15.3594 17.8879 17.4267C17.3846 19.494 18.6516 21.5781 20.7178 22.0817C22.7841 22.5853 24.8671 21.3176 25.3704 19.2503Z" fill="#FF67AB"/>
<g style="mix-blend-mode:multiply">
<path d="M18.1647 16.6191C18.1647 16.6909 18.1795 16.7601 18.1919 16.8318C18.3314 17.6307 18.7197 18.3651 19.3013 18.93C19.8828 19.495 20.6279 19.8616 21.4302 19.9776C22.2324 20.0936 23.0508 19.953 23.7684 19.5759C24.486 19.1988 25.0662 18.6045 25.4261 17.8778C25.4985 18.474 25.4305 19.0788 25.2276 19.644C25.0246 20.2091 24.6924 20.719 24.2573 21.1328C23.8223 21.5465 23.2966 21.8527 22.7221 22.0269C22.1477 22.2011 21.5405 22.2384 20.9491 22.1359C20.3577 22.0334 19.7984 21.7939 19.316 21.4365C18.8337 21.0791 18.4415 20.6138 18.1709 20.0778C17.9004 19.5417 17.7589 18.9497 17.7578 18.3492C17.7567 17.7487 17.8961 17.1562 18.1647 16.6191Z" fill="#BE67AB"/>
</g>
<path d="M21.7612 16.3267C21.7885 16.4797 21.8605 16.6212 21.9681 16.7334C22.0757 16.8455 22.2141 16.9232 22.3659 16.9566C22.5176 16.9901 22.6758 16.9778 22.8206 16.9213C22.9653 16.8648 23.0901 16.7667 23.1791 16.6393C23.2681 16.5119 23.3174 16.361 23.3207 16.2056C23.3241 16.0501 23.2813 15.8972 23.1978 15.7661C23.1143 15.635 22.9939 15.5316 22.8517 15.469C22.7095 15.4064 22.5519 15.3873 22.3989 15.4142C22.2971 15.4321 22.1998 15.47 22.1126 15.5255C22.0255 15.5811 21.9501 15.6533 21.8909 15.7381C21.8316 15.8229 21.7897 15.9185 21.7674 16.0195C21.7452 16.1205 21.7431 16.2249 21.7612 16.3267Z" fill="white"/>
<path d="M21.5382 25.0203C22.4513 23.7328 22.1484 21.9484 20.8615 21.0347C19.5747 20.1211 17.7912 20.4242 16.8781 21.7117C15.9649 22.9992 16.2678 24.7836 17.5547 25.6973C18.8415 26.6109 20.625 26.3078 21.5382 25.0203Z" fill="#FF67AB"/>
<g style="mix-blend-mode:multiply">
<path d="M16.6621 22.1055C16.6621 22.1574 16.6622 22.2118 16.6819 22.2637C16.7859 22.8562 17.0743 23.4007 17.5058 23.8196C17.9373 24.2384 18.49 24.5103 19.0851 24.5963C19.6801 24.6824 20.2871 24.5783 20.8195 24.2989C21.352 24.0194 21.7826 23.5789 22.0501 23.0402C22.1033 23.4823 22.0525 23.9307 21.9017 24.3496C21.7508 24.7685 21.5042 25.1463 21.1815 25.4529C20.8587 25.7595 20.4688 25.9863 20.0429 26.1153C19.6169 26.2443 19.1667 26.2718 18.7282 26.1958C18.2898 26.1197 17.8751 25.9421 17.5174 25.6772C17.1597 25.4122 16.8689 25.0673 16.6682 24.6699C16.4675 24.2725 16.3624 23.8337 16.3613 23.3884C16.3603 22.9432 16.4633 22.5038 16.6621 22.1055Z" fill="#BE67AB"/>
</g>
<path d="M19.332 21.8892C19.3519 22.003 19.4051 22.1083 19.4848 22.1918C19.5646 22.2754 19.6673 22.3333 19.78 22.3584C19.8927 22.3834 20.0103 22.3744 20.1179 22.3326C20.2255 22.2907 20.3183 22.2179 20.3845 22.1232C20.4506 22.0286 20.4873 21.9164 20.4897 21.8009C20.4921 21.6854 20.4602 21.5718 20.3981 21.4745C20.3359 21.3772 20.2463 21.3005 20.1406 21.2541C20.0348 21.2078 19.9177 21.1939 19.804 21.2142C19.6521 21.2413 19.5171 21.3276 19.4286 21.4541C19.3401 21.5807 19.3054 21.7371 19.332 21.8892Z" fill="white"/>
<path d="M35.2008 44.1782C36.0855 43.9518 36.6192 43.0506 36.3928 42.1655C36.1665 41.2803 35.2659 40.7464 34.3812 40.9728C33.4965 41.1992 32.9628 42.1004 33.1891 42.9855C33.4154 43.8707 34.3161 44.4046 35.2008 44.1782Z" fill="#42210B"/>
<path d="M49.6173 44.2071C50.5305 44.2071 51.2708 43.4664 51.2708 42.5527C51.2708 41.6391 50.5305 40.8984 49.6173 40.8984C48.7042 40.8984 47.9639 41.6391 47.9639 42.5527C47.9639 43.4664 48.7042 44.2071 49.6173 44.2071Z" fill="#42210B"/>
<path d="M32.7845 38.4551C32.6904 38.4563 32.5988 38.4251 32.525 38.3667C32.4511 38.3083 32.3996 38.2263 32.3791 38.1344C32.3585 38.0425 32.3701 37.9463 32.412 37.862C32.4539 37.7777 32.5234 37.7103 32.6091 37.6712C33.521 37.2459 35.0188 37.0654 36.1187 37.5476C36.214 37.5943 36.2877 37.6761 36.3244 37.7758C36.3611 37.8755 36.3579 37.9856 36.3156 38.0831C36.2733 38.1805 36.195 38.2579 36.0971 38.2991C35.9992 38.3403 35.8892 38.3422 35.7899 38.3043C34.9199 37.9235 33.6817 38.0792 32.9575 38.418C32.903 38.4421 32.8441 38.4547 32.7845 38.4551Z" fill="#321A0B"/>
<path d="M48.3692 38.2529C48.2785 38.2519 48.1907 38.2211 48.1194 38.1652C48.048 38.1093 47.9969 38.0315 47.9742 37.9437C47.9514 37.8559 47.9582 37.7631 47.9934 37.6795C48.0286 37.596 48.0903 37.5263 48.169 37.4814C49.5036 36.7395 50.8877 37.0857 51.6093 37.3602C51.6609 37.3787 51.7082 37.4072 51.7486 37.4442C51.789 37.4811 51.8217 37.5258 51.8447 37.5755C51.8677 37.6252 51.8806 37.679 51.8826 37.7337C51.8846 37.7884 51.8758 37.843 51.8565 37.8943C51.8386 37.946 51.8105 37.9936 51.7738 38.0341C51.7372 38.0747 51.6928 38.1075 51.6432 38.1306C51.5936 38.1537 51.5399 38.1665 51.4853 38.1684C51.4306 38.1703 51.3762 38.1612 51.3251 38.1416C50.7468 37.9215 49.6222 37.6347 48.5792 38.2133C48.5139 38.2448 48.4415 38.2585 48.3692 38.2529Z" fill="#321A0B"/>
</g>
<defs>
<clipPath id="clip0_4643_7016">
<rect width="84.9186" height="84.886" fill="white" transform="translate(0.235352 0.757812)"/>
</clipPath>
</defs>
</svg>
