<svg width="86" height="87" viewBox="0 0 86 87" fill="none" xmlns="http://www.w3.org/2000/svg">
<g clip-path="url(#clip0_4643_7020)">
<path d="M43.1445 85.3904C66.582 85.3904 85.5917 66.3905 85.6038 42.953C85.6159 19.5155 66.6259 0.515625 43.1883 0.515625C19.7508 0.515625 0.741151 19.5155 0.729031 42.953C0.716911 66.3905 19.7069 85.3904 43.1445 85.3904Z" fill="white"/>
<path fill-rule="evenodd" clip-rule="evenodd" d="M17.5784 77.2487C25.1891 82.9977 34.5135 86.0141 44.0475 85.8113C53.5815 85.6085 62.7693 82.1984 70.1287 76.1309C65.4318 68.751 55.295 63.7533 43.6462 63.975C31.9284 64.2005 21.9566 69.6344 17.5784 77.2487Z" fill="#29D1DD"/>
<path d="M45.6634 82.0619L42.9996 82.1154C42.9791 82.1161 42.9586 82.1128 42.9393 82.1055C42.9201 82.0983 42.9025 82.0873 42.8875 82.0732C42.8593 82.0441 42.8427 82.0057 42.8409 81.9653C42.7574 77.8093 42.5983 69.8954 42.5943 69.6952C42.5915 69.6543 42.6048 69.614 42.6315 69.5829C42.6582 69.5518 42.696 69.5324 42.7368 69.5291C42.757 69.5266 42.7776 69.5284 42.7971 69.5342C42.8166 69.54 42.8347 69.5498 42.8503 69.563C42.8659 69.5761 42.8786 69.5923 42.8876 69.6106C42.8966 69.6289 42.9018 69.6488 42.9028 69.6692C42.9072 69.8892 43.1171 80.3348 43.1466 81.8033L45.6572 81.7529C45.6949 81.7569 45.7298 81.7745 45.7554 81.8025C45.7811 81.8304 45.7956 81.8667 45.7964 81.9047C45.7971 81.9426 45.7841 81.9795 45.7596 82.0084C45.7351 82.0374 45.7009 82.0564 45.6634 82.0619Z" fill="#389388"/>
<path d="M39.7661 13.6202C33.4605 14.2663 28.0965 15.5093 23.7176 22.3519C17.2753 32.4315 20.4068 42.1258 22.9379 46.7841C26.009 50.5165 30.141 55.9935 42.4734 55.4686C52.0764 55.058 56.8699 50.6408 60.0172 47.5874C64.5308 42.5228 65.7331 31.9871 60.6882 22.2966C57.631 16.427 45.8274 12.9988 39.7661 13.6202Z" fill="#343C2C"/>
<path d="M43.4572 69.4694C46.5989 71.793 49.9082 73.8486 49.9082 73.8486C49.9082 73.8486 53.865 69.0055 53.3406 65.2937C53.3388 65.2072 53.3371 65.1231 53.3356 65.0465C46.8562 63.4733 40.0769 63.6351 33.68 65.5156C32.5267 68.2817 36.7636 75.1614 36.9644 74.6974C36.9544 74.6926 40.8737 71.4258 43.4572 69.4694Z" fill="white"/>
<path d="M23.6015 50.7233C21.2595 50.6764 19.3737 48.7232 18.7447 46.3318C17.9202 43.19 18.8404 40.0229 23.4014 40.2701L23.6015 50.7233Z" fill="#F6C495"/>
<g style="mix-blend-mode:multiply" opacity="0.4">
<path d="M21.8693 40.3383C22.3764 40.2664 22.8895 40.2462 23.4007 40.2779L23.6108 50.7308C23.082 50.7189 22.56 50.6086 22.0716 50.4056L21.8693 40.3383Z" fill="#DE8D73"/>
</g>
<path d="M61.8013 49.9962C64.1396 49.8602 65.948 47.8353 66.4854 45.4229C67.193 42.2527 66.1512 39.1226 61.6012 39.543L61.8013 49.9962Z" fill="#F6C495"/>
<g style="mix-blend-mode:multiply" opacity="0.4">
<path d="M63.1269 39.5406C62.6173 39.4895 62.1039 39.489 61.5942 39.5393L61.8043 49.9922C62.3316 49.9592 62.8485 49.8298 63.3293 49.6104L63.1269 39.5406Z" fill="#DE8D73"/>
</g>
<path d="M36.3767 56.4918L35.803 66.4485C35.803 66.4485 37.1995 69.757 43.3919 69.5113C49.8511 69.2505 51.0143 66.3655 51.0143 66.3655L50.3658 56.2379C45.1367 56.3257 36.3749 56.4028 36.3767 56.4918Z" fill="#F6C495"/>
<g style="mix-blend-mode:multiply" opacity="0.6">
<path d="M50.8769 64.2152L50.3652 56.2243C45.1365 56.3294 36.3745 56.3966 36.3764 56.4906L35.9141 64.4837C41.0506 66.8043 47.1658 65.6649 50.8769 64.2152Z" fill="#DE8D73"/>
</g>
<path d="M22.7197 38.1258C22.4112 47.3797 23.4004 52.3188 25.5957 55.8932C28.8107 61.1289 36.1829 64.3544 43.6578 63.9618C52.2021 63.5131 57.3874 59.7706 60.0013 55.3923C62.7899 50.721 62.1325 41.6275 61.4389 35.8959C61.3743 32.6819 59.9029 28.1062 57.438 26.3675C55.9654 27.7599 48.4196 30.1597 42.1902 30.2923C35.857 30.4196 28.3878 29.2564 26.4072 27.5104C24.4949 29.1614 23.1038 32.7584 22.7197 38.1258Z" fill="#F6C495"/>
<path d="M41.0708 47.5179L41.0047 48.286C41.5641 49.8008 44.869 49.5414 45.1282 48.171L45.0384 47.5149C44.5362 48.727 41.8185 48.93 41.0708 47.5179Z" fill="#DF9176"/>
<path opacity="0.8" d="M33.8969 46.5264C33.9257 47.9628 31.908 49.1658 29.3949 49.2139C26.8818 49.2619 24.8222 48.1359 24.7934 46.6995C24.7645 45.263 26.7822 44.06 29.2953 44.012C31.8084 43.964 33.868 45.09 33.8969 46.5264Z" fill="#FFA485"/>
<path opacity="0.8" d="M60.6904 46.0197C60.7192 47.4537 58.7015 48.6567 56.1884 48.7047C53.6753 48.7527 51.6181 47.6241 51.5893 46.1877C51.5604 44.7513 53.5781 43.5483 56.0912 43.5003C58.6043 43.4523 60.6614 44.5783 60.6904 46.0197Z" fill="#FFA485"/>
<path d="M35.0335 41.2285C35.3611 41.2219 35.6832 41.3126 35.9592 41.4893C36.2352 41.6659 36.4526 41.9205 36.5839 42.2208C36.7152 42.5211 36.7546 42.8537 36.6969 43.1763C36.6393 43.499 36.4873 43.7974 36.2602 44.0336C36.033 44.2698 35.741 44.4333 35.4209 44.5034C35.1009 44.5735 34.7673 44.547 34.4623 44.4273C34.1573 44.3076 33.8946 44.1001 33.7075 43.8311C33.5204 43.562 33.4173 43.2434 33.4112 42.9157C33.4065 42.6982 33.4448 42.4819 33.5238 42.2793C33.6029 42.0766 33.7212 41.8916 33.872 41.7348C34.0227 41.578 34.2029 41.4526 34.4023 41.3657C34.6016 41.2788 34.8161 41.2322 35.0335 41.2285Z" fill="#42210B"/>
<path d="M36.2582 38.6979C36.1729 38.699 36.0884 38.6821 36.01 38.6485C35.3585 38.3974 34.6345 38.4119 33.9936 38.689C33.8466 38.7615 33.6768 38.7726 33.5216 38.7198C33.3663 38.667 33.2384 38.5547 33.166 38.4076C33.0935 38.2605 33.0825 38.0906 33.1352 37.9353C33.188 37.78 33.3002 37.6521 33.4472 37.5796C33.9247 37.3645 34.4408 37.2481 34.9644 37.2376C35.488 37.2271 36.0083 37.3226 36.494 37.5184C36.5686 37.55 36.6363 37.5961 36.693 37.654C36.7498 37.7119 36.7945 37.7804 36.8248 37.8556C36.855 37.9308 36.8701 38.0113 36.8691 38.0924C36.8682 38.1734 36.8513 38.2535 36.8193 38.328C36.7725 38.438 36.6943 38.5318 36.5944 38.5976C36.4946 38.6634 36.3777 38.6983 36.2582 38.6979Z" fill="#42210B"/>
<path d="M50.3543 40.9355C50.6819 40.9285 51.0043 41.0188 51.2806 41.1952C51.5569 41.3715 51.7747 41.6259 51.9064 41.9262C52.0381 42.2264 52.0778 42.559 52.0204 42.8819C51.9631 43.2047 51.8113 43.5032 51.5843 43.7397C51.3572 43.9762 51.0652 44.1399 50.7451 44.2102C50.425 44.2805 50.0912 44.2542 49.7861 44.1346C49.4809 44.015 49.2181 43.8075 49.0309 43.5384C48.8437 43.2692 48.7405 42.9506 48.7344 42.6227C48.7263 42.1843 48.8922 41.7604 49.1958 41.4442C49.4995 41.1279 49.9161 40.945 50.3543 40.9355Z" fill="#42210B"/>
<path d="M51.5818 38.4073C51.4963 38.4087 51.4114 38.391 51.3336 38.3554C50.6821 38.1043 49.9581 38.1189 49.3172 38.3959C49.1719 38.458 49.0084 38.4621 48.8602 38.4073C48.712 38.3524 48.5904 38.2429 48.5204 38.1012C48.4505 37.9594 48.4374 37.7962 48.484 37.6451C48.5306 37.4941 48.6333 37.3666 48.7709 37.289C49.2481 37.0727 49.7642 36.9558 50.288 36.9453C50.8118 36.9348 51.3322 37.0309 51.8177 37.2277C51.9473 37.2829 52.0541 37.3808 52.1206 37.505C52.187 37.6293 52.209 37.7725 52.1829 37.911C52.1568 38.0495 52.0843 38.1749 51.9772 38.2664C51.8702 38.358 51.7351 38.4102 51.5943 38.4145L51.5818 38.4073Z" fill="#42210B"/>
<path d="M43.0844 57.6747C40.2007 57.7326 37.5421 56.5667 36.3133 54.7117C36.2907 54.6781 36.275 54.6404 36.267 54.6007C36.2591 54.5609 36.2591 54.5201 36.267 54.4803C36.2749 54.4406 36.2907 54.4029 36.3132 54.3693C36.3358 54.3357 36.3649 54.3069 36.3986 54.2846C36.467 54.2394 36.5505 54.2231 36.6308 54.239C36.7112 54.255 36.7821 54.302 36.828 54.3699C37.9446 56.0541 40.3958 57.1079 43.0621 57.0568C45.8717 57.0004 48.392 55.7131 49.3364 53.8712C49.3779 53.8054 49.4426 53.7575 49.5176 53.737C49.5926 53.7165 49.6726 53.7248 49.7419 53.7603C49.8111 53.7958 49.8645 53.856 49.8916 53.9289C49.9188 54.0019 49.9176 54.0823 49.8884 54.1545C48.8375 56.2309 46.1633 57.6128 43.0844 57.6747Z" fill="#9B292A"/>
<path d="M25.5671 19.8986C25.7747 17.0026 26.6434 14.1929 28.1065 11.6856C29.591 13.716 29.8085 14.33 29.8085 14.33C29.8085 14.33 31.822 10.0849 34.4296 8.46689C34.877 10.3129 35.1136 11.7501 35.1136 11.7501C35.1136 11.7501 36.9267 7.62278 42.4232 6.45128C41.6647 7.56585 41.0878 8.79376 40.714 10.0892C40.714 10.0892 44.6742 5.78772 53.9779 7.45575C51.5296 8.63773 48.4968 10.9964 48.4968 10.9964C48.4968 10.9964 55.0504 9.28176 58.8357 13.1259C57.0271 13.5209 55.2478 14.0393 53.51 14.6773C53.51 14.6773 61.3315 14.3124 64.3064 18.7887C62.262 19.0774 60.1964 19.1876 58.1329 19.118C59.6244 18.5464 62.6954 20.676 63.964 22.2978C62.9531 22.9083 61.8487 23.3483 60.695 23.6001C59.7187 25.9471 55.1605 29.6473 41.882 30.5745C30.7387 31.3425 23.4204 27.1069 22.3939 24.3697C22.1491 22.5197 23.1561 17.5231 23.8906 16.9197C24.3198 17.7372 25.5671 19.8986 25.5671 19.8986Z" fill="#424638"/>
<path d="M44.3441 72.7708C44.8176 72.7613 45.1938 72.3695 45.1843 71.8957C45.1748 71.4219 44.7832 71.0455 44.3096 71.055C43.836 71.0646 43.4599 71.4564 43.4694 71.9302C43.4789 72.404 43.8705 72.7804 44.3441 72.7708Z" fill="white"/>
<path d="M45.2663 75.9719C45.2697 76.1415 45.2228 76.3084 45.1314 76.4514C45.04 76.5944 44.9083 76.707 44.7529 76.7751C44.5976 76.8432 44.4255 76.8636 44.2585 76.8339C44.0915 76.8041 43.9371 76.7255 43.8148 76.6079C43.6924 76.4903 43.6077 76.3391 43.5713 76.1734C43.5348 76.0076 43.5484 75.8348 43.6101 75.6767C43.6718 75.5187 43.7791 75.3825 43.9182 75.2854C44.0573 75.1883 44.2221 75.1346 44.3916 75.1312C44.5042 75.1289 44.6162 75.1489 44.7211 75.1899C44.826 75.2309 44.9218 75.2922 45.003 75.3703C45.0842 75.4484 45.1493 75.5417 45.1945 75.6449C45.2396 75.7481 45.2641 75.8592 45.2663 75.9719Z" fill="white"/>
<path d="M45.3484 80.0676C45.3518 80.2373 45.3048 80.4041 45.2134 80.5471C45.122 80.6901 44.9903 80.8027 44.835 80.8708C44.6796 80.9389 44.5075 80.9594 44.3405 80.9296C44.1735 80.8998 44.0191 80.8212 43.8968 80.7036C43.7745 80.5861 43.6897 80.4348 43.6533 80.2691C43.6169 80.1033 43.6304 79.9305 43.6921 79.7724C43.7539 79.6144 43.8611 79.4782 44.0002 79.3811C44.1393 79.284 44.3041 79.2303 44.4737 79.2269C44.5863 79.2246 44.6982 79.2446 44.8031 79.2856C44.908 79.3266 45.0038 79.3879 45.085 79.466C45.1662 79.5441 45.2313 79.6374 45.2765 79.7406C45.3217 79.8438 45.3461 79.9549 45.3484 80.0676Z" fill="white"/>
</g>
<defs>
<clipPath id="clip0_4643_7020">
<rect width="84.9186" height="85.8239" fill="white" transform="translate(0.707031 0.515625)"/>
</clipPath>
</defs>
</svg>
