<svg width="86" height="86" viewBox="0 0 86 86" fill="none" xmlns="http://www.w3.org/2000/svg">
<g clip-path="url(#clip0_4643_7024)">
<path d="M43.2011 85.3904C66.6386 85.3904 85.6483 66.3905 85.6604 42.953C85.6725 19.5155 66.6825 0.515625 43.245 0.515625C19.8075 0.515625 0.797792 19.5155 0.785671 42.953C0.773551 66.3905 19.7636 85.3904 43.2011 85.3904Z" fill="white"/>
<path d="M60.1159 15.1125C62.3749 14.4819 64.3175 16.0522 64.3175 16.0522C64.3175 16.0522 64.6215 14.3731 62.6394 13.3048C60.6572 12.2366 59.0408 14.566 59.0408 14.566C59.0408 14.566 59.288 10.8568 58.3661 9.79346C57.4442 8.73015 56.0774 9.03182 55.771 9.48929C56.9425 10.4784 57.4195 11.8929 57.679 12.9809C54.6686 10.2435 48.2674 7.38988 42.1948 7.89434C35.8776 8.42105 27.6622 10.6144 23.164 17.3875C16.5328 27.343 17.954 38.2432 21.7428 45.355C24.7433 49.1459 30.5613 54.3363 42.9041 54.0445C52.5135 53.817 58.3784 51.359 63.6156 46.1686C69.9329 39.3337 68.0248 19.9073 60.1159 15.1125Z" fill="#42210B"/>
<path fill-rule="evenodd" clip-rule="evenodd" d="M17.0176 76.3366C24.517 82.2294 33.7818 85.4228 43.3176 85.4017C52.8533 85.3806 62.104 82.1463 69.5773 76.2203C65.0222 68.7549 54.9952 63.5645 43.332 63.5645C31.6145 63.5645 21.538 68.8068 17.0176 76.3366Z" fill="#C4852E"/>
<path d="M58.1681 66.6465H28.4949C26.8195 67.4037 25.2177 68.3143 23.71 69.3666H62.9506C61.4433 68.3148 59.8424 67.4042 58.1681 66.6465Z" fill="#E38E2D"/>
<path d="M23.7101 69.3594C22.5699 70.1501 21.4954 71.0316 20.4971 71.9954H66.1661C65.1683 71.031 64.0938 70.1495 62.9531 69.3594H23.7101Z" fill="#C0272D"/>
<path d="M69.5773 76.2202L69.382 75.916H17.282C17.1931 76.0545 17.1016 76.193 17.0176 76.3364C18.1001 77.187 19.2255 77.9841 20.3937 78.7276H66.0529C67.2699 77.9528 68.4462 77.1159 69.5773 76.2202Z" fill="#E38E2D"/>
<path d="M43.1618 70.9928C48.5992 70.9928 53.001 68.3395 53.001 65.0581C53.001 64.9715 53.001 64.8874 53.001 64.8108C46.5523 63.1177 39.7721 63.1501 33.3399 64.9048C33.3399 64.9592 33.3399 65.0111 33.3399 65.0655C33.3201 68.3321 37.7269 70.9928 43.1618 70.9928Z" fill="white"/>
<path d="M23.5426 49.7018C21.202 49.6177 19.3558 47.8076 18.7725 45.6167C18.0064 42.7408 18.9876 39.8724 23.5426 40.1765V49.7018Z" fill="#F6C495"/>
<g style="mix-blend-mode:multiply" opacity="0.4">
<path d="M22.0098 40.2042C22.5187 40.1485 23.0316 40.1394 23.5421 40.177V49.7023C23.0169 49.6817 22.499 49.5731 22.0098 49.3809V40.2042Z" fill="#DE8D73"/>
</g>
<path d="M61.7422 49.7018C64.0827 49.6177 65.9314 47.8076 66.5147 45.6167C67.2809 42.7408 66.2997 39.8724 61.7422 40.1765V49.7018Z" fill="#F6C495"/>
<g style="mix-blend-mode:multiply" opacity="0.4">
<path d="M63.2745 40.2043C62.7657 40.1485 62.2527 40.1394 61.7422 40.1771V49.7024C62.2674 49.6818 62.7853 49.5731 63.2745 49.3809V40.2043Z" fill="#DE8D73"/>
</g>
<path d="M36.1965 55.9404L35.4551 65.8836C35.4551 65.8836 36.7872 69.2195 42.9858 69.0983C49.4464 68.9598 50.6649 66.0963 50.6649 66.0963L50.2102 55.9578C44.968 55.9404 36.1965 55.8489 36.1965 55.9404Z" fill="#F6C495"/>
<g style="mix-blend-mode:multiply" opacity="0.6">
<path d="M50.5564 63.9431L50.1981 55.9411C44.9683 55.9411 36.2067 55.8496 36.2067 55.9411L35.5938 63.9233C40.6826 66.3541 46.8244 65.3204 50.5564 63.9431Z" fill="#DE8D73"/>
</g>
<path d="M23.4556 35.692C22.205 45.2939 23.3123 51.518 25.4328 55.1283C28.547 60.4251 35.8578 63.7832 43.3391 63.5359C51.8907 63.2515 57.1451 59.6091 59.8416 55.2792C62.7209 50.6624 62.234 41.5575 61.6508 35.8156C59.9479 33.6519 58.0176 30.8972 57.4689 26.2285C54.4536 28.9832 47.8126 31.958 41.1395 32.3759C40.2621 31.6737 43.0376 28.0535 43.2452 27.6355C39.701 29.9303 33.1762 32.4773 29.7358 32.7246C28.6928 31.8888 30.759 28.3502 30.9716 26.8888C28.1565 27.9867 23.8535 30.6895 23.4556 35.692Z" fill="#F6C495"/>
<path d="M41.0703 47.0664C41.0209 47.5338 40.9912 47.833 40.9912 47.833C41.5226 49.3587 44.8295 49.1634 45.1137 47.7984C45.1137 47.7984 45.0865 47.5511 45.0371 47.1406C44.5132 48.335 41.7895 48.4858 41.0703 47.0664Z" fill="#DF9176"/>
<path opacity="0.8" d="M29.3651 48.529C31.8794 48.529 33.9176 47.3643 33.9176 45.9276C33.9176 44.4909 31.8794 43.3262 29.3651 43.3262C26.8508 43.3262 24.8125 44.4909 24.8125 45.9276C24.8125 47.3643 26.8508 48.529 29.3651 48.529Z" fill="#FFA485"/>
<path opacity="0.8" d="M56.1619 48.529C58.6763 48.529 60.7145 47.3643 60.7145 45.9276C60.7145 44.4909 58.6763 43.3262 56.1619 43.3262C53.6476 43.3262 51.6094 44.4909 51.6094 45.9276C51.6094 47.3643 53.6476 48.529 56.1619 48.529Z" fill="#FFA485"/>
<path d="M35.1535 40.6562C35.4805 40.6562 35.8002 40.7533 36.0721 40.935C36.344 41.1168 36.5559 41.3752 36.681 41.6775C36.8062 41.9798 36.8389 42.3124 36.7751 42.6333C36.7113 42.9542 36.5539 43.249 36.3226 43.4803C36.0914 43.7117 35.7968 43.8693 35.476 43.9331C35.1553 43.9969 34.8228 43.9642 34.5207 43.8389C34.2186 43.7137 33.9603 43.5017 33.7787 43.2296C33.597 42.9576 33.5 42.6378 33.5 42.3106C33.5 42.0933 33.5428 41.8782 33.6259 41.6775C33.7089 41.4768 33.8307 41.2944 33.9843 41.1408C34.1378 40.9872 34.3201 40.8653 34.5207 40.7822C34.7213 40.699 34.9363 40.6562 35.1535 40.6562Z" fill="#42210B"/>
<path d="M36.429 38.1643C36.3436 38.1624 36.2595 38.143 36.1818 38.1074C35.5362 37.8439 34.8131 37.8439 34.1675 38.1074C34.0204 38.1704 33.8546 38.1738 33.7051 38.1169C33.5555 38.06 33.4338 37.9473 33.3656 37.8025C33.2974 37.6577 33.288 37.4921 33.3394 37.3405C33.3908 37.1889 33.4989 37.0631 33.6411 36.9897C34.1232 36.7838 34.6419 36.6777 35.166 36.6777C35.6902 36.6777 36.2089 36.7838 36.691 36.9897C36.8186 37.0484 36.9225 37.1487 36.9857 37.2742C37.049 37.3996 37.0678 37.5429 37.0391 37.6804C37.0104 37.818 36.9359 37.9417 36.8277 38.0314C36.7196 38.1211 36.5842 38.1714 36.4438 38.1741L36.429 38.1643Z" fill="#42210B"/>
<path d="M50.4796 40.6563C50.8067 40.6563 51.1263 40.7533 51.3983 40.935C51.6702 41.1168 51.8821 41.3752 52.0072 41.6775C52.1324 41.9798 52.1651 42.3124 52.1013 42.6333C52.0375 42.9542 51.8801 43.249 51.6488 43.4803C51.4176 43.7117 51.123 43.8693 50.8022 43.9331C50.4815 43.9969 50.149 43.9642 49.8469 43.8389C49.5448 43.7137 49.2865 43.5017 49.1048 43.2296C48.9232 42.9576 48.8262 42.6378 48.8262 42.3106C48.8258 42.0932 48.8684 41.878 48.9514 41.6771C49.0344 41.4762 49.1561 41.2937 49.3097 41.1401C49.4633 40.9864 49.6457 40.8645 49.8465 40.7815C50.0473 40.6985 50.2624 40.6559 50.4796 40.6563Z" fill="#42210B"/>
<path d="M51.7669 38.1642C51.6814 38.1626 51.5973 38.1432 51.5197 38.1073C50.8741 37.8438 50.151 37.8438 49.5054 38.1073C49.3583 38.1702 49.1925 38.1737 49.043 38.1168C48.8934 38.0599 48.7717 37.9472 48.7035 37.8024C48.6353 37.6576 48.6259 37.492 48.6773 37.3404C48.7286 37.1887 48.8368 37.063 48.979 36.9896C49.4606 36.7838 49.979 36.6777 50.5027 36.6777C51.0264 36.6777 51.5447 36.7838 52.0264 36.9896C52.1563 37.0465 52.2627 37.1464 52.3277 37.2725C52.3927 37.3986 52.4123 37.5433 52.3834 37.6822C52.3544 37.8211 52.2785 37.9458 52.1685 38.0353C52.0585 38.1249 51.9211 38.1739 51.7792 38.174L51.7669 38.1642Z" fill="#42210B"/>
<path d="M42.87 57.2521C39.9857 57.2521 37.3511 56.0405 36.1573 54.1611C36.1153 54.092 36.102 54.0091 36.1204 53.9302C36.1388 53.8514 36.1873 53.7829 36.2556 53.7395C36.3239 53.6961 36.4065 53.6813 36.4857 53.6981C36.5648 53.715 36.6341 53.7623 36.6788 53.8298C37.7614 55.5335 40.1933 56.6339 42.8577 56.6339C45.6727 56.6339 48.2209 55.3975 49.2021 53.5701C49.2408 53.4976 49.3066 53.4435 49.3852 53.4196C49.4638 53.3957 49.5486 53.4041 49.621 53.4428C49.6935 53.4814 49.7475 53.5473 49.7714 53.626C49.7953 53.7046 49.787 53.7894 49.7483 53.8619C48.6682 55.9218 45.9644 57.2521 42.87 57.2521Z" fill="#9B292A"/>
</g>
<defs>
<clipPath id="clip0_4643_7024">
<rect width="84.9186" height="84.8864" fill="white" transform="translate(0.763672 0.515625)"/>
</clipPath>
</defs>
</svg>
