<svg width="85" height="86" viewBox="0 0 85 86" fill="none" xmlns="http://www.w3.org/2000/svg">
<g clip-path="url(#clip0_4643_7627)">
<path d="M0.0285575 42.9521C0.0285564 66.3896 19.0284 85.3993 42.4659 85.4114C65.9034 85.4235 84.9033 66.4335 84.9033 42.996C84.9033 19.5585 65.9034 0.548767 42.4659 0.536646C19.0284 0.524524 0.0285585 19.5146 0.0285575 42.9521Z" fill="white"/>
<path d="M60.463 17.6718C62.7195 17.0412 66.412 18.6461 66.412 18.6461C66.412 18.6461 67.0595 15.1841 63.0581 13.3443C61.0117 12.4022 58.8392 15.1841 58.8392 15.1841C58.8392 15.1841 58.5228 10.8888 57.6034 9.81811C56.684 8.74738 55.3148 9.05648 55.0108 9.51395C56.1798 10.5031 56.6593 11.9175 56.9188 13.0056C53.901 10.2533 47.5072 7.40958 41.4371 7.91403C35.1174 8.44074 25.2016 11.3216 20.1151 17.6718C17.866 20.4784 15.1721 24.4349 15.528 25.1545C16.0668 25.1545 18.0786 24.6154 18.9436 24.0739C16.2472 28.9305 18.3653 40.4884 20.9703 45.3797C23.9707 49.1705 29.7912 54.3609 42.1316 54.0691C51.7409 53.8416 56.1971 52.6225 61.4343 47.4346C64.8524 43.7451 66.8445 33.9058 67.1683 28.4953C66.5405 23.3197 64.1011 19.8726 60.463 17.6718Z" fill="#FFD045"/>
<g style="mix-blend-mode:multiply" opacity="0.4">
<path d="M64.2324 36.1165C64.2324 34.0566 64.3362 32.0636 63.5132 30.0037C63.5132 31.2401 62.7396 34.3237 61.8943 33.9602C58.2142 32.3677 55.3126 24.9542 59.0199 20.832C51.2964 28.2505 33.3159 32.521 21.6404 32.16C19.0082 32.0809 23.8846 27.9809 23.976 27.6669C21.9616 28.7727 19.8605 29.7122 17.6934 30.476C17.6934 30.5527 17.6934 30.6318 17.6934 30.7084C18.8599 30.8148 19.9845 30.4612 21.2721 29.9468C20.4466 30.7703 20.2835 32.0611 19.4531 32.8845C19.4308 33.8737 20.7507 33.4162 21.5737 33.4162C21.0448 35.6714 20.7803 37.6595 21.0448 40.9756C21.4798 42.3257 20.4615 44.4375 20.9657 45.3747C23.9661 49.1656 29.7866 54.356 42.127 54.0642C51.7363 53.8367 56.1925 52.6176 61.4297 47.4296C63.9679 44.6898 65.7203 38.5572 66.5853 33.3643C66.0465 33.8885 64.791 35.6269 64.2324 36.1165Z" fill="#EFB445"/>
</g>
<path fill-rule="evenodd" clip-rule="evenodd" d="M16.2578 76.3561C23.7572 82.2489 33.0221 85.4423 42.5578 85.4213C52.0936 85.4002 61.3442 82.1658 68.8175 76.2399C64.2625 68.7744 54.2354 63.584 42.5723 63.584C30.8572 63.584 20.7832 68.8264 16.2578 76.3561Z" fill="#FF0000"/>
<path d="M42.4015 71.0119C47.8389 71.0119 52.2407 68.3586 52.2407 65.0772C52.2407 64.9931 52.2407 64.9065 52.2407 64.8299C45.7912 63.1374 39.0103 63.1698 32.5772 64.9238C32.5772 64.9782 32.5772 65.0302 32.5772 65.0846C32.5624 68.3635 36.9666 71.0119 42.4015 71.0119Z" fill="white"/>
<path d="M22.7853 49.6254C20.4447 49.5364 18.5837 47.5902 18.0127 45.2361C17.2466 42.1451 18.2278 39.0541 22.7853 39.3904V49.6254Z" fill="#F6C495"/>
<g style="mix-blend-mode:multiply" opacity="0.4">
<path d="M21.2529 39.4321C21.7614 39.3704 22.2748 39.3604 22.7853 39.4024V49.6374C22.2576 49.617 21.7382 49.4996 21.2529 49.2912V39.4321Z" fill="#DE8D73"/>
</g>
<path d="M60.7949 49.5316C63.1355 49.4426 64.9817 47.494 65.565 45.1424C66.3336 42.0514 65.35 38.9604 60.7949 39.2967V49.5316Z" fill="#F6C495"/>
<g style="mix-blend-mode:multiply" opacity="0.4">
<path d="M62.3273 39.3242C61.8186 39.2646 61.3054 39.2555 60.7949 39.297V49.532C61.3226 49.5113 61.8419 49.3939 62.3273 49.1858V39.3242Z" fill="#DE8D73"/>
</g>
<path d="M35.4463 55.96L34.6826 65.9032C34.6826 65.9032 36.0148 69.239 42.2134 69.1178C48.674 68.9793 49.8925 66.1158 49.8925 66.1158L49.4402 55.9773C44.2079 55.96 35.4463 55.8685 35.4463 55.96Z" fill="#F6C495"/>
<g style="mix-blend-mode:multiply" opacity="0.6">
<path d="M49.796 63.9626L49.4525 55.9606C44.2202 55.9606 35.4586 55.8691 35.4586 55.9606L34.8457 63.9428C39.9222 66.3637 46.0591 65.34 49.796 63.9626Z" fill="#DE8D73"/>
</g>
<path d="M22.6018 34.6576C21.5217 44.8332 22.5549 51.537 24.6804 55.1523C27.7945 60.4466 35.1053 63.8071 42.5842 63.5598C51.1357 63.2755 56.3902 59.633 59.0891 55.3056C61.966 50.6888 61.4816 41.5839 60.8983 35.8396C59.1929 33.6759 56.793 30.345 56.2444 25.6738C54.9691 26.8336 47.6978 31.7347 38.3949 33.3569C29.1588 34.9815 24.3344 34.4424 22.6018 34.6576Z" fill="#F6C495"/>
<path d="M40.3076 47.0781C40.2582 47.5455 40.2285 47.8447 40.2285 47.8447C40.7599 49.3704 44.0668 49.1751 44.3535 47.8101C44.3535 47.8101 44.3239 47.5628 44.2744 47.1523C43.7529 48.3541 41.0318 48.5049 40.3076 47.0781Z" fill="#DF9176"/>
<path opacity="0.8" d="M28.6053 48.5505C31.1196 48.5505 33.1579 47.3858 33.1579 45.949C33.1579 44.5123 31.1196 43.3477 28.6053 43.3477C26.091 43.3477 24.0527 44.5123 24.0527 45.949C24.0527 47.3858 26.091 48.5505 28.6053 48.5505Z" fill="#FFA485"/>
<path opacity="0.8" d="M55.4041 48.5505C57.9184 48.5505 59.9567 47.3858 59.9567 45.949C59.9567 44.5123 57.9184 43.3477 55.4041 43.3477C52.8898 43.3477 50.8516 44.5123 50.8516 45.949C50.8516 47.3858 52.8898 48.5505 55.4041 48.5505Z" fill="#FFA485"/>
<path d="M34.3962 40.668C34.7231 40.6685 35.0425 40.7659 35.3141 40.948C35.5857 41.13 35.7972 41.3886 35.922 41.6909C36.0468 41.9932 36.0792 42.3258 36.0151 42.6465C35.951 42.9673 35.7933 43.2618 35.562 43.4929C35.3306 43.724 35.036 43.8814 34.7154 43.945C34.3947 44.0086 34.0624 43.9757 33.7604 43.8504C33.4584 43.7252 33.2003 43.5131 33.0187 43.2411C32.8371 42.9691 32.7402 42.6494 32.7402 42.3223C32.7402 42.1048 32.7831 41.8895 32.8663 41.6886C32.9496 41.4878 33.0716 41.3053 33.2254 41.1516C33.3792 40.998 33.5618 40.8762 33.7627 40.7932C33.9635 40.7102 34.1788 40.6676 34.3962 40.668Z" fill="#42210B"/>
<path d="M35.6688 38.172C35.5835 38.1713 35.4993 38.1528 35.4216 38.1176C34.7753 37.8534 34.0512 37.8534 33.4048 38.1176C33.2577 38.1805 33.0919 38.1839 32.9424 38.1271C32.7928 38.0702 32.6711 37.9575 32.6029 37.8127C32.5347 37.6679 32.5253 37.5023 32.5767 37.3507C32.6281 37.1991 32.7362 37.0733 32.8784 36.9999C33.3604 36.7938 33.8791 36.6875 34.4033 36.6875C34.9275 36.6875 35.4463 36.7938 35.9283 36.9999C36.0567 37.0576 36.1616 37.1576 36.2255 37.2832C36.2894 37.4087 36.3085 37.5524 36.2797 37.6903C36.2508 37.8282 36.1758 37.9521 36.0669 38.0415C35.9581 38.1309 35.8219 38.1805 35.6811 38.1819L35.6688 38.172Z" fill="#42210B"/>
<path d="M49.7199 43.9844C50.633 43.9844 51.3733 43.2437 51.3733 42.3301C51.3733 41.4164 50.633 40.6758 49.7199 40.6758C48.8067 40.6758 48.0664 41.4164 48.0664 42.3301C48.0664 43.2437 48.8067 43.9844 49.7199 43.9844Z" fill="#42210B"/>
<path d="M50.9954 38.1722C50.9102 38.171 50.8261 38.1525 50.7482 38.1178C50.1028 37.8535 49.3794 37.8535 48.7339 38.1178C48.5868 38.1808 48.421 38.1842 48.2715 38.1273C48.1219 38.0704 48.0002 37.9577 47.932 37.8129C47.8638 37.6681 47.8544 37.5025 47.9058 37.3509C47.9572 37.1993 48.0653 37.0735 48.2075 37.0001C48.6895 36.7938 49.2082 36.6875 49.7324 36.6875C50.2566 36.6875 50.7754 36.7938 51.2574 37.0001C51.3858 37.0579 51.4907 37.1578 51.5546 37.2834C51.6185 37.4089 51.6376 37.5526 51.6088 37.6905C51.5799 37.8284 51.5049 37.9524 51.396 38.0418C51.2872 38.1312 51.151 38.1807 51.0102 38.1821L50.9954 38.1722Z" fill="#42210B"/>
<path d="M36.2227 52.9263C36.3742 53.3983 36.5843 53.8493 36.848 54.269C37.8143 55.8096 39.5914 57.0139 42.5152 56.9075C45.2339 56.8086 46.7761 55.5178 47.5127 54.269C47.7644 53.8557 47.9386 53.3998 48.0267 52.9238L36.2227 52.9263Z" fill="#861C27"/>
<path d="M37.7822 52.9258V53.0148C37.7822 53.7072 37.9107 54.2759 38.5706 54.2759H45.8073C46.4672 54.2759 46.5488 53.7072 46.5488 53.0148V52.9258H37.7822Z" fill="white"/>
<g opacity="0.8">
<path d="M42.11 55.3301C40.9236 55.3301 39.8658 55.6219 39.1787 56.3192C40.2293 56.7781 41.3735 56.9815 42.5178 56.9127C43.4009 56.8931 44.2727 56.7086 45.0882 56.3687C44.4035 55.6441 43.3259 55.3301 42.11 55.3301Z" fill="#EE7A7D"/>
</g>
<g style="mix-blend-mode:multiply" opacity="0.5">
<path d="M37.7822 52.9264V53.0154C37.7822 53.4729 37.8415 53.8735 38.0714 54.0936C38.1863 53.8226 38.3782 53.5913 38.6235 53.4287C38.8687 53.266 39.1563 53.1791 39.4505 53.1787H45.0535C45.3276 53.1797 45.5962 53.2562 45.8298 53.3997C46.0635 53.5431 46.2532 53.7481 46.3782 53.9922C46.5275 53.6851 46.5907 53.3433 46.5611 53.0031V52.9141L37.7822 52.9264Z" fill="#E8D9EB"/>
</g>
<path fill-rule="evenodd" clip-rule="evenodd" d="M65.0873 78.8798V78.5039H19.2354C22.1968 80.4479 25.3913 82.0106 28.7434 83.1553H56.1774C59.3049 82.0853 62.2956 80.6502 65.0873 78.8798Z" fill="#FFCA00"/>
</g>
<defs>
<clipPath id="clip0_4643_7627">
<rect width="84.8748" height="84.9187" fill="white" transform="translate(0.0283203 0.515625)"/>
</clipPath>
</defs>
</svg>
