<svg width="85" height="85" viewBox="0 0 85 85" fill="none" xmlns="http://www.w3.org/2000/svg">
<g clip-path="url(#clip0_4643_7013)">
<path d="M42.4658 84.8748C65.9033 84.8748 84.913 65.8749 84.9251 42.4374C84.9372 18.9998 65.9472 0 42.5097 0C19.0721 0 0.06244 18.9998 0.0503195 42.4374C0.038199 65.8749 19.0282 84.8748 42.4658 84.8748Z" fill="white"/>
<path d="M22.7681 17.403C27.3874 11.2408 36.9053 8.80754 41.5024 8.67154C48.5042 8.46629 58.4423 12.5242 60.2366 16.3743C64.6656 20.1874 66.0818 22.5564 68.4495 30.4991C69.9473 35.5115 71.1509 41.8196 74.8483 44.0402C75.879 44.6584 76.6006 45.8231 76.2917 47.4403C76.0717 48.6001 74.7099 49.7054 74.3343 50.8404C73.4494 53.516 76.2843 54.8761 76.0297 57.1981C75.8666 58.6818 74.6111 59.5571 72.797 60.937C71.3314 62.0522 72.4608 65.7441 70.9359 67.2229C68.3556 69.7278 64.7941 67.2995 63.5213 70.5191C61.7714 74.9504 55.8249 77.443 50.6495 75.4648C47.6614 74.3322 47.5724 74.0281 42.7183 73.8179C37.9829 73.6101 38.6008 76.2907 32.7877 75.3016C28.6479 74.6042 27.5357 70.4894 23.3588 71.026C19.3425 71.5404 12.3011 70.8357 11.9279 65.0493C11.7228 61.8544 13.27 60.6575 12.7633 58.3727C12.442 56.9261 11.6388 56.2806 9.38719 55.6377C7.32592 55.0492 6.24586 51.7208 8.42575 49.5843C9.58985 48.4443 9.76533 46.6985 8.42575 44.9477C7.40748 43.6149 7.43714 40.284 9.66152 39.2207C11.7994 38.2019 13.2008 36.5006 14.3327 32.9892C15.2299 30.2617 18.6604 19.9698 22.7681 17.403Z" fill="#A46E1B"/>
<path fill-rule="evenodd" clip-rule="evenodd" d="M16.2803 75.817C23.7791 81.711 33.0439 84.9054 42.5799 84.8848C52.1158 84.8641 61.3668 81.6297 68.84 75.7033C64.285 68.2353 54.2579 63.0449 42.5947 63.0449C30.8796 63.0449 20.8007 68.2848 16.2803 75.817Z" fill="#8BC51E"/>
<path fill-rule="evenodd" clip-rule="evenodd" d="M42.5132 70.2098C43.4771 72.7123 46.4479 74.2578 48.9392 73.9981C53.603 73.5159 54.8709 67.7369 54.0429 64.8487L54.0231 64.8116C46.9825 62.5798 39.4434 62.4552 32.3329 64.453C30.3359 65.9169 30.9118 72.5466 34.9503 73.9932C38.2152 75.1653 41.8681 72.7123 42.5132 70.2098Z" fill="white"/>
<path d="M22.8078 48.9639C21.7121 48.9103 20.6612 48.5125 19.8044 47.8271C18.9476 47.1417 18.3285 46.2035 18.0352 45.1459C17.269 42.458 18.2502 39.7774 22.8078 40.0618V48.9639Z" fill="#F6C495"/>
<g style="mix-blend-mode:multiply" opacity="0.4">
<path d="M21.2754 40.0946C21.7846 40.0434 22.2972 40.0351 22.8078 40.0699V48.9721C22.2842 48.9534 21.767 48.8516 21.2754 48.6704V40.0946Z" fill="#DE8D73"/>
</g>
<path d="M61.0078 48.9639C62.1032 48.9102 63.1537 48.5123 64.0101 47.8269C64.8664 47.1414 65.485 46.2033 65.7779 45.1459C66.5441 42.458 65.5629 39.7774 61.0078 40.0618V48.9639Z" fill="#F6C495"/>
<g style="mix-blend-mode:multiply" opacity="0.4">
<path d="M62.5402 40.0946C62.031 40.0434 61.5184 40.0351 61.0078 40.0699V48.972C61.5313 48.9527 62.0484 48.8509 62.5402 48.6703V40.0946Z" fill="#DE8D73"/>
</g>
<path d="M35.4688 55.4274L34.7051 65.3705C34.7051 65.3705 36.9295 70.5165 42.5127 70.4621C47.819 70.3014 49.9273 65.5733 49.9273 65.5733L49.475 55.4348C44.2304 55.4274 35.4688 55.3309 35.4688 55.4274Z" fill="#F6C495"/>
<g style="mix-blend-mode:multiply" opacity="0.6">
<path d="M49.8191 63.4241L49.4632 55.4246C44.231 55.4246 35.4694 55.3306 35.4694 55.4246L34.8564 63.4068C39.9453 65.8252 46.0821 64.8015 49.8191 63.4241Z" fill="#DE8D73"/>
</g>
<path d="M43.5556 24.5918C39.5122 25.6032 34.5444 31.5453 29.9622 35.7986C26.7887 38.7338 23.5757 38.6819 22.1348 39.0948C21.8259 48.677 21.6035 51.0559 23.729 54.6736C26.8431 59.9704 35.1401 63.279 42.6189 63.0292C51.1704 62.7424 57.1862 59.0035 59.8826 54.6736C62.7595 50.0568 61.5336 44.6241 61.7907 38.4618C59.6701 38.9885 53.2836 38.5286 48.4444 33.583C45.1646 30.2521 43.8646 26.0359 43.5556 24.5918Z" fill="#F6C495"/>
<path d="M40.333 45.2441C40.286 45.7115 40.2539 46.0107 40.2539 46.0107C40.7853 47.5365 44.0922 47.3411 44.3789 45.9736C44.3789 45.9736 44.3492 45.7264 44.2998 45.3183C43.7758 46.5251 41.0547 46.671 40.333 45.2441Z" fill="#DF9176"/>
<path opacity="0.8" d="M28.4647 47.8493C30.979 47.8493 33.0172 46.6846 33.0172 45.2479C33.0172 43.8112 30.979 42.6465 28.4647 42.6465C25.9504 42.6465 23.9121 43.8112 23.9121 45.2479C23.9121 46.6846 25.9504 47.8493 28.4647 47.8493Z" fill="#FFA485"/>
<path opacity="0.8" d="M55.9129 47.8493C58.4272 47.8493 60.4655 46.6846 60.4655 45.2479C60.4655 43.8112 58.4272 42.6465 55.9129 42.6465C53.3986 42.6465 51.3604 43.8112 51.3604 45.2479C51.3604 46.6846 53.3986 47.8493 55.9129 47.8493Z" fill="#FFA485"/>
<path d="M34.4186 40.1367C34.7463 40.1367 35.0665 40.2339 35.3389 40.4161C35.6113 40.5982 35.8235 40.8572 35.9488 41.16C36.074 41.4629 36.1067 41.7962 36.0426 42.1176C35.9785 42.4391 35.8205 42.7343 35.5887 42.9659C35.3568 43.1975 35.0616 43.3551 34.7402 43.4188C34.4188 43.4824 34.0858 43.4492 33.7832 43.3235C33.4807 43.1977 33.2223 42.9849 33.0406 42.7122C32.8589 42.4394 32.7622 42.1188 32.7627 41.791C32.7634 41.352 32.9381 40.9313 33.2486 40.6211C33.5591 40.3109 33.9799 40.1367 34.4186 40.1367Z" fill="#42210B"/>
<path d="M34.7847 36.6513C34.0012 36.545 33.4674 36.7181 33.0002 37.1855C32.7788 37.4221 32.6371 37.7222 32.5949 38.0435C32.5935 38.0735 32.5999 38.1033 32.6133 38.1301C32.6267 38.1569 32.6468 38.1798 32.6715 38.1967C32.6963 38.2136 32.725 38.2238 32.7548 38.2264C32.7847 38.2291 32.8147 38.224 32.8421 38.2117C33.3279 37.9883 33.8547 37.8679 34.3892 37.8581C34.9731 37.8568 35.5501 37.9834 36.0798 38.229C36.125 38.0965 36.136 37.9547 36.1118 37.8168C36.0876 37.6789 36.029 37.5493 35.9414 37.4402C35.8182 37.2318 35.6508 37.0531 35.4509 36.9168C35.251 36.7805 35.0235 36.6899 34.7847 36.6513Z" fill="#42210B"/>
<path d="M49.915 36.6513C49.1315 36.545 48.5976 36.7181 48.1305 37.1855C47.9073 37.4212 47.7646 37.7216 47.7227 38.0435C47.722 38.0733 47.7288 38.1027 47.7424 38.1291C47.756 38.1556 47.776 38.1782 47.8005 38.1949C47.8251 38.2116 47.8535 38.2219 47.8831 38.2249C47.9126 38.2278 47.9425 38.2233 47.9699 38.2117C48.4548 37.9883 48.9808 37.8679 49.5146 37.8581C50.0992 37.8568 50.677 37.9834 51.2076 38.229C51.2521 38.0964 51.2628 37.9548 51.2386 37.817C51.2144 37.6792 51.1562 37.5497 51.0692 37.4402C50.9458 37.2326 50.7785 37.0544 50.5792 36.9182C50.3798 36.7819 50.1531 36.6908 49.915 36.6513Z" fill="#42210B"/>
<path d="M49.7423 40.1367C50.0701 40.1362 50.3906 40.2331 50.6633 40.4149C50.936 40.5968 51.1486 40.8555 51.2742 41.1583C51.3998 41.4612 51.4328 41.7945 51.369 42.1161C51.3052 42.4377 51.1475 42.7332 50.9157 42.965C50.684 43.1969 50.3887 43.3547 50.0672 43.4186C49.7458 43.4824 49.4127 43.4494 49.11 43.3237C48.8073 43.198 48.5487 42.9852 48.3669 42.7124C48.1851 42.4396 48.0884 42.1189 48.0889 41.791C48.0895 41.3525 48.2639 40.9321 48.5739 40.622C48.8838 40.3119 49.304 40.1374 49.7423 40.1367Z" fill="#42210B"/>
<path d="M42.1445 55.9206C39.2602 55.9206 36.6231 54.7065 35.4293 52.8296C35.4066 52.7953 35.391 52.7569 35.3834 52.7165C35.3757 52.6762 35.3761 52.6347 35.3847 52.5945C35.3933 52.5543 35.4097 52.5162 35.4332 52.4825C35.4566 52.4487 35.4866 52.42 35.5213 52.398C35.5559 52.3759 35.5946 52.3611 35.6351 52.3542C35.6756 52.3473 35.7171 52.3486 35.7571 52.3579C35.7971 52.3672 35.8348 52.3844 35.8681 52.4085C35.9013 52.4326 35.9294 52.4631 35.9508 52.4982C37.0358 54.202 39.4653 55.3024 42.1445 55.3024C44.9571 55.3024 47.5077 54.066 48.4889 52.2386C48.5299 52.1709 48.5954 52.1216 48.6717 52.1008C48.748 52.0799 48.8294 52.0891 48.8991 52.1265C48.9688 52.1639 49.0215 52.2267 49.0463 52.3018C49.0712 52.377 49.0663 52.4588 49.0327 52.5304C47.9303 54.5927 45.2265 55.9206 42.1445 55.9206Z" fill="#9B292A"/>
<path d="M61.8398 17.6787L62.5813 16.5536L67.9618 15.8711C67.9618 15.8711 67.7592 20.4161 64.6302 20.8167L61.8398 17.6787Z" fill="#FF0000"/>
<path d="M61.7913 16.1738L60.7805 10.7188C60.7805 10.7188 57.3475 12.2346 56.8408 15.0635L61.1833 16.881L61.7913 16.1738Z" fill="#FF0000"/>
<path d="M60.713 17.1503C60.713 17.1503 61.5088 15.6913 61.7733 15.7581C62.0377 15.8248 62.7619 16.2873 62.7619 16.5544C62.7619 16.8214 62.0995 18.1444 61.835 18.1444C61.5706 18.1444 60.5153 17.6795 60.713 17.1503Z" fill="#C30000"/>
<path d="M22.9212 16.6784L21.9326 15.8871L21.416 11.122C21.416 11.122 25.2345 10.897 26.5667 14.4554L22.9212 16.6784Z" fill="#FF0000"/>
<path d="M21.4386 16.8518L16.76 16.4883C16.76 16.4883 16.1545 20.4275 19.2859 21.3375L22.3012 17.5961L21.4386 16.8518Z" fill="#FF0000"/>
<path d="M22.3375 17.79C22.3375 17.79 20.9559 16.8652 21.0473 16.6056C21.1388 16.3459 21.6652 15.6634 21.9296 15.6882C22.1941 15.7129 23.4521 16.4918 23.4274 16.7564C23.4027 17.021 22.8466 18.0349 22.3375 17.79Z" fill="#C30000"/>
</g>
<defs>
<clipPath id="clip0_4643_7013">
<rect width="84.9187" height="84.8857" fill="white" transform="translate(0.0283203)"/>
</clipPath>
</defs>
</svg>
