<svg width="85" height="85" viewBox="0 0 85 85" fill="none" xmlns="http://www.w3.org/2000/svg">
<path d="M42.9716 84.7578C66.1676 84.7578 84.9717 65.9538 84.9717 42.7578C84.9717 19.5618 66.1676 0.757812 42.9716 0.757812C19.7757 0.757812 0.97168 19.5618 0.97168 42.7578C0.97168 65.9538 19.7757 84.7578 42.9716 84.7578Z" fill="white"/>
<path fill-rule="evenodd" clip-rule="evenodd" d="M17.0234 75.7876C24.4479 81.6184 33.6201 84.7782 43.0604 84.7573C52.5007 84.7364 61.6588 81.5361 69.0574 75.6726C64.5481 68.286 54.6219 63.1504 43.0735 63.1504C31.4761 63.1504 21.5009 68.3374 17.0234 75.7876Z" fill="#966D3E"/>
<path fill-rule="evenodd" clip-rule="evenodd" d="M42.9955 83.6953C47.632 80.6052 54.9354 72.0784 57.6341 66.1427C48.6812 62.3042 38.5754 62.153 29.5117 65.7219C30.9651 70.6471 38.2024 80.7593 42.9955 83.6953Z" fill="#FDDFB0"/>
<g style="mix-blend-mode:multiply">
<path d="M43.0595 63.8075C43.0595 63.8075 34.8117 63.5775 31.7533 65.207C31.5503 69.2857 36.3555 74.6121 36.3555 74.6121L42.7169 70.1029L49.4992 74.9204C49.4992 74.9204 54.7547 71.0571 53.7785 65.4125C53.4311 63.4331 43.0595 63.8075 43.0595 63.8075Z" fill="#DED5D3"/>
</g>
<path d="M42.937 63.1278C42.937 63.1278 34.6867 62.8978 31.6283 64.5298C31.4253 68.606 36.233 73.9324 36.233 73.9324L42.7119 70.0422L49.3718 74.2407C49.3718 74.2407 54.6273 70.3774 53.6486 64.7328C53.3061 62.7535 42.937 63.1278 42.937 63.1278Z" fill="white"/>
<path d="M23.8939 49.5354C21.5769 49.4522 19.7467 47.6563 19.1693 45.4861C18.4108 42.6308 19.3846 39.7853 23.8939 40.0887V49.5354Z" fill="#FFC3A2"/>
<g style="mix-blend-mode:multiply" opacity="0.4">
<path d="M22.377 40.1101C22.8807 40.0548 23.3885 40.0458 23.8939 40.0831V49.5298C23.3739 49.5107 22.8609 49.4031 22.377 49.2118V40.1101Z" fill="#DE8D73"/>
</g>
<path d="M60.8936 49.5354C63.213 49.4522 65.053 47.6563 65.6181 45.4861C66.3766 42.6308 65.4053 39.7853 60.8936 40.0887V49.5354Z" fill="#FFC3A2"/>
<g style="mix-blend-mode:multiply" opacity="0.4">
<path d="M62.4129 40.1101C61.9084 40.0548 61.3998 40.0458 60.8936 40.0832V49.5299C61.4144 49.5104 61.9281 49.4029 62.4129 49.2118V40.1101Z" fill="#DE8D73"/>
</g>
<path d="M36.0153 55.607L35.2568 65.4452C35.2568 65.4452 37.9482 69.1152 42.7658 69.9814C48.6966 69.0027 50.3163 65.6458 50.3163 65.6458L49.8661 55.6144C44.6962 55.607 36.0153 55.5238 36.0153 55.607Z" fill="#FFC3A2"/>
<g style="mix-blend-mode:multiply" opacity="0.6">
<path d="M50.2278 63.5261L49.873 55.6086C44.6958 55.6086 36.0223 55.5181 36.0223 55.6086L35.4131 63.5065C40.4533 65.9018 46.5358 64.8889 50.2278 63.5261Z" fill="#DE8D73"/>
</g>
<path d="M23.4002 35.577C22.5634 46.9321 23.2583 51.2358 25.3575 54.808C28.4404 60.0464 35.6777 63.3715 43.0838 63.1268C51.5494 62.8454 56.7511 59.2414 59.4204 54.9597C62.2684 50.3917 61.3313 42.1194 61.3313 35.7042C60.7466 31.6231 61.4708 18.4819 41.2146 19.0887C26.6445 19.5291 23.4369 29.8762 23.4002 35.577Z" fill="#FFC3A2"/>
<path d="M40.8376 46.8203C40.7887 47.2827 40.7568 47.5788 40.7568 47.5788C41.2829 49.0884 44.559 48.8951 44.8404 47.5445C44.8404 47.5445 44.8135 47.2999 44.7646 46.8937C44.2434 48.0828 41.5496 48.2321 40.8376 46.8203Z" fill="#DF9176"/>
<path opacity="0.8" d="M29.25 48.2768C31.739 48.2768 33.7568 47.1244 33.7568 45.7028C33.7568 44.2813 31.739 43.1289 29.25 43.1289C26.7609 43.1289 24.7432 44.2813 24.7432 45.7028C24.7432 47.1244 26.7609 48.2768 29.25 48.2768Z" fill="#FF8679"/>
<path opacity="0.8" d="M55.7773 48.2768C58.2664 48.2768 60.2841 47.1244 60.2841 45.7028C60.2841 44.2813 58.2664 43.1289 55.7773 43.1289C53.2883 43.1289 51.2705 44.2813 51.2705 45.7028C51.2705 47.1244 53.2883 48.2768 55.7773 48.2768Z" fill="#FF8679"/>
<path d="M35.754 40.4844C36.0778 40.4844 36.3942 40.5804 36.6634 40.7602C36.9326 40.9401 37.1424 41.1957 37.2663 41.4948C37.3902 41.7939 37.4226 42.123 37.3594 42.4405C37.2963 42.7581 37.1404 43.0497 36.9115 43.2786C36.6826 43.5076 36.3909 43.6634 36.0734 43.7266C35.7558 43.7898 35.4267 43.7573 35.1276 43.6335C34.8286 43.5096 34.5729 43.2998 34.393 43.0306C34.2132 42.7614 34.1172 42.4449 34.1172 42.1212C34.1169 41.9062 34.159 41.6932 34.2411 41.4944C34.3233 41.2957 34.4438 41.1151 34.5959 40.9631C34.748 40.811 34.9286 40.6905 35.1273 40.6083C35.326 40.5262 35.539 40.4841 35.754 40.4844Z" fill="#42210B"/>
<path d="M37.0135 38.006C36.9291 38.0054 36.8457 37.987 36.7688 37.9522C36.129 37.6909 35.4121 37.6909 34.7723 37.9522C34.6272 38.0108 34.4653 38.0115 34.3197 37.9543C34.1741 37.8972 34.0559 37.7864 33.9895 37.6448C33.9231 37.5031 33.9135 37.3414 33.9626 37.1929C34.0117 37.0444 34.1158 36.9204 34.2536 36.8463C34.7303 36.6423 35.2435 36.5371 35.762 36.5371C36.2805 36.5371 36.7936 36.6423 37.2703 36.8463C37.3975 36.9035 37.5013 37.0024 37.5646 37.1266C37.6279 37.2508 37.6468 37.393 37.6182 37.5294C37.5897 37.6659 37.5154 37.7885 37.4076 37.877C37.2998 37.9654 37.1651 38.0144 37.0257 38.0158L37.0135 38.006Z" fill="#42210B"/>
<path d="M49.4894 43.7581C50.3934 43.7581 51.1262 43.0252 51.1262 42.1212C51.1262 41.2172 50.3934 40.4844 49.4894 40.4844C48.5854 40.4844 47.8525 41.2172 47.8525 42.1212C47.8525 43.0252 48.5854 43.7581 49.4894 43.7581Z" fill="#42210B"/>
<path d="M50.7511 38.0061C50.6668 38.0049 50.5835 37.9866 50.5064 37.9523C49.8675 37.6908 49.1514 37.6908 48.5124 37.9523C48.3668 38.0146 48.2026 38.018 48.0546 37.9617C47.9065 37.9054 47.786 37.7939 47.7185 37.6507C47.651 37.5074 47.6417 37.3435 47.6926 37.1935C47.7434 37.0435 47.8505 36.919 47.9912 36.8464C48.4684 36.6423 48.982 36.5371 49.5009 36.5371C50.0198 36.5371 50.5334 36.6423 51.0105 36.8464C51.1376 36.9036 51.2415 37.0025 51.3047 37.1267C51.368 37.2509 51.3869 37.393 51.3584 37.5295C51.3298 37.666 51.2555 37.7886 51.1478 37.8771C51.04 37.9655 50.9052 38.0145 50.7658 38.0159L50.7511 38.0061Z" fill="#42210B"/>
<path d="M42.6213 56.9029C39.766 56.9029 37.1579 55.704 35.9761 53.8445C35.9544 53.8109 35.9396 53.7732 35.9325 53.7338C35.9254 53.6943 35.9262 53.6539 35.9349 53.6148C35.9435 53.5756 35.9598 53.5386 35.9829 53.5058C36.0059 53.473 36.0352 53.4451 36.069 53.4237C36.1376 53.3804 36.2206 53.3659 36.2998 53.3833C36.379 53.4007 36.4482 53.4486 36.4923 53.5167C37.564 55.2025 39.9715 56.2912 42.6213 56.2912C45.4081 56.2912 47.9306 55.0679 48.902 53.2598C48.9402 53.1881 49.0055 53.1345 49.0833 53.1109C49.161 53.0873 49.245 53.0955 49.3167 53.1338C49.3884 53.1721 49.442 53.2373 49.4656 53.315C49.4892 53.3928 49.481 53.4768 49.4427 53.5485C48.3588 55.5866 45.6821 56.9029 42.6213 56.9029Z" fill="#9B292A"/>
<path d="M20.2655 40.9792C22.0466 39.5111 23.155 41.9701 23.155 41.9701C23.2602 39.2787 24.623 33.3479 27.6716 29.695C32.1515 24.3123 35.0386 23.73 35.0386 23.73C35.2833 26.7002 36.6266 28.939 37.6811 28.8484C39.565 28.6845 40.4042 22.2424 40.4042 22.2424C40.3357 23.3874 41.1603 28.3371 42.6332 28.4325C44.5441 28.5573 44.9453 25.2127 45.3563 22.9837C45.2585 24.6083 46.5161 28.271 47.8324 28.2661C49.3836 28.2661 49.8607 26.4972 50.3085 24.3049C52.7845 30.177 56.7482 28.1854 56.7482 28.1854C61.5339 32.3105 61.4483 41.2018 61.4483 41.2018C61.4483 41.2018 62.4857 39.9785 64.5874 40.9767C65.0254 40.3381 65.2969 37.4535 64.9984 35.2784C65.5783 35.6943 65.845 35.7065 66.2389 34.5444C66.5912 31.8285 65.5318 29.3867 64.7709 27.8991C65.1134 27.5639 65.9698 30.1012 66.5863 30.3091C67.3203 30.0057 66.7013 26.3577 65.6688 24.1459C64.514 21.6698 63.4399 20.1822 61.7541 18.5919C65.5196 20.1455 64.2522 17.0627 58.6689 14.2099C63.1439 15.3476 60.4353 11.6506 53.7559 9.57337C47.5975 7.65761 40.4654 8.25216 34.5835 12.5877C31.8163 11.1564 25.2641 15.7342 23.067 18.3668C18.6336 23.6835 18.0023 29.5091 18.7045 30.04C19.0544 30.3042 19.2893 30.2504 19.7664 29.4283C18.2005 37.9086 20.2655 40.9792 20.2655 40.9792Z" fill="#603913"/>
</svg>
