<svg width="85" height="86" viewBox="0 0 85 86" fill="none" xmlns="http://www.w3.org/2000/svg">
<g clip-path="url(#clip0_4643_7019)">
<path d="M42.4657 85.6326C65.9033 85.6326 84.9129 66.6327 84.9251 43.1952C84.9372 19.7577 65.9472 0.757812 42.5096 0.757812C19.0721 0.757812 0.06244 19.7577 0.0503195 43.1952C0.038199 66.6327 19.0282 85.6326 42.4657 85.6326Z" fill="white"/>
<path fill-rule="evenodd" clip-rule="evenodd" d="M16.2803 76.5748C23.7798 82.4672 33.0443 85.6605 42.5798 85.6399C52.1154 85.6192 61.366 82.3858 68.84 76.4611C64.2849 68.9932 54.2579 63.8027 42.5947 63.8027C30.8796 63.8027 20.8007 69.0451 16.2803 76.5748Z" fill="#534741"/>
<path d="M42.0211 71.9288C47.4585 71.8645 53.1727 70.1089 52.2632 65.3042C52.2585 65.2218 52.2585 65.1393 52.2632 65.0569C45.8145 63.363 39.0339 63.3963 32.6021 65.1533C32.6021 65.2052 32.6194 65.2646 32.6021 65.3116C31.1859 68.0811 35.3776 72.008 42.0211 71.9288Z" fill="white"/>
<path d="M52.268 65.3046C52.2633 65.2223 52.2633 65.1397 52.268 65.0573C51.9936 64.9856 51.7119 64.9164 51.4326 64.8496C51.6798 66.7141 51.0816 67.6662 50.0238 68.455C48.0021 69.9634 45.753 70.5123 42.1149 70.5915C38.635 70.6657 36.8159 70.1958 35.2762 68.9594C33.8377 67.8046 33.4176 66.6028 33.5313 64.9139C33.2198 64.9906 32.9109 65.0672 32.6069 65.1612C32.6069 65.2131 32.6242 65.2725 32.6069 65.3195C31.208 68.0964 35.3997 72.0233 42.0432 71.9441C47.4534 71.865 53.1726 70.1118 52.268 65.3046Z" fill="#989898"/>
<path d="M23.5817 50.4625C21.2411 50.3759 19.3949 48.4644 18.8116 46.1573C18.0454 43.1231 19.0266 40.0964 23.5817 40.4204V50.4625Z" fill="#904D2F"/>
<g style="mix-blend-mode:multiply" opacity="0.4">
<path d="M22.0488 40.4375C22.5575 40.3779 23.0708 40.3688 23.5812 40.4103V50.4524C23.0543 50.4318 22.5353 50.317 22.0488 50.1136V40.4375Z" fill="#DE8D73"/>
</g>
<path d="M60.6201 50.4625C62.9607 50.3759 64.8069 48.4644 65.3902 46.1573C66.1588 43.1231 65.1752 40.0964 60.6201 40.4204V50.4625Z" fill="#904D2F"/>
<g style="mix-blend-mode:multiply" opacity="0.4">
<path d="M62.1544 40.4375C61.6458 40.3779 61.1325 40.3688 60.6221 40.4103V50.4524C61.149 50.4318 61.6679 50.3171 62.1544 50.1136V40.4375Z" fill="#DE8D73"/>
</g>
<path d="M35.462 56.1819L34.6982 66.1226C34.6982 66.1226 36.0304 69.4584 42.229 69.3372C48.6921 69.1988 49.9081 66.3352 49.9081 66.3352L49.4558 56.1967C44.231 56.1818 35.462 56.0879 35.462 56.1819Z" fill="#904D2F"/>
<g style="mix-blend-mode:multiply" opacity="0.6">
<path d="M49.8216 64.1761L49.4632 56.1765C44.231 56.1765 35.4694 56.0826 35.4694 56.1765L34.8564 64.1563C39.9478 66.5821 46.0896 65.5584 49.8216 64.1761Z" fill="#DE8D73"/>
</g>
<path d="M22.7214 35.9344C22.4223 45.9864 22.578 51.7604 24.6986 55.3707C27.8127 60.665 35.1235 64.0256 42.6024 63.7783C51.1539 63.4939 56.4109 59.8515 59.1073 55.524C61.9842 50.9073 61.7099 42.4972 61.7099 35.2024C61.5616 29.5916 59.5003 17.4451 41.117 18.0806C26.2038 18.5975 22.1158 28.5456 22.7214 35.9344Z" fill="#904D2F"/>
<g style="mix-blend-mode:multiply" opacity="0.6">
<path d="M40.3355 47.2969C40.286 47.7642 40.2539 48.0634 40.2539 48.0634C40.7853 49.5892 44.0922 49.3938 44.3789 48.0288C44.3789 48.0288 44.3492 47.7816 44.2998 47.3711C43.7758 48.5729 41.0547 48.7237 40.3355 47.2969Z" fill="#904D2F"/>
</g>
<path opacity="0.53" d="M28.6278 48.7712C31.1421 48.7712 33.1803 47.6065 33.1803 46.1698C33.1803 44.7331 31.1421 43.5684 28.6278 43.5684C26.1134 43.5684 24.0752 44.7331 24.0752 46.1698C24.0752 47.6065 26.1134 48.7712 28.6278 48.7712Z" fill="#FA6F6D"/>
<path opacity="0.53" d="M55.4266 48.7712C57.9409 48.7712 59.9792 47.6065 59.9792 46.1698C59.9792 44.7331 57.9409 43.5684 55.4266 43.5684C52.9123 43.5684 50.874 44.7331 50.874 46.1698C50.874 47.6065 52.9123 48.7712 55.4266 48.7712Z" fill="#FA6F6D"/>
<path d="M34.4191 44.2032C35.3323 44.2032 36.0725 43.4625 36.0725 42.5488C36.0725 41.6352 35.3323 40.8945 34.4191 40.8945C33.5059 40.8945 32.7656 41.6352 32.7656 42.5488C32.7656 43.4625 33.5059 44.2032 34.4191 44.2032Z" fill="black"/>
<path d="M35.8354 37.6704C35.727 37.7014 35.6133 37.7089 35.5017 37.6926C34.6082 37.5899 33.7101 37.842 33.0005 38.3949C32.8402 38.5251 32.6356 38.5879 32.4299 38.5699C32.2241 38.552 32.0334 38.4548 31.898 38.2988C31.7627 38.1428 31.6932 37.9402 31.7043 37.7339C31.7154 37.5276 31.8062 37.3337 31.9575 37.1931C32.4822 36.7686 33.0871 36.4545 33.7361 36.2697C34.385 36.0848 35.0646 36.0331 35.734 36.1174C35.9138 36.1444 36.0789 36.232 36.2019 36.3658C36.325 36.4997 36.3985 36.6716 36.4104 36.853C36.4222 37.0345 36.3716 37.2145 36.267 37.3632C36.1624 37.5119 36.0101 37.6203 35.8354 37.6704Z" fill="black"/>
<path d="M49.0353 40.8945C48.7083 40.8945 48.3886 40.9915 48.1167 41.1733C47.8448 41.3551 47.6329 41.6135 47.5077 41.9158C47.3826 42.2181 47.3498 42.5507 47.4136 42.8716C47.4774 43.1925 47.6349 43.4873 47.8661 43.7186C48.0974 43.95 48.392 44.1075 48.7127 44.1714C49.0335 44.2352 49.3659 44.2024 49.6681 44.0772C49.9702 43.952 50.2284 43.74 50.4101 43.4679C50.5918 43.1959 50.6888 42.8761 50.6888 42.5489C50.6881 42.1103 50.5137 41.6899 50.2038 41.3798C49.8938 41.0697 49.4736 40.8952 49.0353 40.8945Z" fill="black"/>
<path d="M47.6196 37.6704C47.728 37.7014 47.8418 37.7089 47.9533 37.6926C48.8468 37.5899 49.7449 37.842 50.4545 38.3949C50.6148 38.5251 50.8195 38.5879 51.0252 38.5699C51.2309 38.552 51.4216 38.4548 51.557 38.2988C51.6924 38.1428 51.7618 37.9402 51.7507 37.7339C51.7396 37.5276 51.6488 37.3337 51.4975 37.1931C50.9728 36.7686 50.3679 36.4545 49.719 36.2697C49.07 36.0848 48.3904 36.0331 47.721 36.1174C47.5412 36.1444 47.3761 36.232 47.2531 36.3658C47.1301 36.4997 47.0565 36.6716 47.0447 36.853C47.0328 37.0345 47.0834 37.2145 47.188 37.3632C47.2926 37.5119 47.4449 37.6203 47.6196 37.6704Z" fill="black"/>
<path d="M36.4512 52.9648C36.5951 53.6083 36.7995 54.2367 37.0616 54.8417C37.9934 56.9906 39.7136 58.6696 42.541 58.5237C45.1757 58.3853 46.6611 56.5826 47.3729 54.8417C47.6197 54.2406 47.7859 53.6096 47.8672 52.9648H36.4512Z" fill="#5C1C27"/>
<path d="M37.958 52.9648V53.0464C37.958 53.6943 38.0816 54.2235 38.7192 54.2235H45.7211C46.3563 54.2235 46.4626 53.6943 46.4626 53.0464V52.9648H37.958Z" fill="white"/>
<g opacity="0.8">
<path d="M42.1356 56.7285C40.9864 56.7285 39.7778 57.0673 39.3008 57.6954C40.1552 58.2305 41.1403 58.52 42.1482 58.5322C43.1561 58.5444 44.1479 58.2789 45.015 57.7646C44.6418 56.956 43.3195 56.7285 42.1356 56.7285Z" fill="#C1645D"/>
</g>
<g style="mix-blend-mode:multiply" opacity="0.5">
<path d="M37.958 52.9648V53.0464C37.958 53.4742 38.0173 53.8452 38.2373 54.0529C38.3532 53.7966 38.5411 53.5795 38.778 53.428C39.0149 53.2766 39.2908 53.1973 39.5719 53.1997H44.992C45.2537 53.1988 45.5108 53.2687 45.7362 53.4019C45.9615 53.5351 46.1467 53.7267 46.2723 53.9564C46.4148 53.6755 46.4764 53.3604 46.4502 53.0464V52.9648H37.958Z" fill="#E8D9EB"/>
</g>
<path d="M19.5945 39.2739C17.0439 40.0998 15.7389 36.8382 17.0439 34.719C14.4364 35.2135 14.1695 31.8901 16.2382 31.5043C15.2496 30.9702 14.9011 27.7481 16.3914 27.5478C14.2956 27.5256 13.7419 25.3025 13.9471 23.4701C14.1942 21.2446 16.8808 19.3925 17.3701 21.0245C15.7834 19.6694 17.5333 17.2708 20.1926 18.3934C19.1571 16.8924 17.5333 14.3356 21.7621 14.4369C20.7537 13.9424 20.808 12.7604 21.7126 11.9073C21.9936 11.6224 22.3296 11.3977 22.7001 11.2468C23.0706 11.0959 23.4679 11.0219 23.8678 11.0294C23.7096 9.08082 25.845 8.51209 27.2983 9.72377C26.9202 7.84196 29.7328 7.87409 30.5508 8.93493C29.629 6.87507 32.5009 4.36765 34.3447 6.68715C33.796 4.07833 36.1291 4.07832 37.2265 5.03777C37.2611 3.98682 39.3619 3.39087 39.8364 4.35279C39.4632 2.62182 41.2724 3.04715 42.4464 3.80136C43.131 3.2524 44.955 2.81225 46.5639 3.66537C47.3968 4.11295 47.5525 4.22918 48.1853 5.27518C48.0098 3.50217 50.5802 4.43441 50.8002 5.91316C51.3241 4.0536 53.2445 4.24401 53.3631 6.3187C53.8896 5.69555 54.977 5.06744 55.847 5.53233C56.67 5.97249 56.5761 7.2633 56.7862 7.5996C57.199 8.26726 58.3507 7.69604 58.8672 7.97052C60.9112 9.05362 59.6903 10.0427 60.6196 10.4433C61.361 10.7673 61.801 9.96361 62.9033 10.2554C64.139 10.5793 64.233 12.4809 64.0031 13.6877C64.8261 13.4132 65.7876 13.5517 66.3362 13.9646C66.969 14.4369 67.2458 14.8351 66.8849 15.201C66.4672 15.6288 66.5562 16.7441 67.1494 16.8405C67.6437 16.9196 68.1627 16.9938 68.4642 17.3969C69.1143 18.2649 69.7667 19.4815 69.4207 20.211C68.6793 21.7936 70.7727 21.9988 70.3179 24.2664C70.0089 25.8119 69.7643 26.6057 68.8078 26.6032C69.6333 26.8777 70.4934 28.1883 70.4069 29.6893C70.3204 31.1903 69.3787 32.4094 68.1429 32.303C69.873 33.4628 67.7079 37.0929 65.9927 36.356C66.749 37.7902 65.8098 39.2962 64.4875 38.8041C64.4875 40.7601 61.6527 41.9396 61.4179 41.8729C61.3882 39.2937 61.4871 36.2002 61.3882 34.0736C58.9463 33.9846 58.0072 30.5795 58.2691 28.0102C56.7862 28.3094 55.113 26.5266 54.8683 24.7758C53.6325 26.4647 51.4971 25.1022 51.7468 23.7867C50.6296 25.258 48.4744 23.9573 48.9984 22.3203C47.3029 25.0156 44.8141 23.2946 43.6179 21.3312C42.1522 23.616 40.1429 22.9879 39.7029 21.6971C39.7721 24.0661 35.7065 24.1304 35.007 22.2881C35.5977 24.6002 32.6047 23.344 31.5469 22.9434C31.6235 24.0661 31.6779 25.0305 30.5459 25.5003C29.9033 25.7649 29.0852 25.7179 28.7516 25.1096C29.7402 27.12 26.1219 29.0117 24.8836 28.0028C25.153 29.3282 25.6448 31.2175 23.764 31.4376C24.9726 32.716 24.5327 36.3387 22.7408 37.1547C22.5777 38.95 22.5777 40.5796 22.4146 42.7012C20.7932 42.8743 19.3276 40.7527 19.5945 39.2739Z" fill="black"/>
</g>
<defs>
<clipPath id="clip0_4643_7019">
<rect width="84.9186" height="84.8829" fill="white" transform="translate(0.0283203 0.757812)"/>
</clipPath>
</defs>
</svg>
