<svg width="94" height="102" viewBox="0 0 94 102" fill="none" xmlns="http://www.w3.org/2000/svg">
<g clip-path="url(#clip0_4643_7014)" filter="url(#filter0_d_4643_7014)">
<path d="M47.1445 93.9529C70.582 93.9529 89.5917 74.953 89.6038 51.5155C89.6159 28.078 70.6259 9.07812 47.1884 9.07812C23.7508 9.07812 4.74115 28.078 4.72903 51.5155C4.71691 74.953 23.7069 93.9529 47.1445 93.9529Z" fill="white"/>
<path fill-rule="evenodd" clip-rule="evenodd" d="M20.957 84.8971C28.4564 90.7909 37.7216 93.9851 47.2579 93.9645C56.7941 93.9438 66.0454 90.7095 73.5192 84.7834C68.9642 77.3155 58.9371 72.125 47.2715 72.125C35.5564 72.125 25.4799 77.3698 20.957 84.8971Z" fill="#C11824"/>
<path fill-rule="evenodd" clip-rule="evenodd" d="M63.8211 76.0458C62.629 75.4184 61.3981 74.8675 60.136 74.3965C59.9606 78.2615 59.5503 84.0405 59.1474 85.8852C56.8118 87.8634 38.5521 87.3268 35.6678 86.7086C35.0499 83.2071 34.1231 75.6032 33.8241 74.6314C32.6393 75.1016 31.4839 75.6425 30.3639 76.2511C30.3985 80.7022 29.4741 85.1532 28.4707 89.6043C34.2239 92.4318 40.5424 93.9187 46.9521 93.9534C53.3618 93.9881 59.6961 92.5696 65.4795 89.8046C64.5823 85.2249 63.9002 80.6354 63.8211 76.0458Z" fill="#004061"/>
<path d="M27.485 58.7853C25.1444 58.6888 23.2982 56.5325 22.7149 53.9311C21.9487 50.5112 22.9299 47.0987 27.485 47.4622V58.7853Z" fill="#904D2F"/>
<g style="mix-blend-mode:multiply" opacity="0.4">
<path d="M25.9551 47.4949C26.4632 47.4286 26.977 47.4178 27.4874 47.4627V58.7858C26.9565 58.7617 26.4356 58.6322 25.9551 58.4049V47.4949Z" fill="#DE8D73"/>
</g>
<path d="M65.2529 58.7853C67.5935 58.6888 69.4397 56.5325 70.023 53.9311C70.7892 50.5112 69.808 47.0987 65.2529 47.4622V58.7853Z" fill="#904D2F"/>
<g style="mix-blend-mode:multiply" opacity="0.4">
<path d="M66.7892 47.4949C66.2811 47.4286 65.7673 47.4178 65.2568 47.4627V58.7858C65.7878 58.7617 66.3087 58.6322 66.7892 58.4049V47.4949Z" fill="#DE8D73"/>
</g>
<path d="M40.149 64.505L39.3828 74.4482C39.3828 74.4482 40.6507 81.2088 46.8493 81.0778C52.7365 80.3829 54.5951 74.6484 54.5951 74.6484L54.1404 64.5099C48.9106 64.5049 40.149 64.4011 40.149 64.505Z" fill="#904D2F"/>
<g style="mix-blend-mode:multiply" opacity="0.6">
<path d="M54.4985 72.5042L54.1302 64.5047C48.9004 64.5047 40.1388 64.4107 40.1388 64.5047L39.5234 72.4869C44.6247 74.9053 50.759 73.8816 54.4985 72.5042Z" fill="#DE8D73"/>
</g>
<path d="M27.4877 45.0821C26.2371 54.684 27.2554 60.0772 29.3809 63.6925C32.495 68.9893 39.8058 72.3474 47.2872 72.1001C55.8387 71.8132 61.0932 68.1708 63.7896 63.8433C66.6665 59.2266 66.5849 52.137 66.3476 45.4283C66.0461 40.8165 66.5948 37.7625 63.713 29.4959C60.1219 24.8248 54.9736 22.4286 45.9946 22.1912C39.3807 22.0132 36.3111 23.2669 30.5499 31.5335C27.7398 32.6339 27.8856 40.0771 27.4877 45.0821Z" fill="#904D2F"/>
<g style="mix-blend-mode:multiply" opacity="0.6">
<path d="M45.0127 55.6191C44.9633 56.0865 44.9336 56.3882 44.9336 56.3882C45.465 57.9114 48.7719 57.7186 49.0561 56.3511C49.0561 56.3511 49.0289 56.1038 48.9795 55.6933C48.4456 56.8951 45.727 57.0484 45.0127 55.6191Z" fill="#904D2F"/>
</g>
<path opacity="0.53" d="M33.3075 57.0934C35.8218 57.0934 37.86 55.9287 37.86 54.492C37.86 53.0553 35.8218 51.8906 33.3075 51.8906C30.7931 51.8906 28.7549 53.0553 28.7549 54.492C28.7549 55.9287 30.7931 57.0934 33.3075 57.0934Z" fill="#FA6F6D"/>
<path opacity="0.53" d="M60.1043 57.0934C62.6186 57.0934 64.6569 55.9287 64.6569 54.492C64.6569 53.0553 62.6186 51.8906 60.1043 51.8906C57.59 51.8906 55.5518 53.0553 55.5518 54.492C55.5518 55.9287 57.59 57.0934 60.1043 57.0934Z" fill="#FA6F6D"/>
<path d="M39.0958 49.2168C39.4236 49.2163 39.7441 49.3131 40.0168 49.495C40.2895 49.6769 40.5021 49.9356 40.6277 50.2384C40.7534 50.5413 40.7864 50.8746 40.7226 51.1962C40.6587 51.5178 40.501 51.8133 40.2692 52.0451C40.0375 52.277 39.7422 52.4348 39.4208 52.4987C39.0993 52.5625 38.7662 52.5295 38.4635 52.4038C38.1608 52.2781 37.9022 52.0654 37.7204 51.7925C37.5387 51.5197 37.4419 51.199 37.4424 50.8711C37.4424 50.4324 37.6166 50.0116 37.9267 49.7013C38.2368 49.3911 38.6573 49.2168 39.0958 49.2168Z" fill="black"/>
<path d="M40.3708 46.7117C40.2856 46.7109 40.2014 46.6924 40.1237 46.6573C39.4783 46.3925 38.7547 46.3925 38.1094 46.6573C37.9609 46.7271 37.7908 46.7351 37.6364 46.6795C37.4821 46.6238 37.3561 46.5091 37.2863 46.3606C37.2165 46.212 37.2086 46.0418 37.2642 45.8874C37.3198 45.7329 37.4345 45.6069 37.5829 45.5371C38.0645 45.3309 38.5828 45.2246 39.1066 45.2246C39.6304 45.2246 40.1488 45.3309 40.6303 45.5371C40.7588 45.5949 40.8636 45.6948 40.9276 45.8204C40.9915 45.9459 41.0106 46.0896 40.9817 46.2275C40.9529 46.3655 40.8778 46.4894 40.769 46.5788C40.6601 46.6682 40.524 46.7177 40.3832 46.7191L40.3708 46.7117Z" fill="black"/>
<path d="M54.422 49.2168C54.7497 49.2163 55.0702 49.3131 55.3429 49.495C55.6156 49.6769 55.8282 49.9356 55.9539 50.2384C56.0795 50.5413 56.1125 50.8746 56.0487 51.1962C55.9849 51.5178 55.8271 51.8133 55.5954 52.0451C55.3637 52.277 55.0684 52.4348 54.7469 52.4987C54.4255 52.5625 54.0923 52.5295 53.7896 52.4038C53.487 52.2781 53.2284 52.0654 53.0466 51.7925C52.8648 51.5197 52.7681 51.199 52.7686 50.8711C52.7686 50.6539 52.8113 50.4388 52.8944 50.238C52.9775 50.0373 53.0993 49.855 53.2528 49.7013C53.4064 49.5477 53.5887 49.4259 53.7893 49.3427C53.9899 49.2596 54.2049 49.2168 54.422 49.2168Z" fill="black"/>
<path d="M55.6967 46.7117C55.6115 46.7109 55.5273 46.6924 55.4496 46.6573C54.8033 46.3929 54.0791 46.3929 53.4328 46.6573C53.3593 46.6917 53.2797 46.7113 53.1986 46.715C53.1175 46.7186 53.0365 46.7063 52.9602 46.6786C52.8839 46.6509 52.8138 46.6085 52.7539 46.5537C52.694 46.4989 52.6454 46.4329 52.611 46.3593C52.5766 46.2858 52.557 46.2061 52.5534 46.125C52.5497 46.0439 52.5621 45.9628 52.5897 45.8865C52.6174 45.8101 52.6598 45.74 52.7145 45.6801C52.7693 45.6201 52.8353 45.5715 52.9088 45.5371C53.3904 45.3309 53.9087 45.2246 54.4325 45.2246C54.9563 45.2246 55.4747 45.3309 55.9562 45.5371C56.0847 45.5949 56.1895 45.6948 56.2535 45.8204C56.3174 45.9459 56.3365 46.0896 56.3076 46.2275C56.2788 46.3655 56.2037 46.4894 56.0949 46.5788C55.986 46.6682 55.8499 46.7177 55.7091 46.7191L55.6967 46.7117Z" fill="black"/>
<path d="M46.8224 65.8151C43.7701 65.8151 40.5175 63.9258 39.4078 62.1627C39.3851 62.1285 39.3695 62.09 39.3619 62.0497C39.3542 62.0093 39.3547 61.9678 39.3632 61.9276C39.3718 61.8874 39.3883 61.8493 39.4117 61.8156C39.4352 61.7819 39.4651 61.7531 39.4998 61.7311C39.5344 61.7091 39.5731 61.6942 39.6136 61.6873C39.6541 61.6804 39.6956 61.6817 39.7356 61.691C39.7756 61.7004 39.8133 61.7176 39.8466 61.7417C39.8798 61.7658 39.908 61.7963 39.9293 61.8314C40.9426 63.4214 44.0271 65.1969 46.8348 65.1969C49.7339 65.1969 52.8208 63.1988 53.7798 61.406C53.8185 61.3336 53.8843 61.2795 53.9629 61.2556C54.0415 61.2317 54.1263 61.24 54.1987 61.2787C54.2712 61.3174 54.3253 61.3833 54.3491 61.4619C54.373 61.5405 54.3647 61.6254 54.326 61.6978C53.2484 63.686 49.986 65.8151 46.8224 65.8151Z" fill="#710B2A"/>
<path d="M64.3305 18.0402C64.1056 18.6733 63.3666 19.1752 62.6524 19.2593C62.7833 18.7919 62.6721 18.3567 62.1185 18.1762C62.8872 17.9017 63.7547 17.1154 63.9944 16.3216C64.3948 14.9838 63.29 14.7835 63.075 13.8488C62.9069 13.1193 63.6064 12.9833 63.0453 12.197C62.682 11.7024 62.4843 11.329 62.1556 11.1361C62.0342 11.0656 61.9417 10.9545 61.8942 10.8224C61.8467 10.6903 61.8474 10.5457 61.8961 10.4141C62.3484 9.26915 61.3227 7.8547 59.9386 8.93038C60.643 7.90169 59.8842 3.8784 58.164 6.47486C58.085 5.41649 58.6757 4.74389 57.6426 4.00204C56.8442 3.43824 54.9239 3.6138 54.5136 4.30372C54.5383 3.17117 53.9352 2.17958 52.8156 2.02132C52.1805 1.92982 51.2808 2.10539 51.3945 2.91152C50.5344 2.72606 50.1587 1.33141 49.1998 1.13853C48.4954 0.995111 47.6378 1.44762 47.5562 2.20678C46.9383 1.49955 46.3798 0.67117 45.3467 0.765137C43.8934 0.898669 43.8637 1.88779 43.7772 3.01787C42.6947 2.45407 41.6937 2.08065 40.411 2.22655C39.3383 2.34772 38.1718 2.9684 39.0393 4.18008C38.1545 3.54457 35.0848 3.50749 35.3888 5.2805C33.5698 4.91947 32.334 5.93083 32.9642 8.53223C31.0439 8.15636 30.688 9.06142 30.557 9.46449C30.3469 10.1074 30.6138 11.4749 30.6929 12.3305C30.7596 13.0575 29.9885 13.0204 29.813 13.5916C29.7179 13.8868 29.7422 14.2076 29.8808 14.485C30.0195 14.7624 30.2614 14.9744 30.5545 15.0753C29.813 16.104 29.6128 18.0427 31.1823 18.8884C30.3444 19.6302 30.8091 21.3785 32.3315 20.7108C33.073 20.3894 32.3513 21.611 33.0878 22.7757C33.7032 23.745 35.7645 23.4977 35.9795 24.2594C36.4738 24.158 37.0423 25.2089 38.021 25.3622C38.802 25.4859 39.5731 24.4077 40.3517 24.6204C40.8905 24.7712 41.1525 25.3004 41.6369 25.5922C42.6131 26.1832 43.2384 25.8172 44.2592 25.4413C45.4776 24.9913 46.6516 24.6575 47.9665 24.932C50.008 25.3622 51.3451 26.5022 52.9713 24.2445C53.8438 26.0818 56.2461 25.016 57.383 24.3632C58.9302 24.88 61.5006 24.1802 59.6346 22.9636C61.1917 23.1862 61.9677 20.4908 61.0384 20.7974C61.4932 20.7554 61.9999 20.3647 62.336 19.8899C63.3938 20.016 64.4887 19.4176 64.3305 18.0402Z" fill="#321A0B"/>
<path d="M72.5754 30.7085C72.3555 30.0457 70.5982 28.8934 70.403 29.9246C71.6783 29.7045 72.437 31.6407 71.4311 32.296C71.1621 32.479 70.8575 32.6033 70.5373 32.6608C70.2171 32.7184 69.8884 32.7078 69.5725 32.6298C69.5431 32.5641 69.5093 32.5005 69.4712 32.4394C68.2675 30.57 67.4074 31.1857 67.7633 29.6946C68.1637 28.0131 65.3511 25.476 64.5503 25.5798C64.4268 24.6476 64.103 24.2148 63.0674 23.8167C62.7404 23.7007 62.4404 23.5194 62.1855 23.2839C61.9306 23.0485 61.7261 22.7637 61.5845 22.4468C60.9543 21.2475 59.5257 21.4576 58.5272 21.2376C57.8574 21.0843 56.9751 20.3622 55.9642 20.3548C55.1634 20.3548 54.2341 19.7564 53.2604 19.5709C52.2866 19.3854 52.1235 19.0491 50.1314 19.1802C49.2367 19.2395 48.3445 19.9913 46.8566 20.2262C44.8646 18.3963 41.5057 19.2791 40.8112 19.4052C39.3283 19.6723 37.749 20.6268 36.6566 20.424C35.668 20.2361 35.3269 21.8484 33.8118 21.8484C31.6245 21.8484 31.2785 24.4077 30.3121 24.4992C27.6874 24.9048 26.6048 26.5368 26.6048 27.7584C25.248 27.5606 24.4175 29.388 25.4037 30.706C23.9677 30.8568 23.0878 31.475 23.6983 32.3925C22.5713 32.5186 21.6914 34.5413 22.8951 35.4761C22.1907 35.4909 20.8486 36.9276 21.9509 37.7684C21.8323 39.0864 19.5091 40.35 21.9929 42.7659C22.2525 43.4113 21.3182 44.1284 21.9633 44.9123C21.6395 44.9992 21.2985 44.9992 20.9747 44.9123C19.8378 44.6353 18.9974 42.7832 20.6707 42.8228C20.2555 41.5567 17.3811 43.4632 19.7562 45.0978C20.3346 45.4984 21.3775 45.6566 22.3142 45.4959C21.9386 46.5765 22.2623 48.4386 24.0715 48.6141C24.8995 48.2457 26.7902 48.7897 27.2376 50.0038C27.0942 48.6982 27.4723 46.7101 27.6182 43.7897C27.6923 42.3282 29.0739 41.2031 29.7412 39.7985C30.4085 38.394 30.364 36.7124 31.3205 35.5477C32.0941 34.6056 33.3917 34.4894 34.1702 33.8168C35.144 32.9711 35.7421 30.9458 36.8494 31.3168C38.2408 31.7817 38.8043 29.932 39.7979 30.2238C41.4983 30.7184 43.8141 31.6605 45.6653 30.3425C46.518 29.299 45.7939 26.6951 46.8616 25.9112C47.8848 26.0299 46.2536 30.1817 47.818 30.7035C48.1452 30.7661 48.4819 30.7602 48.8067 30.6862C48.7491 31.1911 48.7783 31.7021 48.8932 32.1971C49.2911 33.5942 51.4018 33.661 51.0483 32.071C49.4641 32.7164 49.3183 31.297 50.0152 30.2361C50.5137 29.9837 51.0508 29.8165 51.6044 29.7416C53.0478 29.6031 54.4146 31.2401 56.0878 30.9434C58.5074 31.8558 59.3675 33.342 60.2894 34.1778C61.9775 35.7258 63.0798 36.2229 63.6408 37.7708C64.3823 39.3188 64.8272 40.0755 64.9334 41.3168C64.7456 43.3816 65.5464 44.215 65.4277 46.1561C65.539 46.8139 65.8257 47.8327 66.011 48.76C66.011 48.7823 65.9863 48.8021 65.9764 48.8268C65.7512 49.4226 65.6666 50.0623 65.7293 50.6962C65.8355 51.7125 66.2508 52.8525 67.358 53.0726C67.4618 52.578 67.1109 52.6176 67.0145 52.217C66.941 51.7958 66.9243 51.3666 66.965 50.941C66.965 50.6418 66.9799 50.3352 66.9947 50.031C67.709 49.4944 68.3491 48.6092 68.5023 47.9391C70.0718 46.8807 68.6037 45.4934 69.8716 45.6665C70.2744 45.7209 70.9121 43.6215 70.4721 42.8624C69.7702 41.6482 70.0891 40.8198 70.4721 40.2461C71.4756 38.7624 70.0199 37.2787 69.6714 36.0423C69.4069 35.1125 69.5873 34.3806 69.6714 33.75C70.0503 33.8468 70.4459 33.8593 70.8302 33.7867C71.2145 33.7141 71.5782 33.558 71.8958 33.3296C72.6397 32.7658 73.0129 32.0215 72.5754 30.7085Z" fill="#321A0B"/>
<path d="M33.1497 89.846C34.2002 89.4106 34.699 88.2057 34.2639 87.1546C33.8288 86.1036 32.6244 85.6045 31.5739 86.0399C30.5235 86.4752 30.0246 87.6801 30.4597 88.7312C30.8949 89.7822 32.0992 90.2813 33.1497 89.846Z" fill="#E5E5E5"/>
<path d="M63.8144 88.3966C64.0756 87.2894 63.3902 86.18 62.2836 85.9187C61.1769 85.6574 60.0681 86.3431 59.8069 87.4503C59.5457 88.5575 60.2311 89.6669 61.3377 89.9282C62.4443 90.1896 63.5532 89.5038 63.8144 88.3966Z" fill="#E5E5E5"/>
<path d="M47.2594 19.6197C46.1818 16.2443 45.3613 14.5751 42.9516 15.1216C41.4217 16.1107 38.3446 18.7665 36.4835 21.8328C32.6526 19.6197 28.236 18.1063 26.4713 20.181C25.7744 21.002 27.7368 30.0104 30.5914 29.7384C35.1885 28.4229 36.2364 23.8037 36.7035 22.3793C38.8315 24.1103 41.3203 25.2478 46.3227 25.0524C48.1813 23.7072 47.4572 21.3061 47.2594 19.6197Z" fill="#C11824"/>
<g style="mix-blend-mode:multiply">
<path d="M40.2184 17.3359C38.7833 18.6664 37.5279 20.1785 36.4839 21.834C34.7266 20.8176 32.8483 19.9546 31.1553 19.5145C33.5156 21.102 34.828 23.7183 34.9441 26.4977C36.0168 24.878 36.4493 23.1619 36.7039 22.3805C37.9247 23.4145 39.3598 24.1645 40.9055 24.5763C39.9416 22.2321 39.5313 19.742 40.2184 17.3359Z" fill="#C11824"/>
</g>
<path d="M35.9374 24.1192C35.9374 24.1192 34.2765 21.2507 35.0501 20.9045C36.3996 20.3036 36.9878 19.9154 37.5859 20.0687C38.0357 21.5672 38.1865 23.815 38.1865 23.815L35.9374 24.1192Z" fill="#C11824"/>
</g>
<defs>
<filter id="filter0_d_4643_7014" x="0.707031" y="0.757812" width="92.9189" height="101.207" filterUnits="userSpaceOnUse" color-interpolation-filters="sRGB">
<feFlood flood-opacity="0" result="BackgroundImageFix"/>
<feColorMatrix in="SourceAlpha" type="matrix" values="0 0 0 0 0 0 0 0 0 0 0 0 0 0 0 0 0 0 127 0" result="hardAlpha"/>
<feOffset dy="4"/>
<feGaussianBlur stdDeviation="2"/>
<feComposite in2="hardAlpha" operator="out"/>
<feColorMatrix type="matrix" values="0 0 0 0 0 0 0 0 0 0 0 0 0 0 0 0 0 0 0.25 0"/>
<feBlend mode="normal" in2="BackgroundImageFix" result="effect1_dropShadow_4643_7014"/>
<feBlend mode="normal" in="SourceGraphic" in2="effect1_dropShadow_4643_7014" result="shape"/>
</filter>
<clipPath id="clip0_4643_7014">
<rect width="84.9186" height="93.2074" fill="white" transform="translate(4.70703 0.757812)"/>
</clipPath>
</defs>
</svg>
