<svg width="86" height="88" viewBox="0 0 86 88" fill="none" xmlns="http://www.w3.org/2000/svg">
<g clip-path="url(#clip0_4643_7022)">
<path d="M42.6728 85.3904C66.1103 85.3904 85.12 66.3905 85.1321 42.953C85.1442 19.5155 66.1542 0.515625 42.7167 0.515625C19.2792 0.515625 0.269471 19.5155 0.257351 42.953C0.24523 66.3905 19.2353 85.3904 42.6728 85.3904Z" fill="white"/>
<path d="M30.3486 63.3241C30.3486 63.3241 32.6422 67.5922 42.8694 67.9631C53.0967 68.334 53.1658 62.7702 53.1658 62.7702C53.1658 62.7702 51.2875 61.373 43.1042 61.373C34.921 61.373 31.923 62.3028 30.3486 63.3241Z" fill="#4D4D4D"/>
<path fill-rule="evenodd" clip-rule="evenodd" d="M16.4863 76.336C23.9857 82.2298 33.2509 85.424 42.7872 85.4034C52.3234 85.3828 61.5747 82.1485 69.0485 76.2223C64.4935 68.7544 54.4664 63.5664 42.8008 63.5664C31.0906 63.5664 21.0092 68.8088 16.4863 76.336Z" fill="#F1F1F1"/>
<path fill-rule="evenodd" clip-rule="evenodd" d="M54.6419 65.4719C51.1274 71.7454 44.8151 73.9957 42.3114 79.4705C38.4163 72.9744 33.451 71.3473 31.0042 65.457C24.5782 67.6257 19.3879 71.5105 16.4863 76.3374C23.9857 82.2312 33.2509 85.4254 42.7872 85.4048C52.3234 85.3842 61.5747 82.1499 69.0485 76.2237C66.142 71.4586 60.9963 67.6257 54.6419 65.4719Z" fill="#989898"/>
<g style="mix-blend-mode:multiply" opacity="0.5">
<path fill-rule="evenodd" clip-rule="evenodd" d="M45.178 78.7267C50.4646 77.6139 57.6766 74.0778 61.0107 68.4373C59.0023 67.2135 56.8635 66.2182 54.6341 65.4699C51.1196 71.7434 44.8073 73.9937 42.3036 79.4685C38.4085 72.9724 33.4431 71.3453 30.9963 65.4551C28.7491 66.2054 26.5935 67.2066 24.5703 68.4398C24.7705 73.9937 34.5108 77.8909 39.7035 78.8256C40.5389 79.105 39.2414 82.9082 38.6902 85.2153C39.1326 85.2574 39.5775 85.2871 40.0224 85.3167C40.3313 83.1258 41.5597 80.2178 42.2097 79.6614C43.0426 79.6614 43.2972 82.5126 43.0648 85.4008C43.4924 85.4008 43.9175 85.4008 44.3426 85.3711C44.8147 82.6263 44.7232 79.5625 45.178 78.7267Z" fill="#989898"/>
</g>
<path d="M35.6778 55.9419L34.9141 65.8851C34.9141 65.8851 36.2957 70.1457 42.4943 70.0122C48.9549 69.8762 50.1239 66.0878 50.1239 66.0878L49.6691 55.9493C44.4369 55.9419 35.6778 55.8479 35.6778 55.9419Z" fill="#904D2F"/>
<g style="mix-blend-mode:multiply" opacity="0.6">
<path d="M50.0267 63.9319L49.6683 55.9324C44.4385 55.9324 35.6769 55.8384 35.6769 55.9324L35.0615 63.9319C40.1529 66.3429 46.2872 65.3217 50.0267 63.9319Z" fill="#904D2F"/>
</g>
<path d="M42.2715 79.5608C42.2715 79.5608 43.1118 78.6607 45.7316 78.0178C49.738 77.0286 50.8453 76.0716 52.5111 75.3669C56.8882 73.5148 59.8441 69.7388 59.8441 68.0647C59.8441 67.12 58.9618 65.3198 56.3222 64.3406C54.7181 63.7471 53.7394 62.1151 52.6149 62.2882C51.1319 63.03 50.1829 69.5533 45.9071 73.6458C44.2184 75.281 42.9681 77.3151 42.2715 79.5608Z" fill="#989898"/>
<path d="M42.1476 79.4362C41.8919 79.0931 41.5685 78.8062 41.1973 78.5935C40.8261 78.3808 40.4151 78.2468 39.99 78.1998C38.8605 78.0588 37.2861 77.856 35.7884 77.2106C33.368 76.2034 31.0716 74.9206 28.9447 73.3876C26.4188 71.5355 24.5676 69.9949 24.8691 68.6176C25.0248 67.9153 26.5646 67.5963 27.3703 66.2907C29.0806 63.5261 30.2941 62.3811 31.6708 63.0636C32.9411 63.0636 34.5303 69.5845 37.6989 72.1512C41.6138 75.3189 42.1476 79.4362 42.1476 79.4362Z" fill="#989898"/>
<path d="M60.9688 48.8132C63.3093 48.7266 65.158 46.8349 65.7413 44.55C66.5074 41.5456 65.5263 38.5485 60.9688 38.8625V48.8132Z" fill="#904D2F"/>
<g style="mix-blend-mode:multiply" opacity="0.6">
<path d="M62.5011 38.8947C61.9923 38.8376 61.4793 38.8285 60.9688 38.8675V48.8132C61.4952 48.7933 62.014 48.6803 62.5011 48.4794V38.8947Z" fill="#904D2F"/>
</g>
<path d="M23.1493 48.9749C20.8088 48.9155 18.9279 47.0436 18.3051 44.7711C17.4846 41.774 18.4139 38.7671 22.9763 39.0341L23.1493 48.9749Z" fill="#904D2F"/>
<g style="mix-blend-mode:multiply" opacity="0.6">
<path d="M21.4512 39.0728C21.9593 39.0081 22.4725 38.9932 22.9835 39.0282L23.1565 48.9739C22.6294 48.9582 22.1091 48.8502 21.6192 48.6549L21.4512 39.0728Z" fill="#904D2F"/>
</g>
<path d="M22.5787 35.4382C22.1709 44.9412 22.5787 51.4744 24.6993 55.0897C27.8109 60.3865 35.1217 63.7445 42.6031 63.4973C51.1546 63.2129 56.4091 59.5704 59.1055 55.2405C61.9849 50.6263 61.886 46.7934 60.8949 33.1459C60.4303 27.3669 56.9973 23.0964 54.3256 21.316C51.5179 19.3624 46.3623 17.6809 39.8103 18.1953C34.447 18.6132 28.802 22.0034 26.3774 24.3031C23.9059 26.6523 22.8753 31.6845 22.5787 35.4382Z" fill="#904D2F"/>
<path d="M34.56 42.8638C35.4841 42.8638 36.2332 42.1143 36.2332 41.1897C36.2332 40.2651 35.4841 39.5156 34.56 39.5156C33.6359 39.5156 32.8867 40.2651 32.8867 41.1897C32.8867 42.1143 33.6359 42.8638 34.56 42.8638Z" fill="black"/>
<path d="M52.0984 41.053C52.0984 41.3841 52.0003 41.7078 51.8164 41.9831C51.6326 42.2584 51.3713 42.473 51.0655 42.5997C50.7598 42.7264 50.4233 42.7595 50.0988 42.6949C49.7742 42.6303 49.476 42.4709 49.242 42.2368C49.008 42.0026 48.8487 41.7043 48.7841 41.3796C48.7195 41.0549 48.7527 40.7183 48.8793 40.4124C49.006 40.1065 49.2204 39.845 49.4956 39.661C49.7708 39.4771 50.0942 39.3789 50.4252 39.3789C50.8689 39.3789 51.2945 39.5553 51.6083 39.8692C51.9221 40.1832 52.0984 40.609 52.0984 41.053Z" fill="black"/>
<path d="M33.1569 36.9332C33.0119 36.9373 32.87 36.8903 32.7562 36.8002C32.6424 36.7102 32.5638 36.583 32.5344 36.4408C32.5049 36.2987 32.5264 36.1507 32.595 36.0228C32.6636 35.8949 32.7751 35.7952 32.9098 35.7413C32.9864 35.7092 34.7956 34.9846 36.229 35.3951C36.3071 35.4175 36.38 35.4551 36.4435 35.5057C36.5071 35.5563 36.5601 35.6189 36.5994 35.6899C36.6388 35.761 36.6638 35.8391 36.6729 35.9199C36.6821 36.0006 36.6753 36.0823 36.6529 36.1604C36.6305 36.2385 36.593 36.3115 36.5424 36.375C36.4918 36.4386 36.4293 36.4916 36.3582 36.531C36.2872 36.5704 36.2091 36.5954 36.1284 36.6046C36.0477 36.6137 35.966 36.6069 35.888 36.5845C35.0402 36.3372 33.7872 36.7205 33.3769 36.8862C33.3072 36.9156 33.2326 36.9315 33.1569 36.9332Z" fill="black"/>
<path d="M51.5469 36.8854C51.4764 36.8919 51.4053 36.886 51.3368 36.8681C50.562 36.6887 49.7656 36.6204 48.9715 36.6653C48.8904 36.6725 48.8086 36.6636 48.7309 36.6391C48.6532 36.6146 48.5811 36.5751 48.5187 36.5227C48.4563 36.4704 48.4047 36.4062 48.3671 36.334C48.3295 36.2617 48.3064 36.1827 48.2993 36.1015C48.2921 36.0203 48.301 35.9385 48.3255 35.8608C48.3499 35.7831 48.3895 35.7109 48.4418 35.6485C48.4941 35.586 48.5582 35.5345 48.6305 35.4968C48.7027 35.4591 48.7816 35.4361 48.8628 35.4289C49.792 35.3702 50.7248 35.4494 51.6309 35.6638C51.7707 35.7011 51.8931 35.7861 51.9769 35.9041C52.0606 36.0222 52.1005 36.1658 52.0897 36.3101C52.0788 36.4545 52.0179 36.5905 51.9174 36.6946C51.8169 36.7988 51.6832 36.8645 51.5394 36.8805L51.5469 36.8854Z" fill="black"/>
<path d="M20.6775 37.7033C18.6756 37.7701 17.9143 34.3823 20.4971 33.6331C16.7898 33.8309 16.4685 30.913 20.7442 29.2735C19.1526 27.8516 19.286 27.0084 21.0186 26.7512C19.0216 25.866 19.4912 22.8269 21.8441 23.042C19.8001 21.0069 21.0408 17.9777 24.4614 19.6617C21.849 17.0652 24.674 13.7962 27.8771 15.4579C26.2311 10.7867 31.4114 9.9806 34.743 12.1592C34.5676 11.4173 35.0174 5.29214 40.2348 10.7867C40.7835 7.21352 45.0567 9.57506 45.7265 11.3357C47.6494 8.5167 50.0839 9.40196 51.3641 13.3758C55.8475 10.2996 59.0506 13.6231 57.8988 16.452C61.1118 16.9638 63.5661 19.6196 60.5879 20.8091C62.5948 20.0202 64.8883 23.6355 60.8894 24.5183C62.7579 24.135 64.137 27.1642 62.1252 27.1889C64.1691 27.362 65.9042 29.862 62.8889 31.1949C64.0431 33.1163 64.7969 35.4259 63.0174 35.9378C64.5152 37.147 63.1459 39.2711 61.3516 40.8092C61.27 40.0674 60.9389 35.3418 60.662 34.009C60.494 33.2053 58.6625 31.8354 59.5597 29.3996C60.3012 27.3769 57.8074 26.4866 57.2735 25.589C56.5321 24.3328 54.6958 23.9767 54.8317 22.268C52.8866 22.7626 51.4951 22.4337 50.4818 20.6211C48.3933 21.6498 45.9144 21.5509 44.1324 20.0598C43.302 21.4025 40.7909 21.5831 39.958 19.9139C40.3262 22.2532 34.9407 21.4916 33.8088 20.5568C33.0871 22.4411 30.8602 23.2473 29.5207 22.6859C29.8568 25.0821 28.1984 25.7596 25.9814 25.5692C27.064 26.7364 26.2755 29.6617 24.1994 29.5257C26.3101 31.3086 23.6878 31.9615 23.0477 33.4996C22.9192 34.9091 22.8846 34.1796 22.8846 37.1544C22.8846 38.2671 22.719 39.7978 22.6374 41.2865C22.1777 41.6772 19.3651 40.1935 20.6775 37.7033Z" fill="#321A0B"/>
<path opacity="0.53" d="M29.5951 49.6238C31.8664 49.6238 33.7077 48.4746 33.7077 47.057C33.7077 45.6394 31.8664 44.4902 29.5951 44.4902C27.3237 44.4902 25.4824 45.6394 25.4824 47.057C25.4824 48.4746 27.3237 49.6238 29.5951 49.6238Z" fill="#FA6F6D"/>
<path opacity="0.53" d="M55.4154 49.6238C57.6867 49.6238 59.528 48.4746 59.528 47.057C59.528 45.6394 57.6867 44.4902 55.4154 44.4902C53.144 44.4902 51.3027 45.6394 51.3027 47.057C51.3027 48.4746 53.144 49.6238 55.4154 49.6238Z" fill="#FA6F6D"/>
<g style="mix-blend-mode:multiply">
<path d="M40.3913 77.5813C40.7298 77.5813 41.0042 77.3012 41.0042 76.9557C41.0042 76.6102 40.7298 76.3301 40.3913 76.3301C40.0528 76.3301 39.7783 76.6102 39.7783 76.9557C39.7783 77.3012 40.0528 77.5813 40.3913 77.5813Z" fill="#2E3191"/>
</g>
<g style="mix-blend-mode:multiply">
<path d="M45.0251 77.8216C45.3636 77.8216 45.638 77.5415 45.638 77.1959C45.638 76.8504 45.3636 76.5703 45.0251 76.5703C44.6865 76.5703 44.4121 76.8504 44.4121 77.1959C44.4121 77.5415 44.6865 77.8216 45.0251 77.8216Z" fill="#2E3191"/>
</g>
<path d="M40.7538 76.638C40.665 76.5724 40.5538 76.5448 40.4446 76.5613C40.3355 76.5778 40.2373 76.6369 40.1718 76.7258C40.1062 76.8147 40.0786 76.9259 40.0951 77.0352C40.1115 77.1444 40.1707 77.2426 40.2595 77.3081C40.6055 77.5554 40.9046 78.777 40.5413 80.3324C40.1952 81.8087 39.9475 83.3064 39.7998 84.8156C39.7313 84.8151 39.6647 84.8382 39.6112 84.881C39.5576 84.9237 39.5204 84.9836 39.5057 85.0505C39.4883 85.0978 39.482 85.1485 39.4871 85.1986C39.4922 85.2487 39.5087 85.2971 39.5353 85.3399C39.2882 85.7182 38.9545 86.2597 39.0188 86.465C39.1251 86.7939 40.2743 87.103 40.5734 86.8087C40.7686 86.6208 40.7192 85.9655 40.6599 85.5253C40.7136 85.5075 40.7611 85.4748 40.797 85.431C40.8329 85.3873 40.8556 85.3342 40.8626 85.278C40.8897 85.1 40.7909 85.006 40.6154 84.9467C40.7573 83.4604 40.9967 81.9851 41.3322 80.5302C41.7523 78.8116 41.5002 77.1796 40.7538 76.638Z" fill="#B8CBCB"/>
<path d="M44.8909 85.8531C44.8745 85.7832 44.8335 85.7214 44.7754 85.6792C44.7174 85.637 44.646 85.6171 44.5745 85.6231C44.2867 83.9338 44.1692 82.2198 44.2235 80.5069C44.315 78.7759 44.8538 77.7447 45.1899 77.6038C45.2853 77.5581 45.3595 77.4776 45.3972 77.3788C45.435 77.28 45.4334 77.1705 45.3928 77.0728C45.3523 76.9752 45.2758 76.8968 45.1792 76.8539C45.0826 76.811 44.9732 76.8068 44.8736 76.8422C43.9047 77.2477 43.4747 79.0454 43.3906 80.4624C43.3335 82.2357 43.4552 84.0103 43.7539 85.7592C43.5908 85.8234 43.5068 85.9149 43.5266 86.088C43.5373 86.1497 43.5668 86.2065 43.6111 86.2508C43.6553 86.295 43.7121 86.3245 43.7737 86.3353C43.7045 86.7681 43.6254 87.5025 43.8306 87.7077C44.1271 88.0045 45.2814 87.7077 45.3901 87.3813C45.4618 87.1612 45.0836 86.543 44.8291 86.1647C44.8671 86.1235 44.8929 86.0726 44.9038 86.0176C44.9148 85.9626 44.9103 85.9057 44.8909 85.8531Z" fill="#B8CBCB"/>
<g style="mix-blend-mode:multiply" opacity="0.6">
<path d="M40.541 45.9492C40.4916 46.4166 40.4619 46.7158 40.4619 46.7158C40.9933 48.2415 44.3002 48.0462 44.5844 46.6812C44.5844 46.6812 44.5572 46.4339 44.5078 46.0234C43.9814 47.2252 41.2602 47.376 40.541 45.9492Z" fill="#904D2F"/>
</g>
<path d="M36.5273 53.3223C36.6804 53.7948 36.8912 54.2467 37.1551 54.6675C38.1215 56.2056 39.8985 57.4098 42.8199 57.3035C45.5386 57.2046 47.0833 55.9138 47.8198 54.6675C48.0701 54.2534 48.2442 53.7978 48.3339 53.3223H36.5273Z" fill="#5C1C27"/>
<path d="M38.0918 53.3223V53.4088C38.0918 54.1037 38.2203 54.67 38.8777 54.67H46.1169C46.7768 54.67 46.8707 54.1037 46.8707 53.4088V53.3223H38.0918Z" fill="white"/>
<g opacity="0.8">
<path d="M42.4195 55.7227C41.2332 55.7227 40.1754 56.0169 39.4883 56.7118C40.5377 57.1716 41.6814 57.375 42.8249 57.3053C43.7088 57.2854 44.5813 57.1009 45.3977 56.7612C44.7131 56.0392 43.6355 55.7227 42.4195 55.7227Z" fill="#C1645D"/>
</g>
<g style="mix-blend-mode:multiply" opacity="0.5">
<path d="M38.0918 53.3223V53.4088C38.0918 53.8688 38.1511 54.2669 38.3785 54.487C38.4946 54.2163 38.6872 53.9855 38.9327 53.823C39.1781 53.6604 39.4657 53.5732 39.7601 53.572H45.3631C45.6372 53.5731 45.9058 53.6496 46.1394 53.793C46.373 53.9365 46.5627 54.1415 46.6878 54.3856C46.8351 54.0823 46.8983 53.7449 46.8707 53.4088V53.3223H38.0918Z" fill="#E8D9EB"/>
</g>
</g>
<defs>
<clipPath id="clip0_4643_7022">
<rect width="84.9187" height="87.3149" fill="white" transform="translate(0.235352 0.515625)"/>
</clipPath>
</defs>
</svg>
