<svg width="86" height="86" viewBox="0 0 86 86" fill="none" xmlns="http://www.w3.org/2000/svg">
<g clip-path="url(#clip0_4643_7021)">
<path d="M0.971917 42.9521C0.971916 66.3896 19.9718 85.3993 43.4093 85.4114C66.8468 85.4235 85.8467 66.4335 85.8467 42.996C85.8467 19.5585 66.8468 0.548767 43.4093 0.536646C19.9718 0.524524 0.971918 19.5146 0.971917 42.9521Z" fill="white"/>
<path d="M61.4064 17.6718C63.6629 17.0412 67.3553 18.6461 67.3553 18.6461C67.3553 18.6461 68.0029 15.1841 64.0015 13.3443C61.955 12.4022 59.7825 15.1841 59.7825 15.1841C59.7825 15.1841 59.4662 10.8888 58.5468 9.81811C57.6274 8.74738 56.2581 9.05648 55.9541 9.51395C57.1232 10.5031 57.6026 11.9175 57.8622 13.0056C54.8444 10.2533 48.4506 7.40958 42.3805 7.91403C36.0607 8.44074 26.1449 11.3216 21.0585 17.6718C18.8094 20.4784 16.1154 24.4349 16.4713 25.1545C17.0101 25.1545 19.022 24.6154 19.887 24.0739C17.1906 28.9305 19.3087 40.4884 21.9137 45.3797C24.9141 49.1705 30.7346 54.3609 43.075 54.0691C52.6843 53.8416 57.1405 52.6225 62.3777 47.4346C65.7958 43.7451 67.7879 33.9058 68.1116 28.4953C67.4839 23.3197 65.0445 19.8726 61.4064 17.6718Z" fill="#FFD045"/>
<g style="mix-blend-mode:multiply" opacity="0.4">
<path d="M65.1758 36.1165C65.1758 34.0566 65.2796 32.0636 64.4566 30.0037C64.4566 31.2401 63.6829 34.3237 62.8377 33.9602C59.1576 32.3677 56.256 24.9542 59.9633 20.832C52.2397 28.2505 34.2593 32.521 22.5838 32.16C19.9516 32.0809 24.8279 27.9809 24.9194 27.6669C22.905 28.7727 20.8038 29.7122 18.6367 30.476C18.6367 30.5527 18.6367 30.6318 18.6367 30.7084C19.8033 30.8148 20.9278 30.4612 22.2155 29.9468C21.39 30.7703 21.2269 32.0611 20.3965 32.8845C20.3742 33.8737 21.694 33.4162 22.517 33.4162C21.9881 35.6714 21.7237 37.6595 21.9881 40.9756C22.4231 42.3257 21.4048 44.4375 21.909 45.3747C24.9095 49.1656 30.7299 54.356 43.0703 54.0642C52.6797 53.8367 57.1358 52.6176 62.373 47.4296C64.9113 44.6898 66.6636 38.5572 67.5287 33.3643C66.9899 33.8885 65.7343 35.6269 65.1758 36.1165Z" fill="#EFB445"/>
</g>
<path fill-rule="evenodd" clip-rule="evenodd" d="M17.2012 76.3561C24.7006 82.2489 33.9654 85.4423 43.5012 85.4213C53.0369 85.4002 62.2876 82.1658 69.7609 76.2399C65.2058 68.7744 55.1788 63.584 43.5156 63.584C31.8005 63.584 21.7266 68.8264 17.2012 76.3561Z" fill="#FF0000"/>
<path d="M43.3449 71.0119C48.7823 71.0119 53.1841 68.3586 53.1841 65.0772C53.1841 64.9931 53.1841 64.9065 53.1841 64.8299C46.7345 63.1374 39.9537 63.1698 33.5205 64.9238C33.5205 64.9782 33.5205 65.0302 33.5205 65.0846C33.5057 68.3635 37.91 71.0119 43.3449 71.0119Z" fill="white"/>
<path d="M23.7286 49.6254C21.3881 49.5364 19.527 47.5902 18.9561 45.2361C18.1899 42.1451 19.1711 39.0541 23.7286 39.3904V49.6254Z" fill="#F6C495"/>
<g style="mix-blend-mode:multiply" opacity="0.4">
<path d="M22.1963 39.4321C22.7048 39.3704 23.2182 39.3604 23.7286 39.4024V49.6374C23.201 49.617 22.6815 49.4996 22.1963 49.2912V39.4321Z" fill="#DE8D73"/>
</g>
<path d="M61.7383 49.5316C64.0788 49.4426 65.925 47.494 66.5083 45.1424C67.277 42.0514 66.2933 38.9604 61.7383 39.2967V49.5316Z" fill="#F6C495"/>
<g style="mix-blend-mode:multiply" opacity="0.4">
<path d="M63.2706 39.3242C62.762 39.2646 62.2487 39.2555 61.7383 39.297V49.532C62.2659 49.5113 62.7853 49.3939 63.2706 49.1858V39.3242Z" fill="#DE8D73"/>
</g>
<path d="M36.3897 55.96L35.626 65.9032C35.626 65.9032 36.9581 69.239 43.1568 69.1178C49.6174 68.9793 50.8358 66.1158 50.8358 66.1158L50.3835 55.9773C45.1513 55.96 36.3897 55.8685 36.3897 55.96Z" fill="#F6C495"/>
<g style="mix-blend-mode:multiply" opacity="0.6">
<path d="M50.7394 63.9626L50.3958 55.9606C45.1636 55.9606 36.402 55.8691 36.402 55.9606L35.7891 63.9428C40.8656 66.3637 47.0024 65.34 50.7394 63.9626Z" fill="#DE8D73"/>
</g>
<path d="M23.5452 34.6576C22.4651 44.8332 23.4982 51.537 25.6237 55.1523C28.7379 60.4466 36.0487 63.8071 43.5276 63.5598C52.0791 63.2755 57.3335 59.633 60.0325 55.3056C62.9093 50.6888 62.4249 41.5839 61.8417 35.8396C60.1363 33.6759 57.7364 30.345 57.1877 25.6738C55.9124 26.8336 48.6412 31.7347 39.3383 33.3569C30.1022 34.9815 25.2777 34.4424 23.5452 34.6576Z" fill="#F6C495"/>
<path d="M41.251 47.0781C41.2015 47.5455 41.1719 47.8447 41.1719 47.8447C41.7033 49.3704 45.0102 49.1751 45.2969 47.8101C45.2969 47.8101 45.2672 47.5628 45.2178 47.1523C44.6963 48.3541 41.9751 48.5049 41.251 47.0781Z" fill="#DF9176"/>
<path opacity="0.8" d="M29.5487 48.5505C32.063 48.5505 34.1012 47.3858 34.1012 45.949C34.1012 44.5123 32.063 43.3477 29.5487 43.3477C27.0343 43.3477 24.9961 44.5123 24.9961 45.949C24.9961 47.3858 27.0343 48.5505 29.5487 48.5505Z" fill="#FFA485"/>
<path opacity="0.8" d="M56.3475 48.5505C58.8618 48.5505 60.9001 47.3858 60.9001 45.949C60.9001 44.5123 58.8618 43.3477 56.3475 43.3477C53.8332 43.3477 51.7949 44.5123 51.7949 45.949C51.7949 47.3858 53.8332 48.5505 56.3475 48.5505Z" fill="#FFA485"/>
<path d="M35.3395 40.668C35.6664 40.6685 35.9859 40.7659 36.2575 40.948C36.529 41.13 36.7406 41.3886 36.8654 41.6909C36.9901 41.9932 37.0225 42.3258 36.9584 42.6465C36.8944 42.9673 36.7367 43.2618 36.5053 43.4929C36.274 43.724 35.9794 43.8814 35.6587 43.945C35.338 44.0086 35.0057 43.9757 34.7037 43.8504C34.4018 43.7252 34.1437 43.5131 33.9621 43.2411C33.7805 42.9691 33.6836 42.6494 33.6836 42.3223C33.6836 42.1048 33.7264 41.8895 33.8097 41.6886C33.8929 41.4878 34.015 41.3053 34.1688 41.1516C34.3226 40.998 34.5051 40.8762 34.706 40.7932C34.9069 40.7102 35.1222 40.6676 35.3395 40.668Z" fill="#42210B"/>
<path d="M36.6121 38.172C36.5268 38.1713 36.4426 38.1528 36.365 38.1176C35.7186 37.8534 34.9945 37.8534 34.3482 38.1176C34.2011 38.1805 34.0353 38.1839 33.8857 38.1271C33.7362 38.0702 33.6145 37.9575 33.5463 37.8127C33.478 37.6679 33.4687 37.5023 33.52 37.3507C33.5714 37.1991 33.6796 37.0733 33.8218 36.9999C34.3038 36.7938 34.8225 36.6875 35.3467 36.6875C35.8709 36.6875 36.3896 36.7938 36.8716 36.9999C37.0001 37.0576 37.1049 37.1576 37.1689 37.2832C37.2328 37.4087 37.2519 37.5524 37.223 37.6903C37.1942 37.8282 37.1191 37.9521 37.0103 38.0415C36.9014 38.1309 36.7653 38.1805 36.6245 38.1819L36.6121 38.172Z" fill="#42210B"/>
<path d="M50.6632 43.9844C51.5764 43.9844 52.3167 43.2437 52.3167 42.3301C52.3167 41.4164 51.5764 40.6758 50.6632 40.6758C49.75 40.6758 49.0098 41.4164 49.0098 42.3301C49.0098 43.2437 49.75 43.9844 50.6632 43.9844Z" fill="#42210B"/>
<path d="M51.9387 38.1722C51.8535 38.171 51.7695 38.1525 51.6916 38.1178C51.0461 37.8535 50.3228 37.8535 49.6773 38.1178C49.5302 38.1808 49.3644 38.1842 49.2148 38.1273C49.0653 38.0704 48.9436 37.9577 48.8754 37.8129C48.8072 37.6681 48.7977 37.5025 48.8491 37.3509C48.9005 37.1993 49.0087 37.0735 49.1509 37.0001C49.6328 36.7938 50.1516 36.6875 50.6758 36.6875C51.2 36.6875 51.7188 36.7938 52.2007 37.0001C52.3292 37.0579 52.434 37.1578 52.498 37.2834C52.5619 37.4089 52.581 37.5526 52.5521 37.6905C52.5233 37.8284 52.4482 37.9524 52.3394 38.0418C52.2305 38.1312 52.0944 38.1807 51.9536 38.1821L51.9387 38.1722Z" fill="#42210B"/>
<path d="M37.166 52.9263C37.3176 53.3983 37.5277 53.8493 37.7913 54.269C38.7577 55.8096 40.5347 57.0139 43.4586 56.9075C46.1772 56.8086 47.7195 55.5178 48.456 54.269C48.7077 53.8557 48.8819 53.3998 48.9701 52.9238L37.166 52.9263Z" fill="#861C27"/>
<path d="M38.7256 52.9258V53.0148C38.7256 53.7072 38.8541 54.2759 39.514 54.2759H46.7507C47.4106 54.2759 47.4921 53.7072 47.4921 53.0148V52.9258H38.7256Z" fill="white"/>
<g opacity="0.8">
<path d="M43.0533 55.3301C41.867 55.3301 40.8092 55.6219 40.1221 56.3192C41.1726 56.7781 42.3169 56.9815 43.4611 56.9127C44.3443 56.8931 45.2161 56.7086 46.0315 56.3687C45.3469 55.6441 44.2693 55.3301 43.0533 55.3301Z" fill="#EE7A7D"/>
</g>
<g style="mix-blend-mode:multiply" opacity="0.5">
<path d="M38.7256 52.9264V53.0154C38.7256 53.4729 38.7849 53.8735 39.0148 54.0936C39.1296 53.8226 39.3216 53.5913 39.5668 53.4287C39.812 53.266 40.0997 53.1791 40.3939 53.1787H45.9968C46.271 53.1797 46.5395 53.2562 46.7732 53.3997C47.0068 53.5431 47.1965 53.7481 47.3216 53.9922C47.4709 53.6851 47.5341 53.3433 47.5045 53.0031V52.9141L38.7256 52.9264Z" fill="#E8D9EB"/>
</g>
<path fill-rule="evenodd" clip-rule="evenodd" d="M66.0307 78.8798V78.5039H20.1787C23.1402 80.4479 26.3347 82.0106 29.6867 83.1553H57.1208C60.2483 82.0853 63.2389 80.6502 66.0307 78.8798Z" fill="#FFCA00"/>
</g>
<defs>
<clipPath id="clip0_4643_7021">
<rect width="84.8748" height="84.9187" fill="white" transform="translate(0.97168 0.515625)"/>
</clipPath>
</defs>
</svg>
