<svg width="86" height="86" viewBox="0 0 86 86" fill="none" xmlns="http://www.w3.org/2000/svg">
<g clip-path="url(#clip0_4643_7018)">
<path d="M43.2011 85.6326C66.6386 85.6326 85.6483 66.6327 85.6604 43.1952C85.6726 19.7577 66.6825 0.757812 43.245 0.757812C19.8075 0.757812 0.797792 19.7577 0.785671 43.1952C0.773551 66.6327 19.7636 85.6326 43.2011 85.6326Z" fill="white"/>
<path d="M3.78552 45.2285C3.69668 45.1697 3.62633 45.087 3.58259 44.9898C3.53885 44.8926 3.5235 44.785 3.53836 44.6795C3.56061 44.3729 3.98079 44.0712 4.63821 43.8239C5.37968 43.5445 3.13305 43.3145 3.40245 42.5875C3.19236 41.7938 4.59373 42.1894 5.01389 41.9446C5.38462 41.7295 3.93383 41.2299 4.08707 40.5994C4.2403 39.9688 6.12359 40.4708 6.53881 40.6711C6.95101 40.8762 7.33281 41.1375 7.67327 41.4476C8.1824 41.816 9.0845 41.5143 9.606 41.2621C9.99403 41.0717 10.0855 40.7329 10.5477 40.8788C10.906 40.9926 10.9184 41.3956 11.257 41.4772C11.7785 41.6034 11.6277 41.1236 11.9639 40.9678C12.211 40.8467 12.7053 40.995 12.9525 41.1038C13.0118 40.6983 13.4468 40.6934 13.8175 40.6785C14.559 40.6439 14.2525 40.9802 14.6998 41.1731C15.3968 41.4673 15.6885 40.1024 16.6029 40.2557C16.9094 40.3076 16.8872 40.6414 17.0972 40.6686C17.6459 40.7354 17.1887 40.4634 17.416 40.2631C17.8931 39.8427 18.9731 39.3111 19.1461 40.7304C19.3265 40.9283 19.6578 41.0569 19.6899 41.4179C19.722 41.7789 19.3587 42.0806 19.3562 42.4639C19.2093 42.5131 19.053 42.5271 18.8997 42.5048C18.7465 42.4824 18.6006 42.4244 18.4739 42.3353C18.5134 43.1489 17.0453 44.0094 16.3904 43.2577C16.0394 43.3516 15.5896 43.6113 15.2263 43.6014C14.863 43.5915 14.6158 43.2873 14.2377 43.3269C14.428 43.6731 14.1388 44.0984 13.7433 44.2122C13.1428 44.3877 12.7869 43.8734 12.4062 43.6113C11.556 43.0227 11.8477 43.5618 11.4176 44.1924C11.0444 44.7537 10.1127 44.912 9.48984 44.7438C9.0771 44.6325 8.42709 43.9402 8.23184 44.1281C8.05446 44.3177 7.88935 44.5184 7.73753 44.729C7.53723 44.9622 7.3001 45.161 7.03559 45.3175C6.67228 45.5178 6.21752 45.6489 6.02227 45.5648C5.89869 45.8962 5.35249 46.1261 5.06826 45.869C4.72719 45.5648 5.11274 45.1939 5.27833 44.8798C4.72471 45.3546 4.12412 45.3917 3.78552 45.2285Z" fill="#321A0B"/>
<path d="M19.339 42.6473C19.4384 42.5696 19.5069 42.4589 19.5323 42.3353C19.5577 42.2116 19.5382 42.0829 19.4774 41.9722C19.2945 41.4999 18.1353 39.3684 18.1156 39.3041C18.0645 39.2438 18.002 39.1943 17.9317 39.1582C17.8614 39.1221 17.7847 39.1002 17.706 39.0938C17.6273 39.0874 17.5481 39.0965 17.4729 39.1207C17.3977 39.1449 17.328 39.1837 17.2678 39.2348C17.2076 39.286 17.1581 39.3485 17.122 39.4188C17.0859 39.4891 17.0641 39.5658 17.0577 39.6446C17.0512 39.7233 17.0604 39.8026 17.0846 39.8778C17.1088 39.953 17.1475 40.0228 17.1986 40.083C17.3568 40.2437 18.4986 42.6646 18.4986 42.6646C18.4986 42.6646 18.6914 43.0603 19.339 42.6473Z" fill="#40EB00"/>
<path d="M8.17083 44.4585C8.27561 44.4363 8.36913 44.3777 8.43475 44.293C8.50038 44.2083 8.53384 44.1031 8.52919 43.996C8.56626 43.5707 8.48469 41.5109 8.49211 41.4565C8.47588 41.3915 8.44704 41.3304 8.40721 41.2766C8.36737 41.2228 8.31732 41.1774 8.25995 41.143C8.14407 41.0734 8.00532 41.0527 7.87422 41.0855C7.74312 41.1183 7.63043 41.2019 7.56091 41.3178C7.49138 41.4337 7.47072 41.5726 7.50349 41.7037C7.56281 41.8867 7.52573 44.1568 7.52573 44.1568C7.52573 44.1568 7.52575 44.5302 8.17083 44.4585Z" fill="#FF00FF"/>
<path d="M8.1604 56.0303C7.98235 55.7384 7.83019 55.4314 7.70565 55.1129C7.58949 54.8285 7.90584 54.648 8.38285 54.1238C8.9167 53.5451 6.80848 54.3439 6.70961 53.5748C6.16835 52.9591 7.22615 52.1653 7.49307 51.7548C7.74023 51.3987 7.26322 51.013 7.6216 50.7657C8.0986 50.9784 8.56326 50.469 9.01802 50.3948C9.47278 50.3206 9.68288 50.5877 10.0215 50.6421C10.6418 50.7434 11.3141 50.0708 11.665 49.6084C11.927 49.2672 11.8578 48.921 12.3373 48.8468C12.708 48.7874 12.8983 49.1435 13.2394 49.0644C13.7609 48.9432 13.4124 48.5698 13.6423 48.2904C13.8202 48.0679 14.3145 47.9862 14.5765 47.9764C14.448 47.5857 14.8459 47.3829 15.1598 47.2073C15.8172 46.8413 15.6838 47.2815 16.1707 47.2518C16.9121 47.2048 16.5859 45.8473 17.4608 45.5802C17.7599 45.4887 17.8859 45.7978 18.096 45.7236C18.6175 45.5382 18.096 45.4986 18.1998 45.2291C18.4469 44.6405 19.1662 43.6786 19.9669 44.8655C20.2141 44.962 20.57 44.9274 20.7628 45.2365C20.9555 45.5456 20.7628 45.9783 20.9308 46.322C20.8206 46.4307 20.6867 46.5125 20.5396 46.561C20.3926 46.6094 20.2364 46.6233 20.0831 46.6015C20.4835 47.3136 19.5567 48.738 18.6323 48.3596C18.3604 48.6069 18.0762 49.0347 17.745 49.188C17.4138 49.3414 17.0604 49.188 16.744 49.3834C17.0703 49.6059 16.9912 50.1252 16.6971 50.3972C16.2374 50.8226 15.6912 50.5233 15.2339 50.4591C14.2107 50.3132 14.71 50.6643 14.6161 51.4185C14.532 52.0862 13.7708 52.6549 13.1331 52.7736C12.7154 52.8577 11.7515 52.4818 11.497 52.5758C10.8618 52.8231 11.497 53.288 11.7046 53.6218C12.0234 54.1312 11.2819 54.3463 10.9854 54.9373C10.7975 55.3083 10.5182 55.056 10.3353 55.4319C10.8939 56.0328 10.0462 55.8622 9.67546 55.7608C9.23552 55.6396 9.5494 54.5466 9.38628 54.9571C9.11688 55.6297 8.39026 56.3295 8.1604 56.0303Z" fill="#321A0B"/>
<path d="M21.0103 46.4929C21.0645 46.3785 21.0764 46.2486 21.0438 46.1264C21.0112 46.0041 20.9363 45.8974 20.8324 45.8252C20.4592 45.4864 18.4671 44.0942 18.4201 44.0497C18.2733 43.9874 18.1078 43.986 17.9599 44.0458C17.812 44.1057 17.694 44.2218 17.6317 44.3687C17.5694 44.5156 17.5681 44.6812 17.6278 44.8292C17.6876 44.9771 17.8037 45.0952 17.9505 45.1575C18.1631 45.2317 20.2689 46.8885 20.2689 46.8885C20.2689 46.8885 20.6198 47.1506 21.0103 46.4929Z" fill="#40EB00"/>
<path d="M11.8337 53.1138C11.9176 53.0468 11.9753 52.9522 11.9965 52.8469C12.0177 52.7415 12.0012 52.6321 11.9499 52.5377C11.7917 52.142 10.7981 50.3369 10.7783 50.2825C10.6991 50.1897 10.5883 50.1296 10.4674 50.1136C10.3465 50.0977 10.224 50.127 10.1234 50.1959C10.0607 50.2332 10.0071 50.2839 9.96635 50.3443C9.92558 50.4048 9.89871 50.4735 9.8876 50.5456C9.8765 50.6177 9.88146 50.6913 9.90215 50.7613C9.92283 50.8312 9.95871 50.8957 10.0072 50.9501C10.1407 51.0861 11.1244 53.1311 11.1244 53.1311C11.1244 53.1311 11.29 53.4625 11.8337 53.1138Z" fill="#FF00FF"/>
<path d="M75.1469 54.5082C75.3001 54.3327 75.053 53.4894 75.1469 53.2966C75.2828 53.0196 76.1355 53.6699 76.3307 53.4251C76.7954 52.8341 75.6881 52.4657 75.74 52.1368C75.787 51.845 77.1637 51.7412 77.3095 50.9795C77.4899 50.4133 76.2121 50.7322 75.9724 50.3094C75.7598 49.9385 76.961 49.9484 76.6916 49.1249C76.8473 48.6304 75.0678 48.6798 74.618 48.5759C74.1682 48.4721 73.9433 48.7293 73.6022 48.7614C72.9769 48.8232 72.3491 48.1086 72.0278 47.6264C71.7807 47.2678 71.8795 46.9291 71.405 46.8227C71.0392 46.7411 70.8266 47.0824 70.4905 46.9835C69.9789 46.8277 70.3496 46.4889 70.1371 46.1872C69.974 45.9399 69.4871 45.8385 69.2251 45.8113C69.3783 45.433 68.9952 45.203 68.6937 45.0077C68.061 44.5997 68.1648 45.0497 67.6828 44.9879C66.9414 44.8939 67.3566 43.5586 66.5014 43.2371C66.2073 43.1283 66.0615 43.4276 65.8564 43.341C65.3472 43.1209 65.8786 43.1184 65.7847 42.8316C65.5845 42.2282 65.3201 40.0349 64.4451 41.1674C64.198 41.2465 63.4392 42.3791 63.2266 42.6758C63.0141 42.9726 63.1822 43.4176 62.9795 43.749C63.0831 43.8644 63.212 43.9543 63.356 44.0118C63.5 44.0693 63.6554 44.0927 63.81 44.0804C63.3651 44.7653 64.198 46.2466 65.1446 45.9276C65.3917 46.1749 65.6586 46.6373 65.9775 46.8104C66.2963 46.9835 66.6621 46.8474 66.9661 47.0576C66.6275 47.2604 66.6646 47.7748 66.9488 48.074C67.3813 48.5265 67.9374 48.2644 68.4045 48.2273C69.4352 48.1482 68.9137 48.4746 68.9606 49.2164C69.0026 49.889 69.7268 50.4949 70.3496 50.663C70.7624 50.7743 71.7461 50.4602 71.9957 50.5715C72.616 50.8485 72.097 52.3519 72.3565 52.9602C72.5196 53.3435 72.8138 53.1086 72.9744 53.487C72.3788 54.0532 73.1128 54.7753 73.4885 54.6986C73.9358 54.6071 73.7925 53.2149 73.9309 53.6403C74.1657 54.3574 74.9022 54.7901 75.1469 54.5082Z" fill="#321A0B"/>
<path d="M62.9 43.9158C62.8525 43.7983 62.8487 43.6676 62.889 43.5475C62.9293 43.4273 63.0112 43.3256 63.1199 43.2605C63.5129 42.9464 65.5915 41.6878 65.6384 41.6433C65.7889 41.5905 65.9541 41.5996 66.0978 41.6687C66.2415 41.7378 66.3519 41.8612 66.4046 42.0117C66.4574 42.1622 66.4482 42.3276 66.3792 42.4713C66.3101 42.6151 66.1868 42.7255 66.0364 42.7783C65.8213 42.8376 63.6142 44.3535 63.6142 44.3535C63.6142 44.3535 63.2485 44.5983 62.9 43.9158Z" fill="#40EB00"/>
<path d="M71.6371 51.1085C71.5575 51.0365 71.5059 50.9387 71.4915 50.8324C71.477 50.7261 71.5006 50.618 71.558 50.5274C71.7409 50.1392 72.8481 48.4032 72.8704 48.3513C72.9662 48.2621 73.0928 48.2132 73.2237 48.2149C73.3547 48.2166 73.4799 48.2687 73.5735 48.3604C73.667 48.452 73.7217 48.5763 73.726 48.7072C73.7304 48.8381 73.6842 48.9657 73.597 49.0635C73.4561 49.1921 72.3464 51.1703 72.3464 51.1703C72.3464 51.1703 72.1586 51.4844 71.6371 51.1085Z" fill="#FF00FF"/>
<path fill-rule="evenodd" clip-rule="evenodd" d="M17.0156 76.5768C24.5151 82.4696 33.7799 85.663 43.3156 85.6419C52.8514 85.6209 62.102 82.3865 69.5753 76.4606C65.0203 68.9951 54.9933 63.8047 43.3301 63.8047C31.615 63.8047 21.5361 69.0421 17.0156 76.5768Z" fill="#693B82"/>
<path d="M42.8361 71.5866C49.6329 71.5866 52.9991 68.5797 52.9991 65.3057C52.9991 65.2216 52.9991 65.135 52.9991 65.0584C46.5495 63.3659 39.7687 63.3983 33.3356 65.1524C33.343 65.2057 33.343 65.2598 33.3356 65.3131C32.127 68.7008 37.4037 71.5866 42.8361 71.5866Z" fill="#FF547B"/>
<path d="M23.5431 50.4625C21.2026 50.3735 19.3415 48.4422 18.7706 46.1104C18.0044 43.0416 18.9856 39.9827 23.5431 40.3092V50.4625Z" fill="#904D2F"/>
<g style="mix-blend-mode:multiply" opacity="0.6">
<path d="M22.0088 40.3394C22.5182 40.2789 23.0323 40.269 23.5436 40.3097V50.4631C23.0158 50.4414 22.4961 50.3259 22.0088 50.1218V40.3394Z" fill="#904D2F"/>
</g>
<path d="M61.7432 50.4638C64.0837 50.3772 65.93 48.4633 66.5132 46.1512C67.2794 43.1121 66.2982 40.0829 61.7432 40.4044V50.4638Z" fill="#904D2F"/>
<g style="mix-blend-mode:multiply" opacity="0.6">
<path d="M63.2755 40.4342C62.7669 40.375 62.2537 40.3651 61.7432 40.4045V50.4639C62.27 50.443 62.7889 50.3283 63.2755 50.1251V40.4342Z" fill="#904D2F"/>
</g>
<path d="M36.2051 56.1837L35.4414 66.1269C35.4414 66.1269 36.7736 69.4628 42.9722 69.3416C49.4328 69.2031 50.6513 66.3396 50.6513 66.3396L50.1989 56.201C44.9667 56.1837 36.2051 56.0898 36.2051 56.1837Z" fill="#904D2F"/>
<g style="mix-blend-mode:multiply" opacity="0.6">
<g style="mix-blend-mode:multiply" opacity="0.6">
<path d="M50.5545 64.1828L50.1986 56.1832C44.9663 56.1832 36.2047 56.0917 36.2047 56.1832L35.5918 64.1655C40.6881 66.5839 46.8175 65.5602 50.5545 64.1828Z" fill="#904D2F"/>
</g>
</g>
<path d="M23.4573 35.9353C22.2043 45.5373 22.9852 51.6402 25.1108 55.2554C28.2249 60.5522 35.8644 64.0314 43.3433 63.7817C51.8948 63.4973 57.787 59.929 60.4834 55.5991C63.3603 50.9824 63.1675 42.1099 62.5842 36.368C62.6806 23.5094 49.7471 19.3056 43.0789 19.0954C28.0569 18.6479 23.3486 28.0693 23.4573 35.9353Z" fill="#904D2F"/>
<g style="mix-blend-mode:multiply" opacity="0.6">
<path d="M41.0684 47.2988C41.0189 47.7662 40.9893 48.0654 40.9893 48.0654C41.5206 49.5911 44.8276 49.3958 45.1143 48.0308C45.1143 48.0308 45.0846 47.7835 45.0352 47.373C44.5112 48.5748 41.7901 48.7256 41.0684 47.2988Z" fill="#904D2F"/>
</g>
<path opacity="0.53" d="M29.3641 50.2262C31.8784 50.2262 33.9167 49.0616 33.9167 47.6248C33.9167 46.1881 31.8784 45.0234 29.3641 45.0234C26.8498 45.0234 24.8115 46.1881 24.8115 47.6248C24.8115 49.0616 26.8498 50.2262 29.3641 50.2262Z" fill="#FA6F6D"/>
<path opacity="0.53" d="M56.1629 50.2262C58.6772 50.2262 60.7155 49.0616 60.7155 47.6248C60.7155 46.1881 58.6772 45.0234 56.1629 45.0234C53.6486 45.0234 51.6104 46.1881 51.6104 47.6248C51.6104 49.0616 53.6486 50.2262 56.1629 50.2262Z" fill="#FA6F6D"/>
<path d="M35.1549 40.8965C35.4819 40.897 35.8013 40.9944 36.0729 41.1765C36.3445 41.3586 36.556 41.6171 36.6808 41.9194C36.8055 42.2218 36.8379 42.5543 36.7739 42.8751C36.7098 43.1958 36.5521 43.4903 36.3208 43.7214C36.0894 43.9526 35.7948 44.1099 35.4741 44.1735C35.1535 44.2371 34.8212 44.2042 34.5192 44.079C34.2172 43.9537 33.9591 43.7416 33.7775 43.4696C33.5959 43.1976 33.499 42.8779 33.499 42.5508C33.499 42.3333 33.5419 42.118 33.6251 41.9172C33.7084 41.7163 33.8304 41.5338 33.9842 41.3802C34.138 41.2265 34.3205 41.1047 34.5214 41.0217C34.7223 40.9387 34.9376 40.8962 35.1549 40.8965Z" fill="black"/>
<path d="M36.4275 38.3907C36.3423 38.3901 36.2581 38.3715 36.1804 38.3363C35.534 38.0722 34.8099 38.0722 34.1636 38.3363C34.0165 38.3993 33.8507 38.4027 33.7012 38.3458C33.5516 38.289 33.4299 38.1763 33.3617 38.0315C33.2935 37.8867 33.2841 37.721 33.3355 37.5694C33.3868 37.4178 33.495 37.292 33.6372 37.2186C34.1192 37.0125 34.6379 36.9062 35.1621 36.9062C35.6863 36.9062 36.2051 37.0125 36.6871 37.2186C36.8155 37.2764 36.9204 37.3763 36.9843 37.5019C37.0482 37.6275 37.0673 37.7711 37.0385 37.909C37.0096 38.047 36.9346 38.1709 36.8257 38.2603C36.7168 38.3497 36.5807 38.3992 36.4399 38.4006L36.4275 38.3907Z" fill="black"/>
<path d="M50.4777 40.8965C50.8047 40.8965 51.1244 40.9935 51.3963 41.1753C51.6682 41.3571 51.8801 41.6154 52.0053 41.9177C52.1304 42.22 52.1632 42.5526 52.0994 42.8735C52.0356 43.1944 51.8781 43.4892 51.6468 43.7206C51.4156 43.9519 51.121 44.1095 50.8002 44.1733C50.4795 44.2372 50.147 44.2044 49.8449 44.0792C49.5428 43.954 49.2846 43.7419 49.1029 43.4699C48.9212 43.1978 48.8242 42.878 48.8242 42.5508C48.8242 42.3336 48.867 42.1184 48.9501 41.9177C49.0332 41.717 49.155 41.5346 49.3085 41.381C49.462 41.2274 49.6443 41.1056 49.8449 41.0224C50.0455 40.9393 50.2605 40.8965 50.4777 40.8965Z" fill="black"/>
<path d="M51.7532 38.391C51.668 38.3897 51.5839 38.3712 51.5061 38.3366C50.8606 38.0723 50.1372 38.0723 49.4917 38.3366C49.3446 38.3995 49.1788 38.4029 49.0293 38.3461C48.8797 38.2892 48.758 38.1765 48.6898 38.0317C48.6216 37.8869 48.6122 37.7212 48.6636 37.5696C48.715 37.418 48.8231 37.2923 48.9653 37.2188C49.4473 37.0126 49.9661 36.9062 50.4903 36.9062C51.0145 36.9062 51.5332 37.0126 52.0152 37.2188C52.1436 37.2766 52.2485 37.3766 52.3124 37.5021C52.3763 37.6277 52.3954 37.7713 52.3666 37.9093C52.3378 38.0472 52.2627 38.1711 52.1538 38.2605C52.045 38.3499 51.9089 38.3994 51.768 38.4009L51.7532 38.391Z" fill="black"/>
<path d="M42.8803 56.678C39.996 56.678 37.3589 55.4664 36.1651 53.587C36.1231 53.5179 36.1098 53.435 36.1282 53.3561C36.1466 53.2773 36.1952 53.2088 36.2635 53.1654C36.3318 53.122 36.4143 53.1072 36.4935 53.124C36.5726 53.1409 36.642 53.1882 36.6866 53.2557C37.7692 54.9594 40.2012 56.0598 42.8803 56.0598C45.6929 56.0598 48.2436 54.8234 49.2248 52.996C49.2426 52.958 49.268 52.9241 49.2994 52.8962C49.3307 52.8684 49.3675 52.8472 49.4073 52.834C49.4471 52.8208 49.4892 52.8159 49.531 52.8195C49.5728 52.8231 49.6134 52.8352 49.6504 52.8551C49.6874 52.8749 49.7199 52.9021 49.746 52.9349C49.7722 52.9677 49.7913 53.0056 49.8024 53.0461C49.8134 53.0865 49.8161 53.1289 49.8103 53.1704C49.8045 53.212 49.7902 53.2519 49.7685 53.2878C48.6662 55.3378 45.9623 56.678 42.8803 56.678Z" fill="#59142A"/>
<path d="M2.13269 36.2372C2.1574 36.0047 3.88502 35.384 3.96658 35.1837C4.08027 34.8969 2.62946 35.2332 2.52813 34.6892C2.38231 33.9152 5.49397 33.8657 4.25821 33.6407C2.57262 33.0794 2.95075 33.1461 3.4154 32.518C3.74165 32.7653 4.50042 32.518 4.97743 32.4117C5.39265 32.3177 5.32345 31.7218 5.75597 31.7861C5.95369 32.2807 6.64078 32.2262 7.01892 32.4884C7.39707 32.7505 7.36246 33.0917 7.5676 33.3662C7.94327 33.8608 8.89483 33.8608 9.46822 33.7643C9.8958 33.7 10.0836 33.4033 10.4815 33.6827C10.788 33.8979 10.6793 34.2861 10.9759 34.4666C11.4331 34.7411 11.4356 34.2391 11.8013 34.1897C12.0831 34.1526 12.4958 34.4369 12.6911 34.6125C12.869 34.2441 13.2966 34.3652 13.6451 34.4641C14.3717 34.657 13.9714 34.882 14.3396 35.206C14.9155 35.7005 15.6149 34.4839 16.4281 34.8994C16.7073 35.0403 16.5838 35.3519 16.7864 35.4434C17.2807 35.6733 16.9372 35.2777 17.2115 35.1541C17.7923 34.9068 18.9836 34.7089 18.7365 36.1209C18.8477 36.3682 19.127 36.5833 19.0503 36.9394C18.9737 37.2955 18.5338 37.4711 18.4177 37.8371C18.2627 37.8399 18.1093 37.8062 17.9698 37.7387C17.8302 37.6713 17.7085 37.572 17.6144 37.4488C17.4093 38.2377 15.7533 38.6209 15.3505 37.6961C14.9871 37.6813 14.4805 37.795 14.1369 37.6763C13.7934 37.5576 13.6426 37.1941 13.2818 37.1224C13.3609 37.5082 12.9555 37.8272 12.5403 37.8173C11.9126 37.8049 11.7272 37.209 11.443 36.8455C10.8078 36.0294 10.924 36.6303 10.3333 37.1076C9.8093 37.5304 8.87256 37.4019 8.32882 37.0557C7.96797 36.8257 7.53794 35.886 7.28831 35.7772C6.66548 35.5052 6.79402 36.2891 6.71245 36.6748C6.58888 37.2634 5.90425 36.9023 5.28143 37.1199C4.88845 37.2559 4.86373 36.8727 4.4757 37.0186C4.46087 37.842 3.43024 37.7851 3.23993 37.4563C2.99278 37.0631 4.51525 35.9899 4.11239 36.1704C3.43766 36.4696 2.09314 36.6081 2.13269 36.2372Z" fill="#321A0B"/>
<path d="M18.3502 38.0053C18.4717 37.9611 18.5731 37.8744 18.6358 37.7612C18.6984 37.6481 18.7182 37.5161 18.6913 37.3896C18.6567 36.895 18.197 34.5038 18.197 34.4371C18.1347 34.2902 18.0166 34.174 17.8688 34.1142C17.7209 34.0544 17.5554 34.0558 17.4086 34.1181C17.2617 34.1804 17.1456 34.2985 17.0858 34.4464C17.026 34.5944 17.0275 34.76 17.0897 34.9069C17.1911 35.1097 17.5593 37.7605 17.5593 37.7605C17.5593 37.7605 17.6112 38.2056 18.3502 38.0053Z" fill="#40EB00"/>
<path d="M7.15204 36.4008C7.2586 36.4113 7.3654 36.3835 7.45329 36.3223C7.54118 36.2611 7.60438 36.1706 7.63151 36.0669C7.79463 35.6738 8.33096 33.6831 8.35568 33.6337C8.36354 33.4986 8.31744 33.3659 8.22752 33.2648C8.1376 33.1637 8.01122 33.1025 7.87618 33.0946C7.74115 33.0867 7.60852 33.1329 7.50748 33.2228C7.40643 33.3128 7.34527 33.4392 7.33741 33.5743C7.33741 33.7672 6.6256 35.921 6.6256 35.921C6.6256 35.921 6.51438 36.2697 7.15204 36.4008Z" fill="#FF00FF"/>
<path d="M80.2327 46.9296C80.3118 46.7095 80.1537 46.6329 80.171 46.4177C80.2006 46.1111 80.3415 45.7995 80.3563 45.4904C80.3959 44.7041 79.9806 43.6927 81.1892 44.0562C81.4735 43.2427 80.9421 42.8965 80.8111 42.1324C80.4082 42.2065 79.8225 42.5428 79.4394 42.2313C79.1107 41.9593 79.4394 41.4598 79.0266 41.3213C78.6337 41.6625 78.038 41.3213 77.5833 41.3757C77.1285 41.4301 77.0049 41.754 76.6984 41.9073C76.1349 42.1868 75.2946 41.7392 74.8225 41.4128C74.4716 41.1655 74.437 40.8119 73.9575 40.8811C73.5868 40.933 73.5077 41.3287 73.1592 41.3534C72.6254 41.3905 72.8527 40.9405 72.5463 40.7327C72.2991 40.5695 71.8048 40.6363 71.5577 40.7055C71.5577 40.295 71.1276 40.211 70.7766 40.1393C70.0352 39.9835 70.2972 40.3668 69.8251 40.478C69.0836 40.6561 69.0144 39.2589 68.095 39.2589C67.7836 39.2589 67.7515 39.5928 67.529 39.5829C66.9779 39.5582 67.4722 39.3653 67.2819 39.1304C66.8815 38.6358 65.9052 37.9335 65.4851 39.301C65.2775 39.4667 64.929 39.5483 64.8351 39.8895C64.7411 40.2308 65.055 40.5992 64.9932 40.9776C65.1308 41.0484 65.2827 41.0868 65.4373 41.0898C65.592 41.0928 65.7453 41.0603 65.8855 40.9949C65.71 41.7936 67.0125 42.8841 67.7861 42.251C68.1173 42.4019 68.5276 42.7456 68.876 42.7852C69.2245 42.8247 69.5285 42.575 69.8918 42.6764C69.6447 42.9855 69.8622 43.4528 70.2329 43.6309C70.7964 43.9029 71.2339 43.4578 71.6491 43.2624C72.5858 42.8223 72.2102 43.3045 72.5216 44.0043C72.7984 44.62 73.6906 44.9291 74.3332 44.8673C74.7558 44.8252 75.5689 44.1848 75.8383 44.1996C76.5155 44.2392 76.046 44.8797 75.9446 45.2605C75.7889 45.8416 76.5625 45.8292 77.0197 46.3065C77.3089 46.6057 77.4992 46.2817 77.7834 46.5809C77.4251 47.3228 78.3692 47.7358 78.693 47.533C79.0785 47.2857 78.8091 46.4845 79.086 46.8307C79.558 47.3846 80.1042 47.2808 80.2327 46.9296Z" fill="#321A0B"/>
<path d="M64.9758 41.1549C64.8903 41.0617 64.8408 40.941 64.8363 40.8146C64.8317 40.6881 64.8725 40.5642 64.9511 40.465C65.1982 40.0298 66.7059 38.1208 66.7355 38.059C66.846 37.9671 66.9861 37.9184 67.1297 37.9221C67.2734 37.9257 67.4108 37.9814 67.5165 38.0788C67.5829 38.1338 67.6363 38.2027 67.6729 38.2807C67.7096 38.3587 67.7286 38.4439 67.7286 38.5301C67.7286 38.6162 67.7096 38.7014 67.6729 38.7794C67.6363 38.8574 67.5829 38.9264 67.5165 38.9813C67.3361 39.1149 65.8062 41.3107 65.8062 41.3107C65.8062 41.3107 65.5418 41.6693 64.9758 41.1549Z" fill="#40EB00"/>
<path d="M75.6902 44.8084C75.5903 44.7696 75.5074 44.6966 75.4562 44.6024C75.4051 44.5083 75.389 44.3989 75.4109 44.294C75.4455 43.8662 75.8681 41.8509 75.8681 41.794C75.9164 41.6812 76.0049 41.5904 76.1163 41.5392C76.2278 41.488 76.3542 41.4801 76.4712 41.517C76.542 41.5344 76.6081 41.5672 76.6647 41.6131C76.7213 41.6591 76.7671 41.7169 76.7988 41.7826C76.8304 41.8483 76.8472 41.9202 76.8478 41.9932C76.8484 42.0661 76.8329 42.1382 76.8024 42.2045C76.7159 42.3726 76.3748 44.6179 76.3748 44.6179C76.3748 44.6179 76.313 44.974 75.6902 44.8084Z" fill="#FF00FF"/>
<path d="M19.0256 37.822C17.6168 36.8156 18.9242 35.9105 18.6227 35.1019C16.1339 32.503 19.3271 32.0851 18.1284 30.6755C17.0211 29.7705 17.8812 27.6661 19.5347 27.2557C18.3286 26.2492 19.2109 24.0731 20.3404 23.9347C19.73 22.9455 20.6098 22.2828 22.0482 22.1221C21.0596 20.7027 21.895 18.7368 23.2519 18.9495C23.2519 17.6339 24.3493 15.8782 26.979 15.4405C27.9478 15.3441 28.2938 12.5894 30.4861 12.5894C32.0061 12.5894 32.3348 10.8584 33.3358 11.0538C34.4331 11.2714 36.0124 10.2452 37.5003 9.95583C38.1973 9.8223 39.6382 10.5938 40.3376 10.4751C41.8205 10.2278 41.524 9.56761 43.3405 9.60717C45.5649 9.65416 45.3894 10.6532 46.2693 10.8436C47.2233 11.0389 48.4937 10.2105 49.4625 10.3663C51.4398 10.6828 51.3854 11.714 52.1812 11.7214C53.1946 11.7214 54.5786 11.7758 55.2509 11.9415C56.2395 12.1888 55.498 12.1888 56.1258 13.4746C56.4347 14.1027 57.2009 14.5503 58.0412 14.8916C59.0867 15.3169 60.1272 16.6028 60.2656 17.6117C61.0565 17.5004 63.5824 18.6181 63.182 20.4282C62.8261 22.0331 64.188 21.3357 65.4064 23.3461C66.012 24.355 65.9452 26.1157 66.4123 27.8739C66.7633 29.1993 68.2215 30.7918 67.2156 32.4016C66.83 33.0173 66.5112 33.91 67.2156 35.2181C67.6555 36.0341 67.0154 38.2968 66.6125 38.2374C65.3422 38.0495 66.8127 39.5455 65.2408 40.6806C65.0283 41.687 63.7777 41.3012 62.794 41.5634C62.9917 40.5495 62.6803 39.4664 62.49 38.2374C61.8598 35.0228 60.9626 33.8778 60.713 33.3487C60.6067 32.0084 62.3837 32.7206 61.9487 31.9589C61.19 32.1815 60.6611 32.5425 60.0358 32.1098C59.5612 30.1563 57.9103 28.7542 56.3285 27.6315C55.4264 26.9861 57.4456 26.222 57.1589 25.359C56.756 24.1523 55.4832 26.0712 54.4402 26.8427C53.1303 26.6597 53.5257 25.1983 52.0255 25.453C50.5154 25.6533 49.6108 23.3387 46.294 23.9421C46.4102 22.8343 47.814 20.5296 46.5956 20.5222C46.1013 20.7249 45.7849 21.7932 44.6653 23.586C42.8561 23.361 37.4978 23.5143 35.6961 24.036C35.098 22.9653 34.5765 21.1206 34.3516 21.7932C34.2997 22.8293 34.4751 23.905 34.5765 24.9337C33.8671 24.9782 30.3155 27.4065 29.4184 28.2967C27.7699 28.7913 27.7748 26.1676 26.3191 27.5549C27.0605 28.2398 27.2583 28.769 27.849 29.8719C26.67 31.6622 27.1767 31.4421 26.7293 32.1147C26.235 32.5178 24.5742 30.8783 23.9711 31.593C23.5608 32.4782 25.1747 32.1914 25.5801 33.2028C25.9434 34.1177 24.1713 34.7137 24.2726 36.2221C23.3656 37.5005 23.0814 39.7582 23.0814 41.1998C22.6033 40.9342 22.0671 40.7908 21.5203 40.7826C20.9735 40.7744 20.4332 40.9016 19.9474 41.1529C17.9924 40.9402 18.5238 38.9273 19.0256 37.822Z" fill="#321A0B"/>
<path d="M83.1981 36.2193C83.1734 35.9893 82.993 35.9918 82.9139 35.7915C82.8002 35.5071 82.7854 35.1634 82.6667 34.8815C82.3454 34.1619 81.5175 33.4497 82.7582 33.2247C82.6445 32.3716 82.0167 32.3048 81.5496 31.6816C81.2258 31.9289 80.8501 32.5001 80.3731 32.3913C79.9579 32.2974 80.0271 31.7014 79.5922 31.7657C79.3969 32.2603 78.7098 32.2059 78.3292 32.468C77.9486 32.7301 77.9881 33.0689 77.783 33.3459C77.4048 33.8404 76.4558 33.8404 75.8824 33.744C75.4548 33.6797 75.267 33.3829 74.8691 33.6624C74.5626 33.8775 74.6713 34.2657 74.3747 34.4462C73.915 34.7207 73.915 34.2187 73.5492 34.1693C73.2675 34.1322 72.8547 34.4166 72.6595 34.5921C72.4815 34.2237 72.054 34.3449 71.7055 34.4438C70.9788 34.6367 71.3792 34.8617 71.011 35.1856C70.4351 35.6802 69.7357 34.4636 68.9225 34.879C68.6432 35.0199 68.7668 35.3315 68.5642 35.423C68.0699 35.6505 68.4134 35.2549 68.1366 35.1337C67.5583 34.8741 66.367 34.6886 66.6141 36.0981C66.5029 36.3454 66.2236 36.563 66.3002 36.9166C66.3768 37.2702 66.8168 37.4507 66.9329 37.8167C67.0876 37.8181 67.2406 37.7839 67.3799 37.7165C67.5192 37.6492 67.6411 37.5506 67.7362 37.4285C67.9413 38.2173 69.5972 38.6006 70.0001 37.6757C70.361 37.6609 70.8701 37.7747 71.2136 37.656C71.5572 37.5373 71.7079 37.1614 72.0688 37.0996C71.9897 37.4878 72.395 37.8068 72.8102 37.7969C73.4355 37.7969 73.6234 37.1886 73.9076 36.8251C74.5428 36.0091 74.4266 36.61 75.0173 37.0872C75.5413 37.5101 76.478 37.3815 77.0218 37.0353C77.3801 36.8053 77.8126 35.8657 78.0623 35.7569C78.6851 35.4848 78.5566 36.2687 78.6381 36.6545C78.7617 37.243 79.4463 36.882 80.0691 37.0996C80.4621 37.2356 80.4868 36.8523 80.8749 36.9982C80.8897 37.8192 81.9203 37.7648 82.1106 37.4334C82.3578 37.0427 81.7424 36.4443 82.1452 36.6297C82.8101 36.9339 83.2476 36.5927 83.1981 36.2193Z" fill="#321A0B"/>
<path d="M66.9908 37.9896C66.8723 37.9446 66.7735 37.8591 66.7119 37.7482C66.6504 37.6373 66.6301 37.5082 66.6547 37.3837C66.6893 36.8892 67.149 34.498 67.149 34.4312C67.1799 34.3585 67.2247 34.2925 67.281 34.2371C67.3373 34.1817 67.404 34.138 67.4772 34.1083C67.5504 34.0787 67.6287 34.0638 67.7077 34.0645C67.7867 34.0651 67.8647 34.0814 67.9374 34.1122C68.0101 34.1431 68.0761 34.1879 68.1314 34.2443C68.1868 34.3006 68.2305 34.3673 68.2601 34.4406C68.2897 34.5138 68.3046 34.5922 68.304 34.6712C68.3033 34.7502 68.2871 34.8283 68.2563 34.901C68.1549 35.1013 67.7867 37.7547 67.7867 37.7547C67.7867 37.7547 67.7274 38.1899 66.9908 37.9896Z" fill="#40EB00"/>
<path d="M78.1885 36.3773C78.0797 36.3911 77.9695 36.3649 77.8786 36.3035C77.7876 36.2421 77.7221 36.1497 77.6942 36.0435C77.5311 35.6479 76.9973 33.6597 76.9725 33.6102C76.9647 33.4751 77.0108 33.3425 77.1007 33.2414C77.1906 33.1403 77.317 33.079 77.452 33.0712C77.587 33.0633 77.7197 33.1094 77.8207 33.1994C77.9218 33.2894 77.9829 33.4158 77.9908 33.5509C77.9908 33.7413 78.7001 35.8976 78.7001 35.8976C78.7001 35.8976 78.8262 36.2537 78.1885 36.3773Z" fill="#FF00FF"/>
</g>
<defs>
<clipPath id="clip0_4643_7018">
<rect width="84.9187" height="84.8837" fill="white" transform="translate(0.763672 0.757812)"/>
</clipPath>
</defs>
</svg>
