<svg width="86" height="86" viewBox="0 0 86 86" fill="none" xmlns="http://www.w3.org/2000/svg">
<g clip-path="url(#clip0_4643_7023)">
<path d="M0.50026 42.9521C0.500259 66.3896 19.5001 85.3993 42.9376 85.4114C66.3752 85.4235 85.375 66.4335 85.375 42.996C85.375 19.5585 66.3752 0.548767 42.9376 0.536646C19.5001 0.524524 0.500261 19.5146 0.50026 42.9521Z" fill="white"/>
<path fill-rule="evenodd" clip-rule="evenodd" d="M16.7305 76.3561C24.229 82.2494 33.4934 85.4435 43.0288 85.4229C52.5643 85.4022 61.8147 82.1681 69.2877 76.2423C64.7351 68.7744 54.7056 63.584 43.0425 63.584C31.3298 63.584 21.2534 68.8239 16.7305 76.3561Z" fill="#D3BEAB"/>
<path d="M27.9929 66.7656C25.256 68.0046 22.7352 69.6743 20.5264 71.7113H65.58C63.3683 69.6744 60.8451 68.0047 58.1061 66.7656H27.9929Z" fill="#D38166"/>
<path d="M16.7305 76.3563C17.8684 77.2489 19.0514 78.0825 20.2747 78.8538H65.6026C66.8759 78.0487 68.106 77.177 69.2877 76.2425C68.7875 75.4265 68.2309 74.6465 67.6219 73.9082H18.4655C17.8295 74.6818 17.2497 75.4998 16.7305 76.3563Z" fill="#D38166"/>
<path d="M42.9387 85.4247C49.4447 85.4314 55.8644 83.9352 61.6977 81.0527H24.1748C30.0094 83.9365 36.431 85.4327 42.9387 85.4247Z" fill="#D38166"/>
<path d="M21.6779 12.8822C19.9033 14.0914 17.5455 17.1675 17.8841 17.7239C18.2375 18.3743 20.2543 17.7783 20.7609 17.5929C17.4342 20.0657 13.1758 27.9292 13.1758 29.6305C13.5959 29.999 15.1209 28.6933 15.6622 28.1914C14.6562 30.1276 13.5144 37.6573 14.1001 38.3695C14.6192 38.6538 14.5005 37.8156 15.0023 37.0787C14.5846 40.6717 16.7323 46.8512 17.3527 47.007C17.6888 47.0985 17.9681 45.9487 18.5563 44.5663C18.2597 47.3458 20.0047 52.7266 21.3467 53.8369C21.5939 53.9309 22.271 52.2296 22.1895 51.557C24.8736 57.9121 32.1522 61.5966 36.5985 62.5388C43.2519 63.9483 48.976 63.3993 54.7075 59.1856C57.7401 56.9601 60.5107 52.509 61.5388 50.6742C61.4326 51.7696 61.2917 52.5263 61.5388 53.1643C62.5448 52.5189 64.4898 49.8631 65.4117 47.7761C65.1646 48.7899 65.083 49.4131 65.3326 49.6875C67.0948 48.5822 68.5852 43.4214 68.3331 40.2908C68.7458 41.28 68.6247 42.0663 69.1289 42.3433C71.2717 38.4931 69.0375 29.4352 66.7785 26.8536C67.4137 27.1454 67.9104 27.677 68.5086 28.0454C68.8595 27.3704 67.7671 24.3783 66.5783 22.358C64.648 19.079 63.1577 17.442 61.0767 16.1611C61.8774 16.4084 63.7953 17.081 64.3193 16.4257C63.5358 13.0231 54.0624 6.53443 46.8505 8.01812C47.9404 7.18725 51.0521 5.53048 50.3724 4.60812C49.1984 3.50278 46.4328 5.53047 45.5084 7.09576C45.9632 5.7827 44.2504 2.39741 42.4907 2.95132C41.9049 3.59425 43.7611 6.55917 43.9291 7.75849C40.5753 5.17934 32.392 6.4479 30.4765 7.54335C30.4914 8.22585 31.9595 8.60417 32.7009 8.81931C28.6056 9.18281 24.9477 10.6591 21.6779 12.8822Z" fill="#9F5305"/>
<path d="M42.8747 71.0128C48.3121 71.0128 52.7138 68.3595 52.7138 65.0781C52.7138 64.9915 52.7138 64.9075 52.7138 64.8308C46.2656 63.1345 39.4846 63.1669 33.0528 64.9248C33.0528 64.9767 33.0528 65.0311 33.0528 65.0855C33.0355 68.3595 37.4398 71.0128 42.8747 71.0128Z" fill="#42210B"/>
<path d="M23.67 50.2471C21.327 50.1581 19.4808 48.2689 18.8975 45.9716C18.1313 42.9622 19.1125 39.9578 23.67 40.2842V50.2471Z" fill="#F6C495"/>
<g style="mix-blend-mode:multiply" opacity="0.4">
<path d="M22.1357 40.3053C22.6452 40.2461 23.1592 40.2361 23.6706 40.2756V50.246C23.143 50.2242 22.6235 50.1095 22.1357 49.9072V40.3053Z" fill="#DE8D73"/>
</g>
<path d="M61.0449 50.2471C63.3855 50.1581 65.2342 48.2689 65.8174 45.9716C66.5836 42.9622 65.6 39.9578 61.0449 40.2842V50.2471Z" fill="#F6C495"/>
<g style="mix-blend-mode:multiply" opacity="0.4">
<path d="M62.5773 40.3053C62.0686 40.2461 61.5555 40.2361 61.0449 40.2756V50.246C61.5717 50.2245 62.0905 50.1098 62.5773 49.9073V40.3053Z" fill="#DE8D73"/>
</g>
<path d="M35.9219 55.966L35.1582 65.9092C35.1582 65.9092 36.4904 69.245 42.689 69.1238C49.1521 68.9878 50.368 66.1243 50.368 66.1243L49.9158 55.9858C44.681 55.966 35.9219 55.8696 35.9219 55.966Z" fill="#F6C495"/>
<g style="mix-blend-mode:multiply" opacity="0.6">
<path d="M50.2718 63.9632L49.9134 55.9636C44.6812 55.9636 35.9196 55.8697 35.9196 55.9636L35.3066 63.9459C40.398 66.3643 46.5324 65.3405 50.2718 63.9632Z" fill="#DE8D73"/>
</g>
<path d="M23.8437 36.606C22.5931 46.208 23.0355 51.9375 25.1611 55.5651C28.2752 60.8619 35.586 64.22 43.0649 63.9727C51.6164 63.6883 56.8709 60.0459 59.5698 55.716C62.4467 51.0992 61.9623 41.9943 61.379 36.2524C61.0181 35.1792 60.2445 30.3498 59.377 30.3498C58.6356 30.3498 58.0523 33.7376 57.1526 33.8266C55.6697 33.975 55.9935 29.8701 54.6416 29.4819C54.0163 29.3014 53.4849 32.474 52.3257 32.474C51.2654 32.066 51.1666 28.9008 49.7182 28.3221C49.0732 28.2825 48.5888 30.2188 47.7657 31.3167C46.7598 30.5748 45.8602 27.4393 45.0866 27.5506C44.1944 27.6767 42.4964 31.5961 41.5053 31.695C40.628 30.9928 40.6452 27.1624 39.5825 26.873C38.4258 27.0659 37.41 31.8187 36.8811 31.7025C35.5687 31.4107 35.151 28.515 34.6567 28.6114C33.7719 29.1431 33.3246 32.4369 32.6004 32.7979C31.8095 32.8227 31.0112 28.7054 30.3068 29.0887C29.3454 29.2198 29.3602 33.8736 28.5298 33.9651C27.3311 33.8736 27.3311 29.7613 26.7997 30.1322C26.036 30.3795 24.9287 33.1713 23.8437 36.606Z" fill="#F6C495"/>
<path d="M40.7857 47.0781L40.7041 47.8472C41.2355 49.3704 44.5424 49.1775 44.8291 47.8101C44.8291 47.8101 44.7994 47.5628 44.75 47.1523C44.226 48.3541 41.5049 48.5074 40.7857 47.0781Z" fill="#DF9176"/>
<path opacity="0.8" d="M29.078 48.5524C31.5923 48.5524 33.6305 47.3877 33.6305 45.951C33.6305 44.5143 31.5923 43.3496 29.078 43.3496C26.5637 43.3496 24.5254 44.5143 24.5254 45.951C24.5254 47.3877 26.5637 48.5524 29.078 48.5524Z" fill="#FFA485"/>
<path d="M34.8693 40.6777C35.197 40.6772 35.5175 40.7741 35.7902 40.9559C36.0629 41.1378 36.2755 41.3965 36.4012 41.6993C36.5268 42.0022 36.5598 42.3355 36.496 42.6571C36.4322 42.9788 36.2744 43.2742 36.0427 43.506C35.8109 43.7379 35.5156 43.8957 35.1942 43.9596C34.8727 44.0234 34.5396 43.9904 34.2369 43.8647C33.9342 43.739 33.6756 43.5263 33.4939 43.2534C33.3121 42.9806 33.2153 42.6599 33.2158 42.332C33.2165 41.8935 33.3909 41.4731 33.7008 41.163C34.0108 40.8529 34.431 40.6784 34.8693 40.6777Z" fill="#42210B"/>
<path d="M36.142 38.1618C36.0568 38.1611 35.9726 38.1426 35.8949 38.1074C35.2486 37.8427 34.5243 37.8427 33.8781 38.1074C33.7296 38.1769 33.5596 38.1845 33.4055 38.1287C33.2514 38.0728 33.1258 37.9579 33.0563 37.8094C32.9868 37.6608 32.9792 37.4908 33.035 37.3366C33.0909 37.1824 33.2057 37.0567 33.3541 36.9872C33.8359 36.7817 34.3542 36.6758 34.8778 36.6758C35.4015 36.6758 35.9198 36.7817 36.4015 36.9872C36.53 37.045 36.6349 37.1449 36.6988 37.2705C36.7627 37.396 36.7818 37.5397 36.753 37.6776C36.7241 37.8155 36.649 37.9395 36.5402 38.0289C36.4313 38.1183 36.2952 38.1678 36.1544 38.1692L36.142 38.1618Z" fill="#42210B"/>
<path d="M50.195 40.6777C50.5226 40.6777 50.8429 40.7749 51.1152 40.9571C51.3876 41.1393 51.5998 41.3982 51.7251 41.7011C51.8504 42.0039 51.883 42.3372 51.8189 42.6586C51.7548 42.9801 51.5969 43.2753 51.365 43.5069C51.1332 43.7385 50.8379 43.8961 50.5166 43.9598C50.1952 44.0234 49.8621 43.9903 49.5596 43.8645C49.257 43.7387 48.9986 43.526 48.8169 43.2532C48.6353 42.9804 48.5386 42.6598 48.5391 42.332C48.5397 41.8931 48.7145 41.4723 49.0249 41.1621C49.3354 40.852 49.7562 40.6777 50.195 40.6777Z" fill="#42210B"/>
<path d="M51.4682 38.1618C51.3829 38.1611 51.2987 38.1426 51.2211 38.1074C50.5748 37.8427 49.8505 37.8427 49.2043 38.1074C49.0558 38.1769 48.8858 38.1845 48.7317 38.1287C48.5776 38.0728 48.452 37.9579 48.3825 37.8094C48.313 37.6608 48.3054 37.4908 48.3612 37.3366C48.4171 37.1824 48.5318 37.0567 48.6803 36.9872C49.162 36.7817 49.6803 36.6758 50.204 36.6758C50.7277 36.6758 51.246 36.7817 51.7277 36.9872C51.8562 37.045 51.961 37.1449 52.0249 37.2705C52.0889 37.396 52.108 37.5397 52.0791 37.6776C52.0503 37.8155 51.9752 37.9395 51.8664 38.0289C51.7575 38.1183 51.6214 38.1678 51.4806 38.1692L51.4682 38.1618Z" fill="#42210B"/>
<path d="M42.5947 57.2741C39.7104 57.2741 37.0757 56.06 35.8795 54.1831C35.8568 54.1489 35.8412 54.1104 35.8335 54.07C35.8259 54.0297 35.8264 53.9882 35.8349 53.948C35.8435 53.9078 35.86 53.8697 35.8834 53.836C35.9068 53.8022 35.9368 53.7735 35.9714 53.7515C36.0061 53.7295 36.0448 53.7146 36.0853 53.7077C36.1258 53.7008 36.1673 53.7021 36.2073 53.7114C36.2473 53.7207 36.285 53.738 36.3183 53.7621C36.3515 53.7862 36.3796 53.8166 36.401 53.8517C37.486 55.5555 39.9155 56.6559 42.5947 56.6559C45.4097 56.6559 47.9579 55.4195 48.9391 53.5921C48.9801 53.5244 49.0455 53.4751 49.1219 53.4543C49.1982 53.4334 49.2795 53.4427 49.3492 53.4801C49.419 53.5175 49.4717 53.5802 49.4965 53.6553C49.5214 53.7304 49.5165 53.8123 49.4828 53.8839C48.3805 55.9437 45.6767 57.2741 42.5947 57.2741Z" fill="#9B292A"/>
</g>
<defs>
<clipPath id="clip0_4643_7023">
<rect width="84.8747" height="84.9187" fill="white" transform="translate(0.5 0.515625)"/>
</clipPath>
</defs>
</svg>
