<svg width="86" height="86" viewBox="0 0 86 86" fill="none" xmlns="http://www.w3.org/2000/svg">
<g clip-path="url(#clip0_4643_7017)">
<path d="M42.9374 85.6326C66.375 85.6326 85.3846 66.6327 85.3968 43.1952C85.4089 19.7577 66.4188 0.757812 42.9813 0.757812C19.5438 0.757812 0.53412 19.7577 0.521999 43.1952C0.509879 66.6327 19.4999 85.6326 42.9374 85.6326Z" fill="white"/>
<path d="M60.1456 52.8425C60.1456 52.8425 65.1851 52.1699 70.0318 56.4949C74.0035 60.0335 76.7049 68.0454 76.5739 69.6255C74.5275 70.0311 68.3215 68.5326 63.9048 64.4945C59.2312 60.2165 58.8926 53.8885 58.8926 53.8885L60.1456 52.8425Z" fill="#D3145A"/>
<path d="M60.0816 53.3961L65.519 50.1172C65.519 50.1172 67.7137 52.9139 67.081 55.3744L60.6253 54.0539L62.3554 60.236C62.3554 60.236 59.3302 61.3932 56.1123 58.3096L60.0816 53.3961Z" fill="#FFFF00"/>
<path d="M23.8142 51.5996C23.8142 51.5996 18.7302 51.7035 14.5929 56.7183C11.2093 60.8232 9.76101 69.1541 10.1317 70.6947C12.2152 70.7812 18.1198 68.3554 21.8666 63.6892C25.8359 58.7436 25.2032 52.4428 25.2032 52.4428L23.8142 51.5996Z" fill="#D3145A"/>
<path d="M23.9607 52.1395L18.076 49.7285C18.076 49.7285 16.3336 52.8294 17.3345 55.1687L23.5282 52.8838L22.7521 59.2711C22.7521 59.2711 25.9182 59.9511 28.627 56.4125L23.9607 52.1395Z" fill="#FFFF00"/>
<path d="M61.8292 18.7571C59.3404 13.3465 47.7934 8.93504 41.2463 9.47906C34.4347 10.0478 25.5298 13.1265 20.6658 20.4262C13.5132 31.1607 14.9417 44.3903 20.6658 51.779C26.5728 58.243 34.237 61.6926 42.9096 61.6926C51.2189 61.6926 57.9143 57.9116 63.6705 51.5936C71.058 44.3903 70.3585 23.9252 61.8292 18.7571Z" fill="#D3145A"/>
<path fill-rule="evenodd" clip-rule="evenodd" d="M16.751 76.5787C24.2498 82.4727 33.5146 85.6671 43.0506 85.6465C52.5865 85.6259 61.8375 82.3914 69.3107 76.465C64.7556 68.9971 54.7286 63.8066 43.0654 63.8066C31.3479 63.8066 21.2714 69.0515 16.751 76.5787Z" fill="#60A63F"/>
<path d="M42.9117 70.869C50.7119 78.8958 56.8512 70.827 52.7336 65.3027C52.6817 65.2334 52.7336 65.1321 52.7336 65.0554C46.2845 63.3591 39.5027 63.3915 33.0701 65.1494C33.0701 65.2013 33.1022 65.273 33.0701 65.3101C27.1928 70.8344 36.896 79.3483 42.9117 70.869Z" fill="white"/>
<path d="M23.276 49.5776C20.9355 49.496 19.0892 47.7304 18.5059 45.5988C17.7398 42.7947 18.721 40.0004 23.276 40.2971V49.5776Z" fill="#F6C495"/>
<g style="mix-blend-mode:multiply" opacity="0.4">
<path d="M21.7432 40.3253C22.2521 40.2696 22.765 40.2605 23.2755 40.2981V49.5786C22.7509 49.5591 22.2332 49.4529 21.7432 49.2646V40.3253Z" fill="#DE8D73"/>
</g>
<path d="M61.4756 49.5776C63.8161 49.496 65.6648 47.7304 66.2481 45.5988C67.0143 42.7947 66.0331 40.0004 61.4756 40.2971V49.5776Z" fill="#F6C495"/>
<g style="mix-blend-mode:multiply" opacity="0.4">
<path d="M63.0079 40.3235C62.4991 40.2676 61.9861 40.2585 61.4756 40.2963V49.5768C62.0002 49.5575 62.518 49.4513 63.0079 49.2627V40.3235Z" fill="#DE8D73"/>
</g>
<path d="M35.9395 56.1841L35.1758 66.1273C35.1758 66.1273 37.153 71.2287 43.359 71.0976C49.8196 70.9591 50.3856 66.33 50.3856 66.33L49.9309 56.1915C44.7011 56.1841 35.9395 56.0901 35.9395 56.1841Z" fill="#F6C495"/>
<g style="mix-blend-mode:multiply" opacity="0.6">
<path d="M50.2967 64.1917L49.9383 56.1922C44.7085 56.1922 35.9469 56.0982 35.9469 56.1922L35.334 64.1744C40.4105 66.5854 46.5498 65.5617 50.2967 64.1917Z" fill="#DE8D73"/>
</g>
<path d="M23.1915 35.9371C21.9384 45.5391 23.0457 51.7632 25.1687 55.3735C28.2829 60.6702 35.5937 64.0283 43.075 63.781C51.6266 63.4942 56.881 59.8517 59.5775 55.5243C62.4568 50.9076 61.9724 41.8027 61.3867 36.0608C60.5364 34.9777 58.5938 34.8367 56.5746 34.2853C56.2063 32.8164 56.2558 28.8896 55.3388 26.125C55.1559 28.3308 54.7456 30.6972 54.3799 33.4544C45.5664 34.1963 32.0841 34.1072 29.6645 34.2779C26.36 34.6587 23.0235 34.9554 23.1915 35.9371Z" fill="#F6C495"/>
<path d="M41.2688 47.5156C41.2317 47.8742 41.207 48.1042 41.207 48.1042C41.6148 49.2713 44.1457 49.123 44.3657 48.077C44.3657 48.077 44.3434 47.8841 44.3063 47.5824C43.9035 48.4924 41.82 48.6136 41.2688 47.5156Z" fill="#DF9176"/>
<path opacity="0.8" d="M29.0985 48.7731C31.6128 48.7731 33.651 47.6084 33.651 46.1717C33.651 44.735 31.6128 43.5703 29.0985 43.5703C26.5842 43.5703 24.5459 44.735 24.5459 46.1717C24.5459 47.6084 26.5842 48.7731 29.0985 48.7731Z" fill="#FFA485"/>
<path opacity="0.8" d="M55.8973 48.7731C58.4116 48.7731 60.4499 47.6084 60.4499 46.1717C60.4499 44.735 58.4116 43.5703 55.8973 43.5703C53.383 43.5703 51.3447 44.735 51.3447 46.1717C51.3447 47.6084 53.383 48.7731 55.8973 48.7731Z" fill="#FFA485"/>
<path d="M34.7438 42.1465C35.0713 42.1465 35.3915 42.2437 35.6638 42.4257C35.9361 42.6078 36.1484 42.8665 36.2737 43.1692C36.399 43.472 36.4318 43.8051 36.3679 44.1265C36.304 44.4479 36.1463 44.7431 35.9147 44.9748C35.6832 45.2065 35.3881 45.3643 35.0669 45.4282C34.7457 45.4921 34.4127 45.4593 34.1101 45.3339C33.8075 45.2085 33.5489 44.9962 33.367 44.7237C33.185 44.4513 33.0879 44.1309 33.0879 43.8033C33.0879 43.3639 33.2624 42.9425 33.5729 42.6317C33.8835 42.321 34.3046 42.1465 34.7438 42.1465Z" fill="#42210B"/>
<path d="M36.0168 39.6411C35.9316 39.6404 35.8474 39.6219 35.7697 39.5867C35.1232 39.323 34.3994 39.323 33.7529 39.5867C33.6044 39.6565 33.4343 39.6645 33.28 39.6088C33.1256 39.5532 32.9997 39.4385 32.9299 39.2899C32.8601 39.1414 32.8521 38.9712 32.9077 38.8167C32.9633 38.6623 33.078 38.5363 33.2265 38.4665C33.7088 38.2618 34.2274 38.1562 34.7514 38.1562C35.2754 38.1562 35.794 38.2618 36.2764 38.4665C36.4048 38.5243 36.5097 38.6242 36.5736 38.7498C36.6375 38.8753 36.6566 39.019 36.6278 39.1569C36.5989 39.2948 36.5239 39.4187 36.415 39.5081C36.3061 39.5975 36.17 39.6471 36.0292 39.6485L36.0168 39.6411Z" fill="#42210B"/>
<path d="M51.0905 42.1465C51.418 42.1465 51.7382 42.2437 52.0105 42.4257C52.2828 42.6078 52.495 42.8665 52.6204 43.1692C52.7457 43.472 52.7785 43.8051 52.7146 44.1265C52.6507 44.4479 52.493 44.7431 52.2614 44.9748C52.0298 45.2065 51.7348 45.3643 51.4136 45.4282C51.0923 45.4921 50.7594 45.4593 50.4568 45.3339C50.1542 45.2085 49.8956 44.9962 49.7136 44.7237C49.5317 44.4513 49.4346 44.1309 49.4346 43.8033C49.4346 43.3639 49.609 42.9425 49.9196 42.6317C50.2301 42.321 50.6513 42.1465 51.0905 42.1465Z" fill="#42210B"/>
<path d="M52.3635 39.6411C52.2782 39.6404 52.194 39.6219 52.1164 39.5867C51.4699 39.323 50.746 39.323 50.0996 39.5867C49.9511 39.6565 49.781 39.6645 49.6267 39.6088C49.4723 39.5532 49.3464 39.4385 49.2766 39.2899C49.2068 39.1414 49.1988 38.9712 49.2544 38.8167C49.31 38.6623 49.4247 38.5363 49.5732 38.4665C50.0555 38.2618 50.5741 38.1562 51.0981 38.1562C51.6221 38.1562 52.1407 38.2618 52.623 38.4665C52.7515 38.5243 52.8563 38.6242 52.9202 38.7498C52.9842 38.8753 53.0033 39.019 52.9744 39.1569C52.9456 39.2948 52.8705 39.4187 52.7617 39.5081C52.6528 39.5975 52.5167 39.6471 52.3759 39.6485L52.3635 39.6411Z" fill="#42210B"/>
<path d="M42.4872 57.4958C39.4743 57.4958 37.9024 55.0972 37.6454 53.9819C37.633 53.9414 37.629 53.8987 37.6338 53.8565C37.6386 53.8143 37.652 53.7736 37.6732 53.7368C37.6944 53.7001 37.7229 53.6681 37.757 53.6428C37.7911 53.6176 37.8301 53.5997 37.8714 53.5901C37.9127 53.5806 37.9556 53.5797 37.9973 53.5874C38.039 53.5952 38.0787 53.6115 38.1138 53.6352C38.1489 53.659 38.1788 53.6898 38.2015 53.7256C38.2243 53.7614 38.2394 53.8015 38.246 53.8435C38.4734 54.8326 39.8821 56.9444 42.6058 56.8776C45.453 56.8109 47.1534 55.2752 47.1534 53.8286C47.1534 53.7467 47.186 53.668 47.2439 53.6101C47.3018 53.5521 47.3804 53.5195 47.4624 53.5195C47.5443 53.5195 47.6229 53.5521 47.6808 53.6101C47.7387 53.668 47.7713 53.7467 47.7713 53.8286C47.7713 55.5596 45.9646 57.4167 42.6206 57.4958H42.4872Z" fill="#9B292A"/>
<path d="M43.9161 73.9962C43.9161 74.1947 43.8572 74.3888 43.747 74.5539C43.6367 74.719 43.48 74.8477 43.2966 74.9237C43.1133 74.9997 42.9115 75.0196 42.7169 74.9808C42.5222 74.9421 42.3434 74.8465 42.2031 74.7061C42.0627 74.5657 41.9672 74.3868 41.9285 74.192C41.8897 73.9973 41.9096 73.7954 41.9856 73.612C42.0615 73.4285 42.1901 73.2717 42.3551 73.1614C42.5202 73.0511 42.7142 72.9922 42.9126 72.9922C43.1788 72.9922 43.434 73.098 43.6222 73.2862C43.8103 73.4745 43.9161 73.7299 43.9161 73.9962Z" fill="white"/>
<path d="M53.2137 35.1072C51.0866 35.1103 49.0306 35.8733 47.416 37.2588C45.8014 38.6443 44.7346 40.5613 44.4076 42.6642C43.3375 42.4249 42.2277 42.4249 41.1576 42.6642C40.8068 40.3841 39.5869 38.3286 37.7539 36.929C35.921 35.5295 33.6174 34.8947 31.3267 35.1579C29.036 35.4211 26.9363 36.5618 25.4681 38.3406C24 40.1195 23.2775 42.3981 23.4525 44.6984C23.6274 46.9987 24.6861 49.1418 26.4063 50.6779C28.1266 52.2141 30.3747 53.0238 32.6788 52.9372C34.9829 52.8506 37.1639 51.8744 38.7642 50.2135C40.3644 48.5526 41.2594 46.3361 41.2614 44.0292C41.2614 43.8486 41.2614 43.6706 41.2441 43.4926C42.2561 43.2482 43.3116 43.2482 44.3236 43.4926C44.3113 43.6706 44.3063 43.8487 44.3063 44.0267C44.3088 45.7868 44.8327 47.5068 45.8118 48.9691C46.791 50.4314 48.1814 51.5705 49.8075 52.2424C51.4335 52.9143 53.2221 53.0888 54.9472 52.7439C56.6724 52.399 58.2566 51.5502 59.4997 50.3047C60.7428 49.0592 61.589 47.473 61.9313 45.7465C62.2736 44.02 62.0967 42.2307 61.4229 40.6048C60.7491 38.9788 59.6087 37.5893 58.1458 36.6116C56.6828 35.634 54.9631 35.1122 53.2039 35.1122L53.2137 35.1072ZM32.3515 52.1103C30.7526 52.1103 29.1895 51.6359 27.86 50.7472C26.5306 49.8584 25.4944 48.5951 24.8825 47.1171C24.2706 45.6391 24.1105 44.0128 24.4224 42.4437C24.7344 40.8747 25.5043 39.4335 26.635 38.3023C27.7656 37.171 29.2061 36.4007 30.7743 36.0886C32.3425 35.7765 33.968 35.9367 35.4453 36.5489C36.9225 37.1611 38.1851 38.1978 39.0734 39.528C39.9617 40.8581 40.4359 42.422 40.4359 44.0217C40.4339 46.1664 39.5815 48.2226 38.0659 49.7391C36.5502 51.2555 34.495 52.1084 32.3515 52.1103ZM53.2137 52.1103C51.6148 52.1103 50.0518 51.6359 48.7223 50.7472C47.3928 49.8584 46.3566 48.5951 45.7447 47.1171C45.1328 45.6391 44.9727 44.0128 45.2847 42.4437C45.5966 40.8747 46.3666 39.4335 47.4972 38.3023C48.6278 37.171 50.0683 36.4007 51.6365 36.0886C53.2048 35.7765 54.8303 35.9367 56.3075 36.5489C57.7847 37.1611 59.0473 38.1978 59.9357 39.528C60.824 40.8581 61.2981 42.422 61.2981 44.0217C61.2962 46.1664 60.4438 48.2226 58.9281 49.7391C57.4124 51.2555 55.3572 52.1084 53.2137 52.1103Z" fill="black"/>
</g>
<defs>
<clipPath id="clip0_4643_7017">
<rect width="84.9186" height="84.8883" fill="white" transform="translate(0.5 0.757812)"/>
</clipPath>
</defs>
</svg>
