<svg width="45" height="45" viewBox="0 0 45 45" fill="none" xmlns="http://www.w3.org/2000/svg">
<path d="M41.7078 20.4118H6.94578L18.115 9.24261C18.2799 9.07795 18.4108 8.88238 18.5001 8.66708C18.5894 8.45179 18.6353 8.22101 18.6353 7.98794C18.6353 7.75487 18.5894 7.52408 18.5001 7.30879C18.4108 7.0935 18.2799 6.89793 18.115 6.73326C17.9503 6.5683 17.7547 6.43743 17.5393 6.34814C17.324 6.25885 17.0932 6.21289 16.8601 6.21289C16.627 6.21289 16.3962 6.25885 16.1808 6.34814C15.9655 6.43743 15.7699 6.5683 15.6052 6.73326L1.40655 20.9302C1.24298 21.0951 1.11348 21.2923 1.02318 21.5087C0.843836 21.943 0.843836 22.4306 1.02318 22.8649C1.11348 23.0813 1.24298 23.2781 1.40655 23.4434L15.6052 37.6403C15.7698 37.8055 15.9654 37.9364 16.1807 38.0257C16.3961 38.1149 16.627 38.1607 16.8601 38.1604C17.0932 38.1606 17.3241 38.1148 17.5394 38.0255C17.7548 37.9363 17.9504 37.8054 18.115 37.6403C18.2799 37.4756 18.4108 37.28 18.5001 37.0647C18.5894 36.8494 18.6353 36.6186 18.6353 36.3855C18.6353 36.1523 18.5894 35.9215 18.5001 35.7062C18.4108 35.4909 18.2799 35.2953 18.115 35.1306L6.94578 23.9618H41.7078C42.6876 23.9618 43.4828 23.1665 43.4828 22.1868C43.4828 21.2071 42.6876 20.4118 41.7078 20.4118Z" fill="black"/>
</svg>
