<svg width="69" height="70" viewBox="0 0 69 70" fill="none" xmlns="http://www.w3.org/2000/svg">
<g clip-path="url(#clip0_5130_711)">
<path d="M66.3147 37.5906L19.0515 42.8378L23.1781 49.8947C24.4305 52.044 21.7266 54.2936 19.841 52.6787L0.865484 36.4156C0.624415 36.2085 0.430942 35.9517 0.298308 35.6629C0.165674 35.374 0.0970073 35.0599 0.0970073 34.7421C0.0970073 34.4242 0.165674 34.1101 0.298308 33.8213C0.430942 33.5324 0.624415 33.2756 0.865484 33.0685L19.841 16.8054C21.7281 15.1819 24.4305 17.4402 23.1781 19.5809L19.0601 26.6463L66.3147 31.8863C69.7049 32.2532 69.7077 37.2224 66.3147 37.5906Z" fill="#3A86FF"/>
</g>
<defs>
<clipPath id="clip0_5130_711">
<rect width="68.7778" height="68.7778" fill="white" transform="translate(0.097168 0.490234)"/>
</clipPath>
</defs>
</svg>
