<svg width="20" height="20" viewBox="0 0 20 20" fill="none" xmlns="http://www.w3.org/2000/svg">
<rect x="0.5" y="0.0410156" width="19" height="19" rx="9.5" fill="#2E2E2E"/>
<path d="M9.4585 5.16663H7.1835C6.27341 5.16663 5.81837 5.16663 5.47076 5.34374C5.165 5.49954 4.9164 5.74813 4.76061 6.05389C4.5835 6.4015 4.5835 6.85654 4.5835 7.76663V12.3166C4.5835 13.2267 4.5835 13.6818 4.76061 14.0294C4.9164 14.3351 5.165 14.5837 5.47076 14.7395C5.81837 14.9166 6.27341 14.9166 7.1835 14.9166H11.7335C12.6436 14.9166 13.0986 14.9166 13.4462 14.7395C13.752 14.5837 14.0006 14.3351 14.1564 14.0294C14.3335 13.6818 14.3335 13.2267 14.3335 12.3166V10.0416M7.83348 11.6666H8.74053C9.0055 11.6666 9.13799 11.6666 9.26266 11.6367C9.3732 11.6102 9.47888 11.5664 9.5758 11.507C9.68513 11.44 9.77881 11.3463 9.96618 11.1589L15.146 5.97913C15.5947 5.5304 15.5947 4.80286 15.146 4.35413C14.6973 3.9054 13.9697 3.9054 13.521 4.35413L8.34116 9.53395C8.1538 9.72131 8.06012 9.81499 7.99312 9.92432C7.93372 10.0212 7.88995 10.1269 7.86341 10.2375C7.83348 10.3621 7.83348 10.4946 7.83348 10.7596V11.6666Z" stroke="white" stroke-width="0.8" stroke-linecap="round" stroke-linejoin="round"/>
</svg>
