<svg width="131" height="131" viewBox="0 0 131 131" fill="none" xmlns="http://www.w3.org/2000/svg">
<path d="M113.23 67.6473L68.5194 116.458C68.1385 116.874 67.6756 117.206 67.1599 117.434C66.6442 117.663 66.0869 117.781 65.5231 117.784C64.9592 117.786 64.401 117.671 63.8836 117.447C63.3662 117.223 62.9008 116.894 62.5167 116.481L17.7858 67.6499C17.1463 66.9525 16.7686 66.0547 16.7174 65.1099C16.6662 64.165 16.9445 63.2317 17.5049 62.4693L35.0945 39.1629C35.4758 38.6578 35.9693 38.2482 36.536 37.9664C37.1027 37.6845 37.7272 37.5383 38.3601 37.5391H92.6862C93.3182 37.5391 93.9417 37.6857 94.5074 37.9675C95.0732 38.2493 95.5659 38.6585 95.9467 39.1629C97.3893 41.0779 110.955 59.0785 113.485 62.4412C114.056 63.2028 114.342 64.1398 114.296 65.0903C114.249 66.0407 113.872 66.9451 113.23 67.6473Z" fill="#00D5CA"/>
<path d="M65.5054 37.5391L44.1371 65.1145H16.72C16.664 64.1682 16.9414 63.2323 17.5038 62.4693L35.0933 39.1629C35.4747 38.6578 35.9682 38.2482 36.5349 37.9664C37.1016 37.6845 37.7261 37.5383 38.359 37.5391H65.5054Z" fill="#B0F2EF"/>
<path d="M65.5061 37.5391L86.8744 65.1145H44.1377L65.5061 37.5391Z" fill="#8AECE7"/>
<path d="M114.294 65.1145H86.8742L65.5059 37.5391H92.6855C93.3176 37.5391 93.941 37.6857 94.5068 37.9675C95.0725 38.2493 95.5652 38.6585 95.946 39.1629C115.175 64.6829 114.411 63.0718 114.294 65.1145Z" fill="#54E3DB"/>
<path d="M64.6646 117.699C62.6653 117.283 65.405 119.594 17.7864 67.6551C17.1472 66.9587 16.7707 66.0612 16.7217 65.1172H44.1388L64.6646 117.699Z" fill="#8AECE7"/>
<path d="M86.8744 65.1172L66.318 117.715C65.7721 117.826 65.2094 117.826 64.6635 117.715L44.1377 65.1172H86.8744Z" fill="#54E3DB"/>
<path d="M115.293 118.479H112.995V116.181C112.995 115.639 112.78 115.119 112.397 114.736C112.014 114.353 111.494 114.138 110.953 114.138C110.411 114.138 109.891 114.353 109.508 114.736C109.125 115.119 108.91 115.639 108.91 116.181V118.479H106.867C106.326 118.479 105.806 118.694 105.423 119.077C105.04 119.46 104.825 119.979 104.825 120.521C104.825 121.063 105.04 121.583 105.423 121.966C105.806 122.349 106.326 122.564 106.867 122.564H108.91V124.606C108.91 125.148 109.125 125.668 109.508 126.051C109.891 126.434 110.411 126.649 110.953 126.649C111.494 126.649 112.014 126.434 112.397 126.051C112.78 125.668 112.995 125.148 112.995 124.606V122.564H115.293C115.835 122.564 116.354 122.349 116.737 121.966C117.121 121.583 117.336 121.063 117.336 120.521C117.336 119.979 117.121 119.46 116.737 119.077C116.354 118.694 115.835 118.479 115.293 118.479ZM95.8882 12.5176C96.43 12.5176 96.9495 12.3024 97.3326 11.9193C97.7156 11.5363 97.9308 11.0167 97.9308 10.475C97.9308 9.93325 97.7156 9.4137 97.3326 9.03064C96.9495 8.64757 96.43 8.43237 95.8882 8.43237H93.8456V6.13442C93.8456 5.59268 93.6304 5.07313 93.2473 4.69007C92.8643 4.307 92.3447 4.0918 91.803 4.0918C91.2612 4.0918 90.7417 4.307 90.3586 4.69007C89.9756 5.07313 89.7604 5.59268 89.7604 6.13442V8.43237H87.4624C86.9207 8.43237 86.4011 8.64757 86.0181 9.03064C85.635 9.4137 85.4198 9.93325 85.4198 10.475C85.4198 11.0167 85.635 11.5363 86.0181 11.9193C86.4011 12.3024 86.9207 12.5176 87.4624 12.5176H89.7604V14.5602C89.7604 15.102 89.9756 15.6215 90.3586 16.0046C90.7417 16.3876 91.2612 16.6029 91.803 16.6029C92.3447 16.6029 92.8643 16.3876 93.2473 16.0046C93.6304 15.6215 93.8456 15.102 93.8456 14.5602V12.5176H95.8882ZM50.4399 13.0283H48.1419V10.9856C48.1419 10.4439 47.9267 9.92436 47.5437 9.54129C47.1606 9.15823 46.6411 8.94302 46.0993 8.94302C45.5576 8.94302 45.038 9.15823 44.655 9.54129C44.2719 9.92436 44.0567 10.4439 44.0567 10.9856V13.0283H42.0141C41.4723 13.0283 40.9528 13.2435 40.5697 13.6265C40.1867 14.0096 39.9715 14.5292 39.9715 15.0709C39.9715 15.6126 40.1867 16.1322 40.5697 16.5152C40.9528 16.8983 41.4723 17.1135 42.0141 17.1135H44.0567V19.1561C44.0567 19.6979 44.2719 20.2174 44.655 20.6005C45.038 20.9835 45.5576 21.1988 46.0993 21.1988C46.6411 21.1988 47.1606 20.9835 47.5437 20.6005C47.9267 20.2174 48.1419 19.6979 48.1419 19.1561V17.1135H50.4399C50.9816 17.1135 51.5012 16.8983 51.8842 16.5152C52.2673 16.1322 52.4825 15.6126 52.4825 15.0709C52.4825 14.5292 52.2673 14.0096 51.8842 13.6265C51.5012 13.2435 50.9816 13.0283 50.4399 13.0283ZM14.694 36.5184C15.2358 36.5184 15.7553 36.3032 16.1384 35.9201C16.5214 35.5371 16.7366 35.0175 16.7366 34.4758C16.7366 33.9341 16.5214 33.4145 16.1384 33.0314C15.7553 32.6484 15.2358 32.4332 14.694 32.4332H12.3961V30.1352C12.3961 29.5935 12.1809 29.0739 11.7978 28.6909C11.4147 28.3078 10.8952 28.0926 10.3534 28.0926C9.81171 28.0926 9.29216 28.3078 8.9091 28.6909C8.52603 29.0739 8.31083 29.5935 8.31083 30.1352V32.4332H6.26821C5.72647 32.4332 5.20692 32.6484 4.82386 33.0314C4.44079 33.4145 4.22559 33.9341 4.22559 34.4758C4.22559 35.0175 4.44079 35.5371 4.82386 35.9201C5.20692 36.3032 5.72647 36.5184 6.26821 36.5184H8.31083V38.561C8.31083 39.1028 8.52603 39.6223 8.9091 40.0054C9.29216 40.3885 9.81171 40.6037 10.3534 40.6037C10.8952 40.6037 11.4147 40.3885 11.7978 40.0054C12.1809 39.6223 12.3961 39.1028 12.3961 38.561V36.5184H14.694ZM124.74 32.4332H122.698V30.1352C122.698 29.5935 122.482 29.0739 122.099 28.6909C121.716 28.3078 121.197 28.0926 120.655 28.0926C120.113 28.0926 119.594 28.3078 119.211 28.6909C118.828 29.0739 118.612 29.5935 118.612 30.1352V32.4332H116.314C115.773 32.4332 115.253 32.6484 114.87 33.0314C114.487 33.4145 114.272 33.9341 114.272 34.4758C114.272 35.0175 114.487 35.5371 114.87 35.9201C115.253 36.3032 115.773 36.5184 116.314 36.5184H118.612V38.561C118.612 39.1028 118.828 39.6223 119.211 40.0054C119.594 40.3885 120.113 40.6037 120.655 40.6037C121.197 40.6037 121.716 40.3885 122.099 40.0054C122.482 39.6223 122.698 39.1028 122.698 38.561V36.5184H124.74C125.282 36.5184 125.802 36.3032 126.185 35.9201C126.568 35.5371 126.783 35.0175 126.783 34.4758C126.783 33.9341 126.568 33.4145 126.185 33.0314C125.802 32.6484 125.282 32.4332 124.74 32.4332ZM24.9071 106.478H22.6092V104.18C22.6092 103.639 22.394 103.119 22.0109 102.736C21.6278 102.353 21.1083 102.138 20.5666 102.138C20.0248 102.138 19.5053 102.353 19.1222 102.736C18.7391 103.119 18.5239 103.639 18.5239 104.18V106.478H16.4813C15.9396 106.478 15.42 106.693 15.037 107.076C14.6539 107.46 14.4387 107.979 14.4387 108.521C14.4387 109.063 14.6539 109.582 15.037 109.965C15.42 110.348 15.9396 110.563 16.4813 110.563H18.5239V112.606C18.5239 113.148 18.7391 113.667 19.1222 114.05C19.5053 114.433 20.0248 114.649 20.5666 114.649C21.1083 114.649 21.6278 114.433 22.0109 114.05C22.394 113.667 22.6092 113.148 22.6092 112.606V110.563H24.9071C25.4489 110.563 25.9684 110.348 26.3515 109.965C26.7345 109.582 26.9497 109.063 26.9497 108.521C26.9497 107.979 26.7345 107.46 26.3515 107.076C25.9684 106.693 25.4489 106.478 24.9071 106.478Z" fill="#F3F3F5" fill-opacity="0.72"/>
</svg>
