<svg width="18" height="19" viewBox="0 0 18 19" fill="none" xmlns="http://www.w3.org/2000/svg">
<path d="M8.99998 15.6667H15.375M2.625 15.6667H3.81113C4.15764 15.6667 4.33089 15.6667 4.49393 15.6275C4.63848 15.5928 4.77667 15.5356 4.90342 15.4579C5.04639 15.3703 5.1689 15.2478 5.41391 15.0028L14.3125 6.10416C14.8993 5.51736 14.8993 4.56597 14.3125 3.97916C13.7257 3.39236 12.7743 3.39236 12.1875 3.97916L3.28889 12.8778C3.04388 13.1228 2.92137 13.2453 2.83376 13.3883C2.75609 13.515 2.69885 13.6532 2.66414 13.7978C2.625 13.9608 2.625 14.134 2.625 14.4805V15.6667Z" stroke="#030303" stroke-width="1.41667" stroke-linecap="round" stroke-linejoin="round"/>
</svg>
