<svg width="18" height="19" viewBox="0 0 18 19" fill="none" xmlns="http://www.w3.org/2000/svg">
<path d="M12.3333 4.54036V3.8737C12.3333 2.94028 12.3333 2.47357 12.1517 2.11705C11.9919 1.80344 11.7369 1.54848 11.4233 1.38869C11.0668 1.20703 10.6001 1.20703 9.66667 1.20703H8.33333C7.39991 1.20703 6.9332 1.20703 6.57668 1.38869C6.26308 1.54848 6.00811 1.80344 5.84832 2.11705C5.66667 2.47357 5.66667 2.94028 5.66667 3.8737V4.54036M7.33333 9.1237V13.2904M10.6667 9.1237V13.2904M1.5 4.54036H16.5M14.8333 4.54036V13.8737C14.8333 15.2738 14.8333 15.9739 14.5608 16.5087C14.3212 16.9791 13.9387 17.3615 13.4683 17.6012C12.9335 17.8737 12.2335 17.8737 10.8333 17.8737H7.16667C5.76654 17.8737 5.06647 17.8737 4.53169 17.6012C4.06129 17.3615 3.67883 16.9791 3.43915 16.5087C3.16667 15.9739 3.16667 15.2738 3.16667 13.8737V4.54036" stroke="white" stroke-width="1.5" stroke-linecap="round" stroke-linejoin="round"/>
</svg>
