<svg width="48" height="48" viewBox="0 0 48 48" fill="none" xmlns="http://www.w3.org/2000/svg">
<path d="M0 24C0 10.7452 10.7452 0 24 0C37.2548 0 48 10.7452 48 24C48 37.2548 37.2548 48 24 48C10.7452 48 0 37.2548 0 24Z" fill="#F3F3F5"/>
<path d="M28 29L33 24M33 24L28 19M33 24H21M21 15H19.8C18.1198 15 17.2798 15 16.638 15.327C16.0735 15.6146 15.6146 16.0735 15.327 16.638C15 17.2798 15 18.1198 15 19.8V28.2C15 29.8802 15 30.7202 15.327 31.362C15.6146 31.9265 16.0735 32.3854 16.638 32.673C17.2798 33 18.1198 33 19.8 33H21" stroke="#777B8B" stroke-width="2" stroke-linecap="round" stroke-linejoin="round"/>
</svg>
