<svg width="102" height="101" viewBox="0 0 102 101" fill="none" xmlns="http://www.w3.org/2000/svg">
<path fill-rule="evenodd" clip-rule="evenodd" d="M37.3265 54.9492L44.0963 59.8637L50.866 64.7783L67.3384 100.65L70.778 88.4929L80.8779 90.8204L64.4001 54.9492L57.6303 59.8637L50.866 64.7783L34.3882 100.65L30.9428 88.4929L20.8486 90.8262L37.3265 54.9492Z" fill="#E64C3C"/>
<path fill-rule="evenodd" clip-rule="evenodd" d="M71.538 70.488C71.0832 70.6637 70.6149 70.8026 70.1378 70.9032C69.8625 72.2043 69.3168 73.433 68.5361 74.5096C67.7554 75.5863 66.7571 76.4868 65.606 77.1528C64.4549 77.8188 63.1766 78.2354 61.8541 78.3757C60.5316 78.5159 59.1944 78.3765 57.9292 77.9667H57.9177V77.9725C57.6987 78.2087 57.4741 78.4392 57.2378 78.6524L50.8654 64.7785L44.0957 59.8639L37.3259 54.9492L30.1816 70.4996C30.6361 70.6688 31.102 70.8055 31.5759 70.9087H31.5818V70.9144C31.86 72.2142 32.4079 73.4412 33.1899 74.5161C33.972 75.5909 34.9709 76.4897 36.1221 77.1543C37.2733 77.819 38.5511 78.2347 39.8729 78.3746C41.1948 78.5145 42.5313 78.3755 43.7961 77.9665H43.8076V77.9723C44.0245 78.2103 44.2534 78.4372 44.4932 78.6522L50.8654 64.7783L57.6297 59.8637L64.3995 54.9492L71.538 70.488Z" fill="#CF4436"/>
<path fill-rule="evenodd" clip-rule="evenodd" d="M46.2387 27.4709C46.8234 26.8251 47.537 26.3089 48.3333 25.9557C49.1297 25.6024 49.9912 25.4199 50.8624 25.4199C51.7336 25.4199 52.5951 25.6024 53.3915 25.9557C54.1879 26.3089 54.9014 26.8251 55.4861 27.4709C55.9052 27.9476 56.4558 28.29 57.0687 28.455C57.6817 28.6201 58.3297 28.6004 58.9315 28.3985C59.7613 28.1293 60.6384 28.0375 61.506 28.1288C62.3735 28.2202 63.2122 28.4928 63.9678 28.9289C64.7233 29.365 65.3788 29.955 65.8918 30.6605C66.4048 31.3661 66.7639 32.1716 66.9458 33.0248C67.0708 33.6458 67.3765 34.216 67.8244 34.6639C68.2724 35.1118 68.8426 35.4174 69.4636 35.5423C70.3168 35.7243 71.1222 36.0834 71.8278 36.5964C72.5334 37.1094 73.1234 37.7649 73.5595 38.5204C73.9956 39.2759 74.2682 40.1146 74.3595 40.9822C74.4509 41.8498 74.359 42.7269 74.0899 43.5567C73.888 44.1572 73.8678 44.8039 74.0318 45.4158C74.1958 46.0277 74.5367 46.5776 75.0118 46.9967C75.6592 47.581 76.1768 48.2947 76.5311 49.0916C76.8853 49.8885 77.0684 50.7509 77.0684 51.623C77.0684 52.4951 76.8853 53.3575 76.5311 54.1544C76.1768 54.9513 75.6592 55.665 75.0118 56.2493C74.5369 56.6697 74.1963 57.2206 74.0324 57.8333C73.8685 58.4459 73.8885 59.0933 74.0899 59.6947C74.4244 60.7264 74.4838 61.8277 74.2622 62.8895C74.0406 63.9512 73.5456 64.9368 72.8263 65.7486C72.107 66.5604 71.1882 67.1704 70.1609 67.5183C69.1335 67.8661 68.0331 67.9398 66.9686 67.7319C67.1764 68.7965 67.1028 69.8969 66.7549 70.9242C66.4071 71.9516 65.7971 72.8703 64.9852 73.5897C64.1734 74.309 63.1879 74.8039 62.1261 75.0255C61.0643 75.2471 59.9631 75.1877 58.9313 74.8532C58.3299 74.6518 57.6826 74.6318 57.0699 74.7958C56.4572 74.9597 55.9064 75.3003 55.4859 75.7751C54.9022 76.4226 54.189 76.9403 53.3925 77.2946C52.596 77.6489 51.734 77.832 50.8622 77.832C49.9905 77.832 49.1284 77.6489 48.3319 77.2946C47.5354 76.9403 46.8222 76.4226 46.2385 75.7751C45.8181 75.3003 45.2672 74.9597 44.6545 74.7958C44.0419 74.6318 43.3945 74.6518 42.7931 74.8532C41.9633 75.1224 41.0862 75.2143 40.2187 75.1229C39.3511 75.0315 38.5124 74.759 37.7569 74.3228C37.0013 73.8867 36.3458 73.2967 35.8328 72.5912C35.3198 71.8856 34.9607 71.0801 34.7788 70.227C34.6538 69.6059 34.3482 69.0357 33.9003 68.5877C33.4523 68.1398 32.882 67.8342 32.261 67.7092C31.4078 67.5273 30.6024 67.1682 29.8968 66.6552C29.1912 66.1421 28.6013 65.4866 28.1651 64.7311C27.729 63.9756 27.4564 63.1369 27.3651 62.2693C27.2737 61.4017 27.3656 60.5247 27.6348 59.6949C27.8362 59.0935 27.8562 58.4461 27.6922 57.8335C27.5283 57.2208 27.1877 56.6699 26.7129 56.2495C26.0654 55.6652 25.5478 54.9515 25.1936 54.1546C24.8393 53.3577 24.6562 52.4953 24.6562 51.6232C24.6562 50.7511 24.8393 49.8887 25.1936 49.0918C25.5478 48.2949 26.0654 47.5812 26.7129 46.9969C27.188 46.5778 27.5289 46.0279 27.6928 45.416C27.8568 44.8041 27.8366 44.1574 27.6348 43.5569C27.3656 42.7271 27.2737 41.85 27.3651 40.9824C27.4564 40.1148 27.729 39.2761 28.1651 38.5206C28.6013 37.7651 29.1912 37.1096 29.8968 36.5966C30.6024 36.0836 31.4078 35.7245 32.261 35.5425C32.882 35.4176 33.4523 35.112 33.9002 34.6641C34.3481 34.2162 34.6538 33.646 34.7788 33.025C34.9607 32.1718 35.3198 31.3663 35.8328 30.6607C36.3458 29.9552 37.0013 29.3652 37.7569 28.9291C38.5124 28.493 39.3511 28.2204 40.2187 28.129C41.0862 28.0377 41.9633 28.1295 42.7931 28.3987C43.3949 28.6006 44.043 28.6203 44.6559 28.4552C45.2689 28.2902 45.8194 27.9478 46.2385 27.4711L46.2387 27.4709Z" fill="#FFD23B"/>
<path fill-rule="evenodd" clip-rule="evenodd" d="M50.8607 67.7118C54.0417 67.7124 57.1515 66.7697 59.7967 65.0029C62.442 63.2361 64.5039 60.7246 65.7217 57.7859C66.9396 54.8473 67.2587 51.6135 66.6386 48.4935C66.0186 45.3735 64.4873 42.5074 62.2384 40.2577C59.9895 38.008 57.124 36.4757 54.0042 35.8545C50.8844 35.2334 47.6505 35.5513 44.7114 36.7681C41.7724 37.9849 39.2601 40.046 37.4924 42.6906C35.7246 45.3352 34.7808 48.4446 34.7803 51.6256C34.7881 55.8885 36.4846 59.9747 39.4984 62.9896C42.5122 66.0044 46.5978 67.7024 50.8607 67.7118Z" fill="#FEA832"/>
<path d="M43.381 53.859C43.1188 53.5915 42.9727 53.2313 42.9746 52.8567C42.9765 52.4821 43.1261 52.1233 43.391 51.8584C43.6559 51.5935 44.0146 51.4439 44.3892 51.4419C44.7638 51.44 45.124 51.586 45.3916 51.8482L47.8864 54.3373L56.333 45.8965C56.6005 45.6343 56.9608 45.4883 57.3354 45.4903C57.71 45.4922 58.0687 45.6418 58.3335 45.9067C58.5984 46.1716 58.7481 46.5304 58.7499 46.905C58.7518 47.2796 58.6058 47.6398 58.3436 47.9073L48.8947 57.3562C48.7626 57.4891 48.6055 57.5945 48.4324 57.6664C48.2594 57.7383 48.0738 57.7754 47.8864 57.7754C47.6991 57.7754 47.5135 57.7383 47.3405 57.6664C47.1674 57.5945 47.0103 57.4891 46.8782 57.3562L43.381 53.859Z" fill="#FFD23B"/>
<path fill-rule="evenodd" clip-rule="evenodd" d="M101.475 51.187L94.337 53.4916L94.3542 60.9874L89.9582 54.9147L82.832 57.2423L87.2503 51.187L82.832 45.1315L89.959 47.4593L94.355 41.3866L94.3378 48.8881L101.475 51.187ZM0.250977 51.187L7.38948 48.8881L7.37228 41.3866L11.7682 47.4593L18.8945 45.1315L14.4762 51.187L18.8945 57.2423L11.7682 54.9147L7.37228 60.9874L7.38948 53.4916L0.250977 51.187ZM15.0754 15.4026L21.7473 18.8187L27.0421 13.5066L25.8558 20.91L32.5382 24.2979L25.1346 25.456L23.9767 32.8652L20.5831 26.1761L13.1794 27.3623L18.4916 22.0731L15.0754 15.4026ZM50.8599 0.578125L53.1645 7.71089L60.6602 7.69943L54.588 12.095L56.9209 19.2163L50.8603 14.8029L44.805 19.2163L47.1379 12.095L41.0658 7.69883L48.5616 7.7103L50.8599 0.578125ZM86.651 15.4026L83.2345 22.0745L88.5466 27.3637L81.143 26.1774L77.7494 32.8666L76.5914 25.4574L69.1878 24.2993L75.8712 20.9114L74.685 13.508L79.9791 18.8187L86.651 15.4026Z" fill="#E5972D"/>
<path fill-rule="evenodd" clip-rule="evenodd" d="M48.959 25.7137C50.0034 26.0519 50.9409 26.6578 51.6784 27.4709C52.0973 27.9479 52.6479 28.2904 53.2609 28.4555C53.8739 28.6205 54.522 28.6007 55.1238 28.3985C55.5074 28.2715 55.9033 28.1846 56.3049 28.1394C55.9994 27.96 55.7234 27.7345 55.4868 27.4709C54.9027 26.8236 54.189 26.3064 53.3919 25.953C52.5949 25.5997 51.7324 25.418 50.8605 25.4199C50.2155 25.4196 49.5742 25.5187 48.9594 25.7137H48.959ZM55.1238 74.8539C54.5224 74.6521 53.875 74.6319 53.2622 74.7959C52.6495 74.9598 52.0986 75.3006 51.6784 75.7758C50.9428 76.5924 50.0048 77.2006 48.959 77.5387C49.5738 77.7338 50.2151 77.8329 50.8601 77.8327C51.7325 77.8349 52.5956 77.6529 53.3928 77.2986C54.19 76.9442 54.9034 76.4256 55.4864 75.7765C55.5852 75.6728 55.6823 75.5806 55.7802 75.4885C55.9434 75.3483 56.1189 75.223 56.3045 75.114C56.05 75.0852 55.7978 75.039 55.5496 74.9756C55.4059 74.9414 55.2637 74.901 55.1234 74.8547L55.1238 74.8539ZM60.1536 28.9286C60.9106 29.3632 61.5672 29.9527 62.0805 30.6587C62.5938 31.3647 62.9522 32.1711 63.1322 33.0252C63.2585 33.6466 63.5653 34.2169 64.0142 34.6647C64.4632 35.1125 65.0342 35.418 65.6559 35.5428C66.5083 35.7261 67.3128 36.0861 68.0175 36.5995C68.7223 37.1128 69.3116 37.7682 69.7475 38.5233C70.1834 39.2785 70.4562 40.1165 70.5482 40.9836C70.6403 41.8506 70.5497 42.7273 70.2822 43.5571C70.0789 44.1575 70.0579 44.8046 70.222 45.4168C70.3861 46.029 70.7278 46.5789 71.2041 46.9972C71.8514 47.5815 72.369 48.2952 72.7232 49.0921C73.0774 49.889 73.2605 50.7513 73.2605 51.6234C73.2605 52.4955 73.0774 53.3579 72.7232 54.1548C72.369 54.9517 71.8514 55.6654 71.2041 56.2497C70.7281 56.6693 70.3866 57.2202 70.2226 57.8331C70.0586 58.4461 70.0793 59.0939 70.2822 59.6951C70.5522 60.5249 70.6441 61.4023 70.5518 62.2701C70.4594 63.1378 70.185 63.9762 69.7464 64.7306C69.5975 64.9934 69.4279 65.2439 69.2393 65.4797C68.5289 66.3767 67.5858 67.0612 66.5129 67.4587C65.44 67.8561 64.2786 67.9511 63.1553 67.7334C63.4456 69.2299 63.178 70.781 62.4031 72.0938C61.6282 73.4066 60.3996 74.3904 58.9492 74.8596C59.9804 75.1906 61.0801 75.2471 62.1398 75.0235C63.1996 74.7999 64.1827 74.304 64.9924 73.5846C65.802 72.8652 66.4101 71.9472 66.7568 70.9212C67.1035 69.8951 67.1768 68.7964 66.9694 67.7334C68.2438 67.9813 69.5638 67.8253 70.7454 67.2872C71.9269 66.7491 72.9111 65.8557 73.5607 64.7316C73.9971 63.9763 74.2699 63.1377 74.3612 62.2702C74.4525 61.4027 74.3604 60.5257 74.0907 59.6961C73.8893 59.0947 73.8693 58.4473 74.0333 57.8347C74.1972 57.222 74.5378 56.6711 75.0126 56.2507C75.6601 55.6664 76.1777 54.9527 76.5319 54.1558C76.8862 53.3589 77.0692 52.4965 77.0692 51.6244C77.0692 50.7523 76.8862 49.8899 76.5319 49.093C76.1777 48.2961 75.6601 47.5824 75.0126 46.9981C74.5375 46.5791 74.1966 46.0291 74.0326 45.4172C73.8687 44.8053 73.8889 44.1586 74.0907 43.5581C74.3599 42.7283 74.4518 41.8512 74.3604 40.9836C74.269 40.1161 73.9965 39.2774 73.5603 38.5218C73.1242 37.7663 72.5343 37.1108 71.8287 36.5978C71.1231 36.0848 70.3176 35.7257 69.4645 35.5438C68.8435 35.4188 68.2732 35.1132 67.8253 34.6653C67.3774 34.2174 67.0717 33.6472 66.9467 33.0262C66.7651 32.1745 66.407 31.3703 65.8954 30.6655C65.3838 29.9607 64.7301 29.3711 63.9766 28.9346C63.223 28.498 62.3863 28.2244 61.5204 28.1312C60.6545 28.0381 59.7787 28.1275 58.9496 28.3938C59.3688 28.5292 59.7725 28.7088 60.1538 28.9296L60.1536 28.9286Z" fill="#E6BD35"/>
<path fill-rule="evenodd" clip-rule="evenodd" d="M38.8179 51.6246C38.8188 47.7092 40.2477 43.9285 42.8368 40.9913C45.4259 38.0541 48.9974 36.1621 52.8817 35.6699C52.2108 35.5867 51.5355 35.5443 50.8594 35.543C46.7085 35.5429 42.7184 37.1478 39.7236 40.022C36.7288 42.8962 34.9613 46.817 34.7909 50.9644C34.6205 55.1118 36.0604 59.1645 38.8093 62.2747C41.5582 65.3848 45.4032 67.3117 49.5401 67.6521C49.9781 67.6916 50.4158 67.7098 50.8594 67.7098C51.309 67.7098 51.7467 67.6924 52.184 67.6521C52.4203 67.6349 52.6508 67.6126 52.8811 67.5831C52.6191 67.5488 52.3578 67.5085 52.0976 67.4621C51.3458 67.3313 50.6045 67.1463 49.8794 66.9085C46.6612 65.8496 43.8593 63.8019 41.873 61.0573C39.8867 58.3127 38.8173 55.0112 38.8173 51.6232L38.8179 51.6246Z" fill="#E5972D"/>
<path fill-rule="evenodd" clip-rule="evenodd" d="M41.0661 75.1553L32.4697 93.8745L34.3884 100.65L45.946 75.4896C45.5222 75.1172 45.0081 74.8627 44.455 74.7514C43.9019 74.6402 43.3292 74.6762 42.7944 74.8558C42.2351 75.0359 41.6534 75.1367 41.0661 75.1553ZM66.7336 70.9839L75.2493 89.5246L80.8782 90.821L70.1733 67.5156C69.1426 67.8644 68.039 67.9398 66.9705 67.7345C67.182 68.8194 67.1004 69.941 66.7342 70.9839H66.7336Z" fill="#CF4436"/>
<path fill-rule="evenodd" clip-rule="evenodd" d="M98.8078 51.1874L91.6693 53.4921L91.6808 57.2945L89.9582 54.9151L87.8032 55.618L87.2906 54.9151L83.6665 56.1014L87.2503 51.1874L83.6665 46.2786L87.2906 47.4597L87.8032 46.7567L89.9582 47.4597L91.6808 45.0859L91.6693 48.8885L98.8078 51.1874ZM0.250977 51.1874L7.38948 48.8885L7.37801 45.0859L9.10061 47.4597L11.2556 46.7567L11.7682 47.4597L15.3923 46.2786L11.8086 51.1874L15.3923 56.102L11.7682 54.9157L11.2556 55.6186L9.10061 54.9157L7.37801 57.2945L7.38948 53.4921L0.250977 51.1874ZM19.9842 17.9138L21.7473 18.8185L23.8618 16.6982L23.1876 20.9093L29.87 24.2971L22.4664 25.4553L21.9363 28.8429L20.5825 26.1753L18.1175 26.5733L17.9158 26.1757L13.6927 26.8556L18.4919 22.0735L16.026 17.2519L19.0797 18.8191L19.9842 17.9138ZM53.1649 7.7044V7.71013L57.9873 7.7044L51.9205 12.0954L53.4185 16.6642L50.8603 14.8034L49.5295 15.7711L48.1928 14.8034L45.6405 16.6642L47.1385 12.0954L41.0715 7.70499L45.8939 7.71073V7.70499L48.5616 7.71073L49.5303 4.70898L50.4991 7.71073L53.1649 7.7044ZM85.3661 26.8558L81.143 26.1759L80.9413 26.5735L78.4754 26.1759L77.1215 28.8435L76.5914 25.4559L69.1878 24.2977L75.8712 20.9098L75.197 16.6987L77.3115 18.8191L79.0756 17.9138L79.9801 18.8185L83.0338 17.2513L80.5679 22.0737L85.3661 26.8558Z" fill="#FEA832"/>
</svg>
