<svg width="18" height="21" viewBox="0 0 18 21" fill="none" xmlns="http://www.w3.org/2000/svg">
<path fill-rule="evenodd" clip-rule="evenodd" d="M5.65644 20.0153L5.99621 17.7846L5.23931 17.7663H1.625L4.13682 1.30501C4.14465 1.25517 4.16994 1.20889 4.20689 1.17598C4.24401 1.14306 4.29133 1.125 4.34083 1.125H10.4351C12.4585 1.125 13.8547 1.56008 14.5836 2.41895C14.9254 2.82186 15.143 3.24302 15.2484 3.70632C15.3589 4.19256 15.3607 4.77342 15.2529 5.48199L15.2451 5.53353V5.98761L15.5869 6.18775C15.8746 6.34557 16.1034 6.52615 16.2788 6.73287C16.5711 7.07747 16.7602 7.51537 16.8401 8.03434C16.9227 8.56817 16.8954 9.20358 16.7602 9.92288C16.6042 10.7502 16.3522 11.4708 16.0116 12.0603C15.6986 12.6035 15.2997 13.0542 14.826 13.4033C14.3737 13.7351 13.8365 13.987 13.229 14.1482C12.6403 14.3066 11.9691 14.3865 11.233 14.3865H10.7587C10.4197 14.3865 10.0902 14.5127 9.83164 14.739C9.57231 14.97 9.40087 15.2857 9.34828 15.6308L9.31243 15.8317L8.71204 19.7636L8.68493 19.9079C8.67765 19.9536 8.66527 19.9763 8.64707 19.9918C8.63087 20.0059 8.60758 20.0153 8.58483 20.0153H5.65644" fill="#28356A"/>
<path fill-rule="evenodd" clip-rule="evenodd" d="M15.9115 5.58398C15.8934 5.70418 15.8725 5.82701 15.8492 5.95323C15.0456 10.2182 12.2959 11.6916 8.7842 11.6916H6.99615C6.56665 11.6916 6.20468 12.0139 6.13789 12.4518L4.96314 20.1536C4.91965 20.4412 5.13403 20.7002 5.41466 20.7002H8.58601C8.96146 20.7002 9.28049 20.4182 9.33963 20.0354L9.37075 19.869L9.96786 15.9525L10.0063 15.7377C10.0647 15.3536 10.3844 15.0714 10.7599 15.0714H11.2341C14.3067 15.0714 16.712 13.7822 17.4151 10.051C17.7086 8.49241 17.5567 7.19093 16.7796 6.27563C16.5444 5.99969 16.2527 5.77058 15.9115 5.58398" fill="#298FC2"/>
<path fill-rule="evenodd" clip-rule="evenodd" d="M15.0702 5.23759C14.9473 5.20054 14.8207 5.16706 14.6907 5.13677C14.5601 5.10724 14.4263 5.08109 14.2885 5.05815C13.8064 4.97764 13.2781 4.93945 12.7123 4.93945H7.93563C7.81788 4.93945 7.70614 4.96692 7.60623 5.01657C7.38584 5.12605 7.22223 5.34161 7.18256 5.60552L6.16633 12.2579L6.13721 12.4518C6.204 12.0139 6.56597 11.6917 6.99547 11.6917H8.78352C12.2952 11.6917 15.0449 10.2176 15.8485 5.95332C15.8726 5.8271 15.8928 5.70427 15.9108 5.58408C15.7075 5.47253 15.4873 5.37716 15.2502 5.29591C15.1916 5.27578 15.1311 5.2564 15.0702 5.23759" fill="#22284F"/>
<path fill-rule="evenodd" clip-rule="evenodd" d="M7.18241 5.6057C7.22209 5.3418 7.3857 5.12623 7.60608 5.01751C7.70672 4.96766 7.81774 4.9402 7.93549 4.9402H12.7122C13.278 4.9402 13.8063 4.97857 14.2884 5.05908C14.4261 5.08184 14.5599 5.10817 14.6906 5.13771C14.8205 5.1678 14.9472 5.20147 15.07 5.23834C15.131 5.25715 15.1914 5.27671 15.2506 5.29609C15.4877 5.37735 15.7081 5.47347 15.9114 5.58426C16.1505 4.00816 15.9094 2.93504 15.085 1.96331C14.1759 0.893386 12.5355 0.435547 10.4362 0.435547H4.34174C3.91297 0.435547 3.54717 0.757765 3.48092 1.19642L0.942531 17.827C0.892484 18.156 1.13799 18.4528 1.45902 18.4528H5.22147L7.18241 5.6057" fill="#28356A"/>
</svg>
