<svg width="20" height="21" viewBox="0 0 20 21" fill="none" xmlns="http://www.w3.org/2000/svg">
<path d="M4.01657 5.22418H9.99999C10.8776 5.22418 10.8776 3.89453 9.99999 3.89453H4.01657C3.13901 3.89453 3.13901 5.22418 4.01657 5.22418ZM6.67587 6.55383H4.01657C3.13901 6.55383 3.13901 7.88347 4.01657 7.88347H6.67587C7.55344 7.88347 7.55344 6.55383 6.67587 6.55383ZM4.01657 10.5428H5.34622C6.22379 10.5428 6.22379 9.21312 5.34622 9.21312H4.01657C3.13901 9.21312 3.13901 10.5428 4.01657 10.5428ZM4.01657 13.2021H5.34622C6.22379 13.2021 6.22379 11.8724 5.34622 11.8724H4.01657C3.13901 11.8724 3.13901 13.2021 4.01657 13.2021ZM6.01104 14.5317H4.01657C3.13901 14.5317 3.13901 15.8614 4.01657 15.8614H6.01104C6.88861 15.8614 6.88861 14.5317 6.01104 14.5317Z" fill="#101828"/>
<path d="M19.2476 9.425C19.1878 8.80671 18.7157 8.31475 18.0975 8.22832C15.9966 7.92915 14.667 7.19784 14.062 6.78565C13.8359 6.63274 13.5767 6.55961 13.324 6.55961V3.22885C13.324 2.13189 12.4265 1.23438 11.3296 1.23438H2.68685C1.58989 1.23438 0.692383 2.13189 0.692383 3.22885V16.5253C0.692383 17.6223 1.58989 18.5198 2.68685 18.5198H10.5251C11.2564 19.1248 12.38 19.8494 13.324 19.8494C15.2786 19.8494 19.9257 16.5984 19.2476 9.425ZM2.02203 16.5253V3.22885C2.02203 2.86319 2.3212 2.56402 2.68685 2.56402H11.3296C11.6952 2.56402 11.9944 2.86319 11.9944 3.22885V7.13801C11.2631 7.53025 10.1196 8.00228 8.5506 8.22832C7.93231 8.31475 7.46029 8.80671 7.40045 9.425C7.25419 10.9674 7.20765 14.4843 9.25531 17.1901H2.68685C2.3212 17.1901 2.02203 16.891 2.02203 16.5253ZM12.8055 18.4068C9.46805 16.8444 8.37109 13.1613 8.73675 9.54467C10.6847 9.26544 12.2869 8.59397 13.3174 7.88261C14.0221 8.36128 15.5512 9.20561 17.9113 9.54467H17.9246C18.5429 16.0865 14.175 19.045 12.8055 18.4068Z" fill="#101828"/>
<path d="M14.8461 11.3995L12.6588 13.5867L11.8012 12.7291C11.1763 12.1042 10.2389 13.0482 10.8638 13.6665L12.1935 14.9961C12.4527 15.2554 12.8716 15.2554 13.1309 14.9961L15.7901 12.3369C16.4151 11.7119 15.471 10.7745 14.8527 11.3995H14.8461Z" fill="#101828"/>
</svg>
