<svg width="50" height="50" viewBox="0 0 50 50" fill="none" xmlns="http://www.w3.org/2000/svg">
<g clip-path="url(#clip0_4075_167)">
<path d="M39.3964 17.2454C39.342 17.2086 39.2867 17.1732 39.2305 17.1393C42.6064 14.1588 35.7244 11.1201 35.7244 11.1201C36.6915 9.47263 35.3837 8.07429 33.0679 7.11462L34.2587 7.34626C34.9205 6.16248 36.1179 3.30994 33.5983 1.4948C30.4891 -0.748267 25.4686 1.10681 24.5008 5.44871L26.0174 5.74363C24.1288 5.67742 22.2516 5.82937 20.6661 6.24197C19.0813 6.65437 17.3682 7.43669 15.7516 8.41511L16.9318 7.41843C13.9703 4.0991 8.68448 4.92605 7.06094 8.40066C5.74571 11.2137 8.18174 13.1208 9.33868 13.8312L10.2622 13.0512C8.70957 15.0171 8.2503 16.8745 9.89805 17.841C9.89805 17.841 5.36817 23.8495 9.76875 24.8063C9.76875 24.8063 7.00782 29.5009 11.1991 33.2288C17.1796 38.545 27.3475 31.9163 27.3475 31.9163C27.3475 31.9163 39.4588 32.7472 42.0872 25.1907C43.7216 20.493 40.2134 17.7964 39.3964 17.2454Z" fill="#FFD5AE"/>
<path d="M13.6636 9.82521C12.0549 11.0381 10.6752 12.389 9.81433 13.6596C8.77448 12.6905 7.22673 10.8156 8.57038 9.19113C9.99548 7.46642 12.4867 8.95314 13.6636 9.82521ZM33.7584 7.42873C32.3873 6.73888 30.5261 6.23136 28.5282 5.95705C29.133 4.6213 30.5834 2.1089 32.6664 2.92062C34.6315 3.6841 34.1939 6.0756 33.7584 7.42873ZM23.7645 18.1447C26.6746 17.3874 28.8724 21.5551 31.4382 21.684C35.357 21.8777 37.4883 20.1096 39.2322 17.1389C39.2322 17.1389 43.9312 19.8921 42.0887 25.1902C39.4583 32.7471 27.3482 31.9159 27.3482 31.9159C27.3482 31.9159 17.1795 38.5447 11.199 33.2286C7.00769 29.5007 9.76862 24.8063 9.76862 24.8063C12.7392 26.55 15.4621 27.0549 18.7894 24.9756C20.9669 23.6124 20.8545 18.9021 23.7645 18.1447Z" fill="#FFF1E6"/>
<path d="M18.8364 27.9501C19.0945 25.7529 17.5226 23.7625 15.3255 23.5044C13.1283 23.2462 11.1379 24.8181 10.8798 27.0153C10.6216 29.2124 12.1935 31.2028 14.3907 31.461C16.5878 31.7191 18.5782 30.1472 18.8364 27.9501Z" fill="#FF9EB6"/>
<path d="M39.4993 24.0653C40.6631 22.1839 40.0815 19.7153 38.2001 18.5514C36.3187 17.3876 33.8501 17.9692 32.6862 19.8506C31.5224 21.732 32.104 24.2006 33.9854 25.3645C35.8667 26.5283 38.3354 25.9467 39.4993 24.0653Z" fill="#FF9EB6"/>
<path d="M40.0567 17.0607C40.5769 16.4299 40.7836 15.7477 40.6718 15.0257C40.3622 13.0279 37.6199 11.4545 36.4384 10.8632C36.7295 10.0505 36.5931 9.24338 36.0325 8.50168C35.7435 8.11936 35.3369 7.75813 34.8284 7.42415C35.1913 6.73713 35.5934 5.75559 35.6594 4.68997C35.7514 3.20276 35.1478 1.9467 33.9139 1.05754C32.3272 -0.0855225 30.1958 -0.317456 28.2117 0.437427C26.0942 1.24309 24.5279 3.02727 24.0014 5.22317C22.7455 5.28723 21.5611 5.45276 20.5305 5.72102C19.5004 5.98909 18.386 6.42161 17.2587 6.97766C15.7286 5.31702 13.4914 4.52268 11.2498 4.85139C9.14969 5.1594 7.40145 6.4009 6.57332 8.17249C5.92938 9.55032 6.01454 10.9413 6.81981 12.1949C7.39676 13.0931 8.22616 13.754 8.87782 14.1771C8.59657 14.7167 8.41756 15.2305 8.35164 15.7052C8.22381 16.626 8.49832 17.3972 9.14901 17.9648C8.40506 19.0573 6.77674 21.768 7.48006 23.6634C7.73416 24.3481 8.24686 24.8428 9.00809 25.14C8.77782 25.6771 8.48114 26.5341 8.37655 27.5651C8.21209 29.1859 8.50623 31.5538 10.8413 33.6308C12.4826 35.0898 14.5851 35.8261 17.0476 35.826C18.4746 35.8259 20.0229 35.5785 21.6712 35.0812C24.5793 34.2036 26.8856 32.8381 27.4895 32.4629C28.2 32.496 30.8798 32.5641 33.8469 31.9127C38.4307 30.9064 41.4559 28.6431 42.5953 25.3674C44.1749 20.8276 41.2739 18.0041 40.0567 17.0607ZM28.5945 1.44338C30.2392 0.817602 31.9925 0.999829 33.2846 1.93088C34.1662 2.56624 35.3933 4.04836 33.8902 6.89504C32.7004 6.31399 31.1614 5.84817 29.3775 5.54475C27.9695 5.3052 26.5179 5.18977 25.1227 5.19358C25.6274 3.47346 26.9019 2.08743 28.5945 1.44338ZM7.54842 8.62825C8.22284 7.18547 9.66493 6.1717 11.406 5.91633C13.1975 5.65374 14.9864 6.24231 16.2656 7.49817C15.0453 8.17502 13.8339 8.98362 12.7209 9.87932C11.3113 11.0137 10.1948 12.1705 9.43914 13.2576C6.73944 11.5049 7.08827 9.61272 7.54842 8.62825ZM41.5788 25.0138C41.5787 25.0138 41.5787 25.0138 41.5788 25.0138C40.5563 27.9533 37.885 29.9191 33.6393 30.8564C30.3943 31.5727 27.4137 31.3813 27.3842 31.3793C27.2676 31.3715 27.1516 31.4017 27.0536 31.4654C27.0286 31.4816 24.5198 33.1015 21.3376 34.0577C17.1739 35.3088 13.883 34.8946 11.5566 32.8267C7.75594 29.4461 10.1302 25.255 10.2325 25.0792C10.2757 25.0059 10.3009 24.9234 10.3059 24.8384C10.311 24.7535 10.2959 24.6685 10.2618 24.5906C10.2277 24.5126 10.1755 24.4439 10.1097 24.39C10.0439 24.3361 9.96615 24.2985 9.88299 24.2805C9.13241 24.1173 8.67655 23.7932 8.48954 23.2898C7.94217 21.8168 9.63094 19.0909 10.3276 18.1651C10.3734 18.1045 10.4058 18.0349 10.4227 17.9609C10.4396 17.8869 10.4407 17.8101 10.4258 17.7356C10.4109 17.6612 10.3805 17.5907 10.3364 17.5289C10.2924 17.4671 10.2357 17.4153 10.1702 17.3769C9.56209 17.0201 9.32303 16.5361 9.41786 15.8534C9.60711 14.4901 11.0942 12.5702 13.3958 10.718C15.7276 8.84143 18.4962 7.36282 20.8017 6.76292C22.0676 6.43352 23.5837 6.26731 25.1824 6.26731C26.4963 6.26731 27.866 6.37971 29.1972 6.60608C32.1095 7.10139 34.3438 8.05286 35.174 9.1511C35.5896 9.701 35.6171 10.2402 35.2603 10.8479C35.2219 10.9133 35.1978 10.9861 35.1895 11.0615C35.1812 11.1369 35.189 11.2132 35.2122 11.2854C35.2355 11.3576 35.2738 11.4241 35.3246 11.4805C35.3753 11.5368 35.4374 11.5818 35.5068 11.6125C36.5663 12.0815 39.3683 13.6385 39.6083 15.1914C39.6903 15.7224 39.4503 16.2277 38.8743 16.7362C38.8107 16.7924 38.7613 16.8629 38.7302 16.9419C38.6991 17.0208 38.6871 17.1061 38.6952 17.1906C38.7033 17.2751 38.7312 17.3566 38.7767 17.4283C38.8222 17.5 38.884 17.5599 38.9571 17.6032C38.9639 17.6073 39.0133 17.6369 39.0954 17.6919C39.4888 17.9573 40.4809 18.7068 41.196 19.9343C42.0892 21.4674 42.218 23.1765 41.5788 25.0138Z" fill="#E2AB8C"/>
<path d="M32.1416 20.5079C32.5739 19.6931 32.2639 18.6822 31.4491 18.2499C30.6344 17.8176 29.6234 18.1277 29.1912 18.9424C28.7589 19.7572 29.0689 20.7681 29.8837 21.2004C30.6984 21.6327 31.7094 21.3226 32.1416 20.5079Z" fill="#605C5D"/>
<path d="M20.1644 23.1042C20.284 22.1897 19.6396 21.3514 18.7251 21.2317C17.8106 21.1121 16.9722 21.7565 16.8526 22.6711C16.733 23.5856 17.3774 24.4239 18.2919 24.5436C19.2064 24.6632 20.0448 24.0188 20.1644 23.1042Z" fill="#605C5D"/>
<path d="M27.5699 24.0039C27.695 24.4847 27.7094 24.9616 27.6276 25.3975C27.4672 26.2819 26.9187 26.9907 26.1337 27.195C25.3466 27.3998 24.5242 27.0477 23.951 26.3543C23.669 26.0129 23.4492 25.5896 23.324 25.1087C22.9448 23.6516 23.5873 22.225 24.7608 21.9196C25.9323 21.6148 27.1907 22.5468 27.5699 24.0039Z" fill="#605C5D"/>
<path d="M27.6276 25.3976C27.4671 26.282 26.9187 26.9908 26.1336 27.195C25.3465 27.3998 24.5242 27.0478 23.9509 26.3543C24.1134 25.4695 24.6598 24.7612 25.4469 24.5563C26.232 24.352 27.0563 24.7035 27.6276 25.3976Z" fill="#FD80A6"/>
<path d="M25.6762 27.7918C25.1362 27.7918 24.5957 27.6056 24.1101 27.2451C23.4813 26.7783 23.017 26.0681 22.8028 25.2451C22.6778 24.7645 22.6451 24.2802 22.7061 23.8058L23.7737 23.9428C23.7304 24.2802 23.7541 24.6272 23.8445 24.9742C23.997 25.5604 24.3193 26.06 24.7517 26.381C25.149 26.6758 25.5914 26.7798 25.9976 26.6743C26.4038 26.5685 26.7395 26.2618 26.9426 25.8109C27.1637 25.3199 27.2015 24.7265 27.0489 24.1403C26.9711 23.8413 26.8491 23.5645 26.6864 23.3175L27.5851 22.7251C27.8129 23.0708 27.983 23.4557 28.0907 23.8691C28.3048 24.692 28.2456 25.5385 27.924 26.2527C27.5845 27.0068 26.9966 27.5264 26.2688 27.7159C26.0753 27.7663 25.8762 27.7918 25.6762 27.7918Z" fill="#FFD5AE"/>
<path d="M27.585 22.7251C26.9855 21.8155 26.0744 21.3042 25.1593 21.3257L24.73 19.7098L23.6897 19.9862L24.1176 21.5965C23.3602 21.9965 22.8353 22.7997 22.7061 23.8057C22.697 23.8758 22.7019 23.947 22.7204 24.0152C22.7389 24.0834 22.7707 24.1473 22.8139 24.2032C22.9011 24.3162 23.0297 24.3899 23.1712 24.4081C23.3128 24.4263 23.4558 24.3875 23.5688 24.3003C23.6817 24.213 23.7554 24.0845 23.7736 23.9429C23.8729 23.1703 24.3028 22.5945 24.8957 22.4402C25.5243 22.2765 26.2271 22.6209 26.6862 23.3175C26.7648 23.4367 26.8875 23.5198 27.0273 23.5485C27.1671 23.5772 27.3126 23.5493 27.4318 23.4707C27.551 23.3921 27.6341 23.2695 27.6628 23.1296C27.6915 22.9898 27.6635 22.8443 27.585 22.7251Z" fill="#E2AB8C"/>
<path d="M25.0805 19.1231C24.9258 19.0309 24.7407 19.004 24.5661 19.0482C24.3916 19.0925 24.2417 19.2043 24.1495 19.359L24.1031 19.437L24.0252 19.3906C23.8705 19.2984 23.6855 19.2715 23.5109 19.3157C23.3363 19.3599 23.1864 19.4717 23.0942 19.6265C23.002 19.7812 22.9751 19.9662 23.0193 20.1408C23.0636 20.3154 23.1754 20.4653 23.3301 20.5575L23.6068 20.7223C24.1414 21.0408 24.8329 20.8656 25.1514 20.3309L25.3162 20.0542C25.4084 19.8995 25.4354 19.7145 25.3912 19.5398C25.347 19.3652 25.2352 19.2153 25.0805 19.1231Z" fill="#FD80A6"/>
<path d="M32.7931 49.4619C38.6047 49.4619 43.316 44.7507 43.316 38.9391C43.316 33.1275 38.6047 28.4162 32.7931 28.4162C26.9815 28.4162 22.2703 33.1275 22.2703 38.9391C22.2703 44.7507 26.9815 49.4619 32.7931 49.4619Z" fill="white"/>
<path d="M32.7932 50.0001C26.6942 50.0001 21.7322 45.0381 21.7322 38.9391C21.7322 32.8401 26.6942 27.8781 32.7932 27.8781C38.8922 27.8781 43.8542 32.84 43.8542 38.9391C43.8542 45.0381 38.8922 50.0001 32.7932 50.0001ZM32.7932 28.9544C27.2876 28.9544 22.8085 33.4335 22.8085 38.9391C22.8085 44.4447 27.2876 48.9238 32.7932 48.9238C38.2988 48.9238 42.7779 44.4447 42.7779 38.9391C42.7779 33.4335 38.2988 28.9544 32.7932 28.9544Z" fill="#E3E3E3"/>
<path d="M32.7931 34.3748V43.5915C32.7931 44.3138 31.9369 44.6972 31.3979 44.2152L29.0495 42.1116L25.9958 41.8359C25.4598 41.7882 25.0486 41.3386 25.0486 40.8011V37.1652C25.0486 36.6278 25.4598 36.1781 25.9958 36.1304L29.0495 35.8547L31.3979 33.7526C31.9369 33.2691 32.7931 33.6525 32.7931 34.3748Z" fill="#91A2B5"/>
<path d="M32.5171 33.1201C32.0152 32.8959 31.4491 32.9842 31.0395 33.351L28.8231 35.3351L25.9469 35.5944C25.1281 35.6681 24.5107 36.3437 24.5107 37.1657V40.8007C24.5107 41.6228 25.1281 42.2984 25.9469 42.3722L28.8231 42.6315L31.0395 44.6156C31.2991 44.8481 31.6217 44.9687 31.951 44.9687C32.1411 44.9687 32.3334 44.9284 32.5171 44.8464C33.0189 44.6221 33.3308 44.1412 33.3308 43.5915V34.3753C33.3309 33.8253 33.019 33.3445 32.5171 33.1201ZM25.5871 40.8006V37.1656C25.5865 37.0403 25.6332 36.9193 25.7177 36.8268C25.8023 36.7342 25.9186 36.6769 26.0436 36.6662L28.511 36.4438V41.5224L26.0436 41.3C25.9186 41.2894 25.8023 41.2321 25.7177 41.1395C25.6331 41.047 25.5865 40.926 25.5871 40.8006ZM32.2545 43.5912C32.2545 43.7657 32.1311 43.8398 32.0779 43.8635C32.0248 43.8873 31.8872 43.9298 31.7573 43.8135L29.5873 41.8708V36.0955L31.7573 34.1529C31.8874 34.0364 32.0249 34.079 32.0779 34.1029C32.1311 34.1266 32.2545 34.2005 32.2545 34.3751V43.5912Z" fill="#678490"/>
<path d="M37.6038 38.9391L39.1642 37.3787C39.2623 37.2771 39.3166 37.1412 39.3154 37C39.3142 36.8589 39.2576 36.7238 39.1578 36.624C39.0579 36.5242 38.9229 36.4676 38.7817 36.4664C38.6406 36.4651 38.5046 36.5194 38.4031 36.6175L36.8426 38.178L35.2822 36.6175C35.1807 36.5194 35.0447 36.4651 34.9035 36.4664C34.7624 36.4676 34.6273 36.5242 34.5275 36.624C34.4277 36.7238 34.3711 36.8589 34.3699 37C34.3687 37.1412 34.423 37.2771 34.5211 37.3787L36.0815 38.9391L34.5211 40.4996C34.423 40.6011 34.3687 40.7371 34.3699 40.8782C34.3711 41.0194 34.4277 41.1544 34.5275 41.2542C34.6273 41.354 34.7624 41.4107 34.9035 41.4119C35.0447 41.4131 35.1807 41.3588 35.2822 41.2607L36.8426 39.7002L38.4031 41.2607C38.453 41.3107 38.5123 41.3504 38.5776 41.3775C38.643 41.4045 38.713 41.4184 38.7837 41.4183C38.8901 41.4183 38.9941 41.3867 39.0826 41.3275C39.1711 41.2684 39.24 41.1844 39.2808 41.086C39.3215 40.9877 39.3322 40.8795 39.3114 40.7751C39.2907 40.6707 39.2394 40.5748 39.1642 40.4996L37.6038 38.9391Z" fill="#FE518E"/>
<path d="M24.0483 31.2366L23.2453 30.8146C22.1902 30.26 20.8831 30.665 20.3285 31.7201L20.1491 32.0614C19.0667 32.5604 18.046 33.729 17.4835 35.2757C16.5969 37.7136 17.1841 40.1648 18.7952 40.7508C20.4063 41.3367 22.4311 39.8354 23.3177 37.3975C23.4204 37.115 23.5049 36.8263 23.5709 36.5331C23.7463 36.3685 23.893 36.1757 24.0048 35.9628L24.8607 34.3346C25.4751 34.464 26.0563 34.4089 26.3026 33.8782C26.7209 32.9776 25.4977 31.9984 24.0483 31.2366Z" fill="#FFD5AE"/>
<path d="M24.2993 30.7602C24.2948 30.7579 24.2902 30.7561 24.2856 30.7539L23.4957 30.3386C22.1784 29.6463 20.5439 30.1541 19.8522 31.4702L19.7543 31.6563C18.572 32.2704 17.5424 33.5383 16.9773 35.0919C16.5129 36.3688 16.4069 37.6975 16.6791 38.8331C16.9704 40.049 17.6567 40.9095 18.6112 41.2561C18.9055 41.3632 19.2163 41.4177 19.5294 41.4171C20.2277 41.4171 20.9559 41.1538 21.6485 40.6403C22.5867 39.9448 23.3592 38.8583 23.8237 37.5807C23.9157 37.3265 23.9943 37.0677 24.0592 36.8052C24.2259 36.628 24.3679 36.4291 24.4812 36.2137L25.1612 34.9199C25.2362 34.9262 25.3105 34.9296 25.3839 34.9296C25.5698 34.9296 25.7495 34.908 25.9166 34.8583C26.3146 34.7397 26.6168 34.4793 26.7906 34.1049C27.4187 32.7529 25.7824 31.5398 24.2993 30.7602ZM21.0076 39.7756C20.3033 40.2978 19.5829 40.4645 18.979 40.2446C18.3752 40.0254 17.9302 39.435 17.7259 38.5824C17.5023 37.6497 17.5958 36.5407 17.989 35.4598C18.1495 35.0166 18.3583 34.5923 18.6117 34.1948C18.5628 34.5787 18.5972 34.9687 18.7128 35.338C18.927 36.0262 19.3962 36.5898 20.0338 36.925L20.8368 37.347C21.2225 37.5503 21.652 37.6565 22.088 37.6565C22.2811 37.6565 22.4728 37.6349 22.6601 37.5944C22.2632 38.5076 21.6857 39.2729 21.0076 39.7756ZM25.8145 33.6515C25.7703 33.7467 25.7129 33.7958 25.6098 33.8265C25.0623 33.9904 23.842 33.4588 23.1508 33.0296C23.0908 32.9922 23.0241 32.967 22.9543 32.9554C22.8846 32.9438 22.8133 32.9461 22.7445 32.9621C22.6756 32.9781 22.6106 33.0075 22.5531 33.0486C22.4956 33.0898 22.4468 33.1418 22.4095 33.2018C22.3721 33.2618 22.3469 33.3285 22.3353 33.3983C22.3238 33.468 22.326 33.5393 22.342 33.6081C22.358 33.677 22.3874 33.742 22.4285 33.7995C22.4696 33.8569 22.5217 33.9058 22.5816 33.9431C22.6988 34.0162 23.3302 34.3993 24.0786 34.666L23.5282 35.7129C23.112 36.5047 22.1293 36.8103 21.3374 36.3941L20.5344 35.972C20.3455 35.8734 20.1781 35.7383 20.0418 35.5745C19.9055 35.4108 19.803 35.2216 19.7402 35.018C19.6763 34.8146 19.6534 34.6006 19.6727 34.3883C19.6921 34.176 19.7534 33.9697 19.8531 33.7812L20.8046 31.971C21.2204 31.18 22.203 30.8754 22.9946 31.2914L23.7976 31.7134L23.798 31.7128L23.7982 31.7129C25.2225 32.4615 26.0138 33.2224 25.8145 33.6515Z" fill="#E2AB8C"/>
<path d="M40.8992 27.2091C42.3482 28.3194 43.1332 29.7279 42.023 31.1768C40.9127 32.6257 38.838 32.9003 37.3891 31.7901C35.9401 30.6798 35.6655 28.6051 36.7758 27.1562C37.886 25.7072 39.4503 26.0988 40.8992 27.2091Z" fill="#FFD5AE"/>
<path d="M39.3913 33.0104C38.5515 33.0104 37.7394 32.7365 37.0616 32.2172C36.2468 31.5928 35.7237 30.6885 35.589 29.6707C35.4544 28.6529 35.7241 27.6437 36.3484 26.8288C36.9775 26.0076 37.8079 25.612 38.7522 25.6863C39.5239 25.7466 40.3563 26.1152 41.2263 26.7818C42.0964 27.4484 42.6688 28.1562 42.9278 28.8857C43.2444 29.7775 43.0792 30.6828 42.45 31.504C41.8256 32.3188 40.9212 32.8419 39.9034 32.9766C39.7336 32.9991 39.5626 33.0104 39.3913 33.0104ZM38.5315 26.754C38.0139 26.754 37.5781 26.9936 37.2028 27.4835C36.7533 28.0701 36.5592 28.7968 36.656 29.5295C36.753 30.2622 37.1295 30.9133 37.7162 31.3629C38.3028 31.8124 39.0294 32.0068 39.7623 31.9097C40.495 31.8127 41.1461 31.4362 41.5957 30.8495C42.0036 30.3171 42.1076 29.7927 41.9136 29.2461C41.728 28.7234 41.2639 28.1668 40.5718 27.6363C39.8795 27.106 39.2214 26.8027 38.6684 26.7595C38.6229 26.7558 38.5772 26.754 38.5315 26.754Z" fill="#E2AB8C"/>
</g>
<defs>
<clipPath id="clip0_4075_167">
<rect width="50" height="50" fill="white"/>
</clipPath>
</defs>
</svg>
