<svg width="173" height="177" viewBox="0 0 173 177" fill="none" xmlns="http://www.w3.org/2000/svg">
<path d="M86.7931 0.4375C87.7831 0.404629 87.7831 0.404629 88.7931 0.371094C91.9098 1.35116 92.9191 3.36015 94.7931 6C96.1186 8.56175 97.2245 11.1981 98.3243 13.8633C98.6421 14.6141 98.9599 15.3649 99.2873 16.1385C100.297 18.5267 101.295 20.9193 102.293 23.3125C103.293 25.6942 104.294 28.0748 105.299 30.4544C105.921 31.9301 106.54 33.407 107.156 34.8856C110.706 44.2835 110.706 44.2835 116.793 52C119.652 52.6593 119.652 52.6593 122.945 52.8789C124.188 52.9942 125.431 53.1095 126.711 53.2283C127.368 53.2828 128.025 53.3373 128.701 53.3935C130.74 53.5633 132.777 53.7502 134.814 53.9417C140.889 54.5071 146.968 55.0178 153.051 55.4922C153.96 55.5688 154.869 55.6454 155.805 55.7244C157.457 55.8624 159.11 55.9853 160.764 56.0901C165.59 56.4971 168.473 57.4031 171.793 61C172.31 64.2548 172.535 65.9324 171.793 69C170.158 71.1252 168.844 72.3505 166.793 74C165.249 75.4138 163.707 76.8308 162.168 78.25C155.892 83.8661 149.405 89.2289 142.723 94.3555C141.735 95.125 140.748 95.8946 139.731 96.6875C138.832 97.372 137.934 98.0565 137.008 98.7617C134.216 101.584 133.439 103.058 132.793 107C133.178 110.82 134.009 114.509 134.856 118.25C135.328 120.479 135.799 122.708 136.27 124.938C136.643 126.668 136.643 126.668 137.025 128.434C138.303 134.364 139.532 140.303 140.731 146.25C140.966 147.35 141.201 148.45 141.444 149.583C141.754 151.127 141.754 151.127 142.07 152.703C142.259 153.607 142.447 154.511 142.64 155.442C142.823 158.498 142.175 160.292 140.793 163C138.339 165 136.944 165.006 133.774 164.883C128.534 164.052 124.282 161.184 119.793 158.5C118.873 157.962 117.952 157.424 117.004 156.869C114.259 155.26 111.524 153.634 108.793 152C107.635 151.308 107.635 151.308 106.454 150.601C101.063 147.37 101.063 147.37 98.588 145.855C92.4072 141.672 92.4072 141.672 85.4181 140.062C78.6789 142.469 72.4916 146.239 66.3556 149.875C65.6099 150.314 64.8641 150.753 64.0958 151.206C60.246 153.488 56.4761 155.829 52.7931 158.375C47.4284 162.01 42.52 165 35.9181 165C32.3659 163.863 31.6256 163.155 29.7931 160C29.645 157.772 29.645 157.772 29.9742 155.372C30.0934 154.491 30.2125 153.61 30.3353 152.703C31.0557 148.45 31.9291 144.251 32.8946 140.047C33.3064 138.193 33.7178 136.339 34.129 134.484C34.7746 131.604 35.4237 128.725 36.0782 125.848C36.7142 123.041 37.3365 120.232 37.9571 117.422C38.156 116.566 38.3549 115.709 38.5598 114.827C39.5617 110.253 40.1126 106.614 38.7931 102C36.9919 99.6982 36.9919 99.6982 34.5431 97.75C33.1992 96.6053 33.1992 96.6053 31.8282 95.4375C28.0519 92.4048 24.2372 89.4259 20.3487 86.5381C16.8647 83.931 13.8528 81.0848 10.7931 78C8.69165 76.3753 6.54233 74.8558 4.3673 73.332C3.84781 72.8925 3.32831 72.4529 2.79308 72C2.79308 71.34 2.79308 70.68 2.79308 70C2.13308 70 1.47308 70 0.79308 70C-0.121012 66.4267 -0.511279 64.6377 1.10558 61.25C4.20669 57.1152 4.20669 57.1152 6.94956 56.5764C7.84208 56.495 8.7346 56.4137 9.65416 56.3298C10.6654 56.2331 11.6766 56.1364 12.7185 56.0367C13.8143 55.9408 14.9101 55.8449 16.0392 55.7461C17.1612 55.6403 18.2833 55.5345 19.4393 55.4256C23.0357 55.0878 26.633 54.762 30.2306 54.4375C33.8244 54.1076 37.4179 53.7751 41.0111 53.4387C43.2499 53.2298 45.4891 53.0248 47.7287 52.8243C48.7431 52.7308 49.7575 52.6372 50.8026 52.5408C51.6959 52.4602 52.5892 52.3796 53.5096 52.2966C55.9517 52.0535 55.9517 52.0535 58.7931 51C59.8739 48.2563 59.8739 48.2563 60.7931 45C61.721 42.8076 62.6774 40.6271 63.6564 38.457C63.9302 37.8479 64.2041 37.2388 64.4862 36.6113C65.3567 34.6771 66.2311 32.7448 67.1056 30.8125C67.6807 29.5359 68.2556 28.2592 68.8302 26.9824C69.9517 24.4907 71.079 22.0018 72.2096 19.5142C73.2199 17.2721 74.2136 15.0223 75.1852 12.7632C75.6062 11.7933 76.0273 10.8235 76.4611 9.82422C76.8184 8.98335 77.1757 8.14248 77.5438 7.27612C79.7191 3.31291 82.0849 0.428304 86.7931 0.4375Z" fill="#FED501"/>
<path d="M86.7931 0.4375C87.7831 0.404629 87.7831 0.404629 88.7931 0.371094C91.9098 1.35116 92.9191 3.36015 94.7931 6C96.1186 8.56175 97.2245 11.1981 98.3243 13.8633C98.6421 14.6141 98.9599 15.3649 99.2873 16.1385C100.297 18.5267 101.295 20.9193 102.293 23.3125C103.293 25.6942 104.294 28.0748 105.299 30.4544C105.921 31.9301 106.54 33.407 107.156 34.8856C110.713 44.2764 110.713 44.2764 116.793 52C119.399 52.722 119.399 52.722 121.793 53C121.793 53.33 121.793 53.66 121.793 54C118.493 53.67 115.193 53.34 111.793 53C111.298 51.02 111.298 51.02 110.793 49C109.143 48.67 107.493 48.34 105.793 48C106.783 50.31 107.773 52.62 108.793 55C105.405 58.4605 102.944 60.7659 98.1056 61.75C94.7931 61 94.7931 61 92.4806 58.6875C85.7546 46.3852 87.6356 28.6345 87.7931 15C89.7731 15 91.7531 15 93.7931 15C93.5881 14.3851 93.3832 13.7702 93.172 13.1367C92.0457 9.75781 90.9194 6.37891 89.7931 3C86.3176 3.53978 86.3176 3.53978 82.7931 5C81.2616 8.00594 81.2616 8.00594 80.7931 11C80.1331 11 79.4731 11 78.7931 11C78.69 11.6806 78.5868 12.3612 78.4806 13.0625C77.8059 15.9451 76.7547 18.4326 75.5353 21.1211C74.6198 23.2842 74.6198 23.2842 73.9806 26.875C73.2021 30.3447 71.7907 32.6734 69.7306 35.5625C66.9815 39.4205 66.2505 42.2429 65.7931 47C64.0679 50.6148 62.2866 52.9886 58.7931 55C57.4731 55 56.1531 55 54.7931 55C54.7931 55.66 54.7931 56.32 54.7931 57C48.8531 57 42.9131 57 36.7931 57C36.7931 57.66 36.7931 58.32 36.7931 59C35.3119 58.9826 35.3119 58.9826 33.8009 58.9648C32.5196 58.9558 31.2382 58.9468 29.9181 58.9375C28.0038 58.9201 28.0038 58.9201 26.0509 58.9023C22.9064 58.7682 22.9064 58.7682 20.7931 60C19.1932 60.2039 17.5877 60.3651 15.9806 60.5C12.5244 60.8151 9.17949 61.2098 5.79308 62C5.79308 62.66 5.79308 63.32 5.79308 64C5.13308 64 4.47308 64 3.79308 64C4.28808 64.9488 4.78308 65.8975 5.29308 66.875C6.79308 70 6.79308 70 6.79308 72C7.3912 72.2887 7.98933 72.5775 8.60558 72.875C10.7931 74 10.7931 74 13.7931 76C13.7931 76.66 13.7931 77.32 13.7931 78C16.1031 78.66 18.4131 79.32 20.7931 80C21.1231 81.65 21.4531 83.3 21.7931 85C18.1331 85 17.7014 84.3076 15.1056 81.875C11.6567 78.7204 8.08544 75.9456 4.26183 73.2617C3.77714 72.8454 3.29245 72.429 2.79308 72C2.79308 71.34 2.79308 70.68 2.79308 70C2.13308 70 1.47308 70 0.79308 70C-0.121012 66.4267 -0.511279 64.6377 1.10558 61.25C4.20669 57.1152 4.20669 57.1152 6.94956 56.5764C7.84208 56.495 8.7346 56.4137 9.65416 56.3298C10.6654 56.2331 11.6766 56.1364 12.7185 56.0367C13.8143 55.9408 14.9101 55.8449 16.0392 55.7461C17.1612 55.6403 18.2833 55.5345 19.4393 55.4256C23.0357 55.0878 26.633 54.762 30.2306 54.4375C33.8244 54.1076 37.4179 53.7751 41.0111 53.4387C43.2499 53.2298 45.4891 53.0248 47.7287 52.8243C48.7431 52.7308 49.7575 52.6372 50.8026 52.5408C51.6959 52.4602 52.5892 52.3796 53.5096 52.2966C55.9517 52.0535 55.9517 52.0535 58.7931 51C59.8739 48.2563 59.8739 48.2563 60.7931 45C61.721 42.8076 62.6774 40.6271 63.6564 38.457C63.9302 37.8479 64.2041 37.2388 64.4862 36.6113C65.3567 34.6771 66.2311 32.7448 67.1056 30.8125C67.6807 29.5359 68.2556 28.2592 68.8302 26.9824C69.9517 24.4907 71.079 22.0018 72.2096 19.5142C73.2199 17.2721 74.2136 15.0223 75.1852 12.7632C75.6062 11.7933 76.0273 10.8235 76.4611 9.82422C76.8184 8.98335 77.1757 8.14248 77.5438 7.27612C79.7191 3.31291 82.0849 0.428304 86.7931 0.4375Z" fill="#F6D139"/>
<path d="M124.793 54.0002C132.894 53.8412 140.883 54.3436 148.945 55.0622C150.393 55.1882 151.843 55.3063 153.293 55.4167C155.416 55.5784 157.536 55.7632 159.656 55.9533C161.532 56.1104 161.532 56.1104 163.447 56.2707C167.27 57.1042 169.095 58.1889 171.793 61.0002C172.31 64.255 172.535 65.9326 171.793 69.0002C170.158 71.1254 168.844 72.3507 166.793 74.0002C165.249 75.414 163.707 76.831 162.168 78.2502C155.892 83.8663 149.405 89.2291 142.723 94.3557C141.735 95.1252 140.748 95.8948 139.73 96.6877C138.832 97.3722 137.934 98.0567 137.008 98.7619C134.186 101.613 133.423 103.004 132.793 107C133.247 111.152 134.129 115.179 135.043 119.25C135.274 120.332 135.504 121.413 135.742 122.528C136.417 125.687 137.104 128.844 137.793 132C138.19 133.827 138.581 135.655 138.965 137.485C139.206 138.617 139.206 138.617 139.452 139.773C139.825 142.211 139.85 144.537 139.793 147C137.285 144.492 136.875 142.373 135.793 139C134.835 136.646 133.817 134.327 132.793 132C132.463 132 132.133 132 131.793 132C128.349 112.032 128.349 112.032 128.793 103C129.453 103 130.113 103 130.793 103C130.875 101.928 130.958 100.855 131.043 99.7502C131.9 95.4674 132.497 94.705 135.793 92.0002C137.193 90.7965 138.588 89.5877 139.98 88.3752C140.675 87.7848 141.37 87.1944 142.086 86.5861C143.892 85.0939 143.892 85.0939 144.793 83.0002C147.451 81.2518 149.767 80.0089 152.793 79.0002C152.793 78.3402 152.793 77.6802 152.793 77.0002C154.773 76.3402 156.753 75.6802 158.793 75.0002C158.793 74.3402 158.793 73.6802 158.793 73.0002C160.113 73.0002 161.433 73.0002 162.793 73.0002C162.793 72.0102 162.793 71.0202 162.793 70.0002C164.113 70.0002 165.433 70.0002 166.793 70.0002C166.886 68.0821 166.886 68.0821 166.98 66.1252C167.015 65.4059 167.05 64.6866 167.086 63.9455C166.989 63.3036 166.893 62.6616 166.793 62.0002C163.914 60.0809 163.071 59.7159 159.836 59.4025C159.06 59.3239 158.283 59.2453 157.483 59.1643C156.657 59.0895 155.831 59.0147 154.98 58.9377C154.133 58.8539 153.286 58.7701 152.413 58.6838C146.207 58.0845 140.001 57.6474 133.773 57.3439C130.565 56.9739 127.815 56.1204 124.793 55.0002C124.793 54.6702 124.793 54.3402 124.793 54.0002Z" fill="#FCD011"/>
<path d="M159.793 68.9986C160.288 70.9786 160.288 70.9786 160.793 72.9986C160.133 72.9986 159.473 72.9986 158.793 72.9986C158.793 73.6586 158.793 74.3186 158.793 74.9986C156.813 75.6586 154.833 76.3186 152.793 76.9986C152.793 77.6586 152.793 78.3186 152.793 78.9986C148.44 82.9986 148.44 82.9986 144.793 82.9986C144.607 83.7205 144.422 84.4424 144.23 85.1861C142.288 88.9856 139.492 90.9484 135.793 92.9986C135.133 92.9986 134.473 92.9986 133.793 92.9986C133.575 93.6406 133.357 94.2825 133.133 94.9439C131.793 96.9986 131.793 96.9986 129.297 97.6783C128.326 97.7427 127.355 97.8072 126.355 97.8736C125.387 97.9535 124.419 98.0334 123.422 98.1158C120.793 97.9986 120.793 97.9986 117.793 95.9986C117.5 93.8345 117.5 93.8345 117.605 91.3736C117.632 90.5563 117.659 89.7391 117.687 88.897C117.722 88.2706 117.757 87.6441 117.793 86.9986C119.113 86.3386 120.433 85.6786 121.793 84.9986C121.793 84.3386 121.793 83.6786 121.793 82.9986C123.682 81.9862 125.579 80.9891 127.48 79.9986C128.536 79.4417 129.592 78.8849 130.68 78.3111C133.715 77.0314 135.553 76.7101 138.793 76.9986C138.793 76.3386 138.793 75.6786 138.793 74.9986C140.113 74.9986 141.433 74.9986 142.793 74.9986C142.793 74.3386 142.793 73.6786 142.793 72.9986C144.03 72.7099 145.268 72.4211 146.543 72.1236C148.905 71.5424 150.809 70.9901 152.98 69.8736C155.326 68.7413 157.224 68.8559 159.793 68.9986Z" fill="#FBB401"/>
<path d="M36.7656 19.5469C39.793 20 39.793 20 41.6641 21.7656C42.4394 22.9954 42.4394 22.9954 43.2305 24.25C43.808 25.1562 44.3855 26.0624 44.9805 26.9961C45.5786 27.9874 46.1767 28.9787 46.793 30C47.453 31.0429 48.113 32.0857 48.793 33.1602C54.4091 42.2977 54.4091 42.2977 53.793 47C52.1055 48.9375 52.1055 48.9375 49.793 50C44.4442 48.2577 39.849 45.1437 35.1055 42.1875C34.2386 41.6661 33.3717 41.1446 32.4785 40.6074C31.6503 40.0912 30.8221 39.5749 29.9688 39.043C29.2151 38.5791 28.4614 38.1153 27.6848 37.6375C25.391 35.6521 24.7072 33.8576 23.793 31C24.8958 29.728 26.0003 28.4574 27.1055 27.1875C27.7204 26.4798 28.3352 25.7721 28.9688 25.043C29.8717 24.0317 29.8717 24.0317 30.793 23C31.2403 22.4186 31.6876 21.8373 32.1484 21.2383C33.793 20 33.793 20 36.7656 19.5469Z" fill="#FBBD07"/>
<path d="M87.7932 15C89.1132 15 90.4332 15 91.7932 15C94.8031 20.5898 96.9203 26.1352 98.8518 32.1797C99.6044 34.4343 100.422 36.5357 101.418 38.6875C103.98 44.8581 105.464 51.2956 104.793 58C103.731 59.9375 103.731 59.9375 101.793 61C98.3557 61.5625 98.3557 61.5625 94.7932 61C86.387 52.5938 87.7637 35.4599 87.7273 24.3875C87.7321 21.258 87.757 18.1293 87.7932 15Z" fill="#FDFE76"/>
<path d="M83.7929 144C86.9179 143.812 86.9179 143.812 89.7929 144C92.0351 148.934 93.686 153.742 94.9804 159C95.2462 160.009 95.2462 160.009 95.5175 161.039C96.6118 165.416 97.2299 169.459 96.7929 174C93.156 176.425 90.4305 176.298 86.2304 176.25C85.5452 176.258 84.8601 176.265 84.1542 176.273C79.0462 176.253 79.0462 176.253 76.7929 174C76.4159 167.441 78.1743 160.829 79.7304 154.5C79.9 153.806 80.0697 153.111 80.2445 152.396C81.0849 149.138 81.907 146.829 83.7929 144Z" fill="#FBBD07"/>
<path d="M145.668 106.575C147.393 106.587 147.393 106.587 149.152 106.6C150.954 106.644 150.954 106.644 152.793 106.688C154.595 106.703 154.595 106.703 156.434 106.717C165.286 106.832 165.286 106.832 168.793 108.001C170.639 111.693 169.483 116.041 168.793 120.001C167.965 122.484 166.968 124.651 165.793 127.001C158.806 127.408 154.437 124.571 148.48 121.251C147.467 120.712 146.453 120.173 145.408 119.618C144.446 119.089 143.484 118.561 142.492 118.016C141.614 117.534 140.736 117.053 139.831 116.556C137.793 115.001 137.793 115.001 136.812 113.062C136.793 111.001 136.793 111.001 137.863 108.777C140.512 106.339 142.105 106.526 145.668 106.575Z" fill="#FBBD06"/>
<path d="M12.0195 106.637C13.8139 106.638 13.8139 106.638 15.6445 106.639C16.8898 106.655 18.135 106.671 19.418 106.688C20.6709 106.685 21.9239 106.681 23.2148 106.678C32.526 106.733 32.526 106.733 34.793 109C34.8984 112.36 34.8984 112.36 33.793 116C31.479 117.97 28.8868 119.068 26.1055 120.25C25.3971 120.575 24.6888 120.9 23.959 121.235C22.5644 121.873 21.1644 122.5 19.7588 123.114C17.9664 123.922 16.2215 124.833 14.4844 125.754C11.1538 127.296 9.28526 126.915 5.79297 126C3.86826 120.662 2.39405 115.651 1.79297 110C5.16533 106.908 7.50504 106.625 12.0195 106.637Z" fill="#FCBD03"/>
<path d="M35.7929 127C36.1229 127 36.4529 127 36.7929 127C36.0118 149.801 36.0118 149.801 33.7929 159C37.0947 160.058 38.569 160.083 41.871 158.855C43.4411 158.03 43.4411 158.03 45.0429 157.188C46.0999 156.645 47.1569 156.102 48.246 155.543C50.8897 154.251 50.8897 154.251 51.7929 152C53.4403 151.287 55.1109 150.627 56.7929 150C62.558 147.28 68.1646 144.294 73.6874 141.113C79.7603 137.902 84.9709 136.987 91.7929 138C99.1922 140.821 105.151 145.536 110.793 151C107.512 151 106.556 150.49 103.793 148.875C102.61 148.202 102.61 148.202 101.402 147.516C99.5732 146.453 97.7508 145.379 95.9335 144.297C94.9796 143.745 94.0257 143.193 93.0429 142.625C92.1612 142.102 91.2794 141.578 90.371 141.039C87.1658 139.747 86.0517 139.885 82.7929 141C77.088 143.528 71.7168 146.698 66.3554 149.875C65.6096 150.314 64.8639 150.753 64.0956 151.206C60.2458 153.488 56.4759 155.829 52.7929 158.375C47.4282 162.01 42.5198 165 35.9179 165C32.3674 163.864 31.6309 163.148 29.7929 160C29.6286 157.848 29.6286 157.848 29.9452 155.508C30.0636 154.63 30.1821 153.753 30.3041 152.849C31.1668 147.821 32.2258 142.849 33.3554 137.875C33.5893 136.823 33.8233 135.771 34.0644 134.688C34.6354 132.124 35.2116 129.561 35.7929 127Z" fill="#F9D320"/>
<path d="M91.793 8C92.453 8 93.113 8 93.793 8C95.2536 10.6474 95.793 11.8945 95.793 15C96.783 15 97.773 15 98.793 15C99.1052 15.7457 99.4175 16.4914 99.7393 17.2598C101.171 20.6744 102.607 24.0872 104.043 27.5C104.534 28.673 105.025 29.8461 105.531 31.0547C109.689 42.4788 109.689 42.4788 116.793 52C119.399 52.722 119.399 52.722 121.793 53C121.793 53.33 121.793 53.66 121.793 54C118.493 53.67 115.193 53.34 111.793 53C111.463 51.68 111.133 50.36 110.793 49C109.143 48.67 107.493 48.34 105.793 48C107.278 51.465 107.278 51.465 108.793 55C107.473 55.66 106.153 56.32 104.793 57C104.585 55.9095 104.378 54.8189 104.164 53.6953C101.865 42.236 98.2945 31.766 93.793 21C93.1233 19.3345 92.4551 17.6685 91.793 16C92.453 15.34 93.113 14.68 93.793 14C93.133 12.02 92.473 10.04 91.793 8Z" fill="#F7D60D"/>
<path d="M124.793 54.0002C132.894 53.8412 140.883 54.3436 148.945 55.0622C150.393 55.1882 151.843 55.3063 153.293 55.4167C155.416 55.5784 157.536 55.7632 159.656 55.9533C161.532 56.1104 161.532 56.1104 163.447 56.2707C167.27 57.1042 169.095 58.1889 171.793 61.0002C172.31 64.255 172.535 65.9326 171.793 69.0002C170.158 71.1254 168.844 72.3507 166.793 74.0002C165.249 75.414 163.707 76.831 162.168 78.2502C155.884 83.8728 149.343 89.1628 142.758 94.426C141.779 95.2136 140.801 96.0012 139.793 96.8127C138.906 97.5204 138.019 98.2281 137.105 98.9572C134.977 100.838 133.39 102.663 131.793 105C131.793 101.625 132.272 99.585 134.535 97.0432C140.143 92.0002 140.143 92.0002 143.793 92.0002C143.886 91.1339 143.886 91.1339 143.98 90.2502C145.135 87.0531 147.008 85.8565 149.793 84.0002C150.783 84.0002 151.773 84.0002 152.793 84.0002C153.257 83.0721 153.257 83.0721 153.73 82.1252C154.418 80.7502 155.105 79.3752 155.793 78.0002C156.453 78.0002 157.113 78.0002 157.793 78.0002C157.793 77.3402 157.793 76.6802 157.793 76.0002C159.443 75.6702 161.093 75.3402 162.793 75.0002C162.793 73.3502 162.793 71.7002 162.793 70.0002C164.113 70.0002 165.433 70.0002 166.793 70.0002C166.886 68.0821 166.886 68.0821 166.98 66.1252C167.015 65.4059 167.05 64.6866 167.086 63.9455C166.989 63.3036 166.893 62.6616 166.793 62.0002C163.914 60.0809 163.071 59.7159 159.836 59.4025C159.06 59.3239 158.283 59.2453 157.483 59.1643C156.657 59.0895 155.831 59.0147 154.98 58.9377C154.133 58.8539 153.286 58.7701 152.413 58.6838C146.207 58.0845 140.001 57.6474 133.773 57.3439C130.565 56.9739 127.815 56.1204 124.793 55.0002C124.793 54.6702 124.793 54.3402 124.793 54.0002Z" fill="#F5D44A"/>
<path d="M12.0195 106.637C13.8139 106.638 13.8139 106.638 15.6445 106.639C16.8898 106.656 18.135 106.672 19.418 106.688C20.6709 106.685 21.9239 106.682 23.2148 106.678C32.526 106.734 32.526 106.734 34.793 109.001C34.8984 112.36 34.8984 112.36 33.793 116.001C31.479 117.97 28.8868 119.068 26.1055 120.251C25.3971 120.576 24.6888 120.9 23.959 121.235C22.5644 121.874 21.1644 122.501 19.7588 123.115C17.9664 123.923 16.2215 124.834 14.4844 125.755C11.1538 127.297 9.28526 126.915 5.79297 126.001C5.46297 124.351 5.13297 122.701 4.79297 121.001C5.12297 121.661 5.45297 122.321 5.79297 123.001C11.1267 124.134 11.1267 124.134 16.293 123.063C16.788 122.713 17.283 122.362 17.793 122.001C17.793 121.341 17.793 120.681 17.793 120.001C19.443 120.001 21.093 120.001 22.793 120.001C22.793 119.341 22.793 118.681 22.793 118.001C23.6902 117.939 23.6902 117.939 24.6055 117.876C27.8837 116.564 28.3594 114.098 29.793 111.001C26.71 110.884 23.6275 110.813 20.543 110.751C19.6703 110.717 18.7976 110.684 17.8984 110.649C12.7193 110.512 12.7193 110.512 8.23047 112.844C6.62172 115.258 6.11149 117.134 5.79297 120.001C5.13297 120.001 4.47297 120.001 3.79297 120.001C3.13297 116.701 2.47297 113.401 1.79297 110.001C6.09149 106.777 6.93588 106.624 12.0195 106.637Z" fill="#F7BD19"/>
<path d="M39.793 19.9989C41.6641 21.7645 41.6641 21.7645 43.2305 24.2489C43.808 25.1551 44.3855 26.0613 44.9805 26.995C45.5786 27.9863 46.1767 28.9776 46.793 29.9989C47.453 31.0418 48.113 32.0846 48.793 33.1591C54.4091 42.2966 54.4091 42.2966 53.793 46.9989C52.1055 48.9364 52.1055 48.9364 49.793 49.9989C44.6846 48.5789 40.3575 45.265 35.9805 42.3739C35.1922 41.8583 34.4039 41.3427 33.5918 40.8114C31.6562 39.5445 29.7234 38.2736 27.793 36.9989C29.113 36.6689 30.433 36.3389 31.793 35.9989C32.123 36.6589 32.453 37.3189 32.793 37.9989C34.5311 38.7532 36.2718 39.5029 38.0312 40.2059C39.793 40.9989 39.793 40.9989 41.793 42.6239C44.6417 44.5824 47.4046 44.6731 50.793 44.9989C50.793 44.3389 50.793 43.6789 50.793 42.9989C50.133 42.9989 49.473 42.9989 48.793 42.9989C48.793 40.6889 48.793 38.3789 48.793 35.9989C47.803 35.9989 46.813 35.9989 45.793 35.9989C44.4062 34.538 44.4062 34.538 43.1055 32.6239C42.45 31.6842 42.45 31.6842 41.7812 30.7255C40.793 28.9989 40.793 28.9989 40.793 26.9989C40.133 26.9989 39.473 26.9989 38.793 26.9989C38.793 25.3489 38.793 23.6989 38.793 21.9989C33.0882 24.0123 30.1552 25.9046 26.793 30.9989C26.3717 33.7529 26.3717 33.7529 26.793 35.9989C25.803 35.0089 24.813 34.0189 23.793 32.9989C25.1166 29.1427 26.7041 26.6078 29.543 23.6864C30.1978 22.989 30.8527 22.2916 31.5273 21.5731C34.5293 19.4873 36.2118 19.3965 39.793 19.9989Z" fill="#F2C03C"/>
<path d="M90.793 1.00046C95.0799 4.5922 96.2932 9.78527 97.793 15.0005C97.133 15.0005 96.473 15.0005 95.793 15.0005C93.793 11.0005 91.793 7.00046 89.793 3.00046C86.3175 3.54024 86.3175 3.54024 82.793 5.00046C81.2615 8.00641 81.2615 8.00641 80.793 11.0005C80.133 11.0005 79.473 11.0005 78.793 11.0005C78.6898 11.6811 78.5867 12.3617 78.4805 13.063C77.8049 15.9494 76.7537 18.4395 75.5273 21.1294C74.6212 23.2624 74.6212 23.2624 74.1055 26.7505C72.9679 31.8495 69.7281 35.5339 66.5703 39.5825C64.639 41.9506 64.639 41.9506 63.793 45.0005C63.133 45.0005 62.473 45.0005 61.793 45.0005C64.2093 37.1913 67.3897 29.8301 70.7305 22.3755C71.2558 21.1869 71.7811 19.9984 72.3223 18.7739C80.9858 -0.656803 80.9858 -0.656804 90.793 1.00046Z" fill="#F8D740"/>
<path d="M145.668 106.575C147.393 106.587 147.393 106.587 149.152 106.6C150.954 106.644 150.954 106.644 152.793 106.688C154.595 106.703 154.595 106.703 156.434 106.717C165.286 106.832 165.286 106.832 168.793 108.001C170.639 111.693 169.483 116.041 168.793 120.001C167.965 122.484 166.968 124.651 165.793 127.001C158.806 127.408 154.437 124.571 148.48 121.251C147.467 120.712 146.453 120.173 145.408 119.618C144.446 119.089 143.484 118.561 142.492 118.016C141.614 117.534 140.736 117.053 139.831 116.556C137.793 115.001 137.793 115.001 136.812 113.062C136.793 111.001 136.793 111.001 137.863 108.777C140.512 106.339 142.105 106.526 145.668 106.575ZM139.793 110.001C139.793 111.321 139.793 112.641 139.793 114.001C142.103 114.331 144.413 114.661 146.793 115.001C146.793 115.661 146.793 116.321 146.793 117.001C147.453 117.001 148.113 117.001 148.793 117.001C148.793 117.661 148.793 118.321 148.793 119.001C151.699 120.257 153.589 121.001 156.793 121.001C156.793 121.661 156.793 122.321 156.793 123.001C158.773 123.661 160.753 124.321 162.793 125.001C165.732 122.572 166.366 120.758 166.793 117.001C166.871 114.669 166.883 112.332 166.793 110.001C165.082 108.29 162.849 108.87 160.516 108.868C159.445 108.866 158.374 108.865 157.271 108.864C155.581 108.87 155.581 108.87 153.855 108.876C152.732 108.872 151.609 108.868 150.451 108.864C148.843 108.866 148.843 108.866 147.203 108.868C146.214 108.869 145.226 108.87 144.207 108.871C141.781 108.84 141.781 108.84 139.793 110.001Z" fill="#F2C34D"/>
<path d="M83.7929 144C86.9179 143.812 86.9179 143.812 89.7929 144C92.0351 148.934 93.686 153.742 94.9804 159C95.2462 160.009 95.2462 160.009 95.5175 161.039C96.6118 165.416 97.2299 169.459 96.7929 174C93.156 176.425 90.4305 176.298 86.2304 176.25C85.5452 176.258 84.8601 176.265 84.1542 176.273C79.0462 176.253 79.0462 176.253 76.7929 174C76.4159 167.441 78.1743 160.829 79.7304 154.5C79.9 153.806 80.0697 153.111 80.2445 152.396C81.0849 149.138 81.907 146.829 83.7929 144ZM83.7929 146C82.2973 150.272 81.1352 154.516 80.1679 158.938C79.9075 160.102 79.6471 161.266 79.3788 162.465C78.7832 166.058 78.62 169.365 78.7929 173C79.8961 174.328 79.8961 174.328 82.6639 174.133C84.4293 174.129 84.4293 174.129 86.2304 174.125C87.4047 174.128 88.579 174.13 89.7889 174.133C92.7169 174.208 92.7169 174.208 94.7929 173C94.8353 170.667 94.8338 168.333 94.7929 166C94.4629 165.67 94.1329 165.34 93.7929 165C93.2532 162.759 92.7611 160.507 92.2929 158.25C92.035 157.018 91.7772 155.785 91.5116 154.516C90.9316 151.678 90.3566 148.84 89.7929 146C87.8129 146 85.8329 146 83.7929 146Z" fill="#EDC156"/>
<path d="M102.793 143.999C105.586 146.213 108.233 148.52 110.793 150.999C107.513 150.999 106.556 150.489 103.793 148.874C103.004 148.425 102.215 147.977 101.402 147.514C99.5733 146.452 97.7509 145.378 95.9336 144.296C94.9797 143.744 94.0258 143.192 93.043 142.624C92.1612 142.1 91.2795 141.577 90.3711 141.038C87.2895 139.796 85.9204 139.999 82.793 140.999C75.851 144.165 69.3495 148.109 62.793 151.999C62.463 151.339 62.133 150.679 61.793 149.999C62.453 149.999 63.113 149.999 63.793 149.999C64.0121 149.415 64.2313 148.831 64.457 148.229C66.2197 145.286 68.2614 144.107 71.168 142.311C72.1245 141.709 73.0809 141.107 74.0664 140.487C84.0581 135.033 93.9057 137.829 102.793 143.999Z" fill="#F9D440"/>
<path d="M139.793 147C142.157 151.728 143.385 155.58 142.105 160.812C140.517 163.461 139.776 164.194 136.793 165C130.123 164.741 125.485 161.899 119.855 158.5C118.981 157.988 118.106 157.476 117.205 156.949C112.587 154.217 112.587 154.217 110.793 153C110.793 152.67 110.793 152.34 110.793 152C112.443 152 114.093 152 115.793 152C116.123 152.66 116.453 153.32 116.793 154C124.195 158.494 130.924 162.07 139.793 161C139.793 156.38 139.793 151.76 139.793 147Z" fill="#F5D34E"/>
<path d="M3.79275 58C4.99324 60.401 4.74458 61.3852 4.35525 64C4.05899 66.0401 3.79275 67.9375 3.79275 70C4.78275 70 5.77275 70 6.79275 70C6.79275 70.66 6.79275 71.32 6.79275 72C7.68994 72.4331 7.68993 72.4331 8.60525 72.875C10.7927 74 10.7927 74 13.7927 76C13.7927 76.66 13.7927 77.32 13.7927 78C16.1027 78.66 18.4127 79.32 20.7927 80C21.1227 81.65 21.4527 83.3 21.7927 85C18.1328 85 17.7011 84.3076 15.1052 81.875C11.6563 78.7204 8.08511 75.9456 4.2615 73.2617C3.53447 72.6372 3.53447 72.6372 2.79275 72C2.79275 71.34 2.79275 70.68 2.79275 70C2.13275 70 1.47275 70 0.792748 70C-0.137755 66.3626 -0.511837 64.623 1.16775 61.1875C2.79275 59 2.79275 59 3.79275 58Z" fill="#F7D94E"/>
<path d="M35.793 127C36.123 127 36.453 127 36.793 127C36.463 132.28 36.133 137.56 35.793 143C35.463 143 35.133 143 34.793 143C33.803 148.61 32.813 154.22 31.793 160C35.5367 161.872 36.633 162.24 40.543 162.125C41.7418 162.098 41.7418 162.098 42.9648 162.07C43.5681 162.047 44.1714 162.024 44.793 162C41.9468 164.846 39.753 164.799 35.793 165C32.8454 163.654 31.2502 162.914 29.793 160C29.9118 152.504 31.7036 145.149 33.3555 137.875C33.5894 136.823 33.8234 135.771 34.0645 134.688C34.6355 132.124 35.2117 129.561 35.793 127Z" fill="#F2D45D"/>
<path d="M131.793 108C132.123 108 132.453 108 132.793 108C133.796 112.749 134.793 117.5 135.784 122.252C136.121 123.867 136.461 125.482 136.802 127.096C137.294 129.421 137.778 131.748 138.262 134.074C138.415 134.792 138.568 135.51 138.726 136.25C139.475 139.888 139.971 143.283 139.793 147C137.297 144.504 136.844 142.35 135.793 139C135.466 138.268 135.138 137.536 134.801 136.781C133.553 133.339 133.085 129.928 132.668 126.312C132.583 125.609 132.498 124.906 132.411 124.182C131.795 118.776 131.558 113.441 131.793 108Z" fill="#F4D43C"/>
<path d="M82.7932 149C83.9461 152.973 83.5432 156.024 82.9182 160.125C82.7351 161.365 82.5521 162.605 82.3635 163.883C81.7932 167 81.7932 167 80.7932 169C81.9815 170.648 81.9815 170.648 83.7932 172C86.1092 171.929 86.1092 171.929 88.4807 171.188C89.6931 170.868 89.6931 170.868 90.9299 170.543C91.5448 170.364 92.1597 170.185 92.7932 170C92.4632 169.34 92.1332 168.68 91.7932 168C91.7232 166.293 91.7088 164.583 91.7307 162.875C91.7397 161.965 91.7487 161.055 91.758 160.117C91.7696 159.419 91.7812 158.72 91.7932 158C92.1232 158 92.4532 158 92.7932 158C92.9376 159.134 93.0819 160.269 93.2307 161.438C93.4049 164.808 93.4049 164.808 94.7932 166C94.8341 168.333 94.8356 170.667 94.7932 173C91.9269 174.433 89.4208 174.132 86.2307 174.125C84.4653 174.129 84.4653 174.129 82.6643 174.133C79.7932 174 79.7932 174 78.7932 173C78.4424 167.38 79.4158 162.493 80.7932 157.062C80.984 156.283 81.1747 155.504 81.3713 154.701C81.8381 152.799 82.3146 150.899 82.7932 149Z" fill="#F8BD17"/>
<path d="M33.793 96C37.1562 96.5605 39.7841 97.4184 42.793 99C43.2003 107.509 42.2239 114.839 39.793 123C39.133 123 38.473 123 37.793 123C37.463 124.32 37.133 125.64 36.793 127C37.2143 122.857 37.6479 118.78 38.4102 114.684C38.7234 112.984 38.7234 112.984 39.043 111.25C39.2544 110.183 39.4658 109.115 39.6836 108.016C39.8161 104.362 38.9253 102.909 36.793 100C36.2361 99.2369 35.6792 98.4738 35.1055 97.6875C34.6723 97.1306 34.2392 96.5738 33.793 96Z" fill="#F6D346"/>
<path d="M32.793 108C33.453 108.33 34.113 108.66 34.793 109C34.7734 112.234 34.7734 112.234 33.793 116C31.4912 117.982 28.8849 119.068 26.1055 120.25C25.3971 120.575 24.6888 120.9 23.959 121.234C22.5644 121.873 21.1644 122.5 19.7588 123.114C17.9664 123.922 16.2215 124.833 14.4844 125.754C11.1538 127.296 9.28526 126.915 5.79297 126C5.46297 124.35 5.13297 122.7 4.79297 121C5.12297 121.66 5.45297 122.32 5.79297 123C11.1267 124.133 11.1267 124.133 16.293 123.062C16.788 122.712 17.283 122.361 17.793 122C17.793 121.34 17.793 120.68 17.793 120C19.443 120 21.093 120 22.793 120C22.793 119.34 22.793 118.68 22.793 118C23.8861 117.649 24.9792 117.299 26.1055 116.938C29.2573 115.623 30.4161 114.464 31.7305 111.312C32.2564 109.673 32.2564 109.673 32.793 108Z" fill="#F7C43E"/>
<path d="M139.793 107C144.085 106.971 148.376 106.953 152.668 106.938C154.503 106.925 154.503 106.925 156.375 106.912C158.125 106.908 158.125 106.908 159.91 106.903C161.528 106.895 161.528 106.895 163.179 106.887C165.793 107 165.793 107 167.793 108C167.847 109.771 167.886 111.542 167.918 113.313C167.941 114.299 167.964 115.285 167.988 116.301C167.793 119 167.793 119 165.793 122C165.793 118.04 165.793 114.08 165.793 110C157.213 110 148.633 110 139.793 110C139.793 109.01 139.793 108.02 139.793 107Z" fill="#F3C032"/>
<path d="M90.793 1.00021C95.0799 4.59195 96.2932 9.78502 97.793 15.0002C97.133 15.0002 96.473 15.0002 95.793 15.0002C93.793 11.0002 91.793 7.00021 89.793 3.00021C85.7506 3.85532 83.3404 4.4384 80.418 7.43771C78.6706 9.96554 78.6706 9.96554 77.793 13.0002C77.133 13.0002 76.473 13.0002 75.793 13.0002C77.6798 4.25225 81.3928 -0.491869 90.793 1.00021Z" fill="#F1D462"/>
<path d="M104.793 37C107.769 39.5508 109.233 42.4343 110.793 46C110.793 46.99 110.793 47.98 110.793 49C109.143 48.67 107.493 48.34 105.793 48C106.783 50.31 107.773 52.62 108.793 55C106.813 55.99 106.813 55.99 104.793 57C104.133 52.71 103.473 48.42 102.793 44C103.453 43.67 104.113 43.34 104.793 43C104.793 41.02 104.793 39.04 104.793 37Z" fill="#FCD211"/>
<path d="M100.793 23C104.114 26.8299 105.823 31.3284 107.793 35.9375C111.289 44.591 111.289 44.591 116.793 52C119.364 52.6477 119.364 52.6477 121.793 53C121.793 53.33 121.793 53.66 121.793 54C118.493 53.67 115.193 53.34 111.793 53C111.566 52.0306 111.339 51.0613 111.105 50.0625C109.986 46.098 108.082 42.8174 106.027 39.2695C104.223 35.9526 103.04 32.5631 101.793 29C101.132 27.3309 100.469 25.6631 99.793 24C100.123 23.67 100.453 23.34 100.793 23Z" fill="#F2D25B"/>
<path d="M147.238 108.901C148.315 108.904 149.391 108.908 150.5 108.911C151.628 108.919 152.756 108.928 153.918 108.936C155.054 108.941 156.189 108.945 157.359 108.95C160.171 108.962 162.982 108.978 165.793 108.999C166.123 109.659 166.453 110.319 166.793 110.999C155.903 111.494 155.903 111.494 144.793 111.999C144.793 112.989 144.793 113.979 144.793 114.999C143.143 114.669 141.493 114.339 139.793 113.999C139.793 112.679 139.793 111.359 139.793 109.999C142.402 108.694 144.32 108.886 147.238 108.901Z" fill="#F4BC13"/>
<path d="M42.7929 102C43.1229 102 43.4529 102 43.7929 102C44.3132 110.362 42.7039 117.891 40.7929 126C40.4519 127.665 40.1154 129.331 39.7929 131C39.1329 131 38.4729 131 37.7929 131C37.8135 132.052 37.8342 133.104 37.8554 134.188C37.804 137.327 37.5277 139.969 36.7929 143C36.4629 143 36.1329 143 35.7929 143C35.5656 136.067 36.3729 129.783 37.7929 123C38.4529 123 39.1129 123 39.7929 123C39.9785 121.144 39.9785 121.144 40.1679 119.25C40.805 113.46 41.7932 107.736 42.7929 102Z" fill="#FBD31D"/>
<path d="M12.0898 106.707C13.2951 106.716 14.5004 106.726 15.7422 106.736C16.9964 106.761 18.2507 106.786 19.543 106.812C20.8127 106.826 22.0824 106.839 23.3906 106.853C26.5252 106.888 29.6589 106.938 32.793 107C32.793 107.33 32.793 107.66 32.793 108C31.6727 108.037 31.6727 108.037 30.5298 108.076C27.159 108.191 23.7885 108.314 20.418 108.437C19.2423 108.476 18.0667 108.516 16.8555 108.556C15.734 108.598 14.6125 108.64 13.457 108.683C11.9017 108.738 11.9017 108.738 10.3149 108.794C7.79872 108.841 7.79872 108.841 5.79297 110C5.79297 113.3 5.79297 116.6 5.79297 120C5.13297 120 4.47297 120 3.79297 120C3.13297 116.7 2.47297 113.4 1.79297 110C6.12804 106.748 6.95922 106.634 12.0898 106.707Z" fill="#ECBF4E"/>
<path d="M54.793 55C54.793 55.66 54.793 56.32 54.793 57C48.853 57 42.913 57 36.793 57C36.793 57.66 36.793 58.32 36.793 59C35.3556 59.0271 33.918 59.0465 32.4805 59.0625C31.2797 59.0799 31.2797 59.0799 30.0547 59.0977C27.793 59 27.793 59 24.793 58C24.793 57.34 24.793 56.68 24.793 56C29.0429 55.8321 33.2929 55.6659 37.543 55.5C38.7495 55.4523 39.9561 55.4046 41.1992 55.3555C42.9395 55.2878 42.9395 55.2878 44.7148 55.2188C46.3173 55.1559 46.3173 55.1559 47.9521 55.0918C50.2314 55.0181 52.5125 55 54.793 55Z" fill="#F9D31B"/>
<path d="M91.793 8C92.453 8 93.113 8 93.793 8C95.2536 10.6474 95.793 11.8945 95.793 15C96.783 15 97.773 15 98.793 15C99.783 17.64 100.773 20.28 101.793 23C100.803 23.33 99.813 23.66 98.793 24C98.133 23.67 97.473 23.34 96.793 23C96.168 20.9375 96.168 20.9375 95.793 19C95.133 19.66 94.473 20.32 93.793 21C93.133 19.35 92.473 17.7 91.793 16C92.453 15.34 93.113 14.68 93.793 14C93.133 12.02 92.473 10.04 91.793 8Z" fill="#F6D533"/>
<path d="M33.793 23C34.123 23.99 34.453 24.98 34.793 26C33.803 26.33 32.813 26.66 31.793 27C30.9908 28.8739 30.9908 28.8739 30.6055 31.0625C30.4469 31.796 30.2884 32.5295 30.125 33.2852C30.0154 33.8511 29.9059 34.417 29.793 35C31.773 35 33.753 35 35.793 35C36.123 36.32 36.453 37.64 36.793 39C35.143 38.67 33.493 38.34 31.793 38C31.793 37.34 31.793 36.68 31.793 36C30.143 36 28.493 36 26.793 36C25.918 33.9375 25.918 33.9375 25.793 31C27.8844 27.764 30.3166 24.7382 33.793 23Z" fill="#F6BF1C"/>
<path d="M27.793 117C26.143 117.33 24.493 117.66 22.793 118C22.793 118.66 22.793 119.32 22.793 120C21.143 120 19.493 120 17.793 120C17.793 120.66 17.793 121.32 17.793 122C16.1055 123.688 16.1055 123.688 13.793 125C10.904 124.718 8.5495 123.919 5.79297 123C5.79297 122.34 5.79297 121.68 5.79297 121C5.13297 120.67 4.47297 120.34 3.79297 120C4.45297 120 5.11297 120 5.79297 120C6.12297 119.01 6.45297 118.02 6.79297 117C6.79297 117.99 6.79297 118.98 6.79297 120C9.43297 120.66 12.073 121.32 14.793 122C15.123 121.34 15.453 120.68 15.793 120C16.793 119 16.793 119 19.3555 118.938C20.562 118.968 20.562 118.968 21.793 119C21.793 118.34 21.793 117.68 21.793 117C24.793 116 24.793 116 27.793 117Z" fill="#F7C118"/>
<path d="M112.793 53C114.584 52.9461 116.376 52.9072 118.168 52.875C119.166 52.8518 120.163 52.8286 121.191 52.8047C123.793 53 123.793 53 125.793 55C128.364 55.6477 128.364 55.6477 130.793 56C129.543 57.5625 129.543 57.5625 127.793 59C126.043 58.6875 126.043 58.6875 123.793 58C121.46 57.9611 119.126 57.9551 116.793 58C116.793 57.01 116.793 56.02 116.793 55C115.473 55 114.153 55 112.793 55C112.793 54.34 112.793 53.68 112.793 53Z" fill="#FCD212"/>
<path d="M90.7932 151C91.4532 151 92.1132 151 92.7932 151C93.4704 153.518 94.1351 156.039 94.7932 158.562C95.0794 159.619 95.0794 159.619 95.3713 160.697C96.5516 165.271 96.9918 169.278 96.7932 174C95.4732 173.67 94.1532 173.34 92.7932 173C93.4532 173 94.1132 173 94.7932 173C94.6086 168.658 94.6086 168.658 92.7932 165C91.4867 160.384 90.4824 155.817 90.7932 151Z" fill="#F4C041"/>
<path d="M89.793 140C98.7992 141.407 104.361 144.756 110.793 151C107.487 151 106.463 150.441 103.668 148.812C102.49 148.136 102.49 148.136 101.289 147.445C100.465 146.968 99.6416 146.491 98.793 146C97.1073 145.059 95.4199 144.122 93.7305 143.188C92.418 142.458 91.1055 141.729 89.793 141C89.793 140.67 89.793 140.34 89.793 140Z" fill="#F7D655"/>
<path d="M37.293 19.5C38.118 19.665 38.943 19.83 39.793 20C40.453 21.32 41.113 22.64 41.793 24C40.2152 23.5978 40.2152 23.5978 38.6055 23.1875C34.6939 22.5681 34.6939 22.5681 32.043 25.25C31.3005 26.1575 30.558 27.065 29.793 28C29.1948 28.495 28.5967 28.99 27.9805 29.5C26.2826 31.6447 26.5781 33.3499 26.793 36C25.803 35.01 24.813 34.02 23.793 33C25.9688 26.6613 30.3728 20.4886 37.293 19.5Z" fill="#EEC35D"/>
<path d="M27.793 36C29.113 36 30.433 36 31.793 36C32.123 36.66 32.453 37.32 32.793 38C34.4595 38.6999 36.1274 39.3966 37.8047 40.0703C41.1217 41.6213 43.8768 43.798 46.793 46C46.463 46.99 46.133 47.98 45.793 49C42.7893 47.0264 39.7907 45.0452 36.793 43.0625C35.9345 42.4985 35.0759 41.9346 34.1914 41.3535C33.3793 40.8153 32.5672 40.2771 31.7305 39.7227C30.9764 39.2252 30.2223 38.7277 29.4453 38.2151C28.9 37.8141 28.3548 37.4131 27.793 37C27.793 36.67 27.793 36.34 27.793 36Z" fill="#F8C34C"/>
<path d="M94.7928 18C95.7828 18.495 95.7828 18.495 96.7928 19C96.7928 20.32 96.7928 21.64 96.7928 23C97.7828 23.33 98.7728 23.66 99.7928 24C101.215 25.9258 101.215 25.9258 102.543 28.3125C102.991 29.0924 103.44 29.8723 103.902 30.6758C104.909 33.303 104.765 34.4093 103.793 37C103.463 35.02 103.133 33.04 102.793 31C102.133 31 101.473 31 100.793 31C100.793 30.01 100.793 29.02 100.793 28C100.133 28 99.4728 28 98.7928 28C98.4628 28.99 98.1328 29.98 97.7928 31C94.3642 22.5714 94.3642 22.5714 94.7928 18Z" fill="#F8D51E"/>
<path d="M94.793 23C97.1534 26.5406 98.4907 30.0981 99.9805 34.0625C100.266 34.7953 100.552 35.5282 100.846 36.2832C101.557 38.1666 102.181 40.082 102.793 42C102.463 42.66 102.133 43.32 101.793 44C101.69 43.3606 101.587 42.7213 101.48 42.0625C101.14 41.0416 101.14 41.0416 100.793 40C99.803 39.67 98.813 39.34 97.793 39C97.463 36.36 97.133 33.72 96.793 31C96.133 31 95.473 31 94.793 31C94.793 28.36 94.793 25.72 94.793 23Z" fill="#FDF24C"/>
<path d="M134.793 123C135.123 123 135.453 123 135.793 123C136.468 126.061 137.132 129.124 137.793 132.188C137.984 133.052 138.175 133.916 138.371 134.807C138.552 135.648 138.732 136.489 138.918 137.355C139.086 138.125 139.253 138.895 139.426 139.688C139.818 142.161 139.855 144.501 139.793 147C134.781 141.988 134.741 133.793 134.73 127.062C134.746 125.708 134.765 124.354 134.793 123Z" fill="#F2D259"/>
<path d="M158.793 57.0012C165.838 56.5236 165.838 56.5236 169.793 58.5012C171.913 61.1518 172.129 61.8275 172.23 65.0637C171.793 69.0012 171.793 69.0012 169.793 72.0012C169.133 72.0012 168.473 72.0012 167.793 72.0012C167.793 71.0112 167.793 70.0212 167.793 69.0012C168.453 69.0012 169.113 69.0012 169.793 69.0012C169.793 66.3612 169.793 63.7212 169.793 61.0012C166.259 58.8807 162.849 58.4692 158.793 58.0012C158.793 57.6712 158.793 57.3412 158.793 57.0012Z" fill="#F1D065"/>
<path d="M77.793 169C77.9554 169.645 78.1178 170.289 78.2852 170.953C79.7451 173.434 79.7451 173.434 83.4883 173.609C84.9641 173.676 86.4409 173.722 87.918 173.75C88.6721 173.78 89.4262 173.809 90.2031 173.84C92.0658 173.911 93.9294 173.958 95.793 174C93.793 176 93.793 176 90.3516 176.23C88.9778 176.226 87.604 176.212 86.2305 176.188C85.5325 176.187 84.8344 176.186 84.1152 176.186C78.9333 176.14 78.9333 176.14 77.793 175C77.7522 173 77.7504 171 77.793 169Z" fill="#EEBA4A"/>
<path d="M103.793 51C104.123 51 104.453 51 104.793 51C105.152 57.3451 105.152 57.3451 103.73 59.9375C100.638 61.6334 98.2378 61.4306 94.793 61C92.8555 59 92.8555 59 91.793 57C92.123 56.34 92.453 55.68 92.793 55C93.5148 55.5156 94.2367 56.0312 94.9805 56.5625C98.2125 58.2144 99.4091 58.0635 102.793 57C103.123 55.02 103.453 53.04 103.793 51Z" fill="#FEF34C"/>
<path d="M135.793 139C137.793 140 137.793 140 138.918 142.688C140.511 148.613 139.945 154.922 139.793 161C139.133 161 138.473 161 137.793 161C137.828 160.126 137.828 160.126 137.863 159.234C138.016 152.299 137.102 145.801 135.793 139Z" fill="#FAD321"/>
<path d="M88.7929 31C89.1229 31 89.4529 31 89.7929 31C89.9372 32.1344 90.0816 33.2687 90.2304 34.4375C90.4046 37.8078 90.4046 37.8078 91.7929 39C91.8661 41.6965 91.8853 44.3669 91.8554 47.0625C91.8508 47.8211 91.8463 48.5797 91.8417 49.3613C91.8299 51.2409 91.8119 53.1205 91.7929 55C91.4629 55 91.1329 55 90.7929 55C88.9794 46.9205 88.5563 39.2675 88.7929 31Z" fill="#FDF550"/>
<path d="M87.793 15C89.113 15 90.433 15 91.793 15C92.8607 16.9647 93.8585 18.9686 94.793 21C94.463 21.66 94.133 22.32 93.793 23C93.463 21.68 93.133 20.36 92.793 19C91.473 19 90.153 19 88.793 19C88.793 22.96 88.793 26.92 88.793 31C88.463 31 88.133 31 87.793 31C87.793 25.72 87.793 20.44 87.793 15Z" fill="#FEF24A"/>
<path d="M92.418 2.87555C95.3307 6.70805 96.5587 10.3947 97.793 15.0006C97.133 15.0006 96.473 15.0006 95.793 15.0006C93.793 11.0006 91.793 7.00055 89.793 3.00055C88.143 3.00055 86.493 3.00055 84.793 3.00055C84.793 2.67055 84.793 2.34055 84.793 2.00055C88.3002 0.697858 89.3069 0.653338 92.418 2.87555Z" fill="#F2D350"/>
<path d="M74.793 144C72.3861 146.727 69.8683 148.12 66.6055 149.687C65.7044 150.124 64.8034 150.561 63.875 151.012C62.8444 151.501 62.8444 151.501 61.793 152C61.793 151.34 61.793 150.68 61.793 150C62.453 150 63.113 150 63.793 150C64.0405 149.381 64.288 148.762 64.543 148.125C66.9959 143.955 70.2267 143.746 74.793 144Z" fill="#F6D351"/>
<path d="M167.793 62C168.453 62.33 169.113 62.66 169.793 63C169.793 64.98 169.793 66.96 169.793 69C169.133 69 168.473 69 167.793 69C168.123 70.32 168.453 71.64 168.793 73C166.813 73 164.833 73 162.793 73C162.793 72.01 162.793 71.02 162.793 70C164.113 70 165.433 70 166.793 70C167.123 67.36 167.453 64.72 167.793 62Z" fill="#F7D623"/>
<path d="M48.793 39C49.123 39.66 49.453 40.32 49.793 41C50.453 41 51.113 41 51.793 41C51.793 43.64 51.793 46.28 51.793 49C50.473 49.33 49.153 49.66 47.793 50C47.133 48.35 46.473 46.7 45.793 45C47.443 45 49.093 45 50.793 45C50.793 44.34 50.793 43.68 50.793 43C50.133 43 49.473 43 48.793 43C48.793 41.68 48.793 40.36 48.793 39Z" fill="#F4C120"/>
<path d="M57.793 155C56.3813 155.986 54.9634 156.964 53.543 157.937C52.3596 158.755 52.3596 158.755 51.1523 159.59C48.9666 160.896 47.2776 161.55 44.793 162C45.825 158.789 47.3805 157.4 50.168 155.687C53.8667 153.966 54.2515 153.791 57.793 155Z" fill="#F6D754"/>
<path d="M102.793 44C103.453 44 104.113 44 104.793 44C105.299 45.4355 105.797 46.8735 106.293 48.3125C106.571 49.113 106.85 49.9135 107.137 50.7383C107.793 53 107.793 53 107.793 56C106.803 56.33 105.813 56.66 104.793 57C104.133 52.71 103.473 48.42 102.793 44Z" fill="#F7DC1A"/>
<path d="M104.793 145C108.446 146.25 109.574 146.671 111.793 150C114.356 150.73 114.356 150.73 116.793 151C116.793 151.66 116.793 152.32 116.793 153C117.783 153.33 118.773 153.66 119.793 154C118.803 154.33 117.813 154.66 116.793 155C116.463 154.01 116.133 153.02 115.793 152C114.741 152.217 114.741 152.217 113.668 152.438C109.189 151.756 107.393 148.503 104.793 145Z" fill="#F8D623"/>
<path d="M21.793 86C27.5029 87.0876 29.5373 89.7751 32.6914 94.3203C33.2367 95.1518 33.2367 95.1518 33.793 96C30.5802 94.5601 28.1723 92.7698 25.543 90.4375C24.8366 89.8175 24.1302 89.1974 23.4023 88.5586C22.8712 88.0443 22.3402 87.5299 21.793 87C21.793 86.67 21.793 86.34 21.793 86Z" fill="#F5D558"/>
<path d="M32.793 108C33.453 108.33 34.113 108.66 34.793 109C34.543 112.375 34.543 112.375 33.793 116C31.918 117.5 31.918 117.5 29.793 118C28.803 117.67 27.813 117.34 26.793 117C27.9995 115.886 27.9995 115.886 29.2305 114.75C31.5629 112.247 32.4283 111.282 32.793 108Z" fill="#F4C556"/>
<path d="M112.793 53C114.584 52.9191 116.376 52.8609 118.168 52.8125C119.665 52.7603 119.665 52.7603 121.191 52.707C122.05 52.8037 122.908 52.9004 123.793 53C124.453 53.99 125.113 54.98 125.793 56C124.376 56.0272 122.96 56.0465 121.543 56.0625C120.36 56.0799 120.36 56.0799 119.152 56.0977C116.886 56.0039 114.964 55.6324 112.793 55C112.793 54.34 112.793 53.68 112.793 53Z" fill="#FBD829"/>
<path d="M89.793 5C93.2351 7.65986 93.788 10.9029 94.793 15C93.803 15.33 92.813 15.66 91.793 16C90.803 15.34 89.813 14.68 88.793 14C89.783 14 90.773 14 91.793 14C91.463 13.2575 91.133 12.515 90.793 11.75C89.793 9 89.793 9 89.793 5Z" fill="#FAD413"/>
<path d="M130.793 100C131.453 100.33 132.113 100.66 132.793 101C132.463 105.62 132.133 110.24 131.793 115C129.412 110.237 129.545 108.212 129.793 103C130.123 102.01 130.453 101.02 130.793 100Z" fill="#FBD52A"/>
<path d="M99.793 40C103.042 44.0965 103.923 46.9839 103.855 52.1875C103.846 53.0886 103.837 53.9896 103.828 54.918C103.817 55.605 103.805 56.2921 103.793 57C103.133 57.33 102.473 57.66 101.793 58C101.816 57.3129 101.839 56.6259 101.863 55.918C101.881 55.0169 101.899 54.1159 101.918 53.1875C101.941 52.2942 101.964 51.4009 101.988 50.4805C101.976 47.746 101.976 47.746 99.793 45C99.668 42.3125 99.668 42.3125 99.793 40Z" fill="#FFFC63"/>
<path d="M20.793 81C21.453 81 22.113 81 22.793 81C22.793 81.66 22.793 82.32 22.793 83C23.453 83 24.113 83 24.793 83C24.793 83.66 24.793 84.32 24.793 85C25.783 85 26.773 85 27.793 85C27.793 85.99 27.793 86.98 27.793 88C25.483 87.67 23.173 87.34 20.793 87C20.793 85.02 20.793 83.04 20.793 81Z" fill="#FBD51C"/>
<path d="M62.793 147C63.453 147.33 64.113 147.66 64.793 148C64.463 148.66 64.133 149.32 63.793 150C63.133 150 62.473 150 61.793 150C61.133 151.32 60.473 152.64 59.793 154C57.813 154 55.833 154 53.793 154C54.783 153.34 55.773 152.68 56.793 152C58.8243 150.369 60.8023 148.681 62.793 147Z" fill="#F9D635"/>
<path d="M122.793 35C123.783 35 124.773 35 125.793 35C126.123 36.98 126.453 38.96 126.793 41C125.143 41.33 123.493 41.66 121.793 42C122.123 39.69 122.453 37.38 122.793 35Z" fill="#F9C521"/>
<path d="M8.79297 72C14.48 73.4836 14.48 73.4836 16.043 76.0625C16.2905 76.7019 16.538 77.3412 16.793 78C17.453 78.33 18.113 78.66 18.793 79C17.143 78.67 15.493 78.34 13.793 78C13.793 77.34 13.793 76.68 13.793 76C13.1536 75.7113 12.5142 75.4225 11.8555 75.125C9.79297 74 9.79297 74 8.79297 72Z" fill="#F9D316"/>
<path d="M110.793 49C111.845 49.4331 111.845 49.4331 112.918 49.875C115.847 51.0213 118.802 52.0263 121.793 53C121.793 53.33 121.793 53.66 121.793 54C118.493 53.67 115.193 53.34 111.793 53C111.463 51.68 111.133 50.36 110.793 49Z" fill="#F5CD45"/>
<path d="M110.793 152C112.443 152 114.093 152 115.793 152C116.123 152.66 116.453 153.32 116.793 154C117.783 154.33 118.773 154.66 119.793 155C120.123 155.99 120.453 156.98 120.793 158C116.798 156.63 113.993 154.743 110.793 152Z" fill="#F6CE60"/>
<path d="M164.793 122C165.123 122 165.453 122 165.793 122C165.793 123.65 165.793 125.3 165.793 127C163.813 127 161.833 127 159.793 127C159.463 126.01 159.133 125.02 158.793 124C160.773 124 162.753 124 164.793 124C164.793 123.34 164.793 122.68 164.793 122Z" fill="#F6C631"/>
<path d="M22.793 118C24.443 118 26.093 118 27.793 118C24.6675 120.645 21.7051 121.844 17.793 123C17.793 122.01 17.793 121.02 17.793 120C19.443 120 21.093 120 22.793 120C22.793 119.34 22.793 118.68 22.793 118Z" fill="#F5BC47"/>
<path d="M106.793 40C109.316 41.9742 109.786 42.9675 110.481 46.1875C110.584 47.1156 110.687 48.0437 110.793 49C110.133 49 109.473 49 108.793 49C106.935 45.865 106.592 43.6253 106.793 40Z" fill="#FBD32E"/>
<path d="M38.793 43C42.1676 43.5472 43.8753 44.0549 46.793 46C46.463 46.99 46.133 47.98 45.793 49C44.6235 48.1915 43.4575 47.3781 42.293 46.5625C41.6433 46.11 40.9936 45.6576 40.3242 45.1914C39.8189 44.7982 39.3136 44.4051 38.793 44C38.793 43.67 38.793 43.34 38.793 43Z" fill="#F0BD54"/>
<path d="M59.793 148C60.453 148.33 61.113 148.66 61.793 149C58.5049 151.912 56.1941 153.497 51.793 154C51.793 153.34 51.793 152.68 51.793 152C52.5561 151.711 53.3192 151.423 54.1055 151.125C56.9433 150.037 56.9433 150.037 59.793 148Z" fill="#FAD211"/>
<path d="M132.793 20C137.625 20.0986 140.104 20.838 143.668 24.1875C145.847 26.5885 146.828 28.0946 147.98 31.1875C147.734 34.8879 146.517 35.5752 143.793 38C140.726 40.2577 137.506 42.2698 134.293 44.3125C133.438 44.8752 132.584 45.4379 131.703 46.0176C130.877 46.5442 130.05 47.0707 129.199 47.6133C128.449 48.0958 127.7 48.5783 126.928 49.0754C124.793 50 124.793 50 122.642 49.7742C120.793 49 120.793 49 118.793 47C117.87 41.1873 120.304 38.0033 123.543 33.5C123.986 32.8619 124.43 32.2238 124.887 31.5664C125.761 30.3089 126.64 29.0548 127.525 27.8047C129.33 25.2348 131.062 22.6203 132.793 20Z" fill="#FBBD06"/>
<path d="M132.793 20C139.929 21.0195 141.033 21.285 145.398 26.0938C147.375 28.7954 148.016 30.6528 147.793 34C143.96 38.3824 139.163 41.2162 134.293 44.3125C133.438 44.8752 132.584 45.4379 131.703 46.0176C130.877 46.5442 130.051 47.0707 129.199 47.6133C128.45 48.0958 127.7 48.5783 126.928 49.0754C124.793 50 124.793 50 122.643 49.7742C120.793 49 120.793 49 118.793 47C118.355 44.1875 118.355 44.1875 118.793 41C121.293 38.125 121.293 38.125 123.793 36C123.721 36.6265 123.649 37.253 123.574 37.8984C123.481 38.7157 123.389 39.533 123.293 40.375C123.154 41.5932 123.154 41.5932 123.012 42.8359C122.759 44.9691 122.759 44.9691 122.793 47C123.453 47 124.113 47 124.793 47C125.247 46.5462 125.7 46.0925 126.168 45.625C127.949 43.8442 129.467 42.9449 131.793 42C132.783 42 133.773 42 134.793 42C135.123 41.01 135.453 40.02 135.793 39C137.605 38.0078 137.605 38.0078 139.793 37.125C143.109 35.6075 143.109 35.6075 145.043 32.5625C144.696 29.0079 143.251 27.5264 140.793 25C138.055 22.8051 138.055 22.8051 135.355 22.875C131.832 24.422 131.225 26.5401 129.785 29.9922C128.732 32.1241 127.551 33.4204 125.793 35C125.133 34.67 124.473 34.34 123.793 34C126.763 29.38 129.733 24.76 132.793 20Z" fill="#EFC542"/>
<path d="M136.605 22.1873C139.532 23.2745 141.503 24.9007 143.793 26.9998C143.793 27.6598 143.793 28.3198 143.793 28.9998C142.803 29.3298 141.813 29.6598 140.793 29.9998C140.463 28.3498 140.133 26.6998 139.793 24.9998C137.483 24.9998 135.173 24.9998 132.793 24.9998C132.638 26.2992 132.638 26.2992 132.48 27.6248C131.561 32.1406 130.072 35.721 126.793 38.9998C126.793 39.6598 126.793 40.3198 126.793 40.9998C125.143 41.3298 123.493 41.6598 121.793 41.9998C122.123 39.6898 122.453 37.3798 122.793 34.9998C123.783 34.9998 124.773 34.9998 125.793 34.9998C126.123 34.0098 126.453 33.0198 126.793 31.9998C127.453 31.9998 128.113 31.9998 128.793 31.9998C129.082 31.2573 129.37 30.5148 129.668 29.7498C132.918 21.8058 132.918 21.8058 136.605 22.1873Z" fill="#F7BE1C"/>
<path d="M132.793 20C139.941 21.0211 141.019 21.2939 145.406 26.0859C147.308 28.7112 147.868 30.7708 147.793 34C147.133 34.66 146.473 35.32 145.793 36C145.566 34.9481 145.339 33.8962 145.105 32.8125C143.962 28.8149 142.048 26.6348 138.793 24C136.716 23.0396 136.716 23.0396 134.793 23C131.799 24.4968 131.241 27.0286 129.891 29.9922C128.76 32.0602 127.531 33.4252 125.793 35C125.133 34.67 124.473 34.34 123.793 34C126.763 29.38 129.733 24.76 132.793 20Z" fill="#EFC85B"/>
<path d="M134.793 39.9994C134.793 40.6594 134.793 41.3194 134.793 41.9994C134.155 42.1811 133.517 42.3629 132.859 42.5502C132.033 42.8015 131.207 43.0529 130.355 43.3119C129.532 43.5555 128.708 43.7992 127.859 44.0502C127.177 44.3634 126.496 44.6767 125.793 44.9994C125.463 45.9894 125.133 46.9794 124.793 47.9994C123.803 47.6694 122.813 47.3394 121.793 46.9994C122.123 46.0094 122.453 45.0194 122.793 43.9994C123.453 43.9994 124.113 43.9994 124.793 43.9994C124.793 43.3394 124.793 42.6794 124.793 41.9994C128.195 39.9059 130.846 39.82 134.793 39.9994Z" fill="#F7BC13"/>
<path d="M126.793 32C127.783 32.33 128.773 32.66 129.793 33C129.48 34.9375 129.48 34.9375 128.793 37C127.803 37.33 126.813 37.66 125.793 38C125.75 36.3339 125.752 34.6662 125.793 33C126.123 32.67 126.453 32.34 126.793 32Z" fill="#F3C00E"/>
<path d="M70.793 23C71.123 23 71.453 23 71.793 23C71.463 25.64 71.133 28.28 70.793 31C69.803 31 68.813 31 67.793 31C69.668 25.25 69.668 25.25 70.793 23Z" fill="#F7DF72"/>
</svg>
