<svg width="20" height="18" viewBox="0 0 20 18" fill="none" xmlns="http://www.w3.org/2000/svg">
<path d="M19.3505 4.62682L16.517 0.849045C16.4729 0.790428 16.4158 0.742855 16.3502 0.710076C16.2846 0.677297 16.2123 0.660208 16.1389 0.660156H3.8614C3.78808 0.660161 3.71576 0.677234 3.65018 0.710026C3.58459 0.742817 3.52754 0.790426 3.48355 0.849082L0.650324 4.62682C0.589528 4.70769 0.556345 4.80597 0.555674 4.90714C0.555004 5.00832 0.58688 5.10702 0.646598 5.18869L9.61882 17.4664C9.77255 17.6769 10.068 17.723 10.2785 17.5693C10.3179 17.5404 10.3526 17.5057 10.3814 17.4663L19.3531 5.18869C19.4129 5.10715 19.445 5.0085 19.4445 4.90733C19.4441 4.80616 19.4111 4.70782 19.3505 4.62682ZM1.97251 5.38223H5.41376L8.52393 14.3671L1.95539 5.37876C1.96144 5.37906 1.96646 5.38223 1.97251 5.38223ZM12.0694 1.60453L13.4864 4.43786H6.51437L7.93096 1.60453H12.0694ZM13.5871 5.38223L10.0001 15.7437L6.41361 5.38223H13.5871ZM14.5864 5.38223H18.0423L11.4764 14.3671L14.5864 5.38223ZM18.0278 4.43786H14.542L13.1254 1.60453H15.9029L18.0278 4.43786ZM4.09747 1.60453H6.87492L5.45832 4.43786H1.97255L4.09747 1.60453Z" fill="#101828"/>
</svg>
