<svg width="85" height="85" viewBox="0 0 85 85" fill="none" xmlns="http://www.w3.org/2000/svg">
<g clip-path="url(#clip0_4883_7365)">
<path d="M69.0628 32.7198C68.9887 32.6354 68.9123 32.5529 68.8338 32.4725C75.7113 28.9903 65.6206 20.9898 65.6206 20.9898C67.9327 18.6775 66.3691 15.7974 62.9467 13.2093L64.8195 14.1063C66.4261 12.4306 69.6395 8.22126 66.248 4.12826C62.0641 -0.927943 52.9476 -0.0192819 49.4727 6.75616L51.8579 7.89844C48.7579 6.97466 45.5826 6.41708 42.7784 6.41708C39.9752 6.41708 36.8 6.97466 33.7002 7.89844L36.0849 6.75616C32.61 -0.0192819 23.4972 -0.927943 19.3098 4.1281C15.9183 8.22109 19.1317 12.4304 20.7418 14.1061L22.608 13.2121C19.1884 15.7992 17.627 18.6782 19.9398 20.9897C19.9398 20.9897 9.84546 28.9903 16.7229 32.4724C16.7229 32.4724 10.1254 39.059 15.4615 47.0413C23.0768 58.4261 42.7782 51.8286 42.7782 51.8286C42.7782 51.8286 62.4834 58.4261 70.0949 47.0413C74.8278 39.9643 70.1787 33.9846 69.0628 32.7198Z" fill="#FFD5AE"/>
<path d="M29.6334 9.33529C26.4457 10.651 23.5776 12.2941 21.6038 14.0279C20.2989 11.9742 18.5432 8.20123 21.4693 6.08918C24.5736 3.84636 28.0596 7.38325 29.6334 9.33529ZM63.9547 14.0279C61.9808 12.2941 59.1165 10.651 55.9251 9.33529C57.5028 7.38325 60.9886 3.84652 64.0893 6.08918C67.0154 8.20106 65.2596 11.9742 63.9547 14.0279ZM42.7797 27.4715C47.9267 27.4715 49.7712 35.3231 53.9659 36.6426C60.3743 38.6528 64.6672 36.6426 68.8365 32.4732C68.8365 32.4732 75.434 39.0597 70.0978 47.0422C62.4826 58.4268 42.7797 51.8294 42.7797 51.8294C42.7797 51.8294 23.0768 58.427 15.4615 47.0422C10.1254 39.0599 16.7229 32.4732 16.7229 32.4732C20.8922 36.6426 25.1851 38.6526 31.5935 36.6426C35.7882 35.3231 37.6325 27.4715 42.7797 27.4715Z" fill="#FFF1E6"/>
<path d="M30.3342 41.7256C31.7833 38.227 30.1219 34.216 26.6233 32.7668C23.1247 31.3176 19.1137 32.979 17.6645 36.4777C16.2153 39.9763 17.8767 43.9873 21.3754 45.4365C24.874 46.8857 28.885 45.2242 30.3342 41.7256Z" fill="#FF9EB6"/>
<path d="M66.4083 43.9517C69.086 41.2739 69.0859 36.9325 66.4081 34.2548C63.7303 31.5771 59.3889 31.5772 56.7112 34.255C54.0335 36.9327 54.0336 41.2742 56.7113 43.9519C59.3891 46.6296 63.7306 46.6295 66.4083 43.9517Z" fill="#FF9EB6"/>
<path d="M70.2138 32.6942C71.3521 31.8747 71.9909 30.8343 72.1167 29.59C72.465 26.1467 68.588 22.3545 66.8929 20.8738C67.7295 19.6547 67.8537 18.2599 67.245 16.7904C66.9302 16.0306 66.4099 15.2546 65.7081 14.48C66.6061 13.4994 67.6999 12.0443 68.2696 10.3041C69.0613 7.88563 68.604 5.54999 66.9468 3.54933C64.8147 0.975802 61.3889 -0.325007 57.7822 0.0696053C53.9282 0.491325 50.5661 2.77292 48.7512 6.18479C46.64 5.74812 44.6035 5.51106 42.7783 5.51106C40.954 5.51106 38.9185 5.74796 36.8082 6.1843C34.9929 2.77275 31.6309 0.491161 27.7771 0.0696053C24.1703 -0.325172 20.7446 0.975966 18.6125 3.54949C16.9554 5.55016 16.498 7.8858 17.2897 10.3042C17.8594 12.0442 18.9529 13.4991 19.8509 14.4797C19.1487 15.2545 18.6283 16.0306 18.3137 16.7905C17.7053 18.2601 17.8298 19.6549 18.6669 20.8738C16.9708 22.3549 13.0924 26.1474 13.4403 29.5905C13.566 30.8341 14.2044 31.8744 15.3417 32.6935C14.7288 33.4817 13.8628 34.7771 13.2423 36.4474C12.2726 39.0579 11.7396 43.1023 14.7089 47.5439C17.8213 52.1971 23.3242 54.6344 30.6759 54.6341C31.1138 54.6341 31.5596 54.6254 32.0103 54.608C37.2112 54.4077 41.6239 53.1371 42.7782 52.7782C43.9326 53.1371 48.346 54.4077 53.5474 54.608C53.9988 54.6254 54.4436 54.6341 54.8819 54.6341C62.2335 54.6341 67.7367 52.1964 70.8476 47.5439C75.4254 40.6983 71.8164 34.7676 70.2138 32.6942ZM57.979 1.86951C60.9785 1.54193 63.8098 2.60124 65.5524 4.70458C66.7434 6.14257 68.1426 9.13896 64.4047 13.221C62.6844 11.7432 60.3329 10.3054 57.5034 9.03152C55.2679 8.02511 52.9062 7.20648 50.5873 6.61111C52.1659 3.96448 54.8852 2.20794 57.979 1.86951ZM20.0069 4.70458C21.7497 2.60124 24.5805 1.54111 27.5803 1.86951C30.674 2.20794 33.3932 3.96431 34.9718 6.61062C32.6528 7.20599 30.2907 8.02478 28.0549 9.03136C25.2256 10.3052 22.8744 11.7429 21.1542 13.2205C17.4167 9.13864 18.8159 6.1424 20.0069 4.70458ZM69.3423 46.5375C66.3781 50.971 61.0997 53.0801 53.657 52.8005C47.9706 52.5881 43.1136 50.9855 43.0655 50.9694C42.879 50.9071 42.6773 50.9071 42.4908 50.9696C42.3001 51.0331 23.3621 57.2234 16.2141 46.5376C11.3679 39.2879 17.1167 33.36 17.3625 33.1126C17.4638 33.0115 17.5397 32.8878 17.584 32.7516C17.6282 32.6155 17.6396 32.4708 17.617 32.3294C17.5945 32.1881 17.5388 32.0541 17.4545 31.9384C17.3701 31.8227 17.2595 31.7287 17.1318 31.6641C15.9537 31.0676 15.3355 30.3301 15.2419 29.4096C14.9695 26.7263 18.9468 22.9333 20.5021 21.6986C20.6022 21.6192 20.6844 21.5197 20.7432 21.4063C20.8021 21.293 20.8363 21.1685 20.8437 21.041C20.851 20.9135 20.8312 20.7859 20.7857 20.6666C20.7402 20.5472 20.67 20.4389 20.5796 20.3486C19.7211 19.4906 19.5325 18.5801 19.9867 17.4835C20.8895 15.3028 24.1837 12.7606 28.7983 10.6828C33.4721 8.57842 38.6983 7.32197 42.7783 7.32197C46.8593 7.32197 52.0862 8.57842 56.76 10.6828C61.3746 12.7605 64.6688 15.3028 65.5722 17.4837C66.0265 18.5803 65.8384 19.4907 64.9803 20.349C64.89 20.4392 64.8198 20.5475 64.7744 20.6667C64.7289 20.786 64.7091 20.9135 64.7164 21.0409C64.7237 21.1683 64.7579 21.2928 64.8167 21.406C64.8755 21.5193 64.9575 21.6189 65.0575 21.6982C66.6123 22.9332 70.5877 26.7258 70.315 29.4089C70.2215 30.3298 69.603 31.0674 68.4246 31.6641C68.2972 31.7288 68.187 31.8228 68.1029 31.9382C68.0187 32.0536 67.9631 32.1873 67.9404 32.3283C67.9178 32.4693 67.9287 32.6137 67.9725 32.7497C68.0162 32.8857 68.0915 33.0094 68.1921 33.1108C68.2013 33.1202 68.2706 33.191 68.3836 33.318C68.9217 33.9278 70.2438 35.5994 70.9 37.9442C71.7203 40.8742 71.196 43.7655 69.3423 46.5375Z" fill="#E2AB8C"/>
<path d="M48.3757 42.5702C47.0828 44.0461 45.2169 45.1685 42.7744 45.2255C40.332 45.1685 38.4661 44.0538 37.1731 42.5702C34.8953 39.9679 34.4076 36.2435 35.7491 35.2659C36.6243 34.3377 37.5543 34.5279 38.6427 34.9577C39.7618 35.3989 41.0455 35.4443 42.6126 35.4518H42.9328C44.497 35.4443 45.7838 35.3989 46.9028 34.9577C47.9913 34.5279 48.9213 34.3377 49.7994 35.2659C51.1352 36.2435 50.6475 39.9603 48.3757 42.5702Z" fill="#605C5D"/>
<path d="M48.374 42.569C47.0812 44.0431 45.2162 45.165 42.7737 45.2225C40.3312 45.165 38.4661 44.0503 37.1733 42.569C38.4661 41.0804 40.3311 39.9657 42.7737 39.9082C45.2162 39.9659 47.0812 41.0876 48.374 42.569Z" fill="#FD80A6"/>
<path d="M42.7742 46.1292L42.7532 46.1289C39.6499 46.0567 37.6344 44.4763 36.4905 43.1634C33.8989 40.2024 33.2891 36.4589 35.0993 34.6335C36.515 33.143 38.1759 33.7985 38.9751 34.1142L38.3099 35.7983C37.168 35.3475 36.8138 35.4546 36.4077 35.8855C36.4016 35.8919 36.3953 35.8982 36.389 35.9044C35.1805 37.1131 36.1912 40.0723 37.8542 41.9723C38.7576 43.0091 40.3427 44.2545 42.7742 44.3181C45.1971 44.2549 46.7869 43.0081 47.6944 41.972C49.653 39.7219 50.0075 37.0089 49.1165 35.8602C48.7181 35.4503 48.3542 35.3564 47.2351 35.7981L46.5702 34.114C47.3704 33.7976 49.0358 33.1402 50.4569 34.6419C50.473 34.659 50.4882 34.6764 50.503 34.6946C52.1041 36.6728 51.4695 40.3925 49.0581 43.1629C47.9067 44.4773 45.8874 46.0567 42.7951 46.1287C42.7881 46.129 42.7812 46.1292 42.7742 46.1292Z" fill="#FFD5AE"/>
<path d="M47.9323 34.617C47.8961 34.5037 47.838 34.3987 47.7613 34.3079C47.6845 34.2171 47.5906 34.1423 47.485 34.0878C47.3793 34.0333 47.2639 34.0001 47.1455 33.9902C47.027 33.9803 46.9077 33.9938 46.7945 34.03C46.4578 34.1376 45.7652 34.2796 45.1542 34.4049C44.9479 34.4471 44.7447 34.4889 44.5551 34.529C44.2592 34.592 44.0455 34.4646 43.9449 34.3829C43.845 34.3021 43.6776 34.1215 43.6776 33.822V31.1754C43.6731 30.9383 43.5757 30.7124 43.4064 30.5463C43.2371 30.3802 43.0094 30.2871 42.7723 30.2871C42.5351 30.2871 42.3074 30.3802 42.1381 30.5463C41.9688 30.7124 41.8714 30.9383 41.8669 31.1754V33.822C41.8669 34.1215 41.6993 34.3021 41.5996 34.3829C41.5155 34.4518 41.4169 34.5007 41.3112 34.5261C41.2055 34.5514 41.0954 34.5524 40.9893 34.5291L40.7197 34.4721C40.0133 34.3231 39.0456 34.1187 38.6421 33.9899C38.4142 33.9197 38.1678 33.9423 37.9564 34.0527C37.745 34.1632 37.5857 34.3525 37.5131 34.5797C37.4406 34.8069 37.4606 35.0536 37.5688 35.2661C37.6771 35.4786 37.8648 35.6399 38.0913 35.7148C38.5818 35.8715 39.5189 36.0693 40.3456 36.2436L40.6136 36.3003C40.7903 36.3377 40.9684 36.3561 41.1449 36.3561C41.7208 36.3561 42.282 36.1601 42.7394 35.7895C42.7509 35.7801 42.7608 35.7695 42.7721 35.7599C42.7834 35.7695 42.7933 35.7803 42.805 35.7897C43.2555 36.156 43.8185 36.3561 44.3992 36.3561C44.5756 36.3561 44.7537 36.3379 44.9305 36.3003C45.1163 36.2607 45.3156 36.2199 45.5178 36.1784C46.2053 36.0374 46.9164 35.8915 47.345 35.7547C47.4582 35.7186 47.5633 35.6605 47.6541 35.5837C47.7449 35.507 47.8198 35.4132 47.8743 35.3075C47.9288 35.2019 47.962 35.0865 47.972 34.968C47.9819 34.8495 47.9684 34.7303 47.9323 34.617Z" fill="#E2AB8C"/>
<path d="M44.5375 29.6603C44.4302 29.5517 44.3027 29.4652 44.162 29.4059C44.0214 29.3466 43.8704 29.3156 43.7177 29.3146C43.5651 29.3136 43.4138 29.3427 43.2724 29.4002C43.131 29.4577 43.0023 29.5426 42.8937 29.6498L42.7833 29.7589L42.6742 29.6485C42.5669 29.5399 42.4393 29.4534 42.2987 29.3941C42.158 29.3348 42.0071 29.3037 41.8544 29.3028C41.7018 29.3018 41.5504 29.3309 41.409 29.3884C41.2676 29.4459 41.139 29.5307 41.0303 29.638C40.9217 29.7452 40.8352 29.8728 40.7759 30.0135C40.7166 30.1541 40.6856 30.3051 40.6846 30.4577C40.6836 30.6104 40.7127 30.7617 40.7702 30.9031C40.8278 31.0445 40.9126 31.1732 41.0198 31.2818L41.4072 31.6741C42.1555 32.4321 43.3768 32.44 44.1348 31.6915L44.5271 31.3043C44.7465 31.0877 44.8708 30.7928 44.8727 30.4845C44.8747 30.1762 44.7541 29.8797 44.5375 29.6603Z" fill="#FD80A6"/>
<path d="M34.5727 31.6009C34.3411 31.6009 34.1094 31.5125 33.9326 31.3357C32.6274 30.0305 30.5035 30.0305 29.1983 31.3357C29.0275 31.5007 28.7987 31.592 28.5612 31.59C28.3238 31.5879 28.0966 31.4926 27.9287 31.3247C27.7608 31.1567 27.6656 30.9296 27.6636 30.6921C27.6616 30.4546 27.753 30.2259 27.918 30.0551C29.929 28.0441 33.2017 28.0441 35.2128 30.0551C35.3395 30.1817 35.4259 30.343 35.4609 30.5187C35.4959 30.6944 35.478 30.8765 35.4095 31.042C35.341 31.2075 35.2249 31.3489 35.0759 31.4484C34.927 31.5479 34.7518 31.601 34.5727 31.6009ZM56.9996 31.6009C56.7679 31.6009 56.5363 31.5125 56.3595 31.3357C55.0546 30.0308 52.9307 30.0305 51.6252 31.3357C51.4553 31.5055 51.225 31.6008 50.9849 31.6008C50.7448 31.6007 50.5146 31.5053 50.3448 31.3355C50.1751 31.1657 50.0797 30.9354 50.0798 30.6953C50.0798 30.4551 50.1752 30.2249 50.3451 30.0551C52.3564 28.0441 55.6288 28.0445 57.6398 30.0551C57.7666 30.1817 57.8529 30.3431 57.8879 30.5187C57.923 30.6944 57.9051 30.8766 57.8365 31.0421C57.768 31.2076 57.6518 31.349 57.5029 31.4485C57.3539 31.548 57.1787 31.601 56.9996 31.6009Z" fill="#605C5D"/>
<path d="M55.5169 77.9313C62.551 70.8969 62.5508 59.4921 55.5164 52.458C48.4821 45.4238 37.0772 45.424 30.0431 52.4584C23.0089 59.4928 23.0091 70.8976 30.0435 77.9318C37.0779 84.9659 48.4827 84.9657 55.5169 77.9313Z" fill="white"/>
<path d="M42.7809 84.1146C32.3496 84.1146 23.8633 75.6283 23.8633 65.1971C23.8633 54.7658 32.3498 46.2793 42.7809 46.2793C53.2122 46.2793 61.6985 54.7658 61.6985 65.1971C61.6985 75.6283 53.2122 84.1146 42.7809 84.1146ZM42.7809 48.09C33.348 48.09 25.6739 55.7641 25.6739 65.1971C25.6739 74.63 33.348 82.3041 42.7809 82.3041C52.2138 82.3041 59.8879 74.63 59.8879 65.1971C59.8879 55.7641 52.2136 48.09 42.7809 48.09Z" fill="#E3E3E3"/>
<path d="M42.7807 57.383V73.1596C42.7807 74.3958 41.3152 75.0522 40.3925 74.2271L36.3726 70.6263L31.1456 70.1545C30.2282 70.0728 29.5244 69.303 29.5244 68.383V62.1594C29.5244 61.2394 30.2284 60.4697 31.1456 60.3881L36.3726 59.9162L40.3925 56.3181C41.3152 55.4904 42.7807 56.1467 42.7807 57.383Z" fill="#91A2B5"/>
<path d="M42.3013 55.2512C41.448 54.8694 40.4853 55.0199 39.7887 55.6435L35.9911 59.0432L31.0627 59.4874C29.6694 59.6128 28.6187 60.7625 28.6187 62.1615V68.3835C28.6187 69.7825 29.6693 70.9322 31.0626 71.0575L35.9911 71.5018L39.7887 74.9015C40.2303 75.2968 40.7787 75.5019 41.3386 75.5019C41.6705 75.5012 41.9985 75.4304 42.3011 75.294C43.1544 74.9127 43.6846 74.0952 43.6846 73.1606V57.3847C43.6847 56.45 43.1544 55.6325 42.3013 55.2512ZM30.4294 68.3835V62.1615C30.4284 61.9429 30.5097 61.732 30.6571 61.5706C30.8046 61.4093 31.0074 61.3094 31.2252 61.2908L35.4661 60.9085V69.6365L31.225 69.2542C31.0073 69.2356 30.8045 69.1356 30.6571 68.9743C30.5096 68.813 30.4284 68.602 30.4294 68.3835ZM41.874 73.1604C41.874 73.4684 41.6562 73.5989 41.5625 73.6409C41.4687 73.6825 41.2262 73.7577 40.9967 73.5525L37.2768 70.2225V60.3227L40.9967 56.9926C41.2261 56.7872 41.4687 56.8623 41.5625 56.9042C41.6562 56.9461 41.874 57.0767 41.874 57.3847V73.1604Z" fill="#678490"/>
<path d="M46.8462 69.048C46.7273 69.0482 46.6095 69.0249 46.4997 68.9793C46.3898 68.9338 46.2901 68.867 46.2062 68.7827C46.1221 68.6987 46.0554 68.5989 46.0099 68.489C45.9643 68.3792 45.9409 68.2615 45.9409 68.1426C45.9409 68.0237 45.9643 67.906 46.0099 67.7961C46.0554 67.6863 46.1221 67.5865 46.2062 67.5025C47.4358 66.2726 47.4358 64.2716 46.2062 63.0416C46.1221 62.9576 46.0554 62.8578 46.0099 62.7479C45.9643 62.6381 45.9409 62.5204 45.9409 62.4015C45.9409 62.2826 45.9643 62.1649 46.0099 62.055C46.0554 61.9452 46.1221 61.8454 46.2062 61.7613C46.2902 61.6773 46.39 61.6105 46.4999 61.565C46.6097 61.5195 46.7274 61.4961 46.8463 61.4961C46.9652 61.4961 47.0829 61.5195 47.1928 61.565C47.3026 61.6105 47.4024 61.6773 47.4864 61.7613C49.4224 63.6971 49.4224 66.8468 47.4864 68.7826C47.4025 68.8669 47.3027 68.9337 47.1929 68.9793C47.083 69.0248 46.9652 69.0482 46.8462 69.048Z" fill="#00D4D7"/>
<path d="M49.3443 71.5456C49.2254 71.5458 49.1076 71.5224 48.9977 71.4769C48.8879 71.4313 48.7881 71.3645 48.7042 71.2803C48.6201 71.1962 48.5534 71.0964 48.5079 70.9866C48.4624 70.8767 48.439 70.759 48.439 70.6401C48.439 70.5212 48.4624 70.4035 48.5079 70.2937C48.5534 70.1838 48.6201 70.084 48.7042 70C51.3113 67.3928 51.3113 63.1508 48.7042 60.5436C48.6201 60.4595 48.5534 60.3597 48.5079 60.2499C48.4624 60.1401 48.439 60.0223 48.439 59.9034C48.439 59.7845 48.4624 59.6668 48.5079 59.557C48.5534 59.4471 48.6201 59.3473 48.7042 59.2633C48.7883 59.1792 48.8881 59.1125 48.9979 59.067C49.1077 59.0215 49.2255 58.998 49.3444 58.998C49.4633 58.998 49.581 59.0215 49.6908 59.067C49.8007 59.1125 49.9004 59.1792 49.9845 59.2633C51.5896 60.8682 52.4734 63.0019 52.4734 65.2715C52.4734 67.5413 51.5896 69.675 49.9845 71.2799C49.9006 71.3643 49.8008 71.4312 49.6909 71.4768C49.5811 71.5224 49.4632 71.5458 49.3443 71.5456Z" fill="#00D4D7"/>
<path d="M51.9327 74.1329C51.8138 74.1331 51.696 74.1097 51.5862 74.0642C51.4763 74.0187 51.3766 73.9518 51.2927 73.8676C51.2085 73.7836 51.1418 73.6838 51.0963 73.574C51.0508 73.4641 51.0273 73.3464 51.0273 73.2275C51.0273 73.1086 51.0508 72.9909 51.0963 72.8811C51.1418 72.7713 51.2085 72.6715 51.2927 72.5875C55.3272 68.5528 55.3272 61.9883 51.2927 57.9538C51.2086 57.8697 51.1419 57.7699 51.0963 57.6601C51.0508 57.5503 51.0274 57.4325 51.0274 57.3136C51.0274 57.1948 51.0508 57.077 51.0963 56.9672C51.1419 56.8574 51.2086 56.7576 51.2927 56.6735C51.3767 56.5894 51.4765 56.5227 51.5863 56.4772C51.6961 56.4316 51.8138 56.4082 51.9327 56.4082C52.0516 56.4082 52.1693 56.4316 52.2791 56.4772C52.389 56.5227 52.4887 56.5894 52.5728 56.6735C57.3132 61.414 57.3132 69.1271 52.5728 73.8676C52.4888 73.9518 52.3891 74.0186 52.2792 74.0641C52.1694 74.1097 52.0516 74.133 51.9327 74.1329Z" fill="#00D4D7"/>
<path d="M35.4325 49.0167L34.8858 47.5634C34.1672 45.6536 32.0348 44.6848 30.125 45.4032L26.8484 46.6358C26.7763 46.6629 26.7062 46.6927 26.6368 46.7237C24.5038 46.7301 21.9661 48.0451 20.0265 50.3697C17.1817 53.7793 16.7022 58.0673 18.9554 59.9472C21.2085 61.8271 25.3413 60.5871 28.1861 57.1775C28.7114 56.5497 29.1704 55.8692 29.5559 55.147C29.7066 55.1112 29.8549 55.0661 29.9999 55.0118L32.947 53.903C33.5856 54.7676 34.3916 55.3582 35.3104 54.9598C36.87 54.284 36.4195 51.6401 35.4325 49.0167Z" fill="#FFD5AE"/>
<path d="M36.2804 48.6982C36.2776 48.6907 36.2739 48.6836 36.2709 48.6762L35.7324 47.245C34.8387 44.8691 32.1797 43.6636 29.8056 44.5561L26.5293 45.7889C26.4992 45.8003 26.4703 45.8131 26.4407 45.8249C24.0203 45.909 21.3147 47.4111 19.3311 49.7899C16.1182 53.6406 15.6981 58.4073 18.3747 60.6421C19.2409 61.3646 20.3308 61.733 21.5498 61.733C22.2037 61.733 22.8951 61.6268 23.6088 61.4128C25.5206 60.8392 27.3929 59.5407 28.8804 57.7573C29.3618 57.1805 29.7913 56.5623 30.1638 55.9099C30.215 55.8926 30.2671 55.8787 30.318 55.8596L32.6699 54.9749C32.9841 55.3071 33.3304 55.5828 33.7084 55.7597C34.0397 55.9146 34.3813 55.9923 34.7232 55.9923C35.0412 55.9923 35.3599 55.925 35.6703 55.7904C38.0002 54.7802 37.288 51.3761 36.2804 48.6982ZM23.0883 59.6782C21.6456 60.1115 20.3836 59.9598 19.5347 59.2518C17.7008 57.7205 18.2441 53.9187 20.7215 50.9494C21.6554 49.8292 22.7594 48.9427 23.8871 48.3674C23.4664 49.4029 23.4177 50.5925 23.8414 51.7185L24.3883 53.1717C24.8214 54.3232 25.6765 55.2366 26.7963 55.7441C27.146 55.9026 27.5141 56.0168 27.892 56.0842C27.7632 56.2588 27.6293 56.4296 27.4905 56.5964C26.2273 58.1111 24.6638 59.2056 23.0883 59.6782ZM34.9501 54.1289C34.7825 54.2015 34.6453 54.1988 34.4761 54.1197C33.585 53.7035 32.6259 51.6311 32.2295 50.293C32.1959 50.1789 32.1402 50.0726 32.0656 49.9801C31.9909 49.8875 31.8987 49.8107 31.7943 49.7538C31.6899 49.6969 31.5753 49.6611 31.4571 49.6486C31.3389 49.636 31.2193 49.6469 31.1053 49.6805C30.9912 49.7141 30.8849 49.7698 30.7924 49.8445C30.6999 49.9192 30.623 50.0114 30.5661 50.1158C30.5093 50.2202 30.4735 50.3348 30.4609 50.4531C30.4484 50.5713 30.4592 50.6908 30.4928 50.8049C30.5599 51.0322 30.9343 52.2494 31.5924 53.4456L29.6804 54.1648C29.3373 54.295 28.9718 54.3559 28.605 54.344C28.2383 54.332 27.8775 54.2475 27.5436 54.0952C27.209 53.9445 26.9076 53.729 26.6569 53.4611C26.4062 53.1932 26.2111 52.8781 26.0829 52.5343L25.536 51.081C24.9939 49.6396 25.7253 48.0258 27.1667 47.4835L30.4431 46.2507C31.8829 45.7099 33.4953 46.4411 34.0378 47.8824L34.5847 49.3357L34.5858 49.3352L34.586 49.3357C35.5589 51.9217 35.7018 53.8031 34.9501 54.1289Z" fill="#E2AB8C"/>
<path d="M63.5483 54.2915C64.7489 57.1763 64.7101 59.9362 61.8253 61.1368C58.9404 62.3374 55.6286 60.9721 54.428 58.0873C53.2274 55.2024 54.5926 51.8906 57.4774 50.69C60.3621 49.4894 62.3475 51.4066 63.5483 54.2915Z" fill="#FFD5AE"/>
<path d="M59.6518 62.4808C58.7934 62.48 57.9435 62.3105 57.1504 61.982C55.5296 61.3137 54.2661 60.0545 53.5923 58.4361C52.9188 56.8177 52.9158 55.0338 53.5838 53.4131C54.2519 51.7923 55.5112 50.5287 57.1297 49.855C58.7594 49.1768 60.3244 49.3006 61.6563 50.2127C62.7468 50.9597 63.6646 52.2153 64.3844 53.9444C65.1041 55.6735 65.3481 57.2096 65.1097 58.5097C64.8184 60.0974 63.8031 61.295 62.1734 61.9733C61.3747 62.3075 60.5176 62.48 59.6518 62.4808ZM59.13 51.2432C58.7149 51.2432 58.28 51.3375 57.8256 51.5268C56.6536 52.0145 55.7418 52.9294 55.258 54.1031C54.7742 55.2766 54.7763 56.5684 55.2643 57.7404C55.752 58.9124 56.6669 59.8242 57.8406 60.308C59.0139 60.7916 60.3058 60.7895 61.4778 60.3017C62.5431 59.8583 63.1486 59.1654 63.3287 58.1833C63.5005 57.2464 63.2876 56.0213 62.7126 54.6403C61.7721 52.3801 60.5707 51.2432 59.13 51.2432Z" fill="#E2AB8C"/>
</g>
<defs>
<clipPath id="clip0_4883_7365">
<rect width="84.114" height="84.114" fill="white" transform="translate(0.723633)"/>
</clipPath>
</defs>
</svg>
