<svg width="18" height="19" viewBox="0 0 18 19" fill="none" xmlns="http://www.w3.org/2000/svg">
<path d="M15 16.291C15 15.2443 15 14.721 14.8708 14.2952C14.58 13.3364 13.8297 12.586 12.8709 12.2952C12.445 12.166 11.9217 12.166 10.875 12.166H7.125C6.07833 12.166 5.55499 12.166 5.12914 12.2952C4.17034 12.586 3.42003 13.3364 3.12918 14.2952C3 14.721 3 15.2443 3 16.291M12.375 6.16602C12.375 8.02998 10.864 9.54102 9 9.54102C7.13604 9.54102 5.625 8.02998 5.625 6.16602C5.625 4.30205 7.13604 2.79102 9 2.79102C10.864 2.79102 12.375 4.30205 12.375 6.16602Z" stroke="#030303" stroke-width="1.5" stroke-linecap="round" stroke-linejoin="round"/>
</svg>
