<svg width="102" height="102" viewBox="0 0 102 102" fill="none" xmlns="http://www.w3.org/2000/svg">
<g clip-path="url(#clip0_5329_15467)">
<path d="M77.5077 23.7077C77.3732 23.4747 77.1797 23.2813 76.9467 23.1468C76.7138 23.0122 76.4495 22.9414 76.1805 22.9414H24.8288C24.5598 22.9414 24.2955 23.0122 24.0626 23.1467C23.8296 23.2812 23.6361 23.4747 23.5016 23.7077L10.9963 45.3672C10.8995 45.5349 10.858 45.7288 10.8779 45.9214C10.8977 46.114 10.9778 46.2955 11.1068 46.4399L49.7787 89.7529C49.8649 89.8496 49.9706 89.9269 50.0888 89.9798C50.207 90.0328 50.3351 90.0602 50.4646 90.0603C50.5941 90.0603 50.7222 90.033 50.8404 89.9802C50.9587 89.9273 51.0644 89.8501 51.1508 89.7535L89.9011 46.4401C90.0304 46.2957 90.1107 46.1141 90.1306 45.9214C90.1506 45.7286 90.1091 45.5344 90.0122 45.3666L77.5077 23.7077Z" fill="#C9BEB9"/>
<path d="M10.8828 45.9453H37.2251L24.0633 23.1484C23.8303 23.2829 23.6369 23.4764 23.5024 23.7093L10.997 45.3688C10.8968 45.5432 10.8566 45.7458 10.8828 45.9453Z" fill="#F9F6F6"/>
<path d="M50.8135 89.9902C50.9425 89.9381 51.058 89.8572 51.151 89.7537L89.9016 46.4403C90.0308 46.2959 90.1111 46.1143 90.131 45.9216C90.151 45.7288 90.1096 45.5346 90.0127 45.3668L77.5079 23.7077C77.3734 23.4747 77.1799 23.2813 76.9469 23.1468C76.714 23.0123 76.4497 22.9414 76.1807 22.9414H66.4778L79.7581 45.9437L50.8135 89.9902Z" fill="#9E9595"/>
<path d="M90.1269 45.9453C90.153 45.7457 90.1129 45.543 90.0126 45.3684L77.5078 23.7093C77.3731 23.4765 77.1797 23.2831 76.9469 23.1484L63.7852 45.9453H90.1269Z" fill="#F9F6F6"/>
<path d="M77.5082 23.7093C77.3735 23.4765 77.1801 23.2831 76.9473 23.1484L71.772 32.1123L79.7585 45.9455H90.1273C90.1534 45.7459 90.1133 45.5432 90.013 45.3686L77.5082 23.7093ZM58.5134 42.1862H42.4966L37.2246 45.9453L50.1248 89.994C50.3439 90.0812 50.5881 90.0811 50.8071 89.9938L63.7854 45.9453L58.5134 42.1862Z" fill="#EEDFDA"/>
<path d="M50.5058 22.9414L37.2256 45.9437H63.7861L50.5058 22.9414Z" fill="#F9F6F6"/>
<path d="M77.2861 77.4513L77.9028 79.9704C78.9024 84.054 81.7402 86.9324 85.5848 88.6334C85.9487 88.876 85.9487 89.411 85.5848 89.6536C81.7402 91.3544 78.9024 94.233 77.9028 98.3166L77.2861 100.836C77.1592 101.354 76.4222 101.354 76.2952 100.836L75.6786 98.3166C74.679 94.233 71.8412 91.3546 67.9966 89.6536C67.6326 89.411 67.6326 88.8762 67.9966 88.6334C71.8412 86.9326 74.679 84.054 75.6786 79.9704L76.2952 77.4513C76.4222 76.9329 77.1592 76.9329 77.2861 77.4513Z" fill="#FFC50D"/>
<path d="M79.762 88.6339C77.3255 87.556 75.2955 86.0035 73.8793 83.9727C72.4631 86.0035 70.4331 87.556 67.9966 88.6339C67.6326 88.8765 67.6326 89.4113 67.9966 89.6541C70.4331 90.732 72.4631 92.2845 73.8793 94.3153C75.2955 92.2845 77.3255 90.732 79.762 89.6541C80.126 89.4115 80.126 88.8765 79.762 88.6339Z" fill="#FFE541"/>
<path d="M88.4364 16.2624L88.7474 17.5325C89.2514 19.5912 90.6822 21.0425 92.6205 21.9C92.6628 21.9282 92.6975 21.9664 92.7215 22.0113C92.7455 22.0561 92.7581 22.1062 92.7581 22.1571C92.7581 22.2079 92.7455 22.258 92.7215 22.3029C92.6975 22.3477 92.6628 22.386 92.6205 22.4142C90.6822 23.2718 89.2514 24.723 88.7474 26.7817L88.4364 28.0517C88.3724 28.3131 88.0009 28.3131 87.9368 28.0517L87.6259 26.7817C87.1219 24.723 85.6911 23.2716 83.7528 22.4142C83.7105 22.386 83.6758 22.3477 83.6518 22.3029C83.6278 22.258 83.6152 22.2079 83.6152 22.1571C83.6152 22.1062 83.6278 22.0561 83.6518 22.0113C83.6758 21.9664 83.7105 21.9282 83.7528 21.9C85.6911 21.0423 87.1219 19.5912 87.6259 17.5325L87.9368 16.2624C88.0009 16.0011 88.3724 16.0011 88.4364 16.2624Z" fill="#FFC50D"/>
<path d="M89.6844 21.9009C88.456 21.3574 87.4325 20.5747 86.7186 19.5508C86.0047 20.5747 84.9812 21.3574 83.7528 21.9009C83.7105 21.9291 83.6758 21.9673 83.6518 22.0122C83.6278 22.057 83.6152 22.1071 83.6152 22.158C83.6152 22.2089 83.6278 22.259 83.6518 22.3038C83.6758 22.3487 83.7105 22.3869 83.7528 22.4151C84.9812 22.9586 86.0047 23.7413 86.7186 24.7652C87.4325 23.7413 88.456 22.9586 89.6844 22.4151C89.7267 22.3869 89.7614 22.3487 89.7854 22.3038C89.8094 22.259 89.822 22.2089 89.822 22.158C89.822 22.1071 89.8094 22.057 89.7854 22.0122C89.7614 21.9673 89.7267 21.9291 89.6844 21.9009Z" fill="#FFE541"/>
<path d="M15.8738 0.280666L16.3192 2.09994C17.0412 5.04889 19.0906 7.12775 21.867 8.35609C21.9276 8.39648 21.9774 8.45124 22.0118 8.51549C22.0462 8.57975 22.0642 8.65152 22.0642 8.72441C22.0642 8.7973 22.0462 8.86907 22.0118 8.93333C21.9774 8.99758 21.9276 9.05234 21.867 9.09273C19.0904 10.3211 17.041 12.3999 16.3192 15.3489L15.8738 17.1682C15.782 17.5426 15.2498 17.5426 15.1583 17.1682L14.7128 15.3489C13.991 12.4001 11.9416 10.3213 9.16506 9.09293C9.10438 9.05254 9.05462 8.99778 9.0202 8.93352C8.98578 8.86927 8.96777 8.7975 8.96777 8.72461C8.96777 8.65171 8.98578 8.57995 9.0202 8.51569C9.05462 8.45143 9.10438 8.39668 9.16506 8.35628C11.9416 7.12795 13.991 5.04909 14.7128 2.10014L15.1583 0.280863C15.2498 -0.0935882 15.7822 -0.0935882 15.8738 0.280666Z" fill="#FFC50D"/>
<path d="M17.6616 8.35459C15.902 7.57603 14.436 6.45485 13.4133 4.98828C12.3906 6.45485 10.9246 7.57623 9.16506 8.35459C9.10438 8.39498 9.05462 8.44974 9.0202 8.51399C8.98578 8.57825 8.96777 8.65002 8.96777 8.72291C8.96777 8.79581 8.98578 8.86757 9.0202 8.93183C9.05462 8.99608 9.10438 9.05084 9.16506 9.09123C10.9246 9.86979 12.3906 10.991 13.4133 12.4575C14.436 10.991 15.902 9.8696 17.6616 9.09123C17.7223 9.05084 17.772 8.99608 17.8064 8.93183C17.8409 8.86757 17.8589 8.79581 17.8589 8.72291C17.8589 8.65002 17.8409 8.57825 17.8064 8.51399C17.772 8.44974 17.7223 8.39498 17.6616 8.35459Z" fill="#FFE541"/>
</g>
<defs>
<clipPath id="clip0_5329_15467">
<rect width="101.224" height="101.224" fill="white" transform="translate(0.250977)"/>
</clipPath>
</defs>
</svg>
