<svg width="283" height="169" viewBox="0 0 283 169" fill="none" xmlns="http://www.w3.org/2000/svg">
<path d="M81.4538 5.28445C79.281 3.26094 76.44 2.09508 73.464 2.00556C70.488 1.91605 67.5813 2.90905 65.2894 4.79827C53.0621 13.2335 45.5057 34.6984 39.93 47.801C37.2545 54.1532 34.9279 60.6452 32.9605 67.2482C24.1324 96.4191 9.58196 126.635 2.17224 156.171C-0.102035 165.262 20.8066 172.798 25.9665 163.464C36.4819 144.357 38.4383 131.667 46.3371 111.734C46.8996 110.105 82.1385 110.518 86.4425 110.883C88.525 111.078 90.6257 110.872 92.6295 110.275C94.6593 115.964 96.7379 121.652 98.8165 127.292C103.267 139.568 104.245 153.57 113.66 162.929C122.268 171.486 139.069 168.034 142.077 157.654C145.085 147.274 137.626 135.775 133.371 126.684C128.48 116.085 125.399 105.365 121.51 94.3285C115.69 77.9199 108.647 61.6572 102.411 45.3215C97.496 32.4863 92.6784 14.4247 81.4538 5.28445ZM55.8255 81.2503C59.6404 70.5057 62.9417 56.9412 68.8597 46.2938C74.0338 56.9107 78.3355 67.9262 81.7228 79.2326C73.9218 81.3961 64.4824 80.9586 55.8255 81.2503Z" fill="#E93B38" stroke="#7B1E13" stroke-width="2.06282" stroke-linecap="round" stroke-linejoin="round"/>
<g style="mix-blend-mode:multiply">
<path d="M68.8603 46.2926C69.1537 46.876 69.4472 47.5324 69.7651 48.1401C69.6911 46.886 69.5028 45.6411 69.2026 44.4208C67.5153 37.906 63.7982 43.5943 62.4287 46.4871C56.8253 58.4975 53.4217 71.4052 52.3779 84.6037C56.4267 83.752 60.4008 82.5814 64.2628 81.1032C61.4261 81.1032 58.5894 81.1032 55.826 81.2733C59.6409 70.5044 62.9423 56.9157 68.8603 46.2926Z" fill="#C8234C"/>
</g>
<g style="mix-blend-mode:multiply">
<path d="M38.4627 118.395C36.6531 128.921 30.3682 138.207 25.404 147.711C22.4939 153.303 17.4318 162.078 11.5872 166.77C17.1139 168.52 23.4232 168.01 25.9664 163.415C36.4819 144.308 38.4382 131.619 46.337 111.685C46.6794 110.664 60.6185 110.446 72.0632 110.519C59.6648 105.414 41.275 102.059 38.4627 118.395Z" fill="#C8234C"/>
</g>
<g style="mix-blend-mode:multiply">
<path d="M133.371 126.684C128.48 116.085 125.399 105.365 121.51 94.3286C115.69 77.9199 108.647 61.6572 102.411 45.3215C97.5204 32.3647 92.6295 14.4247 81.4538 5.28445C79.281 3.26094 76.44 2.09508 73.464 2.00556C70.4879 1.91605 67.5813 2.90905 65.2894 4.79827C63.852 5.80115 62.5096 6.93215 61.2788 8.17723C81.2582 10.9728 95.9309 63.8936 100.822 76.0238C110.188 100.552 125.765 124.399 128.675 150.944C129.451 156.537 129.119 162.227 127.697 167.693C134.251 167.183 140.389 163.536 142.077 157.654C145.182 146.909 137.626 135.8 133.371 126.684Z" fill="#C8234C"/>
</g>
<path d="M278.313 146.739C264.912 140.273 264.3 125.469 263.958 112.707C263.493 94.9126 266.159 72.6698 255.228 57.5009C240.775 37.4459 192.086 46.0027 176.973 61.9252C172.351 66.787 169.197 74.2742 172.522 81.0078C176.729 89.5646 186.926 86.8906 192.086 81.494C200.792 72.5482 210.085 64.6721 223.559 66.2522C236.3 67.7593 245.079 79.5249 246.913 91.7038C223.29 71.3571 162.838 91.4607 167.607 128.508C171.08 155.661 202.259 170.076 227.007 164.12C236.789 161.334 245.38 155.433 251.462 147.323C254.421 158.238 260.021 166.77 270.732 167.645C278.802 168.618 286.823 150.896 278.313 146.739ZM234.295 131.449C229.404 139.787 217.519 142.242 208.886 139.666C201.55 137.453 194.629 130.161 195.265 122.066C195.999 112.537 205.512 109.911 213.361 108.866C219.72 107.942 229.232 108.72 233.928 113.728C237.4 117.496 236.911 125.25 235.077 129.772C234.735 130.428 234.49 130.963 234.197 131.473L234.295 131.449Z" fill="#E93B38" stroke="#7B1E13" stroke-width="2.06282" stroke-linecap="round" stroke-linejoin="round"/>
<g style="mix-blend-mode:multiply">
<path d="M208.788 139.687C201.452 137.475 194.531 130.182 195.167 122.087C195.901 112.558 205.414 109.933 213.264 108.888C217.506 108.293 221.823 108.516 225.98 109.544C223.107 107.461 219.886 105.897 216.467 104.925C208.348 103.297 197.662 103.71 192.013 110.686C186.364 117.663 183.136 127.897 190.374 135.19C193.056 137.929 196.356 139.993 200.001 141.21C203.646 142.428 207.53 142.764 211.332 142.191C212.871 141.885 214.36 141.369 215.758 140.66C213.4 140.671 211.052 140.344 208.788 139.687Z" fill="#C8234C"/>
</g>
<g style="mix-blend-mode:multiply">
<path d="M246.425 150.313C232.877 153.157 221.53 158.675 207.297 154.348C194.312 150.434 183.332 144.333 177.267 131.838C169.295 115.381 181.522 99.7255 195.853 89.0781C178.735 96.3708 165.407 110.397 167.755 128.605C171.227 155.758 202.407 170.173 227.155 164.217C234.669 162.177 241.489 158.154 246.889 152.573C246.767 151.844 246.62 151.091 246.425 150.313Z" fill="#C8234C"/>
</g>
<g style="mix-blend-mode:multiply">
<path d="M244.737 60.2944C267.039 85.4299 242.291 146.932 281.712 155.732C282.397 151.964 281.712 148.439 278.313 146.762C264.912 140.296 264.3 125.491 263.958 112.729C263.493 94.9348 266.159 72.692 255.228 57.5231C247.891 47.3863 231.923 44.5664 215.905 46.2924C221.418 46.5463 226.82 47.9196 231.778 50.3277C236.737 52.7358 241.147 56.1277 244.737 60.2944Z" fill="#C8234C"/>
</g>
</svg>
