<svg width="282" height="168" viewBox="0 0 282 168" fill="none" xmlns="http://www.w3.org/2000/svg">
<path d="M232.718 53.0141C225.418 52.1569 218.005 52.7482 210.968 54.7488C203.931 56.7495 197.43 60.1142 191.893 64.6213C192.242 55.8617 192.242 42.6545 192.242 34.7899C192.242 11.44 195.392 13.0943 188.247 8.02299C184.077 5.14833 165.91 6.34159 164.919 11.0604C162.352 22.9387 162.557 39.3731 162.79 50.3022C163.402 78.5878 161.011 104.867 162.79 133.261C163.256 140.827 162.498 150.698 163.985 158.183C166.668 171.743 183.932 167.187 185.477 158.482C185.681 157.424 185.477 150.942 185.769 149.858C193.613 156.312 205.627 163.878 217.263 164.367C250.244 165.885 276.051 145.003 280.367 117.26C284.683 89.5169 264.824 57.4346 232.718 53.0141ZM237.5 135.132C228.752 143.62 214.755 147.336 203.12 141.532C199.003 139.417 195.516 136.384 192.972 132.706C190.427 129.028 188.904 124.821 188.539 120.46C187.563 113.045 189.579 105.556 194.196 99.4426C196.87 96.0045 200.442 93.2567 204.575 91.4584C208.708 89.6601 213.265 88.8706 217.817 89.1644C227.877 89.8695 238.229 98.1409 241.758 106.494C245.374 115.172 245.52 126.535 238.579 134.155C238.229 134.4 237.879 134.779 237.5 135.132Z" fill="#6E9ED4" stroke="#1A6CB5" stroke-width="1.8418" stroke-linecap="round" stroke-linejoin="round"/>
<g style="mix-blend-mode:multiply" opacity="0.8">
<path d="M232.717 53.015C225.417 52.1578 218.004 52.749 210.967 54.7497C203.93 56.7504 197.429 60.1151 191.892 64.6221C192.242 55.8625 192.242 42.6554 192.242 34.7907C192.242 11.4409 195.391 13.0952 188.246 8.02385C186.029 6.94293 183.546 6.41943 181.044 6.50516C182.411 9.38309 183.391 12.4073 183.96 15.5088C187.401 34.4924 179.498 55.049 185.564 73.5444C210.38 53.8286 256.046 55.8083 268.323 88.0804C281.824 123.58 251.409 159.459 214.083 164.015C215.173 164.19 216.273 164.299 217.378 164.34C250.243 165.886 276.05 145.004 280.366 117.261C284.682 89.5177 264.823 57.4355 232.717 53.015Z" fill="#6E9ED4"/>
</g>
<g style="mix-blend-mode:multiply" opacity="0.8">
<path d="M188.421 120.599C187.445 113.184 189.461 105.695 194.079 99.5815C196.753 96.1434 200.325 93.3956 204.457 91.5973C208.59 89.799 213.147 89.0094 217.699 89.3032C222.52 89.8085 227.099 91.5345 230.938 94.2932C228.232 90.9673 224.687 88.3127 220.615 86.5642C206.035 80.2453 191.454 85.5607 184.455 99.1205C176.815 113.819 178.623 134.647 197.899 140.261C199.326 140.649 200.777 140.957 202.244 141.183C198.342 139.026 195.051 136.032 192.646 132.451C190.242 128.87 188.793 124.806 188.421 120.599Z" fill="#6E9ED4"/>
</g>
<path d="M119.747 95.7282C114.932 89.1876 107.932 84.3069 99.8304 81.843C99.1597 81.382 98.489 80.921 97.7891 80.4871L97.3809 80.2701L99.0139 79.2667C115.548 68.8257 127.65 50.7642 123.976 31.8619C119.981 12.119 99.1305 5.23063 80.6133 2.35597C69.2113 0.566089 55.1849 1.1356 43.6663 1C35.1804 1 23.9826 1 15.4967 1.43391C10.4518 1.70511 4.56132 1.43391 2.84082 6.42389C-0.0752774 14.9936 1.29527 23.3735 1.4994 31.3195C1.76185 42.33 1.4994 53.3405 1.82017 64.351C2.52004 82.8736 2.11178 101.369 1.82017 119.892C1.82017 129.139 1.67437 138.387 1.82017 147.635C1.82017 153.059 -0.512709 159.784 5.05705 163.717C11.4141 168.164 29.494 166.429 36.7843 166.429C46.3199 166.429 49.965 166.646 59.5007 166.727C74.0812 166.727 90.528 165.669 103.592 158.835C110.395 155.147 116.099 149.936 120.185 143.675C129.925 129.275 130.566 109.885 119.747 95.7282ZM40.371 25.6787C53.3185 26.0041 63.2624 25.0549 75.3643 30.7771C90.8196 38.0994 89.6532 59.2254 79.1552 69.7478C66.7326 82.0329 45.5909 78.5074 30.2522 76.5005C29.5231 72.0801 30.2522 25.4889 29.7273 25.4889C33.11 25.6787 36.4051 25.4617 40.371 25.6787ZM82.4212 134.428C78.0471 140.258 70.7568 141.289 64.4289 141.967C61.5128 142.265 30.6021 144.679 30.398 142.591C29.2024 130.821 30.5438 122.793 30.1064 112.759C29.7564 106.865 29.5815 100.98 29.5815 95.1044C42.2309 94.9028 54.8833 95.292 67.4908 96.2706C81.2256 97.1384 92.89 120.326 82.4212 134.319V134.428Z" fill="#6E9ED4" stroke="#1A6CB5" stroke-width="1.8418" stroke-linecap="round" stroke-linejoin="round"/>
<g style="mix-blend-mode:multiply" opacity="0.8">
<path d="M119.748 95.7293C114.933 89.1887 107.932 84.3081 99.8307 81.8442C99.16 81.3831 98.4893 80.9221 97.7894 80.4882L97.3812 80.2712L99.0142 79.2678C115.548 68.8268 127.65 50.7653 123.976 31.863C119.981 12.1201 99.1308 5.23175 80.6136 2.35709C75.5276 1.61884 70.3926 1.21107 65.2457 1.13672C81.5467 4.77072 98.4601 10.7641 106.858 25.0561C118.815 45.3956 98.8975 68.6641 79.8554 81.817C111.145 92.6648 135.261 125.208 102.455 150.131C90.1381 159.189 75.3787 164.922 59.7926 166.701C74.3731 166.701 90.6741 165.616 103.534 158.809C110.337 155.121 116.041 149.91 120.127 143.649C129.925 129.276 130.566 109.886 119.748 95.7293Z" fill="#6E9ED4"/>
</g>
<g style="mix-blend-mode:multiply">
<path d="M29.5814 25.4893H32.9932C30.2521 22.7773 27.4235 21.2587 26.0821 23.9977C24.3455 28.4469 23.6689 33.1937 24.0991 37.91C24.0991 42.4932 23.7783 47.0492 23.6034 51.6324C22.9993 58.0362 23.2442 64.4848 24.3324 70.833C25.4988 75.7416 27.5984 76.9891 30.1646 76.2569C29.3772 71.1584 30.2521 25.4893 29.5814 25.4893Z" fill="#6E9ED4"/>
</g>
<g style="mix-blend-mode:multiply">
<path d="M30.1941 112.758C29.7859 106.864 29.5817 100.979 29.5817 95.103H31.2147C25.6158 91.5504 24.4202 101.368 24.3036 102.995C24.0411 106.52 24.0994 110.019 24.0703 113.571C23.7006 120.931 23.8565 128.306 24.5369 135.647C25.5575 143.077 27.7737 143.62 30.3691 141.559C29.2026 130.277 30.719 122.412 30.1941 112.758Z" fill="#6E9ED4"/>
</g>
</svg>
