<svg width="282" height="168" viewBox="0 0 282 168" fill="none" xmlns="http://www.w3.org/2000/svg">
<path d="M130.87 101.867C129.788 101.959 128.719 102.155 127.68 102.453C114.387 106.073 111.96 124.441 98.9204 129.658C85.7523 134.848 71.0279 135.321 57.5159 130.989C31.6628 121.805 24.8326 91.0594 32.1144 68.5656C34.355 61.1344 38.1984 54.2197 43.4039 48.2545C49.3874 41.7593 60.5923 34.3057 69.7086 32.5754C98.4405 27.2514 110.436 43.9421 125.677 62.9754C129.543 67.8202 137.418 63.5876 139.506 59.4615C147.494 43.809 135.188 28.1565 122.939 18.0143C116.185 12.1145 108.226 7.57513 99.5497 4.67339C90.8732 1.77164 81.6606 0.568436 72.4745 1.13724C27.7679 3.58628 3.38247 47.2696 1.18101 84.5908C-1.04868 122.844 17.2686 157.29 59.04 165.436C70.5839 167.468 82.4696 166.956 93.7693 163.941C105.069 160.926 115.477 155.488 124.181 148.053C132.648 140.919 141.284 130.164 144.304 119.756C146.703 111.477 141.538 100.989 130.87 101.867Z" fill="#7BC043" stroke="#4A7F29" stroke-width="1.8418" stroke-linecap="round" stroke-linejoin="round"/>
<g style="mix-blend-mode:multiply" opacity="0.4">
<path d="M130.869 101.865C129.788 101.956 128.719 102.153 127.68 102.45C114.386 106.071 111.959 124.438 98.9197 129.656C85.7517 134.845 71.0273 135.319 57.5153 130.987C31.6622 121.803 24.832 91.057 32.1137 68.5632C34.3544 61.132 38.1978 54.2173 43.4033 48.2522C49.3868 41.7569 60.5917 34.3033 69.708 32.573C98.4399 27.249 110.435 43.9397 125.676 62.973C129.543 67.8178 137.417 63.5853 139.506 59.4592C144.529 49.6098 141.538 39.7604 135.554 31.2952C134.851 33.4898 133.302 35.3568 131.213 36.5292C129.124 37.7015 126.645 38.0945 124.265 37.6308C116.221 36.9653 108.064 29.9376 100.98 26.7699C87.4043 20.7005 72.5586 19.8753 59.2087 27.1692C23.9571 46.4952 8.4057 104.633 42.8106 131.786C63.4987 148.024 85.1465 142.434 106.568 131.28C116.193 126.328 124.829 133.037 121.64 142.62C119.467 149.195 113.173 154.918 106.06 159.311C112.619 156.358 118.716 152.57 124.18 148.05C132.647 140.916 141.284 130.162 144.304 119.753C146.703 111.475 141.538 100.986 130.869 101.865Z" fill="#6EAE3C"/>
</g>
<path d="M258.384 120.982C253.191 129.314 251.78 133.361 243.087 139.057C234.394 144.754 224.29 144.541 214.496 141.4C199.171 136.475 192.877 126.839 190.506 112.437C185.087 79.4552 227.931 56.216 253.332 77.8314C256.663 80.7063 260.416 87.7606 265.13 88.6124C268.545 89.1981 275.319 87.0419 276.984 83.8475C284.717 69.0468 266.964 56.0829 254.772 50.7855C231.572 40.6699 196.094 44.1305 181.192 65.6128C171.031 80.2272 165.274 101.363 169.056 118.64C173.826 140.441 189.462 159.022 212.662 165.092C241.732 172.678 276.702 153.565 280.822 125.747C282.318 115.765 262.336 114.62 258.384 120.982Z" fill="#7BC043" stroke="#4A7F29" stroke-width="1.8418" stroke-linecap="round" stroke-linejoin="round"/>
<g style="mix-blend-mode:multiply" opacity="0.4">
<path d="M258.385 120.978C253.192 129.31 251.781 133.356 243.088 139.053C234.395 144.749 224.291 144.536 214.497 141.395C199.172 136.471 192.878 126.834 190.507 112.433C185.088 79.4506 227.932 56.2114 253.333 77.8268C256.664 80.7017 260.417 87.756 265.131 88.6078C268.546 89.1935 275.32 87.0373 276.985 83.8429C281.698 74.8453 276.985 66.5133 269.76 60.1777C270.026 61.3236 270.03 62.5098 269.772 63.6574C269.515 64.8049 269 65.8875 268.264 66.8327C261.067 76.0698 254.406 69.4947 245.064 66.6198C207.385 55.3595 167.391 96.2478 189.773 130.135C199.369 144.669 219.803 155.983 238.318 148.769C246.447 145.628 250.906 140.117 257.708 135.459C258.963 134.843 260.357 134.521 261.772 134.521C263.187 134.521 264.581 134.843 265.836 135.459C270.832 138.121 270.465 143.977 268.659 148.769C275.205 142.342 279.476 134.157 280.88 125.343C282.319 115.76 262.337 114.616 258.385 120.978Z" fill="#6EAE3C"/>
</g>
</svg>
