<svg width="282" height="168" viewBox="0 0 282 168" fill="none" xmlns="http://www.w3.org/2000/svg">
<path d="M280.068 69.1717C280.068 53.4447 281.678 30.3821 280.557 14.601C280.04 7.37366 271.936 -4.13058 260.211 3.52989C246.79 12.3272 249.894 25.6451 249.894 41.4262C249.894 44.1331 249.894 47.0024 249.894 49.8987L247.595 48.843C223.973 38.5569 187.85 42.0758 172.648 63.9203C162.331 78.7811 156.44 100.274 160.32 117.841C165.176 140.011 181.068 158.905 204.719 165.076C212.966 166.985 221.556 167.17 229.887 165.617C238.218 164.065 246.086 160.812 252.94 156.09C253.373 158.13 253.93 160.145 254.607 162.126C256.676 168.027 266.82 167.54 272.798 164.833C282.023 160.61 279.724 148.591 279.81 140.471C280.097 116.686 280.183 92.92 280.068 69.1717ZM230.956 138.955C227.002 141.183 222.561 142.533 217.97 142.904C213.379 143.274 208.759 142.655 204.46 141.093C190.235 136.519 184.344 127.559 182.218 114.295C181.322 107.598 182.467 100.8 185.52 94.6931C188.573 88.5866 193.408 83.4245 199.46 79.8097C210.783 73.4486 229.606 70.8499 239.146 81.488C245.153 88.174 245.066 97.4315 245.095 105.85C245.095 115.459 243.543 125.664 237.221 133.514C235.464 135.64 233.348 137.478 230.956 138.955Z" fill="#F79F61" stroke="#D14C27" stroke-width="1.8418" stroke-linecap="round" stroke-linejoin="round"/>
<g style="mix-blend-mode:multiply">
<path d="M280.068 69.172C280.068 53.445 281.677 30.3824 280.557 14.6013C280.068 7.86121 272.941 -2.66855 262.423 2.31211C265.002 3.43029 267.207 5.18975 268.803 7.40104C283.344 25.6995 273.315 53.039 273.286 74.0444C273.286 92.6136 272.309 111.291 272.567 129.86C272.74 140.688 274.004 152.381 267.797 162.153C266.777 163.757 265.644 165.294 264.406 166.755C267.388 166.671 270.322 166.017 273.027 164.833C282.252 160.61 279.953 148.592 280.039 140.471C280.173 116.687 280.183 92.9203 280.068 69.172Z" fill="#F79F61"/>
</g>
<g style="mix-blend-mode:multiply">
<path d="M182.217 114.296C181.321 107.599 182.467 100.8 185.52 94.6936C188.573 88.587 193.408 83.4249 199.46 79.8101C207.046 75.5255 215.884 73.6292 224.691 74.3964C223.834 73.93 222.951 73.5054 222.047 73.1241C217.023 71.0878 211.538 70.2688 206.092 70.7416C200.645 71.2144 195.412 72.9641 190.867 75.831C177.562 84.7367 169.056 99.7598 174.947 115.054C178.545 124.674 186.034 132.565 195.781 137.006C187.735 132.107 183.884 124.501 182.217 114.296Z" fill="#F79F61"/>
</g>
<g style="mix-blend-mode:multiply">
<path d="M33.4159 159.961C33.6267 141.518 33.6745 123.084 33.5596 104.659C33.5596 96.9988 34.1057 83.5998 34.2493 74.2881C31.3756 75.4521 28.5019 73.0971 25.6281 74.2881C25.4844 77.3469 25.6281 87.4435 25.6281 90.5294C25.6281 98.65 25.6281 107.014 25.8005 115.27C26.0304 132.405 26.2891 149.539 26.3466 166.701C33.3656 165.857 40.2241 164.089 46.7214 161.45C42.2958 161.45 37.899 161.45 33.6171 161.45C33.416 161.016 33.4159 160.475 33.4159 159.961Z" fill="#F79F61"/>
</g>
<path d="M113.421 26.5374C106.637 19.7595 98.3444 14.481 89.1376 11.0812C78.6485 7.34567 67.1822 6.80429 56.0896 6.5336C47.8995 6.34412 39.7092 6.5336 31.5191 6.80429C23.7155 6.69042 15.9266 7.48136 8.328 9.15927C0.971228 11.2706 2.092 18.3356 1.60346 24.1824C1.20114 29.0007 1.05747 33.8189 1 38.6372C1 49.7083 1.28736 60.7794 1.25863 71.8776C1.25863 88.9851 1.43104 106.12 1.60346 123.308C1.60346 131.862 2.06326 140.524 1.60346 149.105C1.60346 150.918 1.34481 152.786 1.22986 154.681C0.339002 167.701 14.018 166.997 24.2198 166.564C30.8006 166.266 37.2666 166.727 43.8187 166.348C77.4127 164.561 113.306 158.795 129.255 127.071C133.841 118.362 137.019 109.055 138.681 99.4607C140.436 86.3033 139.081 72.9433 134.714 60.3365C130.347 47.7298 123.076 36.1881 113.421 26.5374ZM88.0168 123.768C73.6481 135.922 52.2962 135.408 33.4158 135.516C33.4158 134.948 33.4158 134.407 33.4158 133.892C33.6265 115.449 33.6744 97.0155 33.5594 78.5907C33.5594 69.9557 34.1917 58.5056 34.2492 48.2195C52.5836 46.5142 70.5732 43.8073 86.2639 55.9612C91.2796 59.9152 95.2678 64.8984 97.9228 70.5288C100.578 76.1592 101.829 82.2874 101.581 88.4437C101.638 100.137 98.0749 115.323 88.0168 123.768Z" fill="#F79F61" stroke="#D14C27" stroke-width="1.8418" stroke-linecap="round" stroke-linejoin="round"/>
<g style="mix-blend-mode:multiply">
<path d="M113.42 26.5409C106.637 19.763 98.3436 14.4845 89.1368 11.0847C78.6477 7.34917 67.1815 6.8078 56.0888 6.53711C51.6058 6.53711 47.094 6.53711 42.611 6.53711C48.2389 7.61338 53.8025 8.96871 59.2786 10.5974C75.3716 15.3615 91.5795 21.6686 102.845 34.0661C121.208 54.2594 126.754 85.4967 116.955 110.617C104.598 142.26 73.6473 160.667 39.7085 166.432C41.0879 166.432 42.5822 166.432 43.8179 166.297C77.4119 164.511 113.305 158.745 129.254 127.02C133.841 118.311 137.018 109.005 138.68 99.4101C140.426 86.2613 139.067 72.9116 134.7 60.3149C130.334 47.7182 123.067 36.1855 113.42 26.5409Z" fill="#F79F61"/>
</g>
</svg>
