<svg width="280" height="182" viewBox="0 0 280 182" fill="none" xmlns="http://www.w3.org/2000/svg">
<g clip-path="url(#clip0_4570_50893)">
<path d="M129.424 158.108C118.672 144.964 95.3826 149.901 80.9666 150.416C64.2791 150.991 48.3791 150.416 32.0551 150.416C32.1964 134.788 32.2873 119.161 32.3277 103.534H49.7117C66.7928 103.534 91.8088 105.139 108.92 104.109C116.764 103.624 130.847 93.8724 121.216 83.333C110.435 71.5518 87.0842 75.9735 72.7591 76.4278C59.0094 76.8518 45.8048 76.6398 32.4488 76.4278V76.1855C32.4488 63.7381 33.3271 47.2021 33.4483 32.3318H57.6768C74.6974 32.3318 99.6529 34.0884 116.764 32.9375C124.578 32.4227 138.661 21.4895 128.879 9.73866C118.097 -3.40534 94.8375 1.53123 80.4215 2.04609C60.4632 2.71237 41.7162 2.04609 21.8791 2.04609V2.4398C16.1551 2.92437 10.6128 3.80266 6.19111 8.25466C5.08651 9.34026 4.07354 10.5153 3.16254 11.7678C-1.38032 20.8535 0.31564 32.241 0.285355 45.0821C0.285355 66.8575 0.0127831 94.4478 0.285355 116.254C0.285355 127.156 0.769919 137.635 0.467062 148.538C0.255062 156.503 -0.592865 167.618 4.70714 174.281C9.21971 179.944 18.5173 180.096 25.2408 180.702C36.0831 181.701 46.986 180.702 57.8586 180.702C74.8791 180.702 99.8346 182.458 116.946 181.307C125.002 180.792 139.055 169.859 129.424 158.108Z" fill="#70C9BD" stroke="#00A4A7" stroke-width="3.02857" stroke-linecap="round" stroke-linejoin="round"/>
<g style="mix-blend-mode:multiply">
<path d="M123.73 7.71016C124.608 14.161 122.761 21.4296 115.825 23.8827C104.831 27.7896 91.8691 25.6393 80.4211 25.2456C62.0377 24.6399 43.6542 24.0342 25.2707 25.2456C24.9982 39.7827 25.8159 54.441 25.2707 68.9176C25.0284 74.7931 28.6325 78.4273 32.388 77.2765C32.388 64.9805 33.2661 46.7787 33.3873 32.393H57.6159C74.6364 32.393 99.5919 34.1496 116.703 32.9987C124.517 32.4839 138.6 21.5507 128.818 9.79988C127.127 7.77151 125.073 6.07673 122.76 4.80273C123.229 5.71721 123.556 6.69754 123.73 7.71016Z" fill="#95D9F3"/>
</g>
<g style="mix-blend-mode:multiply">
<path d="M109.102 90.7528C103.499 102.867 77.3623 98.8088 67.7011 98.1122C60.1297 97.5671 52.5583 97.1733 44.9869 96.8705C33.6903 96.4465 22.424 93.6299 22.2422 107.925C22.2422 117.646 21.4549 127.096 20.9703 136.787C20.6096 140.824 20.7214 144.89 21.3034 148.901C26.7548 154.958 30.8131 155.261 33.5691 150.446H32.0851C32.2264 134.818 32.3174 119.191 32.3578 103.564H49.7417C66.8229 103.564 91.8389 105.169 108.95 104.139C116.794 103.654 130.877 93.9025 121.246 83.3631C117.953 80.0021 113.737 77.6939 109.132 76.7305C110.171 78.9226 110.708 81.3191 110.702 83.745C110.697 86.171 110.15 88.5652 109.102 90.7528Z" fill="#95D9F3"/>
</g>
<g style="mix-blend-mode:multiply">
<path d="M129.423 158.105C127.37 155.627 124.781 153.649 121.851 152.32C122.023 153.443 122.104 154.577 122.094 155.712C121.791 168.644 111.342 173.49 99.773 175.125C76.5438 178.366 51.9215 176.428 28.5409 176.004C21.3632 175.852 14.034 176.004 6.70483 176.004C11.5506 179.971 19.546 180.153 25.482 180.698C36.3243 181.697 47.2272 180.698 58.0998 180.698C75.1204 180.698 100.076 182.455 117.187 181.304C125.001 180.789 139.054 169.856 129.423 158.105Z" fill="#95D9F3"/>
</g>
<path d="M252.868 129.697C247.295 139.116 245.781 143.72 236.423 150.231C227.065 156.743 216.253 156.288 205.774 152.805C189.329 147.172 182.575 136.209 180.091 119.824C180.091 119.34 180.091 118.855 179.91 118.371C182.938 118.371 185.785 118.613 188.995 118.764C201.988 119.34 214.98 118.764 227.973 118.764C240.966 118.764 254.443 118.946 267.678 119.703L271.07 119.976C272.915 119.55 274.704 118.91 276.4 118.068C277.036 117.099 277.702 116.16 278.369 115.221C280.176 107.614 280.437 99.721 279.136 92.011C277.836 84.301 275 76.9308 270.797 70.3374C262.469 57.1934 250.385 51.3483 237.089 45.6849C213.284 39.9912 183.847 45.6849 170.248 66.5517C159.315 83.1786 153.107 107.165 157.135 126.881C162.223 151.655 178.91 172.855 203.805 179.79C234.999 188.482 272.584 166.797 277.066 135.179C278.581 123.792 257.138 122.459 252.868 129.697ZM235.726 81.2403C237.184 83.0153 238.52 84.8872 239.724 86.8432C239.724 87.0855 240.693 88.9329 240.784 89.1449C242.425 92.9554 243.87 96.8472 245.115 100.805C227.731 101.017 213.224 100.805 197.869 99.8358C192.66 99.5329 187.572 100.229 181.818 100.199C189.207 75.2437 217.615 62.0089 235.787 81.3312L235.726 81.2403Z" fill="#70C9BD" stroke="#00A4A7" stroke-width="3.02857" stroke-linecap="round" stroke-linejoin="round"/>
<g style="mix-blend-mode:multiply">
<path d="M232.91 78.6406C223.643 65.648 200.111 61.408 188.753 73.9766C183.121 80.1326 178.976 87.4995 176.639 95.5097C175.216 100.84 178.911 102.082 182.696 100.022C190.722 77.6715 215.344 63.8915 232.91 78.6406Z" fill="#95D9F3"/>
</g>
<g style="mix-blend-mode:multiply">
<path d="M174.973 131.82C179.486 143.48 189.389 154.685 202.23 157.138C211.819 159.109 221.793 157.764 230.517 153.322C222.476 156.133 213.691 155.95 205.774 152.808C189.329 147.174 182.575 136.211 180.092 119.826C180.011 119.356 179.961 118.88 179.94 118.403C171.127 118.312 173.308 127.58 174.973 131.82Z" fill="#95D9F3"/>
</g>
<g style="mix-blend-mode:multiply">
<path d="M266.618 125.4C270.919 130.337 270.888 138.878 268.223 146.025C263.075 159.805 247.265 171.889 233.697 176.492C224.361 179.648 214.471 180.833 204.653 179.975C235.787 188.001 272.524 166.468 276.976 135.152C277.793 129.307 272.524 126.127 266.618 125.4Z" fill="#95D9F3"/>
</g>
<g style="mix-blend-mode:multiply">
<path d="M270.706 70.3074C262.378 57.1634 250.294 51.3183 236.998 45.6549C234.41 45.0509 231.792 44.5858 229.154 44.2617C232.979 45.8827 236.59 47.9679 239.905 50.4703C253.231 60.5252 264.982 75.1229 266.86 92.3252C268.283 105.409 265.103 113.525 257.532 119.219L267.587 119.673L270.979 119.946C272.824 119.52 274.613 118.88 276.309 118.038C276.945 117.069 277.611 116.13 278.278 115.191C280.085 107.584 280.346 99.691 279.045 91.981C277.745 84.271 274.909 76.9008 270.706 70.3074Z" fill="#95D9F3"/>
</g>
</g>
<defs>
<clipPath id="clip0_4570_50893">
<rect width="279.95" height="181.008" fill="white" transform="translate(0 0.714844)"/>
</clipPath>
</defs>
</svg>
