<svg width="224" height="185" viewBox="0 0 224 185" fill="none" xmlns="http://www.w3.org/2000/svg">
<path d="M123.25 5.99382C122.861 5.3079 122.357 4.69342 121.761 4.17678C116.906 0.15548 106.212 2.35974 100.314 2.32995C90.4841 2.32995 80.6542 1.97251 70.8244 1.82357C59.4456 1.64485 47.9774 1.82357 36.5986 1.82357C27.6624 1.82357 12.024 0.929944 7.43669 9.44915C0.466425 22.3471 2.01538 42.5728 2.46219 55.1133C3.20687 76.5603 2.28346 91.7519 2.46219 113.199C2.46219 131.548 2.46218 153.918 4.45794 173.28C5.14305 180.101 20.0666 184.48 26.2921 181.472C35.8539 176.855 33.4709 163.599 33.5603 154.663C33.739 135.033 33.7688 117.369 33.739 97.7392C40.3518 99.2285 49.3774 98.186 55.5732 98.2158C69.2456 98.2158 86.016 101.194 98.9735 96.0412C103.501 94.1944 107.91 90.9476 108.118 85.6455C109.191 69.4411 75.7393 72.7177 63.6158 72.807C54.203 72.807 43.6582 71.4071 34.2454 72.4198C34.2454 56.9304 34.2454 44.2111 34.4837 28.7217C52.3562 27.977 68.9478 28.1855 86.1351 28.9004C97.6628 29.4068 115.595 34.3813 123.429 22.7642C124.669 20.1372 125.297 17.2632 125.266 14.3584C125.235 11.4537 124.546 8.59378 123.25 5.99382Z" fill="#DDE11F" stroke="#478055" stroke-width="2.97874" stroke-linecap="round" stroke-linejoin="round"/>
<g style="mix-blend-mode:multiply">
<path d="M123.251 5.99309C122.862 5.30717 122.358 4.69269 121.762 4.17605C118.926 2.34341 115.566 1.49549 112.2 1.76328C113.024 3.36593 113.512 5.11965 113.635 6.91731C113.758 8.71497 113.513 10.5188 112.915 12.2187C109.936 23.2102 93.6427 22.4358 84.8256 22.3464C76.6638 22.3464 26.4422 18.9208 26.6209 26.5166C26.9188 38.6401 26.2933 50.704 25.9358 62.8275C24.8039 68.6063 28.1699 72.0319 36.0933 73.1638L36.5997 72.4489C35.8252 72.4489 35.021 72.4489 34.2465 72.6276C34.2465 57.1381 34.2465 44.4189 34.4848 28.9294C52.3573 28.1847 68.9489 28.3932 86.1362 29.1081C97.664 29.6145 115.596 34.589 123.43 22.9719C124.703 20.3173 125.349 17.4056 125.318 14.4617C125.287 11.5178 124.58 8.62032 123.251 5.99309Z" fill="#DDE11F"/>
</g>
<g style="mix-blend-mode:multiply">
<path d="M94.4168 73.8789C94.7146 74.2959 95.0423 74.6832 95.3104 75.13C97.7529 79.0024 98.2891 87.045 93.3742 89.428C83.1571 94.4918 69.5442 92.4067 58.642 91.8705C50.5398 91.1757 42.4038 90.9568 34.2759 91.2152C28.3184 91.6025 22.3609 91.2152 23.195 98.7217C23.4333 101.7 23.7609 104.679 24.1184 107.658C25.7865 125.322 24.1184 143.224 24.5056 160.918C24.6843 166.697 25.3099 175.603 22.9269 182.365C24.0878 182.258 25.2241 181.967 26.2929 181.501C35.8546 176.884 33.4716 163.628 33.561 154.692C33.7397 135.062 33.7695 117.398 33.7397 97.7684C40.3525 99.2578 49.3781 98.2153 55.5739 98.2451C69.2464 98.2451 86.0167 101.224 98.9742 96.0706C103.502 94.2238 107.91 90.9769 108.119 85.6748C108.596 78.7641 102.489 75.3981 94.4168 73.8789Z" fill="#DDE11F"/>
</g>
<path d="M221.878 29.3131C216.188 8.67037 186.848 0.895841 170.256 13.347C156.792 23.4449 155.869 42.1217 155.958 58.0281C150.131 57.6891 144.293 58.4883 138.771 60.3813C133.022 62.6452 127.988 75.0665 135.792 78.2538C141.749 80.5474 148.988 80.4581 155.869 80.4581C155.869 80.9049 155.869 81.3517 155.869 81.7985C155.601 98.1816 155.243 114.565 155.333 130.918C155.333 142.833 154.528 160.705 155.63 172.412C156.144 174.525 157.16 176.483 158.593 178.119C160.026 179.755 161.833 181.02 163.86 181.807C165.887 182.594 168.075 182.879 170.236 182.638C172.397 182.398 174.469 181.638 176.273 180.425C188.397 172.948 185.537 157.22 185.031 147.242C184.346 132.586 184.465 116.441 184.286 101.816C184.286 95.8582 184.614 89.2752 184.524 82.7219C191.285 83.3883 198.11 82.6997 204.601 80.6964C205.516 80.3688 206.356 79.8625 207.073 79.207C213.567 74.5304 215.801 61.3345 206.299 60.292C199.15 59.5771 191.912 59.4282 184.673 59.3388C184.673 58.6537 184.673 58.0282 184.673 57.3431C184.673 56.6579 184.673 56.0622 184.673 55.3771C184.852 49.9558 183.69 41.4663 188.129 38.1301C195.069 32.9173 198.971 39.7089 202.754 42.8365C208.712 47.7515 214.103 47.0962 219.465 40.1557C220.64 38.6373 221.466 36.8782 221.883 35.004C222.3 33.1297 222.298 31.1865 221.878 29.3131Z" fill="#DDE11F" stroke="#478055" stroke-width="2.97874" stroke-linecap="round" stroke-linejoin="round"/>
<g style="mix-blend-mode:multiply">
<path d="M206.328 60.0884L204.391 59.9395C204.881 61.8487 204.969 63.8385 204.651 65.7836C204.333 67.7287 203.615 69.5868 202.543 71.2408C201.472 72.8947 200.069 74.3087 198.423 75.3936C196.778 76.4784 194.925 77.2105 192.983 77.5438C188.191 78.4294 183.344 78.9867 178.476 79.2119C172.34 79.7481 175.497 94.8801 175.497 98.4248C176.153 112.723 176.659 126.842 176.123 141.14C175.766 150.91 177.702 172.476 169.719 182.485C172.051 182.256 174.296 181.481 176.272 180.221C188.395 172.745 185.536 157.017 185.029 147.038C184.344 132.383 184.464 116.238 184.285 101.612C184.285 95.6546 184.612 89.0716 184.523 82.5183C191.283 83.1847 198.109 82.4961 204.6 80.4928C205.515 80.1651 206.355 79.6589 207.072 79.0034C213.596 74.3268 215.83 61.0416 206.328 60.0884Z" fill="#DDE11F"/>
</g>
<g style="mix-blend-mode:multiply">
<path d="M221.877 29.3144C220.634 25.228 218.509 21.4643 215.653 18.2887C212.796 15.1131 209.278 12.603 205.345 10.9355C209.755 15.1353 212.37 20.8776 212.643 26.9612C212.465 36.7315 202.486 35.0932 195.665 33.3655C178.954 29.1655 176.481 43.9996 177.554 57.0465C178.06 63.3912 180.056 61.7827 184.643 57.5231V57.1359C184.643 56.4806 184.643 55.855 184.643 55.1699C184.822 49.7486 183.66 41.2592 188.099 37.923C195.039 32.7102 198.941 39.5017 202.724 42.6294C208.682 47.5443 214.073 46.889 219.435 39.9485C220.585 38.4573 221.4 36.7347 221.821 34.8991C222.243 33.0634 222.262 31.1582 221.877 29.3144Z" fill="#DDE11F"/>
</g>
</svg>
