<svg width="257" height="184" viewBox="0 0 257 184" fill="none" xmlns="http://www.w3.org/2000/svg">
<path d="M252.918 143.099C255.607 128.757 255.085 114.316 255.159 99.8251C255.158 99.4269 255.252 99.0341 255.433 98.6797C255.433 78.3623 255.234 56.5759 250.628 37.2047C247.64 24.581 234.244 34.7148 233.472 43.1057C233.472 44.1514 233.298 45.1723 233.223 46.1931C226.091 40.2448 217.064 37.0474 207.777 37.1798C180.388 37.4786 159.125 60.6593 157.208 87.1765C155.29 113.694 173.641 137.895 200.257 140.46C206.377 140.889 212.514 139.936 218.216 137.674C223.918 135.411 229.038 131.896 233.199 127.388C233.286 132.136 232.978 136.883 232.277 141.58C229.215 164.114 201.478 167.45 185.717 156.271C181.683 153.407 179.168 148.652 174.064 147.581C171.574 147.083 169.308 149.473 168.362 151.415C164.378 159.582 171.375 168.471 177.425 173.476C187.933 182.14 204.814 183.809 217.811 181.867C226.848 180.546 235.188 176.253 241.515 169.666C248.661 162.147 251.151 153.059 252.918 143.099ZM208.549 115.536C192.091 119.52 177.525 105.826 180.762 87.052C181.484 82.869 183.252 76.2459 186.264 73.0589C189.277 69.8718 195.253 66.137 199.535 65.9379C205.897 65.7734 212.164 67.5069 217.537 70.9176C231.979 82.147 227.098 111.054 208.549 115.536Z" fill="#3AB8D5" stroke="#009ADA" stroke-width="2.48988" stroke-linecap="round" stroke-linejoin="round"/>
<g style="mix-blend-mode:multiply">
<path d="M208.549 115.533C192.091 119.517 177.526 105.823 180.762 87.049C181.484 82.866 183.252 76.2429 186.265 73.0559C189.278 69.8688 195.253 66.1341 199.536 65.9349C205.664 65.8206 211.702 67.4249 216.965 70.566C213.845 65.928 209.117 62.6105 203.694 61.2539C197.519 60.2081 190.498 60.1583 185.02 63.7438C180.044 67.2354 176.13 72.0337 173.709 77.6093C171.288 83.1849 170.455 89.321 171.301 95.3403C172.77 108.786 181.26 120.239 195.926 119.567C200.839 119.514 205.624 117.997 209.67 115.21L208.549 115.533Z" fill="#7AD2F2"/>
</g>
<g style="mix-blend-mode:multiply">
<path d="M255.433 98.7532C255.433 78.4358 255.234 56.6494 250.628 37.2781C248.959 30.1571 243.955 30.3065 239.772 33.2694C248.113 40.3158 248.686 66.4844 248.337 72.8834C246.943 98.6287 252.022 127.959 242.66 152.559C235.688 170.81 214.425 181.791 195.352 180.77C193.535 180.77 191.792 180.446 190.099 180.197C199.074 182.781 208.502 183.393 217.736 181.99C226.774 180.669 235.114 176.376 241.44 169.789C248.611 162.32 250.976 153.182 252.844 143.222C255.533 128.881 255.01 114.439 255.085 99.9483C255.098 99.5268 255.218 99.1156 255.433 98.7532Z" fill="#7AD2F2"/>
</g>
<path d="M122.673 119.444C127.938 111.892 131.553 103.315 133.28 94.2718C134.45 88.6447 137.264 77.8635 132.259 73.1825C131.916 72.8694 131.541 72.5939 131.139 72.3608C124.043 68.4517 115.702 69.871 107.784 69.871C98.2973 69.871 88.537 69.2485 79.175 70.9416C77.5515 71.268 76.0545 72.0503 74.8595 73.1968C73.6644 74.3434 72.8209 75.8066 72.4275 77.4153C72.3181 77.875 72.235 78.3405 72.1785 78.8097C70.585 93.7489 89.6076 92.4293 106.265 91.7321C106.337 93.9404 105.938 96.1388 105.095 98.1809C104.572 99.2266 104.024 100.272 103.476 101.293C100.09 106.049 96.6042 110.829 90.9024 112.996C58.7083 125.271 18.9947 101.169 29.6763 64.3684C34.6561 47.3874 46.2091 32.2988 64.5346 29.0121C90.6534 24.2814 101.559 38.9716 115.428 55.3301C118.938 59.5131 126.084 55.853 128.026 52.2676C135.272 38.7226 124.068 25.1777 112.963 16.4133C99.9995 5.91613 83.5405 0.720433 66.9 1.87244C26.2403 3.96393 4.05546 41.7105 2.16315 74.0789C0.146352 107.169 16.7787 136.998 54.7743 144.044C78.9012 148.551 107.834 139.762 122.673 119.444Z" fill="#3AB8D5" stroke="#009ADA" stroke-width="2.48988" stroke-linecap="round" stroke-linejoin="round"/>
<g style="mix-blend-mode:multiply">
<path d="M132.309 73.131C131.966 72.8179 131.59 72.5424 131.189 72.3094C124.092 68.4003 115.751 69.8195 107.834 69.8195C98.3471 69.8195 88.5867 69.197 79.2248 70.8901C78.2526 71.085 77.3243 71.4563 76.486 71.9857C76.486 74.4756 78.677 76.7911 83.6568 76.9654C87.673 77.0599 91.6896 76.7932 95.658 76.1687C100.915 74.9854 106.28 74.343 111.668 74.2515C117.469 74.5752 124.466 76.2932 126.607 82.5179C131.836 97.4571 117.27 116.604 108.008 127.062C99.7124 135.843 88.9608 141.917 77.1582 144.491C94.911 142.225 112.265 133.71 122.673 119.443C127.938 111.89 131.553 103.313 133.28 94.2701C134.5 88.5932 137.314 77.812 132.309 73.131Z" fill="#7AD2F2"/>
</g>
<g style="mix-blend-mode:multiply">
<path d="M64.4097 29.0392C82.8098 25.7028 93.6657 31.9772 103.302 41.7127C100.189 34.3924 89.5076 26.9726 84.9263 25.5534C75.8133 22.7398 64.808 21.0467 55.4461 23.9599C46.7462 26.7568 38.9312 31.785 32.7801 38.5434C26.629 45.3017 22.3566 53.5542 20.3887 62.4782C16.1061 82.1482 21.758 104.308 39.959 115.363C52.4084 122.833 74.17 124.626 85.8724 114.616C54.724 122.758 19.5172 99.3035 29.651 64.3954C34.6556 47.4394 46.2585 32.3507 64.4097 29.0392Z" fill="#7AD2F2"/>
</g>
</svg>
