<svg width="189" height="145" viewBox="0 0 189 145" fill="none" xmlns="http://www.w3.org/2000/svg">
<path d="M87.7488 71.5866C87.0263 71.6507 86.3124 71.788 85.6184 71.9965C76.7388 74.5299 75.1175 87.3837 66.4076 91.0349C57.6118 94.6663 47.7764 94.9975 38.7508 91.9663C21.4817 85.5394 16.9194 64.0234 21.7834 48.2823C23.2801 43.082 25.8473 38.243 29.3244 34.0686C33.3212 29.5233 40.8057 24.3073 46.8951 23.0964C66.0871 19.3707 74.0995 31.0508 84.2799 44.3703C86.8627 47.7607 92.1226 44.7987 93.5177 41.9113C98.853 30.9577 90.6332 20.0041 82.4512 12.9066C77.9396 8.77791 72.6237 5.60126 66.828 3.57063C61.0324 1.54 54.8786 0.697992 48.7426 1.09604C18.8801 2.80987 2.59141 33.3794 1.12091 59.4967C-0.368452 86.266 11.8669 110.371 39.7688 116.072C47.4798 117.494 55.419 117.136 62.9669 115.026C70.5147 112.916 77.4669 109.111 83.2807 103.907C88.9365 98.9148 94.7054 91.3888 96.7226 84.105C98.3251 78.3116 94.8751 70.9719 87.7488 71.5866Z" fill="#7BC043" stroke="#4A7F29" stroke-linecap="round" stroke-linejoin="round"/>
<g style="mix-blend-mode:multiply" opacity="0.4">
<path d="M87.7483 71.5868C87.0258 71.6508 86.312 71.7881 85.618 71.9966C76.7384 74.5301 75.1171 87.3838 66.4072 91.035C57.6114 94.6664 47.7759 94.9976 38.7503 91.9664C21.4813 85.5396 16.9189 64.0235 21.7829 48.2824C23.2796 43.0821 25.8469 38.2432 29.324 34.0688C33.3207 29.5234 40.8053 24.3074 46.8947 23.0965C66.0867 19.3708 74.099 31.0509 84.2794 44.3704C86.8622 47.7608 92.1221 44.7988 93.5172 41.9114C96.873 35.0188 94.8746 28.1262 90.8779 22.2023C90.4078 23.7381 89.3734 25.0446 87.978 25.865C86.5826 26.6854 84.927 26.9604 83.3368 26.636C77.9638 26.1702 72.5154 21.2523 67.7834 19.0355C58.7152 14.7882 48.7988 14.2107 39.8815 19.3149C16.3345 32.8393 5.94672 73.5241 28.9281 92.5253C42.7471 103.889 57.2071 99.9767 71.5162 92.1713C77.945 88.7064 83.7139 93.4008 81.5835 100.107C80.1319 104.708 75.9277 108.714 71.1769 111.787C75.5579 109.721 79.6305 107.07 83.2802 103.907C88.936 98.9149 94.7049 91.3889 96.7222 84.1052C98.3247 78.3117 94.8746 70.972 87.7483 71.5868Z" fill="#6EAE3C"/>
</g>
<path d="M172.925 84.962C169.456 90.7927 168.513 93.6243 162.706 97.6108C156.9 101.597 150.15 101.448 143.609 99.2501C133.372 95.8038 129.167 89.0603 127.584 78.9822C123.964 55.9014 152.582 39.6386 169.55 54.765C171.774 56.7769 174.282 61.7135 177.43 62.3096C179.711 62.7194 184.236 61.2105 185.348 58.9751C190.514 48.6176 178.656 39.5455 170.511 35.8384C155.015 28.7595 131.317 31.1812 121.363 46.2145C114.576 56.4416 110.73 71.2327 113.256 83.3227C116.442 98.5795 126.886 111.582 142.383 115.83C161.801 121.139 185.16 107.763 187.912 88.2965C188.912 81.3108 175.564 80.5098 172.925 84.962Z" fill="#7BC043" stroke="#4A7F29" stroke-linecap="round" stroke-linejoin="round"/>
<g style="mix-blend-mode:multiply" opacity="0.4">
<path d="M172.925 84.9618C169.456 90.7925 168.514 93.6241 162.707 97.6106C156.9 101.597 150.151 101.448 143.609 99.2499C133.372 95.8036 129.168 89.0601 127.585 78.982C123.965 55.9012 152.583 39.6384 169.551 54.7648C171.775 56.7767 174.283 61.7133 177.431 62.3094C179.712 62.7192 184.237 61.2103 185.349 58.9749C188.497 52.6784 185.349 46.8477 180.523 42.4141C180.701 43.2159 180.704 44.046 180.531 44.8491C180.359 45.6522 180.016 46.4097 179.524 47.0712C174.716 53.5353 170.267 48.9341 164.027 46.9222C138.858 39.0423 112.144 67.6558 127.094 91.37C133.504 101.541 147.154 109.458 159.521 104.41C164.95 102.212 167.929 98.3557 172.473 95.0957C173.311 94.6647 174.242 94.4396 175.187 94.4396C176.133 94.4396 177.064 94.6647 177.902 95.0957C181.239 96.9586 180.994 101.057 179.788 104.41C184.16 99.9124 187.013 94.1845 187.951 88.0169C188.912 81.3106 175.565 80.5095 172.925 84.9618Z" fill="#6EAE3C"/>
</g>
</svg>
