<svg width="288" height="185" viewBox="0 0 288 185" fill="none" xmlns="http://www.w3.org/2000/svg">
<path d="M285.751 112.892C285.751 108.566 285.398 104.27 285.015 99.9451C284.649 94.4072 283.792 88.9126 282.455 83.5261C278.159 67.9898 262.712 57.6912 247.146 56.4553C237.198 55.4554 227.17 57.2916 218.221 61.7518C216.632 62.5462 207.982 66.7245 207.923 68.6666C208.246 52.3653 209.335 31.9151 208.364 17.2616C207.834 9.40522 197.183 -4.6892 185.795 4.99152C173.054 15.8198 177.88 39.183 178.41 53.66C179.145 74.8163 178.263 94.6486 178.41 115.834C178.557 133.931 176.115 160.177 181.852 177.626C183.971 184.041 194.328 183.511 200.478 180.569C209.924 175.978 207.57 162.914 207.658 154.086C207.658 144.278 207.717 134.47 207.834 124.662C207.834 119.689 207.834 114.716 207.834 109.743C207.834 102.034 208.864 95.443 214.367 89.7052C218.605 84.7643 224.235 81.2163 230.521 79.5243C234.718 78.8402 239.005 78.9199 243.174 79.7597C248.531 81.003 253.311 84.0205 256.738 88.3223C262.829 95.5019 260.711 106.948 260.77 115.658C260.917 133.754 258.327 152.174 261.27 175.714C262.094 182.275 273.863 183.335 278.924 181.599C287.458 178.833 285.81 170.005 285.869 162.62C285.869 151.35 286.163 140.08 286.045 128.811C285.957 123.661 285.898 118.277 285.751 112.892Z" fill="#95488B" stroke="#602478" stroke-width="2.94247" stroke-linecap="round" stroke-linejoin="round"/>
<g style="mix-blend-mode:multiply">
<path d="M256.797 88.5007C259.304 91.731 260.753 95.6564 260.946 99.7409C260.681 83.0865 243.644 68.8449 224.342 74.1414C192.445 82.9688 199.684 124.87 201.361 149.822C201.949 158.355 200.978 176.892 192.534 182.63C195.305 182.441 198.019 181.743 200.537 180.571C209.982 175.98 207.628 162.916 207.717 154.088C207.717 144.28 207.776 134.472 207.893 124.664C207.893 119.691 207.893 114.718 207.893 109.745C207.893 102.036 208.923 95.4449 214.426 89.707C218.664 84.7661 224.294 81.2181 230.58 79.5261C234.777 78.842 239.063 78.9217 243.232 79.7615C248.614 81.0514 253.398 84.1331 256.797 88.5007Z" fill="#B69AC9"/>
</g>
<g style="mix-blend-mode:multiply">
<path d="M202.921 29.7932C203.686 40.9745 203.539 52.1854 203.186 63.3962C203.186 65.4854 203.039 67.5745 203.186 69.6931C207.1 72.4884 209.718 72.1353 210.984 68.6043C211.807 67.192 212.602 65.6619 213.367 64.3378C210.719 65.8384 208.041 67.5745 208.012 68.6632C208.335 52.3619 209.424 31.9118 208.453 17.2582C208.071 11.697 202.568 3.04613 195.447 1.86914C200.538 9.34302 202.303 21.0834 202.921 29.7932Z" fill="#B69AC9"/>
</g>
<g style="mix-blend-mode:multiply">
<path d="M286.015 129.073C286.015 123.659 286.015 118.275 285.751 112.89C285.751 108.564 285.398 104.268 285.015 99.9429C284.649 94.4051 283.792 88.9105 282.455 83.524C278.865 70.5182 267.449 61.22 254.708 57.7773C257.915 59.5723 260.21 63.2209 263.035 65.3101C280.072 78.051 281.131 94.9702 281.896 114.508C282.573 131.339 291.282 162.47 278.542 176.653C276.441 179.051 273.879 181.003 271.009 182.391C273.647 182.738 276.327 182.558 278.895 181.861C287.428 179.095 285.78 170.268 285.839 162.882C285.898 151.613 286.133 140.343 286.015 129.073Z" fill="#B69AC9"/>
</g>
<path d="M141.894 76.5818C141.894 59.4861 143.541 34.4162 142.394 17.2616C141.864 9.40522 131.242 -4.6892 119.825 4.99152C107.084 15.8198 111.939 39.183 112.44 53.66C112.616 59.1035 112.675 64.4 112.704 69.6965C108.938 69.5199 105.083 69.5199 101.229 69.6965C91.4009 69.4905 81.6025 69.2845 71.8041 69.1668C59.6223 68.9902 48.2643 69.5493 34.0228 69.5493C34.2582 53.0126 34.2876 32.4154 33.2872 17.3205C32.7575 9.46409 22.1057 -4.63036 10.7184 5.05036C-2.02253 15.8787 2.80309 39.2419 3.33274 53.7188C4.06836 74.8752 3.18561 94.7075 3.33274 115.893C3.47986 133.989 1.03765 160.236 6.77547 177.685C8.89405 184.1 19.2515 183.57 25.4013 180.628C34.8466 176.037 32.4926 162.973 32.5809 154.145C32.7574 134.813 32.7869 121.396 32.7869 102.064C40.3491 102.882 47.9623 103.128 55.5616 102.799C73.4812 102.27 92.3719 105.389 110.733 103.535C110.733 109.891 109.938 112.362 109.997 118.983C110.144 137.079 110.144 160.177 115.882 177.597C118.001 184.011 128.388 183.482 134.508 180.539C143.953 175.949 141.599 162.884 141.688 154.057C141.943 128.261 142.011 102.436 141.894 76.5818Z" fill="#95488B" stroke="#602478" stroke-width="2.94247" stroke-linecap="round" stroke-linejoin="round"/>
<g style="mix-blend-mode:multiply">
<path d="M110.763 103.565C110.763 104.683 110.763 105.654 110.763 106.507C125.063 93.5013 95.4032 91.5887 85.8402 92.4715C64.5073 94.4135 46.6465 98.7095 25.4313 94.5606C25.4313 109.038 26.6966 123.485 26.8437 137.962C26.8437 148.349 28.1384 162.355 22.6654 171.8C18.7225 178.598 13.9851 181.099 9.21826 180.628C13.1906 183.57 20.6645 182.746 25.5196 180.422C34.9649 175.832 32.6109 162.767 32.6992 153.94C32.8758 134.608 32.9052 121.19 32.9052 101.858C40.4674 102.677 48.0806 102.922 55.6799 102.594C73.5113 102.299 92.4019 105.418 110.763 103.565Z" fill="#B69AC9"/>
</g>
<g style="mix-blend-mode:multiply">
<path d="M24.8711 23.2627C25.8716 33.7967 25.7833 44.3601 25.8127 54.953C25.8127 59.0136 25.8127 63.1037 26.0187 67.1643C26.4012 73.0493 29.9911 71.9311 34.0222 68.459C34.2576 52.1283 34.2576 32.0606 33.2866 17.26C32.8747 11.3751 26.4894 1.54721 18.3976 1.75319C22.7231 7.46158 24.2532 16.4361 24.8711 23.2627Z" fill="#B69AC9"/>
</g>
<g style="mix-blend-mode:multiply">
<path d="M141.893 76.5818C141.893 59.4861 143.541 34.4162 142.394 17.2616C141.864 9.40522 131.242 -4.6892 119.825 4.99152C119.041 5.65725 118.313 6.38544 117.648 7.16894C121.673 7.38174 125.45 9.18035 128.152 12.1712C136.685 20.3806 136.244 36.2994 135.744 46.9511C134.979 64.194 134.949 81.3486 134.949 98.5915V131.812C134.949 139.727 136.479 148.202 135.42 156.029C134.243 164.856 130.8 173.007 122.473 177.185C120.641 178.141 118.644 178.74 116.588 178.95C119.531 183.923 128.917 183.305 134.596 180.569C144.041 175.978 141.688 162.914 141.776 154.086C141.972 128.271 142.011 102.436 141.893 76.5818Z" fill="#B69AC9"/>
</g>
</svg>
