<svg width="105" height="185" viewBox="0 0 105 185" fill="none" xmlns="http://www.w3.org/2000/svg">
<path d="M32.7924 77.3082C32.7924 60.2094 34.4406 35.135 33.2928 17.9773C32.7631 10.1195 22.1388 -3.97747 10.7199 5.70501C-2.02325 16.5352 2.80324 39.9027 3.33298 54.3822C4.06873 75.5424 3.18583 95.3783 3.33298 116.568C3.48013 134.667 1.00805 160.919 6.77633 178.371C8.89529 184.787 19.2546 184.257 25.4055 181.314C34.8525 176.723 32.4981 163.656 32.5864 154.827C32.8415 129.007 32.9102 103.167 32.7924 77.3082Z" fill="#FEDC36" stroke="#DE953D" stroke-width="2.943" stroke-linecap="round" stroke-linejoin="round"/>
<g style="mix-blend-mode:multiply">
<path d="M32.7919 77.3082C32.7919 60.2094 34.44 35.135 33.2923 17.9773C32.7625 10.1195 22.1383 -3.97747 10.7194 5.70501C9.76525 6.53614 8.88851 7.45224 8.1001 8.442C15.4282 9.17775 21.4025 14.9755 23.0506 26.2766C25.9936 45.7887 24.2866 66.4191 23.492 86.0195C22.6091 107.592 23.492 129.282 22.462 150.766C21.9322 160.889 23.6687 175.899 14.9868 183.315C18.5837 183.47 22.1656 182.764 25.4344 181.255C34.8815 176.664 32.5271 163.597 32.6153 154.768C32.8508 128.987 32.9096 103.167 32.7919 77.3082Z" fill="#FECF6C"/>
</g>
<path d="M101.511 111.269C101.511 99.497 103.071 82.457 101.982 70.7439C101.409 68.6081 100.344 66.6359 98.873 64.9848C97.4018 63.3337 95.5651 62.0494 93.5093 61.2345C91.4534 60.4196 89.2356 60.0967 87.0327 60.2915C84.8299 60.4862 82.7031 61.1933 80.8222 62.3563C68.8441 69.7432 71.6694 85.2823 72.1697 95.1413C72.8466 109.621 72.7289 125.572 72.876 140.022C73.0232 152.412 70.8159 167.48 76.2016 179.399C78.1734 183.785 88.8566 184.314 94.6248 182.342C103.454 179.223 101.247 170.276 101.335 164.302C101.57 146.605 101.629 128.927 101.511 111.269Z" fill="#FEDC36" stroke="#DE953D" stroke-width="2.943" stroke-linecap="round" stroke-linejoin="round"/>
<path d="M87.8264 13.4746C68.4026 13.4746 63.4877 49.6147 86.2077 49.6147C105.661 49.6147 110.546 13.4746 87.8264 13.4746Z" fill="#FEDC36" stroke="#DE953D" stroke-width="2.943" stroke-linecap="round" stroke-linejoin="round"/>
<g style="mix-blend-mode:multiply">
<path d="M101.512 111.269C101.512 99.497 103.072 82.457 101.983 70.7439C101.41 68.6081 100.345 66.6359 98.8735 64.9848C97.4024 63.3337 95.5656 62.0494 93.5098 61.2345C91.454 60.4196 89.2361 60.0967 87.0333 60.2915C84.8304 60.4862 82.7036 61.1933 80.8227 62.3563C80.1884 62.75 79.579 63.1824 78.998 63.6512C83.2395 67.3824 86.0318 72.4878 86.8853 78.0719C91.5352 100.91 86.8853 125.16 87.2384 148.233C87.2384 156.356 87.2384 171.983 83.4419 183.167C87.1894 183.696 91.0074 183.394 94.6254 182.284C103.454 179.164 101.247 170.217 101.335 164.243C101.571 146.585 101.63 128.927 101.512 111.269Z" fill="#FECF6C"/>
<path d="M87.8267 13.4746C83.9891 13.475 80.3034 14.9746 77.5556 17.6537C80.2855 18.7175 82.6519 20.544 84.3725 22.9154C86.0931 25.2868 87.0954 28.1031 87.2598 31.0283C87.4242 33.9536 86.7439 36.8644 85.2998 39.4137C83.8558 41.963 81.7089 44.0432 79.1154 45.4062C78.2378 45.8206 77.3209 46.146 76.3784 46.3774C79.1626 48.5969 82.6498 49.7454 86.208 49.6147C105.661 49.6147 110.547 13.4746 87.8267 13.4746Z" fill="#FECF6C"/>
</g>
</svg>
