<svg width="152" height="184" viewBox="0 0 152 184" fill="none" xmlns="http://www.w3.org/2000/svg">
<path d="M94.5788 73.2442C94.5788 59.1269 94.5788 44.9603 94.4063 30.843C94.4063 26.2851 94.2585 21.7518 93.9382 17.1939C93.4947 10.6403 84.6007 -1.1857 75.066 6.92004C64.3733 16.0113 68.4384 35.5734 68.8573 47.6704C69.4239 63.3399 68.8573 78.1717 68.8573 93.6194C68.7556 94.0318 68.6897 94.4522 68.6602 94.8759C68.537 110.816 61.811 123.406 49.2458 125.796C44.7085 126.447 40.0809 125.676 35.9997 123.59C31.9185 121.503 28.5844 118.202 26.4562 114.142C23.0316 107.983 23.4751 99.9759 19.336 94.2353C18.2897 92.8839 16.8301 91.9116 15.1799 91.4668C13.5296 91.022 11.7792 91.129 10.1954 91.7716C-0.719003 95.6397 1.32591 111.482 4.65197 119.883C10.6389 135.158 25.0025 147.575 41.6082 149.3C49.2953 150.111 57.0612 148.914 64.1474 145.826C71.2337 142.739 77.3981 137.866 82.0384 131.684C84.5015 128.465 86.5308 124.937 88.0745 121.189C90.2593 115.741 91.8536 110.075 92.8296 104.287C93.9543 97.1236 94.5145 89.8826 94.505 82.6311C94.5542 79.4528 94.5542 76.4717 94.5788 73.2442Z" fill="#6E9ED4" stroke="#1A6CB5" stroke-width="2.46375" stroke-linecap="round" stroke-linejoin="round"/>
<g style="mix-blend-mode:multiply">
<path d="M12.3642 91.2575C9.90042 104.241 19.9279 117.644 31.5568 123.606C36.1886 126.07 43.1857 128.362 48.3596 126.07C43.9551 126.509 39.5201 125.619 35.6255 123.516C31.7309 121.413 28.5548 118.192 26.5061 114.269C23.0815 108.109 23.525 100.102 19.3859 94.3618C18.6008 93.2628 17.535 92.395 16.2998 91.8489C15.0646 91.3028 13.7053 91.0985 12.3642 91.2575Z" fill="#78A5D8"/>
</g>
<g style="mix-blend-mode:multiply">
<path d="M94.4065 30.843C94.4065 26.2851 94.2587 21.7518 93.9384 17.1939C93.4949 10.6403 84.6008 -1.1857 75.0661 6.92004C74.5576 7.37132 74.0724 7.84827 73.6125 8.34902C74.6472 8.67842 75.627 9.16003 76.5197 9.778C85.0443 15.6417 86.7689 25.5213 87.1877 35.3517C87.8776 52.3023 84.8719 68.9573 84.5023 85.8339C84.2313 98.9904 83.9356 114.931 76.4212 126.313C71.478 133.504 64.6608 139.204 56.7086 142.796C48.7565 146.387 39.9728 147.734 31.3099 146.689C34.6266 147.964 38.098 148.792 41.6331 149.152C49.3201 149.963 57.086 148.766 64.1723 145.678C71.2585 142.591 77.4228 137.718 82.0631 131.536C84.5262 128.317 86.5557 124.789 88.0993 121.041C90.2841 115.593 91.8783 109.927 92.8543 104.14C93.979 96.9758 94.5393 89.7347 94.5298 82.4832C94.5298 79.3789 94.5298 76.2746 94.5298 73.1703C94.6037 59.2254 94.579 44.9603 94.4065 30.843Z" fill="#78A5D8"/>
</g>
<path d="M137.817 177.489C150.136 168.299 149.767 150.388 149.619 136.64C149.619 131.45 149.619 126.251 149.619 121.044C149.84 107.494 150.136 93.9433 150.062 80.4173C150.062 70.5623 150.727 55.903 149.816 46.0972C149.391 44.3494 148.551 42.73 147.365 41.377C146.18 40.024 144.686 38.9775 143.009 38.3267C141.332 37.6758 139.523 37.4398 137.735 37.6389C135.947 37.8379 134.234 38.466 132.742 39.4697C122.714 45.6538 125.08 58.6623 125.498 66.9159C126.065 79.0376 125.967 92.3911 126.09 104.513C126.09 111.362 125.425 119.295 126.09 126.686C125.794 130.062 125.572 133.412 125.597 136.788C125.597 138.217 125.597 139.769 125.745 141.297C125.745 141.839 125.745 142.356 125.745 142.923C125.622 147.407 126.583 154.428 122.912 157.188C117.171 161.499 113.944 155.882 110.815 153.295C105.887 149.23 101.428 149.772 96.993 155.512C96.0541 156.752 95.3941 158.179 95.0582 159.697C94.7222 161.215 94.7182 162.788 95.0466 164.308C99.8263 181.357 124.094 187.787 137.817 177.489Z" fill="#6E9ED4" stroke="#1A6CB5" stroke-width="2.46375" stroke-linecap="round" stroke-linejoin="round"/>
<path d="M139.345 1.42773C126.608 1.42773 123.38 25.1043 138.286 25.1043C151.023 25.1043 154.226 1.42773 139.345 1.42773Z" fill="#6E9ED4" stroke="#1A6CB5" stroke-width="2.46375" stroke-linecap="round" stroke-linejoin="round"/>
<g style="mix-blend-mode:multiply">
<path d="M114.239 162.828C119.512 165.143 124.834 160.364 125.449 155.732C118.477 161.054 113.894 155.732 110.889 153.268C107.292 150.262 103.916 149.794 100.615 152.036C105.912 153.638 109.164 160.61 114.239 162.828Z" fill="#78A5D8"/>
</g>
<g style="mix-blend-mode:multiply">
<path d="M149.89 46.0932C149.372 43.9307 148.221 41.9717 146.584 40.4665C144.947 38.9612 142.898 37.9781 140.7 37.6426C145.628 45.7729 145.948 61.0728 145.628 67.9467C145.036 83.5915 143.706 99.1377 143.607 114.758C143.607 129.048 144.815 151.862 139.788 165.536C136.709 173.888 129.933 176.721 121.975 182.363C127.633 182.461 133.171 180.733 137.768 177.436C150.087 168.246 149.717 150.334 149.569 136.587C149.569 131.396 149.569 126.198 149.569 120.991C149.791 107.441 150.087 93.89 150.013 80.364C150.087 70.6322 150.801 55.8989 149.89 46.0932Z" fill="#78A5D8"/>
</g>
<g style="mix-blend-mode:multiply">
<path d="M139.345 1.42819C138.583 1.42076 137.822 1.50346 137.079 1.67456C138.585 2.79462 139.815 4.24407 140.676 5.91222C142.174 8.52193 142.839 11.5265 142.584 14.5246C142.329 17.5227 141.164 20.3715 139.247 22.6903C138.484 23.5069 137.66 24.2646 136.783 24.957C137.289 25.033 137.799 25.0824 138.311 25.1048C151.024 25.1048 154.226 1.42819 139.345 1.42819Z" fill="#78A5D8"/>
</g>
</svg>
