<svg width="276" height="182" viewBox="0 0 276 182" fill="none" xmlns="http://www.w3.org/2000/svg">
<g clip-path="url(#clip0_4570_50934)">
<path d="M254.5 129.857C247.988 120.396 242.09 111.022 236.191 101.561C245.389 93.4429 254.997 84.9452 262.005 77.7032C267.349 72.2133 271.817 56.7949 258.851 56.6781C244.251 56.6781 230.175 74.8415 220.101 84.7116C213.531 91.136 206.989 97.2099 200.419 103.196C200.419 94.0561 200.419 84.9453 200.419 75.8052C200.419 58.839 202.025 33.9593 200.886 16.9348C200.39 9.13793 189.819 -4.84963 178.518 4.75769C165.844 15.5039 170.663 38.6899 171.159 53.0571C171.918 74.0822 171.159 93.7349 171.159 114.76C171.305 132.719 168.852 158.767 174.546 176.083C176.649 182.449 186.957 181.924 193.06 179.004C202.434 174.448 200.069 161.483 200.156 152.722C200.156 146.531 200.156 140.341 200.156 134.15C205.588 129.127 211.078 124.105 216.48 119.053L220.218 124.893C229.3 138.997 241.243 160.548 251.201 174.215C255.727 180.434 271.116 187.034 274.562 173.601C278.475 158.446 262.531 141.538 254.5 129.857Z" fill="#EE5A82" stroke="#B2327A" stroke-width="2.92016" stroke-linecap="round" stroke-linejoin="round"/>
<g style="mix-blend-mode:multiply">
<path d="M200.331 134.09C205.237 129.534 213.034 123.694 217.852 119.139C216.713 114.817 208.829 116.014 204.215 120.277C197.382 126.585 193.439 132.776 193.731 142.558C194.14 155.261 197.206 167.818 191.483 179.498L193.031 178.856C202.404 174.3 200.039 161.335 200.127 152.574C200.243 146.442 200.312 140.281 200.331 134.09Z" fill="#EF4D8B"/>
</g>
<g style="mix-blend-mode:multiply">
<path d="M193.908 18.6547C194.404 35.3288 194.317 52.0905 194.433 68.7646C194.433 81.7593 191.513 96.0389 193.733 108.975C197.223 107.085 200.223 104.405 202.493 101.149L200.449 103.047C200.449 93.9072 200.449 84.7963 200.449 75.6562C200.449 58.6901 202.055 33.8103 200.916 16.7858C200.507 10.4491 193.441 0.0241042 184.739 1.48418C187.49 3.44248 189.751 6.01225 191.342 8.99157C192.933 11.9709 193.811 15.2786 193.908 18.6547Z" fill="#EF4D8B"/>
</g>
<g style="mix-blend-mode:multiply">
<path d="M254.501 129.851C247.989 120.39 242.09 111.016 236.192 101.555C245.39 93.4366 254.998 84.939 262.006 77.697C266.678 72.8787 270.766 60.4388 262.911 57.2559C263.723 58.8868 263.889 60.7637 263.378 62.5122C260.283 71.2726 253.012 76.3245 246.179 82.2232C240.163 87.3919 234.498 92.8818 228.658 98.5177C237.973 109.235 244.602 121.704 252.019 133.852C257.567 143.138 271.146 156.658 271 168.047C271.108 172.857 269.516 177.552 266.503 181.304C268.527 181.131 270.433 180.282 271.916 178.895C273.399 177.507 274.372 175.661 274.679 173.653C278.476 158.439 262.532 141.532 254.501 129.851Z" fill="#EF4D8B"/>
</g>
<g style="mix-blend-mode:multiply">
<path d="M118.275 127.08C105.923 110.056 95.673 93.265 83.8171 75.9192C82.5322 74.0795 81.2182 72.0646 79.875 70.0789L84.372 65.6987C96.4906 53.8428 115.53 37.7527 126.977 25.0501C132.204 19.2097 134.891 1.92239 120.115 0.520714C103.587 -1.08537 90.2999 18.5089 80.3421 28.8755C65.7413 44.0311 51.1406 57.1134 36.1018 71.8602C34.3789 73.5539 32.51 75.3352 30.5534 77.1749V76.1528C30.5534 59.1867 32.1887 34.3069 31.0498 17.2824C30.5242 9.48559 19.9825 -4.50196 8.65226 5.10536C-3.99203 15.8515 0.797004 39.0376 1.32263 53.4048C2.05267 74.4008 1.32263 94.0826 1.32263 115.108C1.32263 133.067 -0.984343 159.115 4.73917 176.431C6.84168 182.797 17.1207 182.271 23.2238 179.351C32.5975 174.796 30.2614 161.83 30.349 153.07C30.349 141.253 30.4172 129.426 30.5534 117.59C39.898 108.654 49.2328 99.6893 58.5578 90.6952C66.0919 102.006 73.6647 113.278 81.2766 124.511C90.8255 138.615 103.324 160.166 113.778 173.657C118.538 179.818 135.124 185.542 139.154 171.262C143.651 155.26 126.714 138.615 118.275 127.08Z" fill="#EF4D8B"/>
</g>
<path d="M118.275 127.08C105.923 110.056 95.673 93.265 83.8171 75.9192C82.5322 74.0795 81.2182 72.0646 79.875 70.0789L84.372 65.6987C96.4906 53.8428 115.53 37.7527 126.977 25.0501C132.204 19.2097 134.891 1.92239 120.115 0.520714C103.587 -1.08537 90.2999 18.5089 80.3421 28.8755C65.7413 44.0311 51.1406 57.1134 36.1018 71.8602C34.3789 73.5539 32.51 75.3352 30.5534 77.1749V76.1528C30.5534 59.1867 32.1887 34.3069 31.0498 17.2824C30.5242 9.48559 19.9825 -4.50196 8.65226 5.10536C-3.99203 15.8515 0.797004 39.0376 1.32263 53.4048C2.05267 74.4008 1.32263 94.0826 1.32263 115.108C1.32263 133.067 -0.984343 159.115 4.73917 176.431C6.84168 182.797 17.1207 182.271 23.2238 179.351C32.5975 174.796 30.2614 161.83 30.349 153.07C30.349 141.253 30.4172 129.426 30.5534 117.59C39.898 108.654 49.2328 99.6893 58.5578 90.6952C66.0919 102.006 73.6647 113.278 81.2766 124.511C90.8255 138.615 103.324 160.166 113.778 173.657C118.538 179.818 135.124 185.542 139.154 171.262C143.651 155.26 126.714 138.615 118.275 127.08Z" fill="#EE5A82" stroke="#B2327A" stroke-width="2.92016" stroke-linecap="round" stroke-linejoin="round"/>
<g style="mix-blend-mode:multiply">
<path d="M20.1577 117.443C21.1214 129.707 19.5737 141.797 20.1577 154.12C20.4789 162.734 21.3258 171.349 21.6763 179.963L23.3408 179.263C32.7145 174.707 30.3782 161.742 30.4658 152.981C30.4658 141.164 30.5339 129.338 30.6702 117.501C40.0147 108.565 49.3496 99.6006 58.6746 90.6065L58.9373 91.0153C58.3867 88.5276 57.6147 86.0942 56.6305 83.7441C43.1685 93.6143 33.3568 107.368 20.1577 117.443Z" fill="#EF4D8B"/>
</g>
<g style="mix-blend-mode:multiply">
<path d="M20.6546 8.87104C24.8888 19.004 22.0271 32.5535 21.9395 43.2121C21.8032 57.5793 21.8714 71.9367 22.1439 86.2844C25.5694 83.6392 28.5301 80.4416 30.9044 76.8231C30.8096 76.9032 30.7218 76.9911 30.6417 77.0859V76.0639C30.6417 59.0978 32.2769 34.218 31.1381 17.1935C30.6708 10.4187 22.6404 -1.0283 13.1207 2.41749C14.8233 2.75979 16.4096 3.5327 17.7286 4.66248C19.0475 5.79226 20.0549 7.24121 20.6546 8.87104Z" fill="#EF4D8B"/>
</g>
<g style="mix-blend-mode:multiply">
<path d="M118.275 127.082C105.922 110.058 95.6728 93.267 83.8169 75.9213C82.5321 74.0816 81.2181 72.0667 79.8748 70.081L84.3718 65.7007C96.4904 53.8449 115.53 37.7548 126.977 25.0521C132.204 19.2118 134.89 1.92448 120.114 0.522801C117.864 0.320077 115.595 0.487771 113.398 1.01922C116.343 2.14795 118.798 4.27473 120.335 7.02853C121.872 9.78232 122.393 12.9883 121.808 16.0872C118.713 27.0086 108.375 34.7178 100.637 42.6899C90.6209 53.0272 81.5976 63.8318 70.7054 73.1763C84.7514 86.3755 94.7968 105.298 105.747 120.804C116.114 135.405 133.109 152.517 134.131 171.323C134.354 174.382 133.381 177.408 131.415 179.762C133.35 179.2 135.094 178.119 136.458 176.637C137.822 175.154 138.754 173.327 139.154 171.352C143.651 155.262 126.714 138.617 118.275 127.082Z" fill="#EF4D8B"/>
</g>
</g>
<defs>
<clipPath id="clip0_4570_50934">
<rect width="275.254" height="181.01" fill="white" transform="translate(0 0.427734)"/>
</clipPath>
</defs>
</svg>
