<svg width="177" height="185" viewBox="0 0 177 185" fill="none" xmlns="http://www.w3.org/2000/svg">
<path d="M174.479 77.0563C174.479 59.9317 176.13 34.8194 174.98 17.6358C174.45 9.76611 164.664 -3.99846 153.228 5.84601C140.466 16.6926 145.506 37.1479 144.975 54.2136C144.327 75.4352 144.975 95.2715 144.975 116.493C145.152 134.62 142.676 160.911 148.424 178.389C150.546 184.815 160.95 184.284 167.081 181.337C176.572 176.739 174.184 163.652 174.273 154.81C174.528 128.892 174.597 102.974 174.479 77.0563Z" fill="#F8971D" stroke="#D14C27" stroke-width="2.94745" stroke-linecap="round" stroke-linejoin="round"/>
<g style="mix-blend-mode:multiply">
<path d="M174.48 77.0563C174.48 59.9317 176.13 34.8194 174.981 17.6358C174.45 9.76611 164.665 -3.99846 153.229 5.84601C152.412 6.54981 151.644 7.30807 150.93 8.11556C155.911 9.08821 160.686 12.9199 164.164 20.3769C169.793 32.432 167.288 48.1124 166.492 60.8454C165.372 78.7953 166.993 95.0947 167.612 113.045C168.172 128.99 175.659 173.29 156.058 183.371C159.856 183.652 163.662 182.952 167.111 181.337C176.602 176.739 174.214 163.652 174.303 154.81C174.539 128.892 174.598 102.974 174.48 77.0563Z" fill="#FFC519"/>
</g>
<path d="M120.452 161.178C109.605 148.416 89.1207 153.456 72.055 152.925C58.4084 152.483 45.2922 152.572 32.0287 152.719C32.2449 129.847 32.2449 106.965 32.0287 84.0729C32.0287 67.6556 33.6793 43.6044 32.5298 27.1282C31.9992 19.6122 24.4832 8.14662 12.6935 14.9552C-1.57218 23.1786 2.55425 42.0423 2.55425 62.0849C2.55425 82.1275 3.14373 99.1048 3.32058 119.442C3.32058 136.596 3.32058 153.721 3.91007 170.875C3.91007 174.383 3.91007 178.273 7.24069 180.513C10.5713 182.753 16.083 182.665 20.2684 182.488H48.9765C66.1012 182.488 91.2134 184.139 108.426 182.989C116.237 182.4 130.002 172.614 120.452 161.178Z" fill="#F8971D" stroke="#D14C27" stroke-width="2.94745" stroke-linecap="round" stroke-linejoin="round"/>
<g style="mix-blend-mode:multiply">
<path d="M26.2818 51.7936C24.8081 74.6952 22.5386 97.479 22.5091 120.469C22.5091 130.903 22.1554 141.779 23.0986 152.154C24.4544 166.685 29.7009 158.373 32.2651 152.714H32.0293C32.2455 129.842 32.2455 106.96 32.0293 84.0681C32.0293 67.6509 33.6799 43.5997 32.5304 27.1235C32.0588 20.3149 25.8102 10.323 15.9068 13.5357C26.606 23.7634 27.225 37.5279 26.2818 51.7936Z" fill="#FFC519"/>
</g>
<g style="mix-blend-mode:multiply">
<path d="M120.452 161.175C117.275 157.535 113.04 154.979 108.338 153.865C109.161 156.513 109.461 159.296 109.223 162.059C108.515 172.375 96.46 174.144 88.4135 175.47C60.5544 179.66 32.2201 179.591 4.38184 175.264C4.49252 176.288 4.811 177.279 5.31779 178.176C5.82458 179.073 6.50903 179.857 7.32928 180.481C10.8367 182.986 16.1716 182.632 20.357 182.455H49.0651C66.1898 182.455 91.302 184.106 108.515 182.957C116.237 182.396 130.002 172.611 120.452 161.175Z" fill="#FFC519"/>
</g>
</svg>
