<svg width="388" height="185" viewBox="0 0 388 185" fill="none" xmlns="http://www.w3.org/2000/svg">
<g style="mix-blend-mode:multiply">
<path d="M386.057 127.637C386.057 122.083 386.057 116.53 385.783 110.946C385.783 106.516 385.419 102.055 385.025 97.6242C384.624 91.9034 383.731 86.2278 382.354 80.6606C377.954 64.6377 362.022 54.0164 345.939 52.7722C335.692 51.7374 325.361 53.6204 316.138 58.2042C315.471 58.5684 308.855 63.6362 304.425 66.853C296.965 58.6851 286.683 53.6527 275.656 52.7722C265.4 51.7315 255.058 53.6148 245.826 58.2042C244.187 59.0539 235.265 63.3328 235.235 65.366C235.235 63.3935 235.235 61.3299 235.235 59.2967C235.235 59.2967 235.235 59.0843 235.083 58.9325C233.627 51.1639 225.615 48.8879 218.575 50.3142C215.237 50.8063 212.135 52.3281 209.704 54.6673C207.272 57.0066 205.631 60.0465 205.01 63.3631C205.01 80.0536 204.555 97.5028 204.676 114.011C204.828 132.705 198.88 158.438 204.676 176.403C206.861 183.019 221.003 183.838 227.315 180.773C237.056 176.07 234.628 162.565 234.719 153.462C234.719 143.346 234.78 133.231 234.901 123.115C234.901 117.987 234.901 112.858 234.901 107.73C234.901 99.8091 235.963 93.0115 241.638 87.094C246.005 81.9871 251.812 78.3171 258.298 76.5638C262.627 75.8582 267.048 75.9405 271.347 76.8066C276.931 77.9294 278.934 80.1446 282.545 84.4235C288.827 91.828 287.036 104.3 287.097 113.253C287.249 131.916 282.545 150.427 283.304 177.739C283.486 184.536 302.998 183.626 308.127 181.957C316.958 179.074 315.228 169.97 315.289 162.383C315.289 147.028 315.653 131.855 314.56 116.56C313.741 105.029 312.315 90.5838 321.449 81.753C330.583 72.9222 347.426 75.9872 355.649 85.6374C361.931 93.0419 359.716 104.877 359.807 113.829C359.959 132.523 357.258 151.519 360.292 175.796C361.142 182.533 373.311 183.626 378.5 181.866C387.301 178.983 385.601 169.879 385.632 162.292C385.905 150.882 386.178 139.29 386.057 127.637Z" fill="#BAD532"/>
</g>
<path d="M386.057 127.637C386.057 122.083 386.057 116.53 385.783 110.946C385.783 106.516 385.419 102.055 385.025 97.6242C384.624 91.9034 383.731 86.2278 382.354 80.6606C377.954 64.6377 362.022 54.0164 345.939 52.7722C335.692 51.7374 325.361 53.6204 316.138 58.2042C315.471 58.5684 308.855 63.6362 304.425 66.853C296.965 58.6851 286.683 53.6527 275.656 52.7722C265.4 51.7315 255.058 53.6148 245.826 58.2042C244.187 59.0539 235.265 63.3328 235.235 65.366C235.235 63.3935 235.235 61.3299 235.235 59.2967C235.235 59.2967 235.235 59.0843 235.083 58.9325C233.627 51.1639 225.615 48.8879 218.575 50.3142C215.237 50.8063 212.135 52.3281 209.704 54.6673C207.272 57.0066 205.631 60.0465 205.01 63.3631C205.01 80.0536 204.555 97.5028 204.676 114.011C204.828 132.705 198.88 158.438 204.676 176.403C206.861 183.019 221.003 183.838 227.315 180.773C237.056 176.07 234.628 162.565 234.719 153.462C234.719 143.346 234.78 133.231 234.901 123.115C234.901 117.987 234.901 112.858 234.901 107.73C234.901 99.8091 235.963 93.0115 241.638 87.094C246.005 81.9871 251.812 78.3171 258.298 76.5638C262.627 75.8582 267.048 75.9405 271.347 76.8066C276.931 77.9294 278.934 80.1446 282.545 84.4235C288.827 91.828 287.036 104.3 287.097 113.253C287.249 131.916 282.545 150.427 283.304 177.739C283.486 184.536 302.998 183.626 308.127 181.957C316.958 179.074 315.228 169.97 315.289 162.383C315.289 147.028 315.653 131.855 314.56 116.56C313.741 105.029 312.315 90.5838 321.449 81.753C330.583 72.9222 347.426 75.9872 355.649 85.6374C361.931 93.0419 359.716 104.877 359.807 113.829C359.959 132.523 357.258 151.519 360.292 175.796C361.142 182.533 373.311 183.626 378.5 181.866C387.301 178.983 385.601 169.879 385.632 162.292C385.905 150.882 386.178 139.29 386.057 127.637Z" fill="#2CAE4E" stroke="#128869" stroke-width="3.03464" stroke-linecap="round" stroke-linejoin="round"/>
<g style="mix-blend-mode:multiply">
<path d="M248.375 72.9823C233.202 79.0515 227.709 91.4936 226.769 107.001C225.707 124.146 229.227 142.354 226.556 159.257C225.191 167.936 220.275 181.44 210.23 181.076C215.862 183.029 222.005 182.91 227.558 180.742C237.299 176.039 234.871 162.534 234.962 153.431C234.962 143.315 235.023 133.2 235.144 123.084C235.144 117.956 235.144 112.827 235.144 107.699C235.144 99.7781 236.206 92.9806 241.881 87.063C246.248 81.9562 252.055 78.2861 258.541 76.5328C262.87 75.8273 267.291 75.9095 271.59 76.7756L272.349 76.9577C266.644 70.2815 256.387 69.8262 248.375 72.9823Z" fill="#BAD532"/>
</g>
<g style="mix-blend-mode:multiply">
<path d="M228.255 55.4146C229.621 56.6892 232.959 62.7281 235.296 62.2122C235.296 61.2411 235.296 60.2701 235.296 59.1776C235.296 59.1776 235.296 58.9651 235.144 58.8134C233.687 51.0447 225.676 48.7688 218.636 50.195C218.515 50.1776 218.392 50.1776 218.271 50.195C222.023 50.9629 225.484 52.7718 228.255 55.4146Z" fill="#BAD532"/>
</g>
<g style="mix-blend-mode:multiply">
<path d="M386.056 127.636C386.056 122.083 386.056 116.529 385.783 110.945C385.783 106.515 385.419 102.054 385.024 97.6234C384.624 91.9026 383.73 86.227 382.354 80.6598C377.954 64.6369 362.022 54.0157 345.938 52.7715H343.905C348.971 54.9367 353.646 57.9201 357.743 61.6022C375.131 77.7162 377.407 98.8069 377.013 121.536C376.77 137.225 378.682 153.37 377.013 168.968C376.558 173.216 376.133 179.164 373.189 182.897C375.043 182.955 376.896 182.73 378.682 182.229C387.482 179.346 385.783 170.242 385.813 162.656C385.904 150.881 386.177 139.289 386.056 127.636Z" fill="#BAD532"/>
</g>
<g style="mix-blend-mode:multiply">
<path d="M335.924 70.8307C326.82 68.8278 316.199 71.3162 312.223 80.7236C306.852 93.378 307.611 109.947 307.762 123.482C307.914 137.016 311.222 151.856 309.674 164.935C309.237 171.661 306.604 178.058 302.179 183.143C304.281 183.023 306.366 182.687 308.4 182.141C317.23 179.258 315.501 170.154 315.561 162.568C315.561 147.213 315.926 132.039 314.833 116.745C314.014 105.213 312.588 90.7683 321.722 81.9375C328.944 74.9578 340.142 75.2613 348.73 80.0256C347.353 77.6865 345.502 75.6605 343.297 74.0773C341.092 72.494 338.581 71.3882 335.924 70.8307Z" fill="#BAD532"/>
</g>
<path d="M169.535 78.2645C169.535 61.1795 170.718 34.9299 169.535 17.8145C168.655 5.40284 153.36 -1.39476 142.83 4.34071C139 6.35392 135.719 9.27047 133.271 12.8377C125.168 28.6178 116.52 53.0467 109.449 69.2213C101.235 88.036 93.1427 106.922 85.1717 125.878C77.0793 106.942 68.987 88.0563 60.8946 69.2213C53.8542 53.0467 45.2055 28.6178 37.103 12.8377C32.5511 4.00691 18.5614 -1.94097 11.0658 5.55459C-0.192678 16.8131 1.96191 41.0598 2.56883 55.5047C3.35784 76.7472 3.26681 94.955 3.47923 116.198C3.47923 126.121 3.05437 136.044 2.99368 145.967C2.99368 155.071 2.99368 166.755 6.02832 175.585C9.06296 184.416 19.3504 183.991 26.239 180.775C35.9802 176.223 33.5222 163.143 33.6132 154.434C33.856 130.946 33.8863 107.427 33.8256 83.9089C38.8024 95.3495 43.9006 106.638 48.9988 118.413C53.5508 128.7 57.3744 139.291 62.0781 149.488C66.0231 158.045 70.7572 171.731 79.4059 176.647C81.371 177.5 83.5044 177.894 85.6444 177.799C87.7843 177.704 89.8746 177.124 91.7568 176.101C95.9446 173.522 98.4937 168.575 100.861 164.418C106.198 154.605 110.921 144.47 115.002 134.071C117.066 128.791 119.19 123.572 121.496 118.382C127.566 104.757 133.422 91.7686 139.097 78.4466C139.097 90.9189 138.763 103.3 138.885 116.167C138.885 126.606 138.369 137.045 138.49 147.515C138.49 156.619 137.641 168.424 141.95 176.89C145.804 184.386 154.817 183.931 161.645 180.744C171.386 176.192 168.958 163.113 169.049 154.404C169.019 128.609 169.626 104.059 169.535 78.2645Z" fill="#2CAE4E" stroke="#128869" stroke-width="3.03464" stroke-linecap="round" stroke-linejoin="round"/>
<g style="mix-blend-mode:multiply">
<path d="M33.6135 83.8148C36.6481 90.673 39.6827 97.501 42.7174 104.39C40.4717 90.1572 36.1626 75.9854 27.1193 69.4609C23.7555 91.3317 22.4954 113.474 23.3564 135.586C23.6598 146.541 24.2061 158.285 19.9576 168.603C17.9244 173.579 11.491 178.526 5.96791 175.279L5.66443 175.066C5.66443 175.218 5.66444 175.4 5.81617 175.552C8.85081 184.14 19.1382 183.958 26.0269 180.741C35.7681 176.189 33.31 163.11 33.401 154.4C33.6438 130.912 33.6742 107.394 33.6135 83.8148Z" fill="#BAD532"/>
</g>
<g style="mix-blend-mode:multiply">
<path d="M138.672 96.2907C141.707 82.8472 142.891 69.2521 136.123 62.3027C117.157 88.7344 110.147 121.842 95.0648 150.307C91.666 156.741 84.7166 169.365 76.8569 174.584C77.637 175.238 78.4692 175.827 79.3453 176.344C81.3105 177.197 83.4439 177.591 85.5838 177.496C87.7238 177.401 89.8141 176.821 91.6963 175.798C95.8841 173.219 98.4332 168.272 100.8 164.115C106.138 154.302 110.861 144.167 114.942 133.768C117.005 128.488 119.129 123.269 121.436 118.079C127.505 104.454 133.362 91.4656 139.037 78.1435C138.855 84.3949 138.672 90.3428 138.672 96.2907Z" fill="#BAD532"/>
</g>
<g style="mix-blend-mode:multiply">
<path d="M29.6989 21.0302C41.2609 35.7482 48.0888 55.2305 55.0685 72.4673C63.0496 92.2228 70.9093 112.16 82.3803 130.125C82.8355 127.667 84.5652 127.243 84.9597 124.815C77.3731 106.91 68.3906 87.0336 60.6826 69.2506C53.6423 53.076 44.9935 28.6471 36.8911 12.867C32.3391 4.0362 18.3494 -1.91167 10.8539 5.58389C10.429 6.00874 10.0952 6.46391 9.70068 6.88876C17.7425 8.43643 23.9028 13.5953 29.6989 21.0302Z" fill="#BAD532"/>
</g>
<g style="mix-blend-mode:multiply">
<path d="M169.535 17.8161C168.837 7.68044 158.489 1.30768 148.99 2.43049C152.536 4.90921 155.337 8.30885 157.093 12.2627C165.893 30.2885 164.406 53.898 164.406 73.3803C164.406 96.8381 163.951 120.326 164.406 143.754C164.649 155.71 166.47 170.458 160.34 181.231L161.463 180.746C171.204 176.194 168.776 163.115 168.867 154.405C169.11 128.611 169.656 104.061 169.565 78.2661C169.444 61.1811 170.718 34.9315 169.535 17.8161Z" fill="#BAD532"/>
</g>
</svg>
