<svg width="289" height="185" viewBox="0 0 289 185" fill="none" xmlns="http://www.w3.org/2000/svg">
<path d="M286.821 127.017C286.821 121.462 286.67 115.936 286.519 110.411C286.519 105.973 286.187 101.565 285.764 97.1262C285.386 91.4339 284.507 85.7861 283.137 80.2481C278.729 64.3363 262.878 53.7688 246.906 52.5007C236.701 51.4652 226.411 53.3389 217.226 57.9052C215.625 58.7506 206.719 63.0381 206.688 65.0308C206.688 63.0683 206.688 61.0453 206.688 58.9922C206.688 58.9922 206.688 58.7808 206.537 58.6299C205.088 50.9004 197.117 48.6661 190.112 50.055C186.793 50.5488 183.709 52.0645 181.291 54.3911C178.872 56.7178 177.238 59.7401 176.616 63.0381C176.616 79.6443 176.163 97.0054 176.284 113.461C176.284 132.029 173.929 158.962 179.816 176.866C181.99 183.448 197.026 184.596 203.337 181.546C213.029 176.866 208.53 159.535 208.621 150.598C208.621 140.574 206.447 132.724 206.477 122.7C206.477 117.597 206.477 112.494 206.477 107.392C206.477 99.4812 207.534 92.718 213.18 86.8303C217.518 81.7473 223.299 78.1038 229.756 76.3834C234.061 75.6631 238.463 75.745 242.739 76.625C248.24 77.8919 253.148 80.9898 256.658 85.4112C262.908 92.7783 260.734 104.523 260.794 113.461C260.794 132.029 258.288 150.93 261.308 175.085C262.153 181.818 274.23 182.875 279.424 181.124C288.21 178.255 286.489 169.197 286.549 161.649C286.67 149.994 286.912 138.43 286.821 127.017Z" fill="#EF4054" stroke="#832A18" stroke-width="3.01932" stroke-linecap="round" stroke-linejoin="round"/>
<g style="mix-blend-mode:multiply">
<path d="M205.511 64.4269L206.719 62.5548V58.8109C206.719 58.8109 206.719 58.5995 206.568 58.4486C205.36 52.0174 199.653 49.3906 193.735 49.3906C198.952 53.2421 203.022 58.4397 205.511 64.4269Z" fill="#EF4D8B"/>
</g>
<g style="mix-blend-mode:multiply">
<path d="M238.904 74.7822C231.637 71.8661 223.547 71.7478 216.199 74.4501C199.441 81.2436 197.086 99.0877 198.385 115.03C199.894 133.357 207.865 158.659 196.543 175.235C195.232 176.973 193.566 178.41 191.655 179.452C189.744 180.493 187.632 181.114 185.462 181.274C191.312 183.409 197.728 183.409 203.578 181.274C213.27 176.594 208.771 159.263 208.862 150.326C208.862 140.301 206.688 132.451 206.718 122.427C206.718 117.324 206.718 112.222 206.718 107.119C206.718 99.2085 207.775 92.4453 213.421 86.5576C217.759 81.4746 223.54 77.8311 229.997 76.1107C233.767 75.5069 237.609 75.5069 241.38 76.1107C240.598 75.5905 239.769 75.1457 238.904 74.7822Z" fill="#EF4D8B"/>
</g>
<g style="mix-blend-mode:multiply">
<path d="M286.82 127.015C286.82 121.459 286.67 115.934 286.519 110.409C286.519 105.97 286.186 101.562 285.764 97.1235C285.385 91.4313 284.506 85.7835 283.137 80.2455C278.729 64.3337 262.877 53.7662 246.905 52.498H246.724C253.906 54.336 260.457 58.0812 265.685 63.3374C281.567 79.9738 279.755 103.223 278.789 124.66C278.185 138.428 279.906 153.132 278.004 166.689C277.31 171.64 276.041 178.524 271.482 181.785C274.159 182.142 276.88 181.957 279.483 181.242C288.27 178.373 286.549 169.315 286.609 161.767C286.67 149.992 286.911 138.428 286.82 127.015Z" fill="#EF4D8B"/>
</g>
<path d="M134.768 76.4752C134.768 59.4764 136.459 34.5973 135.282 17.5683C134.738 9.77848 123.838 -4.23115 112.123 5.49105C99.0497 16.27 104.001 39.4584 104.545 53.8001C105.3 74.9353 104.394 94.4703 104.545 115.515V116.511C92.0751 98.2142 81.5075 80.1285 69.3095 61.4692C58.3191 44.6516 44.9133 18.6553 29.0619 5.85336C28.1123 5.06363 26.963 4.55166 25.7407 4.37392C23.5322 2.80881 20.8477 2.06124 18.1481 2.25958C15.4485 2.45792 12.9021 3.58979 10.946 5.46088C-2.12764 16.2398 2.82411 39.4282 3.36758 53.7699C4.12241 74.9052 3.21662 94.4401 3.36758 115.485C3.51855 133.45 1.01246 159.506 6.90013 176.807C9.07404 183.178 19.7021 182.695 26.0125 179.826C35.7045 175.297 33.289 162.284 33.3796 153.619C33.6211 127.955 33.6815 102.29 33.5608 76.6262C33.5608 73.6068 33.5608 70.3158 33.5608 66.9039C43.9472 83.3089 54.4142 99.6534 64.9616 115.938C72.6911 128.015 80.964 139.488 89.1162 151.052C93.1419 156.729 97.2482 162.375 101.435 167.991C108.5 177.592 113.361 186.107 126.918 179.826C136.61 175.297 134.195 162.284 134.285 153.619C134.728 127.834 134.889 102.119 134.768 76.4752Z" fill="#EF4054" stroke="#832A18" stroke-width="3.01932" stroke-linecap="round" stroke-linejoin="round"/>
<g style="mix-blend-mode:multiply">
<path d="M34.949 18.563C55.2389 43.8951 71.3922 72.4276 92.1349 97.3974C84.5564 85.4711 77.2798 73.5447 69.339 61.3769C58.3487 44.5593 44.943 18.563 29.0916 5.76109C28.1419 4.97135 26.9925 4.45939 25.7703 4.28165C23.6059 2.74289 20.9778 1.99598 18.3276 2.16643C15.6774 2.33688 13.1666 3.41428 11.2172 5.21763C20.5213 6.53299 28.9917 11.2962 34.949 18.563Z" fill="#EF4D8B"/>
</g>
<g style="mix-blend-mode:multiply">
<path d="M37.2736 72.275C36.6691 69.3018 35.8208 66.3833 34.7374 63.5492C33.8618 61.2243 23.1734 40.9044 22.6601 53.2836C22.2676 61.8282 23.4452 70.4031 23.5659 78.9779C23.9585 104.25 28.6988 131.786 25.136 156.906C23.4451 168.984 17.6179 178.042 8.65051 179.28C12.485 182.873 20.7277 182.148 26.1323 179.672C35.8243 175.143 33.4089 162.13 33.4994 153.465C33.741 127.8 33.8014 102.136 33.6806 76.4719C33.6806 73.4526 33.6806 70.1615 33.6806 66.7497C34.8883 68.5915 36.096 70.4333 37.2736 72.275Z" fill="#EF4D8B"/>
</g>
<g style="mix-blend-mode:multiply">
<path d="M134.768 76.4752C134.768 59.4764 136.459 34.5973 135.282 17.5683C134.738 9.77848 123.838 -4.23115 112.124 5.49105L111.761 5.85336C116.964 8.14527 121.151 12.2572 123.537 17.4173C130.934 31.427 126.556 52.381 126.556 67.5078C126.556 87.4353 126.828 107.363 126.556 127.29C126.314 139.669 128.096 168.474 114.026 175.146C112.314 175.965 110.494 176.535 108.621 176.837C113.12 181.668 118.283 183.993 127.22 179.857C136.912 175.328 134.497 162.314 134.587 153.649C134.829 127.844 134.889 102.119 134.768 76.4752Z" fill="#EF4D8B"/>
</g>
</svg>
