<svg width="334" height="185" viewBox="0 0 334 185" fill="none" xmlns="http://www.w3.org/2000/svg">
<path d="M126.598 10.0448C98.7283 -3.53844 67.5237 1.78471 40.9385 16.1633C33.5975 20.0911 27.0597 25.3629 21.6651 31.7045C11.2024 43.9416 5.45091 59.8192 2.91171 77.0124C-4.18581 125.043 30.9347 178.213 81.1375 182.772C107.141 185.158 129.321 176.255 148.778 159.123C162.484 147.039 174.109 121.739 177.719 104.056C185.704 65.6013 160.709 26.7178 126.598 10.0448ZM130.422 98.3968C128.526 107.575 122.468 120.729 115.34 127.001C110.668 131.421 105.11 134.797 99.0338 136.907C92.9581 139.017 86.5034 139.811 80.0974 139.238C53.9405 136.852 35.646 109.135 39.3477 84.1711C40.3176 75.5473 43.7001 67.372 49.1068 60.5841C51.9139 57.2766 55.3178 54.5264 59.1413 52.477C72.9386 45.0429 89.214 42.259 103.715 49.4177C121.489 58.0754 134.491 78.3279 130.422 98.3968Z" fill="#FEBF34" stroke="#BC6714" stroke-width="3.05928" stroke-linecap="round" stroke-linejoin="round"/>
<g style="mix-blend-mode:multiply">
<path d="M80.0962 139.359C53.9393 136.973 35.6448 109.256 39.3465 84.2919C40.3164 75.6681 43.6989 67.4928 49.1056 60.7048C51.9127 57.3973 55.3166 54.6472 59.1401 52.5978C71.5608 45.8979 86.0006 42.9916 99.3391 47.6723C95.8974 45.2893 92.1249 43.4237 88.1421 42.135C72.8457 37.4849 54.0617 40.2383 41.9163 51.4658C28.0578 64.2536 24.2643 83.8942 29.251 101.791C33.8093 118.25 44.8226 136.483 62.3829 141.562C71.6745 144.094 81.5604 143.282 90.3141 139.267C86.9225 139.683 83.4947 139.714 80.0962 139.359Z" fill="#FFC519"/>
</g>
<g style="mix-blend-mode:multiply">
<path d="M126.598 10.0436C112.001 3.05193 95.6364 0.621203 79.6378 3.0685H80.0355C100.869 6.98437 121.03 15.8869 135.103 32.1622C160.311 61.0724 168.265 103.872 143.638 136.178C122.468 163.895 84.9303 179.681 50.1463 173.073C59.69 178.45 70.2603 181.754 81.1674 182.771C107.171 185.157 129.351 176.254 148.808 159.122C162.514 147.038 174.139 121.738 177.749 104.055C185.703 65.6001 160.709 26.7167 126.598 10.0436Z" fill="#FFC519"/>
</g>
<path d="M291.86 52.4779C270.843 42.2293 247.287 46.3593 227.31 57.0362C221.76 59.9885 216.819 63.9641 212.747 68.7533C204.933 78.6095 200.036 90.4583 198.614 102.956C193.229 139.208 219.753 179.438 257.658 182.773C277.268 184.578 294.033 177.878 308.686 164.906C319.027 155.729 327.838 136.73 330.53 123.453C336.465 94.4206 317.62 65.0515 291.86 52.4779ZM297.214 118.038C295.429 126.446 291.353 134.197 285.436 140.432C281.788 143.893 277.448 146.541 272.702 148.202C267.956 149.863 262.912 150.499 257.902 150.069C237.466 148.203 223.149 126.543 226.055 106.994C226.837 100.286 229.475 93.9289 233.673 88.6386C235.869 86.0492 238.537 83.9002 241.535 82.3058C252.335 76.4626 265.031 74.2906 276.381 79.8585C290.239 86.5277 300.426 102.375 297.214 118.038Z" fill="#FEBF34" stroke="#BC6714" stroke-width="3.05928" stroke-linecap="round" stroke-linejoin="round"/>
<g style="mix-blend-mode:multiply">
<path d="M226.023 107.968C226.766 101.385 229.342 95.1414 233.458 89.9492C235.613 87.4485 238.217 85.3733 241.136 83.8306C249.871 78.6664 260.278 77.1185 270.138 79.5171C267.354 76.5154 263.692 74.4703 259.676 73.6738C253.673 72.5391 247.485 72.8579 241.631 74.6036C235.776 76.3493 230.425 79.4712 226.023 83.7083C214.001 95.7006 210.513 113.506 220.945 127.762C225.613 134.251 231.958 139.349 239.301 142.508C234.395 138.305 230.612 132.947 228.294 126.917C225.976 120.887 225.196 114.375 226.023 107.968Z" fill="#FFC519"/>
</g>
<g style="mix-blend-mode:multiply">
<path d="M291.86 52.475C275.952 44.7044 258.606 45.1328 242.453 50.4559C250.426 50.711 258.355 51.7356 266.131 53.5152C295.47 60.5209 322.728 83.6185 318.414 116.659C313.917 150.923 288.066 177.997 252.181 178.15C247.298 178.16 242.421 177.812 237.588 177.11C243.892 180.149 250.689 182.035 257.657 182.678C277.267 184.483 294.032 177.783 308.686 164.812C319.026 155.634 327.837 136.636 330.529 123.358C336.464 94.4177 317.619 65.0486 291.86 52.475Z" fill="#FFC519"/>
</g>
</svg>
