<svg width="234" height="185" viewBox="0 0 234 185" fill="none" xmlns="http://www.w3.org/2000/svg">
<path d="M231.867 90.0687C229.947 62.99 208.136 39.1853 180.171 38.8161C170.672 38.6729 161.435 41.9295 154.126 47.9982C154.126 46.9397 153.979 45.8812 153.88 44.8473C153.117 36.3052 139.43 25.8676 136.353 38.7669C130.937 61.316 131.208 87.0162 131.43 110.156C131.43 121.628 131.553 133.075 131.676 144.62C131.676 153.999 128.943 165.175 133.202 173.988C137.067 182.038 152.895 188.586 155.357 175.12C157.056 164.929 155.357 153.827 154.914 143.561C154.717 139.426 154.446 135.29 154.151 131.253C158.394 135.872 163.622 139.478 169.446 141.804C175.271 144.131 181.545 145.118 187.802 144.694C214.93 141.887 233.836 116.852 231.867 90.0687ZM200.185 95.3367C201.711 105.627 192.529 115.67 183.297 118.083C171.137 121.283 159.911 111.165 158.533 99.3493C157.819 93.1212 160.994 83.5206 166.41 79.6557C175.888 72.886 188.812 72.9845 195.951 83.1267C198.358 86.7801 199.813 90.9774 200.185 95.3367Z" fill="#91CB80" stroke="#709C39" stroke-width="2.4617" stroke-linecap="round" stroke-linejoin="round"/>
<g style="mix-blend-mode:multiply">
<path d="M158.533 99.3479C157.819 93.1198 160.994 83.5191 166.41 79.6543C173.795 74.3862 183.248 73.3031 190.51 77.8818C189.409 75.8905 187.871 74.1741 186.012 72.8611C184.154 71.5481 182.022 70.6725 179.777 70.2998C176.391 69.6163 172.897 69.6763 169.537 70.4757C166.176 71.2751 163.029 72.7948 160.314 74.9297C157.598 77.0647 155.379 79.7639 153.809 82.8408C152.239 85.9177 151.356 89.2989 151.221 92.7505C150.655 103.065 155.062 113.503 165.992 116.235C167.605 116.619 169.256 116.825 170.915 116.851C167.562 115.188 164.675 112.718 162.513 109.663C160.352 106.608 158.984 103.063 158.533 99.3479Z" fill="#77C043"/>
</g>
<g style="mix-blend-mode:multiply">
<path d="M154.176 132.731C153.885 132.436 153.673 132.072 153.56 131.673C151.665 124.46 150.606 134.454 150.68 135.808C150.828 138.27 151.025 140.609 151.271 142.996C151.739 147.231 151.739 151.391 151.813 155.65C151.936 163.847 153.24 174.014 149.769 181.891C151.222 181.335 152.5 180.401 153.47 179.184C154.439 177.968 155.066 176.514 155.284 174.974C156.982 164.783 155.283 153.68 154.84 143.415C154.668 139.845 154.422 136.276 154.176 132.731Z" fill="#77C043"/>
</g>
<g style="mix-blend-mode:multiply">
<path d="M231.867 90.0666C230.07 64.391 210.425 41.7926 184.725 39.1094C209.17 47.4053 227.731 70.8653 224.998 98.1902C223.448 113.625 213.921 130.906 198.978 136.913C189.756 140.892 179.69 142.516 169.684 141.639C175.388 144.003 181.578 144.957 187.728 144.421C214.93 141.885 233.836 116.85 231.867 90.0666Z" fill="#77C043"/>
</g>
<path d="M93.5199 11.3186C92.7325 10.683 91.9107 10.0913 91.0582 9.54613C83.1808 4.22886 75.7218 3.63806 66.4412 2.40721C63.0687 2.25951 57.6529 2.2595 54.2804 2.08718C44.2121 2.08718 34.0452 1.57022 23.9769 2.08718C19.275 2.38258 13.8347 1.3979 9.40365 3.39188C3.79097 5.85358 3.20014 12.6233 2.60933 18.0144C2.60933 22.9378 2.31385 27.8612 2.06768 32.7846C2.21538 34.8032 2.3385 36.6249 2.41236 38.1019C3.02778 55.8015 2.41236 72.3934 2.41236 90.1176C2.41236 105.257 0.762974 124.778 4.06165 141.198C5.16942 146.737 15.7302 146.761 20.8751 144.275C28.7772 140.435 26.8078 129.505 26.8817 122.12C26.9801 109.598 27.0376 97.076 27.054 84.5542C45.4921 86.3266 67.0567 85.5881 82.9593 77.6614C89.7455 74.1105 95.4665 68.8203 99.5367 62.3323C103.607 55.8442 105.88 48.3911 106.124 40.7359C106.275 35.2128 105.227 29.7226 103.051 24.6439C100.875 19.5652 97.623 15.0189 93.5199 11.3186ZM60.41 61.4388C57.3123 62.8727 53.9713 63.7079 50.5632 63.9005C48.52 63.9005 27.054 63.3343 27.054 63.0389V58.7309C27.054 50.2627 27.6202 39.0373 27.6448 28.9197C37.8362 29.3875 50.4402 27.5412 60.5824 31.3814C69.666 34.754 74.6879 46.9886 68.3121 55.063C66.1626 57.7173 63.4786 59.8896 60.4347 61.4388H60.41Z" fill="#91CB80" stroke="#709C39" stroke-width="2.4617" stroke-linecap="round" stroke-linejoin="round"/>
<g style="mix-blend-mode:multiply">
<path d="M93.5199 11.3202C92.7325 10.6847 91.9107 10.093 91.0582 9.54782C83.7962 4.62441 76.8788 3.76284 68.5336 2.67969C84.3869 8.51392 96.7939 19.2962 95.2923 39.1375C94.8453 46.1625 92.8258 52.9973 89.3831 59.1371C85.9403 65.277 81.1623 70.565 75.4018 74.6106C66.7859 80.2971 57.776 81.8234 47.7815 83.7927C44.9205 84.1859 42.0848 84.7449 39.2886 85.4667C54.5019 85.8359 70.4292 84.0389 82.91 77.8354C89.6962 74.2845 95.4172 68.9943 99.4874 62.5062C103.558 56.0181 105.831 48.5651 106.075 40.9099C106.257 35.3618 105.229 29.8406 103.06 24.7305C100.892 19.6204 97.6365 15.0442 93.5199 11.3202Z" fill="#77C043"/>
</g>
<g style="mix-blend-mode:multiply">
<path d="M27.0534 58.63C27.0534 50.1618 27.6196 38.9364 27.6442 28.8188C26.9796 27.1449 25.6994 24.0923 24.9855 26.3571C23.6766 30.6053 23.0454 35.0332 23.1148 39.478C23.1148 46.4938 23.804 53.4605 23.3609 60.5009C23.0409 65.6459 24.9609 64.612 27.0042 62.0764L27.0534 58.63Z" fill="#77C043"/>
</g>
<g style="mix-blend-mode:multiply">
<path d="M27.8172 84.7734C24.1492 80.3424 22.4753 91.1 22.4753 92.3308C22.4753 96.1957 23.0169 100.085 22.8938 103.95C22.4999 116.086 26.6602 134.155 19.2751 144.962C19.839 144.787 20.3901 144.573 20.9244 144.322C28.8265 140.482 26.8571 129.552 26.931 122.167C27.0295 109.645 27.0869 97.1229 27.1033 84.6011L27.8172 84.7734Z" fill="#77C043"/>
</g>
</svg>
