<svg width="234" height="185" viewBox="0 0 234 185" fill="none" xmlns="http://www.w3.org/2000/svg">
<path d="M231.867 90.3539C229.947 63.2752 208.136 39.4705 180.171 39.1012C170.672 38.958 161.435 42.2147 154.126 48.2834C154.126 47.2249 153.979 46.1663 153.88 45.1324C153.117 36.5903 139.43 26.1527 136.353 39.052C130.937 61.6012 131.208 87.3013 131.43 110.441C131.43 121.913 131.553 133.36 131.676 144.905C131.676 154.284 128.943 165.46 133.202 174.273C137.067 182.323 152.895 188.871 155.357 175.406C157.056 165.214 155.357 154.112 154.914 143.847C154.717 139.711 154.446 135.575 154.151 131.538C158.394 136.157 163.622 139.763 169.446 142.09C175.271 144.416 181.545 145.404 187.802 144.979C214.93 142.173 233.836 117.137 231.867 90.3539ZM200.185 95.6219C201.711 105.912 192.529 115.956 183.297 118.368C171.137 121.568 159.911 111.451 158.533 99.6345C157.819 93.4064 160.994 83.8057 166.41 79.9409C175.888 73.1712 188.812 73.2696 195.951 83.4118C198.358 87.0653 199.813 91.2626 200.185 95.6219Z" fill="#91CB80" stroke="#709C39" stroke-width="2.4617" stroke-linecap="round" stroke-linejoin="round"/>
<g style="mix-blend-mode:multiply">
<path d="M158.533 99.633C157.819 93.4049 160.994 83.8043 166.41 79.9394C173.795 74.6714 183.248 73.5882 190.51 78.167C189.409 76.1757 187.871 74.4593 186.012 73.1463C184.154 71.8333 182.022 70.9577 179.777 70.5849C176.391 69.9014 172.897 69.9614 169.537 70.7608C166.176 71.5602 163.029 73.08 160.314 75.2149C157.598 77.3498 155.379 80.0491 153.809 83.126C152.239 86.2029 151.356 89.5841 151.221 93.0357C150.655 103.35 155.062 113.788 165.992 116.52C167.605 116.904 169.256 117.11 170.915 117.136C167.562 115.473 164.675 113.003 162.513 109.948C160.352 106.893 158.984 103.348 158.533 99.633Z" fill="#77C043"/>
</g>
<g style="mix-blend-mode:multiply">
<path d="M154.176 133.016C153.885 132.721 153.673 132.357 153.56 131.958C151.665 124.745 150.606 134.74 150.68 136.093C150.828 138.555 151.025 140.894 151.271 143.282C151.739 147.516 151.739 151.676 151.813 155.935C151.936 164.132 153.24 174.299 149.769 182.177C151.222 181.621 152.5 180.686 153.47 179.47C154.439 178.253 155.066 176.799 155.284 175.259C156.982 165.068 155.283 153.965 154.84 143.7C154.668 140.131 154.422 136.561 154.176 133.016Z" fill="#77C043"/>
</g>
<g style="mix-blend-mode:multiply">
<path d="M231.867 90.3517C230.07 64.6762 210.425 42.0778 184.725 39.3945C209.17 47.6905 227.731 71.1505 224.998 98.4753C223.448 113.91 213.921 131.191 198.978 137.198C189.756 141.177 179.69 142.802 169.684 141.924C175.388 144.288 181.578 145.242 187.728 144.706C214.93 142.171 233.836 117.135 231.867 90.3517Z" fill="#77C043"/>
</g>
<path d="M93.5199 11.6037C92.7325 10.9681 91.9107 10.3764 91.0582 9.83129C83.1808 4.51401 75.7218 3.92322 66.4412 2.69237C63.0687 2.54467 57.6529 2.54466 54.2804 2.37234C44.2121 2.37234 34.0452 1.85538 23.9769 2.37234C19.275 2.66774 13.8347 1.68306 9.40365 3.67704C3.79097 6.13874 3.20014 12.9084 2.60933 18.2995C2.60933 23.2229 2.31385 28.1463 2.06768 33.0697C2.21538 35.0883 2.3385 36.91 2.41236 38.387C3.02778 56.0867 2.41236 72.6785 2.41236 90.4028C2.41236 105.542 0.762974 125.064 4.06165 141.483C5.16942 147.022 15.7302 147.047 20.8751 144.56C28.7772 140.72 26.8078 129.79 26.8817 122.405C26.9801 109.883 27.0376 97.3612 27.054 84.8393C45.4921 86.6117 67.0567 85.8733 82.9593 77.9466C89.7455 74.3957 95.4665 69.1055 99.5367 62.6174C103.607 56.1293 105.88 48.6763 106.124 41.0211C106.275 35.4979 105.227 30.0077 103.051 24.9291C100.875 19.8504 97.623 15.3041 93.5199 11.6037ZM60.41 61.7239C57.3123 63.1578 53.9713 63.9931 50.5632 64.1856C48.52 64.1856 27.054 63.6195 27.054 63.3241V59.0161C27.054 50.5478 27.6202 39.3225 27.6448 29.2049C37.8362 29.6726 50.4402 27.8263 60.5824 31.6666C69.666 35.0391 74.6879 47.2738 68.3121 55.3481C66.1626 58.0024 63.4786 60.1748 60.4347 61.7239H60.41Z" fill="#91CB80" stroke="#709C39" stroke-width="2.4617" stroke-linecap="round" stroke-linejoin="round"/>
<g style="mix-blend-mode:multiply">
<path d="M93.5199 11.6054C92.7325 10.9698 91.9107 10.3781 91.0582 9.83297C83.7962 4.90957 76.8788 4.04799 68.5336 2.96484C84.3869 8.79907 96.7939 19.5813 95.2923 39.4226C94.8453 46.4476 92.8258 53.2824 89.3831 59.4223C85.9403 65.5621 81.1623 70.8502 75.4018 74.8957C66.7859 80.5823 57.776 82.1085 47.7815 84.0779C44.9205 84.4711 42.0848 85.03 39.2886 85.7518C54.5019 86.1211 70.4292 84.3241 82.91 78.1206C89.6962 74.5697 95.4172 69.2795 99.4874 62.7914C103.558 56.3033 105.831 48.8503 106.075 41.1951C106.257 35.647 105.229 30.1258 103.06 25.0157C100.892 19.9056 97.6365 15.3293 93.5199 11.6054Z" fill="#77C043"/>
</g>
<g style="mix-blend-mode:multiply">
<path d="M27.0534 58.9152C27.0534 50.4469 27.6196 39.2216 27.6442 29.104C26.9796 27.43 25.6994 24.3775 24.9855 26.6423C23.6766 30.8905 23.0454 35.3184 23.1148 39.7631C23.1148 46.779 23.804 53.7456 23.3609 60.7861C23.0409 65.931 24.9609 64.8971 27.0042 62.3616L27.0534 58.9152Z" fill="#77C043"/>
</g>
<g style="mix-blend-mode:multiply">
<path d="M27.8172 85.0586C24.1492 80.6275 22.4753 91.3851 22.4753 92.616C22.4753 96.4808 23.0169 100.37 22.8938 104.235C22.4999 116.371 26.6602 134.44 19.2751 145.247C19.839 145.072 20.3901 144.858 20.9244 144.607C28.8265 140.767 26.8571 129.837 26.931 122.452C27.0295 109.93 27.0869 97.4081 27.1033 84.8862L27.8172 85.0586Z" fill="#77C043"/>
</g>
</svg>
