<svg width="254" height="185" viewBox="0 0 254 185" fill="none" xmlns="http://www.w3.org/2000/svg">
<path d="M195.352 144.295C201.125 145.142 207.015 144.679 212.585 142.94C218.155 141.201 223.262 138.231 227.528 134.249C226.959 138.064 226.438 141.878 225.94 145.717C224.755 155.194 222.433 165.382 223.286 174.954C224.139 184.527 240.559 185.664 243.544 176.992C246.672 167.87 246.506 157.919 247.359 148.37C248.283 137.756 249.136 127.046 250.036 116.479C251.837 95.1547 253.922 71.2242 250.534 49.9001C248.591 37.7216 235.133 46.4408 233.806 54.307C233.641 55.2548 233.522 56.2262 233.38 57.1977C227.018 51.055 218.678 47.3764 209.852 46.8199C183.979 45.1613 162.015 65.6325 158.295 90.6529C154.575 115.673 170.213 139.959 195.352 144.295ZM181.799 83.0947C190.661 72.788 204.9 73.7358 214.757 81.8389C226.604 91.5296 222.86 112.475 210.871 119.914C194.286 130.221 175.686 113.351 176.231 95.8417C176.985 91.1918 178.9 86.8073 181.799 83.0947Z" fill="#EE5A82" stroke="#990036" stroke-width="2.36935" stroke-linecap="round" stroke-linejoin="round"/>
<g style="mix-blend-mode:multiply">
<path d="M176.231 95.8439C176.985 91.1939 178.9 86.8095 181.799 83.0968C190.661 72.7902 204.901 73.7379 214.757 81.8411C215.113 82.1491 215.444 82.5045 215.776 82.8362C214.919 80.1499 213.266 77.787 211.037 76.0599C206.576 72.1092 200.881 69.8312 194.926 69.6152C188.98 69.7373 183.314 72.1615 179.12 76.3776C174.926 80.5937 172.531 86.2726 172.441 92.2188C172.038 102.644 175.165 117.334 187.178 120.201C188.461 120.507 189.77 120.69 191.087 120.746C186.568 118.354 182.792 114.767 180.172 110.375C177.552 105.984 176.189 100.957 176.231 95.8439Z" fill="#EF4D8B"/>
</g>
<g style="mix-blend-mode:multiply">
<path d="M250.535 49.9029C249.397 42.7949 244.303 42.7948 240.015 45.6618C246.222 50.4005 247.123 65.0431 246.815 72.2696C245.701 96.5317 244.185 120.818 242.81 145.08C242.36 152.898 242.81 179.222 229.139 178.251C227.254 178.142 225.41 177.658 223.714 176.829C226.462 184.458 240.773 184.98 243.545 176.947C246.672 167.825 246.507 157.874 247.36 148.326C248.284 137.711 249.137 127.002 250.037 116.434C251.838 95.0627 253.923 71.2271 250.535 49.9029Z" fill="#EF4D8B"/>
</g>
<path d="M135.408 121.978C131.522 119.309 127.636 116.655 123.751 114.017C130.38 104.222 135.195 93.3156 137.967 81.8175C144.459 52.1059 125.528 21.7308 99.2751 8.36769C77.951 -2.46024 53.6415 1.25963 32.9333 12.1349C27.2006 15.0971 22.0796 19.1166 17.8406 23.9817C9.61893 33.4591 4.9987 45.5902 2.84259 58.8822C-3.15186 95.9863 23.4796 137.545 62.3133 141.62C77.7912 143.354 93.3778 139.479 106.241 130.697C113.918 135.697 123.869 144.7 133.749 145.79C137.398 146.193 141.805 139.132 143.227 134.18C145.62 126.527 139.033 124.489 135.408 121.978ZM65.8199 108.141C43.1452 105.772 27.5549 81.4621 31.0852 59.7825C32.0297 52.2931 35.0683 45.2222 39.8518 39.3825C42.3292 36.5432 45.3193 34.196 48.6658 32.4639C60.7258 26.1615 74.8945 23.958 87.4047 30.2842C102.758 38.0319 113.823 55.7784 110.008 73.1457C107.995 81.8343 103.842 89.8816 97.9246 96.5549C91.5912 91.6004 84.9518 87.0501 78.0457 82.9311C74.4917 81.083 64.3509 83.713 63.3321 94.0434C62.6213 101.554 66.9335 105.203 71.9565 108.259C69.9109 108.373 67.8596 108.333 65.8199 108.141Z" fill="#EE5A82" stroke="#990036" stroke-width="2.36935" stroke-linecap="round" stroke-linejoin="round"/>
<g style="mix-blend-mode:multiply">
<path d="M87.2861 29.6186C83.3574 26.6217 78.8254 24.5126 74.0027 23.4368C69.18 22.361 64.1813 22.3441 59.3514 23.3872C52.0427 24.7901 45.2593 28.1721 39.7403 33.1647C34.2212 38.1573 30.1784 44.569 28.0523 51.7009C22.9345 68.2864 25.0432 85.7011 37.5297 98.5667C43.8322 105.011 68.8762 122.26 77.8087 109.466C72.0511 104.727 66.6253 98.8509 68.8762 90.5108C69.5426 87.1985 71.4605 84.2707 74.2309 82.3366C71.3194 82.6652 68.6167 84.009 66.5976 86.1322C64.5784 88.2554 63.3718 91.0221 63.1898 93.9464C62.479 101.457 66.7912 105.106 71.8142 108.163C69.7686 108.276 67.7173 108.236 65.6776 108.044C43.0029 105.675 27.4126 81.3652 30.9429 59.6856C31.8874 52.1962 34.926 45.1252 39.7095 39.2855C42.1869 36.4462 45.177 34.0991 48.5235 32.367C60.5835 26.0646 74.7522 23.861 87.2624 30.1872C87.7125 30.4004 88.139 30.6611 88.5655 30.8981C88.1631 30.4481 87.736 30.0209 87.2861 29.6186Z" fill="#EF4D8B"/>
</g>
<g style="mix-blend-mode:multiply">
<path d="M135.408 121.977C131.522 119.307 127.637 116.654 123.751 114.016C130.38 104.221 135.195 93.3144 137.967 81.8164C144.459 52.1047 125.528 21.7296 99.2755 8.36651C86.8849 2.26707 72.8396 0.386581 59.2809 3.01176C92.973 4.12535 124.912 24.8098 127.163 63.3591C127.992 77.5752 125.173 92.9049 116.501 104.515C114.439 107.287 107.165 114.584 112.046 118.47C115.239 120.65 118.545 122.659 121.95 124.488C125.539 126.392 128.421 129.399 130.172 133.065C131.064 134.926 131.275 137.04 130.769 139.041C130.262 141.041 129.07 142.8 127.4 144.012C129.433 144.85 131.568 145.416 133.75 145.694C137.398 146.097 141.805 139.036 143.227 134.084C145.62 126.526 139.033 124.488 135.408 121.977Z" fill="#EF4D8B"/>
</g>
</svg>
