<svg width="265" height="185" viewBox="0 0 265 185" fill="none" xmlns="http://www.w3.org/2000/svg">
<path d="M147.221 158.421C131.394 139.017 116.136 116.225 99.7382 99.479C102.805 98.4945 105.807 97.3209 108.728 95.9652C117.487 91.8347 124.961 85.4042 130.352 77.3596C135.743 69.3149 138.849 59.9579 139.339 50.2864C139.535 43.2985 138.137 36.3577 135.252 29.9901C132.367 23.6225 128.071 17.9951 122.688 13.5344C121.673 12.7499 120.617 12.0208 119.523 11.3502C109.14 4.76587 99.295 4.00609 86.9494 2.48662C82.486 2.29669 75.3318 2.48664 70.9 2.10677C57.5731 2.26505 44.1512 1.47367 30.8876 2.10677C24.5565 2.45498 17.4973 1.25208 11.641 3.68955C2.9991 7.29827 2.80915 18.5043 2.52425 26.3549C1.54293 54.4966 2.17604 83.0181 2.52425 111.16C2.71418 129.932 0.371686 154.116 4.70848 174.471C6.16463 181.34 20.1247 181.372 26.8673 178.269C37.3136 173.553 34.6862 159.973 34.7812 150.919C34.95 135.408 35.0344 119.886 35.0344 104.354C45.5386 105.591 56.1316 105.899 66.6899 105.272C67.4813 105.272 74.7304 118.63 75.6484 120.023C78.8139 124.867 81.9794 129.805 84.9867 134.743C94.9129 150.781 106.696 165.593 120.093 178.871C132.375 191.501 157.509 170.925 147.221 158.421ZM34.9078 77.5101V72.2553C34.9078 61.9039 35.6359 48.0388 35.6675 35.8198C48.9311 36.3896 65.3604 34.1105 78.5923 38.7322C90.4315 42.8474 96.9525 57.7254 88.6588 67.6969C85.8243 71.0454 82.3197 73.7628 78.3707 75.674C74.2969 77.4105 69.943 78.3972 65.5186 78.5864C62.8596 78.713 34.9078 77.9849 34.9078 77.5101Z" fill="#355EAA" stroke="#242B6F" stroke-width="3.16555" stroke-miterlimit="10"/>
<g style="mix-blend-mode:multiply" opacity="0.8">
<path d="M147.221 158.423C131.393 139.018 116.135 116.226 99.7378 99.4805C102.804 98.496 105.807 97.3224 108.728 95.9667C117.487 91.8362 124.96 85.4057 130.351 77.3611C135.742 69.3165 138.848 59.9594 139.339 50.2879C139.534 43.3 138.137 36.3592 135.252 29.9916C132.367 23.624 128.07 17.9967 122.688 13.536C121.673 12.7515 120.616 12.0223 119.522 11.3517C113.736 7.74099 107.273 5.34965 100.529 4.32422C112.653 10.9402 123.954 21.3548 127.088 35.1566C133.419 63.14 113.223 85.8053 87.9303 92.8961C102.492 112.776 120.535 130.566 133.546 151.206C138.611 159.183 144.245 173.902 134.844 181.531C134.468 181.817 134.077 182.081 133.672 182.323C144.435 179.632 154.343 167.097 147.221 158.423Z" fill="#00A7E2"/>
</g>
<g style="mix-blend-mode:multiply" opacity="0.8">
<path d="M34.9075 72.2541C34.9075 61.9028 35.6355 48.0376 35.6672 35.8186C37.5032 35.8186 39.3709 35.8186 41.3019 35.8186C40.3999 34.612 39.2149 33.6459 37.8513 33.0055C36.4878 32.3651 34.9875 32.0701 33.483 32.1466C27.1519 32.8747 29.4944 54.5903 29.3994 59.2437C29.3045 63.897 29.3994 68.1072 29.1145 72.5073C29.1145 73.9951 28.5131 85.8976 32.9448 80.4845C33.7216 79.4846 34.4201 78.4263 35.0341 77.319L34.9075 72.2541Z" fill="#00A7E2"/>
</g>
<g style="mix-blend-mode:multiply" opacity="0.8">
<path d="M47.1584 105.459C40.0992 99.6979 27.3421 95.2028 26.0126 115.241C25.3478 125.814 25.601 136.355 25.5377 146.896C25.5377 158.672 25.0629 171.682 16.9591 180.324C20.3273 180.321 23.6619 179.654 26.7723 178.362C37.2186 173.645 34.5912 160.065 34.6861 151.011C34.855 135.5 34.9394 119.978 34.9394 104.446C39.2445 104.889 43.2331 105.238 47.1584 105.459Z" fill="#00A7E2"/>
</g>
<path d="M246.145 43.5774C230.317 36.3283 211.672 46.2998 201.353 58.3289C199.865 52.4093 197.934 46.0148 192.647 44.1155C176.82 38.5125 166.69 50.1618 169.032 61.1779C172.008 75.2645 176.756 92.8333 176.091 107.521C174.796 128.816 175.772 150.188 179.004 171.276C179.188 173.105 179.762 174.874 180.686 176.464C181.611 178.053 182.865 179.426 184.364 180.491C185.864 181.555 187.573 182.287 189.379 182.635C191.184 182.984 193.044 182.943 194.832 182.513C206.196 179.981 205.563 166.369 205.943 157.379C206.639 141.868 205.341 126.261 206.607 110.782C207.212 101.775 209.231 92.9187 212.59 84.5396C218.731 69.6615 229.336 66.2743 243.043 73.2069C248.867 76.1508 256.148 79.1898 260.39 72.2889C268.304 59.6901 257.288 48.6423 246.145 43.5774Z" fill="#355EAA" stroke="#242B6F" stroke-width="3.16555" stroke-miterlimit="10"/>
<g style="mix-blend-mode:multiply" opacity="0.8">
<path d="M254.439 48.6113C254.78 50.3515 254.76 52.1433 254.378 53.8751C253.997 55.607 253.263 57.2418 252.223 58.6777C247.158 66.6549 231.077 61.0202 223.986 60.9252C204.993 60.7037 196.921 81.9445 195.686 97.6456C193.597 123.793 202.429 155.259 189.577 179.412C189.035 180.409 188.328 181.308 187.487 182.071C189.882 182.941 192.478 183.095 194.958 182.514C206.322 179.981 205.689 166.37 206.069 157.379C206.765 141.868 205.468 126.262 206.734 110.783C207.338 101.775 209.357 92.9194 212.717 84.5403C218.858 69.6622 229.462 66.275 243.169 73.2076C248.994 76.1515 256.275 79.1905 260.516 72.2896C266.246 62.9513 261.688 54.4359 254.439 48.6113Z" fill="#00A7E2"/>
</g>
</svg>
