<svg width="258" height="185" viewBox="0 0 258 185" fill="none" xmlns="http://www.w3.org/2000/svg">
<path d="M129.677 113.05C127.345 98.5536 116.465 84.3261 104.181 76.7341C87.1137 66.1531 66.7588 65.7645 48.9146 57.1862C41.8606 53.8087 36.4805 44.3337 41.4721 37.5188C46.4637 30.704 56.0881 29.2095 63.9491 28.5519C73.8723 28.0059 83.6889 30.8287 91.8063 36.5623C97.7843 40.9561 98.9799 45.5292 101.132 52.0452C102.895 57.3058 105.257 61.1616 111.534 59.6671C117.81 58.1726 124.237 44.8717 125.044 39.4916C125.404 36.0124 125.009 32.4964 123.884 29.1843C122.76 25.8723 120.932 22.8424 118.528 20.3023C108.993 9.3627 92.7628 5.77592 79.1032 3.47441C71.5161 2.24474 63.8321 1.71447 56.148 1.89026C26.2583 2.21905 -8.35402 32.1386 4.94689 63.5228C11.9112 79.9323 31.6085 90.2741 47.9283 95.6542C67.0577 101.961 89.7739 97.9856 100.923 117.504C111.474 136.065 92.4939 147.393 76.6224 151.1C57.6126 155.374 29.7254 141.535 30.3232 119.865C30.921 98.1949 2.496 105.518 2.01776 123.751C1.06129 162.607 38.9016 188.013 75.2475 181.886C108.694 176.476 135.206 147.603 129.677 113.05Z" fill="#F7EA00" stroke="#CFB600" stroke-width="2.98897" stroke-linecap="round" stroke-linejoin="round"/>
<g style="mix-blend-mode:multiply">
<path d="M96.9767 31.4192C87.0234 26.1586 77.638 21.0475 65.9212 20.7187C51.6937 20.3003 25.9587 27.9521 27.9912 46.9619C30.5617 71.1427 75.8148 72.7268 93.3601 82.68C120.41 98.0135 133.861 129.428 118.677 156.328C123.391 150.26 126.802 143.284 128.694 135.836C130.587 128.389 130.921 120.631 129.676 113.048C127.345 98.5515 116.465 84.324 104.18 76.732C87.1131 66.1511 66.7581 65.7625 48.914 57.1841C41.86 53.8066 36.4799 44.3316 41.4715 37.5167C46.4631 30.7019 56.0875 29.2074 63.9485 28.5498C73.8717 28.0039 83.6883 30.8266 91.8057 36.5603C97.7837 40.954 98.9792 45.5271 101.131 52.0431C102.895 57.3037 105.256 61.1595 111.533 59.665C117.81 58.1705 124.236 44.8696 125.043 39.4895C125.404 36.0103 125.008 32.4943 123.884 29.1822C122.759 25.8702 120.932 22.8403 118.527 20.3002L118.258 20.0312C119.095 30.8214 112.818 39.8182 96.9767 31.4192Z" fill="#FFDD07"/>
</g>
<g style="mix-blend-mode:multiply">
<path d="M30.323 119.926C30.5322 111.617 26.4672 107.582 21.356 106.805C19.0517 108.212 17.3121 110.38 16.4387 112.935C15.5652 115.49 15.6131 118.27 16.5738 120.793C17.5994 124.98 19.3494 128.956 21.7446 132.54C26.1672 139.229 32.0679 144.813 38.991 148.86C47.6293 153.393 57.2132 155.83 66.9678 155.973C76.5026 155.973 87.3824 155.047 95.2733 149.099C105.286 141.566 108.036 129.551 102.387 120.494C109.441 137.322 91.6865 147.783 76.652 151.161C57.6122 155.555 29.7252 141.596 30.323 119.926Z" fill="#FFDD07"/>
</g>
<path d="M237.01 105.669C224.576 97.9576 209.78 97.6586 196.808 91.4416C191.637 88.9906 187.841 82.1161 191.368 77.1245C194.895 72.1329 202.009 71.1465 207.718 70.6683C219.674 69.7417 226.907 77.3038 236.322 82.8334C253.868 93.1155 255.452 69.114 243.496 60.984C231.54 52.854 215.788 51.0905 202.039 51.2698C180.369 51.5089 155.142 73.2686 164.826 96.1044C169.877 108.06 184.195 115.563 196.061 119.478C209.96 124.051 222.214 121.511 230.255 135.708C237.906 149.218 228.491 157.199 216.924 159.799C203.115 162.788 182.82 152.865 183.238 137.083C183.657 121.301 163.003 126.652 162.674 139.923C161.987 168.139 189.575 186.64 215.937 182.217C240.268 178.092 259.547 157.199 255.541 132.062C254.387 126.642 252.15 121.511 248.966 116.976C245.782 112.441 241.715 108.596 237.01 105.669Z" fill="#F7EA00" stroke="#CFB600" stroke-width="2.98897" stroke-linecap="round" stroke-linejoin="round"/>
<path d="M237.01 105.669C224.576 97.9576 209.78 97.6586 196.808 91.4416C191.637 88.9906 187.841 82.1161 191.368 77.1245C194.895 72.1329 202.009 71.1465 207.718 70.6683C219.674 69.7417 226.907 77.3038 236.322 82.8334C253.868 93.1155 255.452 69.114 243.496 60.984C231.54 52.854 215.788 51.0905 202.039 51.2698C180.369 51.5089 155.142 73.2686 164.826 96.1044C169.877 108.06 184.195 115.563 196.061 119.478C209.96 124.051 222.214 121.511 230.255 135.708C237.906 149.218 228.491 157.199 216.924 159.799C203.115 162.788 182.82 152.865 183.238 137.083C183.657 121.301 163.003 126.652 162.674 139.923C161.987 168.139 189.575 186.64 215.937 182.217C240.268 178.092 259.547 157.199 255.541 132.062C254.387 126.642 252.15 121.511 248.966 116.976C245.782 112.441 241.715 108.596 237.01 105.669Z" fill="#F7EA00" stroke="#CFB600" stroke-width="2.98897" stroke-linecap="round" stroke-linejoin="round"/>
<g style="mix-blend-mode:multiply">
<path d="M191.099 163.084C198.931 165.057 208.585 165.685 215.669 160.992L217.522 159.677H216.924C203.115 162.666 182.82 152.742 183.238 136.961C183.478 128.98 178.217 126.44 172.986 127.575C171.557 128.388 170.414 129.623 169.713 131.11C169.012 132.598 168.788 134.265 169.071 135.885C169.353 140.101 170.612 144.194 172.747 147.841C176.632 155.129 183.222 160.603 191.099 163.084Z" fill="#FFDD07"/>
</g>
<g style="mix-blend-mode:multiply">
<path d="M255.541 132.058C254.387 126.639 252.15 121.508 248.966 116.973C245.782 112.438 241.715 108.592 237.01 105.666C224.576 97.9542 209.78 97.6552 196.808 91.4382C191.637 88.9872 187.841 82.1127 191.368 77.1211C194.895 72.1295 202.009 71.1431 207.718 70.6649C219.674 69.7383 226.907 77.3004 236.322 82.83C252.552 92.3648 255.123 72.518 245.917 63.043C245.945 63.451 245.945 63.8605 245.917 64.2685C245.917 74.431 234.708 73.893 228.222 70.7546C215.011 64.4179 188.05 56.9455 184.763 79.8709C182.222 97.446 199.259 101.122 211.394 104.171C223.53 107.22 234.17 111.793 241.284 122.404C253.688 140.547 248.607 164.07 230.793 176.893C230.165 177.341 229.507 177.73 228.88 178.118C246.754 170.018 258.799 152.563 255.541 132.058Z" fill="#FFDD07"/>
</g>
</svg>
