<svg width="240" height="185" viewBox="0 0 240 185" fill="none" xmlns="http://www.w3.org/2000/svg">
<path d="M143.834 10.3215C135.167 -2.47249 116.536 2.39163 104.981 2.89278C88.0889 3.65925 72.2584 2.89278 55.3668 2.89278C40.8924 2.89278 19.9916 0.563835 6.04786 6.31231C0.918457 8.43482 1.30163 18.8411 3.68946 25.0023C7.3449 34.4652 17.7806 32.0773 24.7378 32.1658C35.9694 32.3132 47.1715 32.3721 58.4031 32.4016C58.5505 39.8304 59.4644 47.1412 59.6707 53.214C60.4077 74.4391 59.5233 94.2787 59.6707 115.504C59.8476 133.634 57.3714 159.959 63.1199 177.41C65.2424 183.837 75.6485 183.306 81.7802 180.358C91.2726 175.76 88.8848 162.671 88.9732 153.827C89.209 127.924 89.268 102.012 89.1501 76.09C89.1501 63.6792 89.9756 47.0823 90.0345 32.3131C103.448 32.3131 121.371 33.8166 134.018 32.7553C140.297 32.3721 151.558 21.7301 143.834 10.3215Z" fill="#9ADAEF" stroke="#007EC3" stroke-width="2.94794" stroke-linecap="round" stroke-linejoin="round"/>
<g style="mix-blend-mode:multiply">
<path d="M58.7571 39.6566C60.6732 36.0602 61.4102 32.5226 58.7571 30.459C51.8294 25.0053 42.0424 27.9238 34.0535 28.2776C26.3544 28.7304 18.6303 28.5034 10.9711 27.5995C8.64859 27.2876 6.35936 26.7646 4.13184 26.0371C8.14103 34.3208 18.0461 32.1394 24.7674 32.2278C35.999 32.3752 47.2012 32.4342 58.4328 32.4637C58.6097 34.881 58.6097 37.2688 58.7571 39.6566Z" fill="#38C6F4"/>
</g>
<g style="mix-blend-mode:multiply">
<path d="M143.835 10.323C142.17 7.97035 140.013 6.00817 137.513 4.57266C135.014 3.13714 132.232 2.26263 129.361 2.00977C130.665 3.08838 131.86 4.29304 132.928 5.60625C136.848 10.5293 139.59 20.6702 133.105 24.8858C124.497 30.4868 112.174 29.0424 102.387 28.6886C96.6502 28.2418 90.8933 28.104 85.1416 28.2759C81.103 28.5707 82.1937 41.0699 82.1937 43.0156C82.1937 53.4807 82.9896 63.9164 83.4908 74.3521C84.611 97.4934 81.5157 120.399 82.1348 143.481C82.4885 155.597 85.6133 172.017 76.8875 181.804C78.5371 181.466 80.1403 180.931 81.6631 180.212C91.1554 175.614 88.7676 162.525 88.8561 153.681C89.0919 127.779 89.1508 101.866 89.0329 75.944C89.0329 63.5332 89.8583 46.9363 89.9173 32.1672C103.33 32.1672 121.254 33.6706 133.901 32.6093C140.298 32.3735 151.559 21.7315 143.835 10.323Z" fill="#38C6F4"/>
</g>
<path d="M235.486 150.291C229.855 143.392 224.195 142.744 217.975 147.608C214.025 150.733 209.927 157.454 202.646 152.295C197.988 148.994 199.197 140.503 199.049 135.197C199.049 134.549 199.049 133.93 199.049 133.252C199.197 131.424 199.197 129.596 199.226 127.886C199.226 123.85 199.02 119.815 198.607 115.8C199.58 106.956 198.607 97.4931 198.607 89.2683C198.607 86.1435 198.607 82.9008 198.607 79.658C205.341 79.9735 212.089 79.8158 218.8 79.1864C225.227 78.5378 229.914 68.1022 227.644 62.678C223.871 54.07 206.065 56.7821 198.725 56.7821C198.725 53.5394 199.256 47.4961 199.403 44.3712C199.934 34.4662 202.911 18.9306 190.235 11.5313C178.885 4.89844 169.098 14.0665 168.568 19.4317C167.565 29.779 168.125 44.5482 168.243 55.9272C163.354 56.6895 158.659 58.3913 154.417 60.9387C153.341 61.6422 152.446 62.59 151.805 63.705C151.164 64.82 150.795 66.0705 150.729 67.3549C150.663 68.6393 150.901 69.9212 151.424 71.0961C151.947 72.271 152.741 73.3056 153.739 74.1159C156.64 76.1226 160.013 77.3416 163.527 77.6535C165.112 78.0069 166.717 78.2725 168.332 78.4494C168.332 88.6787 168.656 98.9081 168.833 109.137C168.833 115.358 169.01 121.578 168.833 127.768C168.627 144.306 168.243 165.649 183.779 176.675C201.201 188.967 231.948 181.303 237.903 160.874C238.339 159.042 238.348 157.135 237.929 155.3C237.51 153.465 236.674 151.751 235.486 150.291Z" fill="#9ADAEF" stroke="#007EC3" stroke-width="2.94794" stroke-linecap="round" stroke-linejoin="round"/>
<g style="mix-blend-mode:multiply">
<path d="M189.233 23.2311C190.559 31.7506 189.38 38.7372 188.672 47.1978C187.992 50.4148 187.992 53.7385 188.672 56.9555C190.264 61.23 196.927 58.6653 198.754 57.3387C198.902 53.9486 199.049 47.1388 199.197 44.3088C199.727 34.4037 202.705 18.8681 190.028 11.4688C188.116 10.316 185.99 9.56384 183.779 9.25781C186.68 13.4169 188.549 18.2066 189.233 23.2311Z" fill="#38C6F4"/>
</g>
<g style="mix-blend-mode:multiply">
<path d="M223.487 68.3364C216.943 80.423 204.709 74.2323 193.743 75.6178C187.847 76.3548 189.792 126.617 190.294 137.524C190.883 150.967 199.137 169.952 212.403 153.266C212.403 153.266 208.984 154.21 209.072 154.121C207.932 154.33 206.76 154.284 205.639 153.989C204.518 153.693 203.476 153.155 202.586 152.412C197.929 149.11 199.137 140.62 198.99 135.314C198.99 134.665 198.99 134.046 198.99 133.368C199.137 131.54 199.137 129.713 199.167 128.003C199.167 123.966 198.961 119.932 198.548 115.916C199.521 107.072 198.548 97.6095 198.548 89.3847C198.548 86.2599 198.548 83.0172 198.548 79.7744C205.282 80.0899 212.029 79.9322 218.741 79.3027C225.168 78.6542 229.855 68.2185 227.585 62.7943C226.881 61.252 225.717 59.965 224.254 59.1094C224.755 60.6195 224.946 62.2155 224.814 63.8013C224.682 65.387 224.231 66.9297 223.487 68.3364Z" fill="#38C6F4"/>
</g>
<g style="mix-blend-mode:multiply">
<path d="M168.243 78.3905C168.243 73.2906 161.168 73.9391 157.867 72.4946C155.39 71.4923 153.415 67.4832 151.971 65.2427C151.761 64.9116 151.574 64.5669 151.411 64.2109C150.605 65.8494 150.386 67.7141 150.788 69.4949C151.19 71.2756 152.19 72.8649 153.622 73.9981C156.523 76.0048 159.895 77.2237 163.409 77.5356C164.47 77.8304 167.182 78.2136 168.243 78.3905Z" fill="#38C6F4"/>
</g>
</svg>
