<svg width="307" height="185" viewBox="0 0 307 185" fill="none" xmlns="http://www.w3.org/2000/svg">
<path d="M191.367 103.63C191.367 109.267 191.367 114.936 191.645 120.573C191.645 125.071 192.014 129.599 192.445 134.097C192.827 139.905 193.724 145.668 195.125 151.318C199.592 167.583 215.766 178.365 232.093 179.659C242.498 180.7 252.985 178.778 262.344 174.114C264.008 173.252 273.096 168.908 273.126 166.875C273.126 168.877 273.126 170.941 273.126 173.036C273.126 173.036 273.126 173.282 273.126 173.436C274.636 181.323 282.738 183.602 289.916 182.185C293.299 181.673 296.441 180.124 298.907 177.751C301.373 175.379 303.043 172.3 303.686 168.939C303.686 151.995 304.148 134.282 303.994 117.493C303.994 98.5468 306.428 71.037 300.421 52.7998C298.203 46.084 287.328 46.6386 280.89 49.7192C271.001 54.5249 273.496 68.2028 273.404 77.4446C273.404 87.6723 273.404 97.9307 273.219 108.251C273.219 113.457 273.219 118.663 273.219 123.869C273.219 131.941 272.11 138.841 266.349 144.848C261.92 150.03 256.022 153.747 249.437 155.507C245.042 156.224 240.555 156.14 236.19 155.261C231.239 154.31 226.834 151.513 223.868 147.436C217.491 139.919 217.984 126.765 217.891 117.677C217.891 98.7316 220.479 79.4162 217.398 54.7713C216.536 47.9324 204.213 46.8233 198.915 48.6101C189.981 51.5367 191.706 60.7785 191.675 68.4801C191.521 80.0323 191.367 91.8003 191.367 103.63Z" fill="#D41B64" stroke="#8D1437" stroke-width="3.08061" stroke-linecap="round" stroke-linejoin="round"/>
<g style="mix-blend-mode:multiply">
<path d="M212.284 55.451C215.704 70.6692 211.853 89.3377 211.576 104.741C211.206 125.412 206.554 163.272 238.808 160.746C245.441 160.403 251.681 157.498 256.214 152.644C254.1 153.864 251.8 154.728 249.406 155.201C245.011 155.917 240.524 155.834 236.159 154.955C231.207 154.004 226.802 151.207 223.836 147.13C217.46 139.613 217.953 126.459 217.86 117.371C217.86 98.4255 220.448 79.1101 217.367 54.4652C216.936 51.0149 213.547 49.0125 209.666 48.1191C210.938 50.4015 211.823 52.8791 212.284 55.451Z" fill="#C31D73"/>
</g>
<g style="mix-blend-mode:multiply">
<path d="M300.42 52.7704C298.202 46.0855 287.482 46.6092 281.043 49.6898C283.707 50.5499 286.14 52.0035 288.16 53.9411C302.854 68.3583 294.875 97.4701 295.029 115.368C295.029 131.973 294.814 148.393 293.92 164.966C293.481 170.55 290.99 175.774 286.927 179.63C286.096 180.462 285.11 181.447 283.847 182.464C285.884 182.67 287.94 182.566 289.946 182.156C293.33 181.643 296.471 180.094 298.937 177.722C301.404 175.349 303.073 172.27 303.717 168.909C303.717 151.966 304.179 134.253 304.025 117.463C303.84 98.5483 306.428 71.0384 300.42 52.7704Z" fill="#C31D73"/>
</g>
<path d="M152.336 52.0317C152.336 36.4439 151.104 20.9484 147.038 8.62596C143.957 -0.338609 129.632 0.369878 121.068 4.5287C118.923 5.55196 117.038 7.04754 115.554 8.90321C109.085 26.4627 112.257 47.3492 112.75 65.648C113.243 82.6837 115.584 100.828 111.395 117.618C107.821 131.973 99.6885 143.957 83.6694 145.343C81.689 145.545 79.691 145.494 77.7238 145.189C72.3719 145.89 66.9421 145.724 61.6431 144.696C54.1264 143.187 50.553 139.891 45.6856 134.13C37.1831 124.118 37.2447 106.774 37.1522 94.6673C36.9366 69.4372 40.5716 43.7756 36.4744 10.9672C35.3346 1.72534 18.9151 0.40073 11.9837 2.64957C0.061772 6.53114 2.37218 18.8227 2.31057 29.0812C2.31057 44.8231 1.8792 60.5033 2.03323 76.2144C2.03323 83.7311 2.21806 91.2478 2.40289 98.7645C2.54665 104.782 2.89587 110.789 3.45038 116.786C3.97629 124.505 5.17187 132.163 7.02381 139.675C11.6447 156.372 25.5075 168.694 41.5575 174.27C45.9884 176.648 50.6687 178.528 55.5127 179.877C65.8743 182.578 76.6755 183.152 87.2648 181.563C97.8541 179.975 108.012 176.257 117.125 170.635C135.609 158.96 139.582 154.616 146.237 129.971C151.597 110.009 152.86 77.6932 152.336 52.0317Z" fill="#D41B64" stroke="#8D1437" stroke-width="3.08061" stroke-linecap="round" stroke-linejoin="round"/>
<g style="mix-blend-mode:multiply">
<path d="M21.4107 8.01254C36.2593 21.5672 26.6476 55.1767 26.4628 72.0276C26.1855 99.599 20.7022 141.649 55.2974 151.045C69.9303 155.019 81.5749 151.723 89.6153 144.237C87.6056 144.825 85.5412 145.207 83.4541 145.377C81.4737 145.579 79.4757 145.527 77.5085 145.223C72.1566 145.924 66.7268 145.757 61.4278 144.73C53.9111 143.22 50.3377 139.924 45.4703 134.164C36.9678 124.152 37.0294 106.808 36.937 94.7008C36.7213 69.4706 40.3565 43.8092 36.2593 11.0007C35.1195 1.75891 18.6998 0.434207 11.7684 2.68305L11.1831 2.92955C15.0334 3.53343 18.6044 5.30814 21.4107 8.01254Z" fill="#C31D73"/>
</g>
<g style="mix-blend-mode:multiply">
<path d="M152.336 52.0317C152.336 36.4439 151.104 20.9484 147.037 8.62596C143.957 -0.338609 129.632 0.369878 121.068 4.5287L120.482 4.83678C122.698 4.6419 124.93 4.89314 127.046 5.57572C129.163 6.2583 131.121 7.35837 132.805 8.81079C142.94 17.3133 143.741 30.375 142.632 42.9439C141.276 58.3469 141.061 73.75 140.845 89.153C140.383 122.27 136.378 153.045 108.684 174.486C108.006 175.01 107.266 175.503 106.589 175.995C110.19 174.483 113.662 172.68 116.97 170.604C135.454 158.929 139.428 154.585 146.082 129.94C151.596 110.009 152.86 77.6932 152.336 52.0317Z" fill="#C31D73"/>
</g>
</svg>
