<svg width="286" height="185" viewBox="0 0 286 185" fill="none" xmlns="http://www.w3.org/2000/svg">
<path d="M150.121 8.88858C143.046 -5.23143 127.347 4.33374 123.794 11.9251C115.96 28.3226 107.761 53.6475 101.02 70.4093C92.9221 90.3089 84.9967 110.249 77.2434 130.23C69.4293 110.249 61.514 90.3089 53.4975 70.4093C46.726 53.6475 38.5576 28.3226 30.7233 11.9251C27.1705 4.42484 11.4715 -5.14033 4.3963 8.88858C-3.52913 24.6483 10.2265 45.6613 16.3907 59.6599C25.5004 80.1567 32.3023 99.9854 40.6832 120.695C48.2139 139.157 54.287 157.741 64.3684 174.989C66.0996 177.668 68.5684 179.79 71.4775 181.099C74.3867 182.408 77.6122 182.849 80.7658 182.367C88.843 180.849 91.7885 171.982 95.3109 165.484C100.108 156.019 104.258 146.239 107.73 136.212C109.674 131.019 111.557 125.827 113.804 120.695C122.276 99.9854 129.169 80.1567 138.096 59.6599C144.291 45.6613 158.046 24.6483 150.121 8.88858Z" fill="#FFD453" stroke="#A77F2D" stroke-width="3.03656" stroke-linecap="round" stroke-linejoin="round"/>
<g style="mix-blend-mode:multiply">
<path d="M10.257 5.66806C25.6524 15.8709 31.513 37.0965 37.1306 53.4332C46.9691 81.491 56.1091 111.128 69.1359 138.001C74.3588 148.781 78.4278 132.93 78.4886 128.679C78.4886 128.133 78.4886 127.556 78.4886 127.009C78.0938 128.072 77.6687 129.104 77.2436 130.046C69.4295 110.065 61.5142 90.125 53.4977 70.2254C46.7261 53.4636 38.5578 28.1386 30.7235 11.7412C27.6869 5.30368 15.6925 -2.62172 7.85815 4.18018C8.68858 4.62468 9.48984 5.12163 10.257 5.66806Z" fill="#F7B850"/>
</g>
<g style="mix-blend-mode:multiply">
<path d="M150.121 8.88939C149.279 6.74498 147.807 4.9063 145.899 3.616C143.991 2.3257 141.736 1.64454 139.432 1.66245C140.256 2.2647 141.019 2.94606 141.71 3.6969C148.208 10.4684 144.746 21.9163 141.163 28.9915C132.489 47.0926 124.835 65.6648 118.237 84.6212C110.312 106.242 102.811 127.983 93.9445 149.239C89.6933 159.381 85.9583 171.528 75.5126 177.085C73.4856 178.172 71.3607 179.067 69.1661 179.757C72.6108 182.059 76.7913 182.99 80.8873 182.368C88.9645 180.85 91.91 171.983 95.4324 165.485C100.23 156.02 104.379 146.24 107.852 136.212C109.795 131.02 111.678 125.827 113.925 120.696C122.397 99.9862 129.29 80.1575 138.218 59.6607C144.291 45.6621 158.046 24.6491 150.121 8.88939Z" fill="#F7B850"/>
</g>
<path d="M282.424 55.5305C277.231 45.2062 265.753 52.2206 263.141 57.6864C257.433 69.8327 251.451 88.2039 246.501 100.472C240.63 115.027 234.841 129.612 229.132 144.228C223.383 129.633 217.583 115.047 211.733 100.472C206.783 88.3253 200.801 69.6808 195.092 57.6864C192.481 52.2206 181.003 45.2062 175.81 55.5305C170.01 67.0694 180.092 82.4344 184.586 92.6676C191.175 107.668 196.246 122.153 202.441 137.335C207.937 150.818 212.37 164.422 219.749 177.023C221.029 179.007 222.86 180.575 225.017 181.535C227.174 182.495 229.564 182.806 231.895 182.428C237.968 181.305 239.973 174.837 242.554 170.1C246.062 163.164 249.106 156.002 251.663 148.662C253.09 144.866 254.457 141.07 255.975 137.335C262.048 122.153 267.241 107.668 273.83 92.6676C278.142 82.4344 288.223 67.0694 282.424 55.5305Z" fill="#FFD453" stroke="#A77F2D" stroke-width="3.03656" stroke-linecap="round" stroke-linejoin="round"/>
<g style="mix-blend-mode:multiply">
<path d="M282.424 55.5281C282.008 54.4757 281.385 53.5175 280.592 52.7107C279.798 51.9038 278.851 51.2646 277.806 50.8312C276.76 50.3978 275.639 50.179 274.507 50.1878C273.376 50.1965 272.257 50.4327 271.219 50.8822C272.032 51.2171 272.762 51.7245 273.36 52.3694C273.958 53.0142 274.408 53.7811 274.681 54.6171C278.203 63.1802 273.982 73.8386 270.369 81.6426C263.476 96.8254 257.463 111.705 251.967 127.191C246.775 142.04 242.432 159.105 233.566 172.223C232.29 174.244 230.555 175.936 228.503 177.16C226.45 178.384 224.138 179.106 221.753 179.268C223.094 180.476 224.684 181.374 226.41 181.899C228.137 182.424 229.958 182.562 231.744 182.305C237.817 181.181 239.821 174.713 242.402 169.976C245.911 163.04 248.954 155.878 251.512 148.538C252.939 144.742 254.305 140.947 255.824 137.212C261.897 122.029 267.089 107.544 273.678 92.5438C278.142 82.4321 288.224 67.0671 282.424 55.5281Z" fill="#F7B850"/>
</g>
<g style="mix-blend-mode:multiply">
<path d="M182.733 51.6103C195.092 59.2017 198.493 81.9759 202.288 94.4865C205.72 105.752 209.789 116.836 214.101 127.889C216.014 132.747 218.018 137.575 219.901 142.434C220.143 143.041 226.763 156.523 228.19 151.331C228.625 149.014 228.909 146.671 229.041 144.317C223.514 130.257 217.289 114.528 211.641 100.56C206.691 88.4134 200.709 69.7689 195.001 57.7745C193.088 53.7663 186.438 48.9685 180.972 50.6994L182.733 51.6103Z" fill="#F7B850"/>
</g>
</svg>
