<svg width="411" height="185" viewBox="0 0 411 185" fill="none" xmlns="http://www.w3.org/2000/svg">
<path d="M215.943 8.12692C206.603 -4.20667 191.76 6.97819 189.13 14.5355C183.356 31.071 178.459 56.1009 173.864 72.8783C170.055 86.6326 166.307 100.448 162.619 114.232C158.931 100.568 155.243 86.8745 151.464 73.241C148.653 63.0537 146.748 52.6549 144.39 42.3466C142.244 32.8546 139.493 21.8511 133.871 13.7194C131.629 10.5514 128.765 7.8735 125.454 5.84902C122.143 3.82454 118.454 2.49594 114.612 1.94432C110.771 1.3927 106.857 1.62965 103.11 2.64065C99.3634 3.65165 95.8617 5.4155 92.8191 7.82461C85.7756 13.3264 83.2363 21.3674 80.9993 29.6502C78.4298 39.1725 76.2836 48.8157 73.9862 58.4286C72.777 63.356 71.598 68.3136 70.2377 73.241C66.4892 86.8745 62.8012 100.448 59.1737 114.232C55.4857 100.448 51.7675 86.6326 47.9888 72.8783C43.4242 56.1009 38.5573 31.071 32.8741 14.5355C30.2744 6.97819 15.5225 -4.20667 6.27226 8.12692C-4.09643 21.972 7.11868 43.6767 11.4717 57.7334C17.8199 78.3196 22.1427 97.9687 27.9468 118.706C31.272 130.798 33.7206 142.89 37.4388 154.981C39.8269 162.629 41.4895 172.575 48.0795 178.197C49.9162 179.872 52.1019 181.117 54.4786 181.843C56.8554 182.569 59.3637 182.759 61.8224 182.397C64.2812 182.035 66.6289 181.132 68.6959 179.752C70.7629 178.373 72.4976 176.551 73.7745 174.419C79.8204 163.929 82.8434 150.235 85.564 138.839C87.1964 132.279 88.587 125.719 90.431 119.22C96.2048 98.4826 100.528 78.8033 106.906 58.2171C107.934 54.8918 109.355 51.1131 110.775 47.1228C112.226 51.1131 113.647 54.8918 114.675 58.2171C121.084 78.8033 125.437 98.4826 131.271 119.22C133.085 125.719 134.536 132.279 136.168 138.839C139.01 150.386 142.002 163.929 148.018 174.419C149.314 176.555 151.066 178.378 153.149 179.759C155.232 181.139 157.594 182.042 160.066 182.403C162.539 182.764 165.06 182.574 167.451 181.847C169.841 181.12 172.042 179.874 173.894 178.197C180.515 172.575 182.207 162.629 184.596 154.981C188.344 143.071 190.793 130.798 194.178 118.706C200.013 97.9687 204.335 78.3196 210.744 57.7334C215.067 43.6767 226.342 21.972 215.943 8.12692Z" fill="#07B9AB" stroke="#1A6CB5" stroke-width="3.02294" stroke-linecap="round" stroke-linejoin="round"/>
<path d="M215.943 8.12692C206.603 -4.20667 191.76 6.97819 189.13 14.5355C183.356 31.071 178.459 56.1009 173.864 72.8783C170.055 86.6326 166.307 100.448 162.619 114.232C158.931 100.568 155.243 86.8745 151.464 73.241C148.653 63.0537 146.748 52.6549 144.39 42.3466C142.244 32.8546 139.493 21.8511 133.871 13.7194C131.629 10.5514 128.765 7.8735 125.454 5.84902C122.143 3.82454 118.454 2.49594 114.612 1.94432C110.771 1.3927 106.857 1.62965 103.11 2.64065C99.3634 3.65165 95.8617 5.4155 92.8191 7.82461C85.7756 13.3264 83.2363 21.3674 80.9993 29.6502C78.4298 39.1725 76.2836 48.8157 73.9862 58.4286C72.777 63.356 71.598 68.3136 70.2377 73.241C66.4892 86.8745 62.8012 100.448 59.1737 114.232C55.4857 100.448 51.7675 86.6326 47.9888 72.8783C43.4242 56.1009 38.5573 31.071 32.8741 14.5355C30.2744 6.97819 15.5225 -4.20667 6.27226 8.12692C-4.09643 21.972 7.11868 43.6767 11.4717 57.7334C17.8199 78.3196 22.1427 97.9687 27.9468 118.706C31.272 130.798 33.7206 142.89 37.4388 154.981C39.8269 162.629 41.4895 172.575 48.0795 178.197C49.9162 179.872 52.1019 181.117 54.4786 181.843C56.8554 182.569 59.3637 182.759 61.8224 182.397C64.2812 182.035 66.6289 181.132 68.6959 179.752C70.7629 178.373 72.4976 176.551 73.7745 174.419C79.8204 163.929 82.8434 150.235 85.564 138.839C87.1964 132.279 88.587 125.719 90.431 119.22C96.2048 98.4826 100.528 78.8033 106.906 58.2171C107.934 54.8918 109.355 51.1131 110.775 47.1228C112.226 51.1131 113.647 54.8918 114.675 58.2171C121.084 78.8033 125.437 98.4826 131.271 119.22C133.085 125.719 134.536 132.279 136.168 138.839C139.01 150.386 142.002 163.929 148.018 174.419C149.314 176.555 151.066 178.378 153.149 179.759C155.232 181.139 157.594 182.042 160.066 182.403C162.539 182.764 165.06 182.574 167.451 181.847C169.841 181.12 172.042 179.874 173.894 178.197C180.515 172.575 182.207 162.629 184.596 154.981C188.344 143.071 190.793 130.798 194.178 118.706C200.013 97.9687 204.335 78.3196 210.744 57.7334C215.067 43.6767 226.342 21.972 215.943 8.12692Z" fill="#07B9AB" stroke="#008280" stroke-width="3.02294" stroke-linecap="round" stroke-linejoin="round"/>
<g style="mix-blend-mode:multiply">
<path d="M123.018 18.1345C132.086 32.6446 136.651 48.0918 141.76 64.3552C145.69 76.7493 150.285 89.234 153.338 101.84C154.958 110.427 157.139 118.9 159.867 127.202C162.974 120.16 164.766 112.61 165.157 104.923C164.311 107.946 163.434 111.12 162.618 114.234C158.93 100.57 155.242 86.8761 151.463 73.2426C148.652 63.0553 146.748 52.6565 144.39 42.3482C142.243 32.8562 139.493 21.8527 133.87 13.721C131.123 9.72544 127.387 6.5108 123.026 4.39137C118.666 2.27195 113.83 1.32026 108.991 1.62923C114.51 6.35481 119.244 11.9257 123.018 18.1345Z" fill="#A1DDF3"/>
</g>
<g style="mix-blend-mode:multiply">
<path d="M33.6905 49.058C38.7691 71.0045 43.6663 93.1929 50.2865 114.716C51.8886 120.037 56.3324 136.542 59.8994 121.699C61.0761 116.401 61.624 110.983 61.5318 105.557C60.7459 108.58 59.9296 111.331 59.1739 114.233C55.4859 100.448 51.7677 86.6331 47.989 72.8787C43.4244 56.1014 38.5575 31.0715 32.8743 14.536C31.0303 9.18543 23.1102 2.05125 15.3715 2.68607C25.6797 13.6896 31.6047 40.0496 33.6905 49.058Z" fill="#A1DDF3"/>
</g>
<g style="mix-blend-mode:multiply">
<path d="M111.712 49.7547C111.729 46.6034 111.239 43.4699 110.261 40.4742C108.236 34.7609 101.404 55.1053 101.192 56.4656C99.9528 61.7255 99.0157 67.0459 97.8065 72.3058C92.0327 97.7287 82.9336 122.849 74.9833 147.728C72.5347 155.437 68.3026 172.426 60.8661 182.371C63.5242 182.209 66.0998 181.386 68.3592 179.977C70.6187 178.568 72.4903 176.616 73.8043 174.3C79.8502 163.81 82.8731 150.116 85.5938 138.72C87.2262 132.16 88.6167 125.6 90.4607 119.101C96.2345 98.3636 100.557 78.6842 106.936 58.098C107.964 54.7728 109.384 50.9941 110.805 47.0038L111.712 49.7547Z" fill="#A1DDF3"/>
</g>
<g style="mix-blend-mode:multiply">
<path d="M215.944 8.12917C210.563 1.02526 203.368 1.72054 197.806 5.10623C200.369 5.99286 202.705 7.43294 204.648 9.32421C206.592 11.2155 208.095 13.5115 209.051 16.0493C213.344 26.1157 206.633 41.1698 203.64 50.5712C198.018 68.4368 192.365 86.242 187.467 104.319C182.57 122.396 178.61 140.05 173.26 157.614C170.237 167.226 167.456 176.174 158.145 180.951C157.661 181.192 157.208 181.313 156.754 181.495C159.679 182.495 162.814 182.712 165.848 182.123C168.881 181.534 171.708 180.161 174.046 178.139C180.666 172.517 182.359 162.571 184.747 154.923C188.495 143.013 190.944 130.74 194.33 118.648C200.164 97.9105 204.487 78.2613 210.895 57.6751C215.067 43.6789 226.343 21.9742 215.944 8.12917Z" fill="#A1DDF3"/>
</g>
<path d="M405.119 52.1104C397.713 42.8602 385.923 51.2338 383.958 56.8867C379.364 69.2505 375.494 87.9625 371.867 100.508C368.844 110.826 365.821 121.134 362.798 131.432C359.896 121.215 356.953 110.997 353.971 100.78C351.734 93.1619 350.192 85.3929 348.348 77.6844C346.951 70.0805 344.108 62.8152 339.975 56.282C336.193 51.4494 330.674 48.284 324.593 47.4596C318.512 46.6353 312.35 48.2172 307.418 51.8686C301.795 55.9798 299.8 61.9954 298.016 68.1924C295.961 75.3266 294.268 82.5211 292.424 89.6855C291.487 93.4037 290.55 97.0917 289.401 100.78C286.438 110.997 283.506 121.215 280.604 131.432C277.702 121.114 274.75 110.806 271.747 100.508C268.119 87.9625 264.25 69.2505 259.655 56.8867C257.569 51.2338 245.84 42.8602 238.494 52.1104C230.272 62.4488 239.16 78.682 242.636 89.1716C247.684 104.589 251.1 119.401 255.725 134.788C258.355 143.857 260.32 152.925 263.252 161.813C265.157 167.526 266.487 174.963 271.717 179.165C273.196 180.428 274.926 181.364 276.794 181.911C278.661 182.458 280.622 182.603 282.55 182.338C284.477 182.072 286.327 181.402 287.976 180.37C289.626 179.339 291.039 177.97 292.121 176.353C296.867 168.524 299.225 158.216 301.462 149.751C302.762 144.854 303.881 139.927 305.332 135.06C309.927 119.552 313.342 104.83 318.421 89.474C319.237 86.9649 320.356 84.1536 321.444 81.1609C322.593 84.1838 323.741 86.9649 324.467 89.474C329.545 104.861 332.992 119.552 337.647 135.06C339.068 139.927 340.216 144.854 341.516 149.751C343.784 158.367 346.172 168.524 350.948 176.353C352.042 177.973 353.466 179.344 355.126 180.376C356.787 181.409 358.646 182.079 360.583 182.345C362.52 182.61 364.491 182.464 366.367 181.916C368.244 181.368 369.984 180.43 371.474 179.165C376.734 174.963 378.064 167.526 379.968 161.813C382.991 152.744 384.895 143.675 387.586 134.788C392.211 119.28 395.657 104.558 400.736 89.1716C404.424 78.682 413.372 62.4488 405.119 52.1104Z" fill="#07B9AB" stroke="#008280" stroke-width="3.02294" stroke-linecap="round" stroke-linejoin="round"/>
<g style="mix-blend-mode:multiply">
<path d="M331.812 52.5065C347.35 78.6549 347.41 111.182 361.104 138.358C363.068 134.62 364.163 130.486 364.308 126.266L362.767 131.526C359.865 121.309 356.922 111.091 353.94 100.874C351.703 93.2557 350.161 85.4867 348.317 77.7782C346.92 70.1743 344.077 62.909 339.943 56.3759C336.962 52.3619 332.694 49.4917 327.852 48.2441C329.373 49.4638 330.707 50.8998 331.812 52.5065Z" fill="#A1DDF3"/>
</g>
<g style="mix-blend-mode:multiply">
<path d="M322.108 82.5838C322.108 81.8281 322.108 81.0723 322.108 80.3468C322.108 69.2828 316.909 79.8329 315.427 83.9441C312.404 92.5292 309.684 101.356 307.235 110.123C301.582 130.558 297.441 151.628 287.707 170.582C285.735 174.64 283.472 178.549 280.936 182.28C283.16 182.33 285.359 181.799 287.316 180.738C289.272 179.678 290.918 178.126 292.09 176.234C296.836 168.405 299.194 158.097 301.431 149.633C302.731 144.735 303.85 139.808 305.301 134.941C309.895 119.433 313.311 104.712 318.39 89.3552C319.206 86.8461 320.325 84.0348 321.413 81.0421C321.776 81.6467 321.927 82.1001 322.108 82.5838Z" fill="#A1DDF3"/>
</g>
<g style="mix-blend-mode:multiply">
<path d="M253.79 59.3665C262.405 85.2731 267.817 111.784 278.699 136.875C280.209 133.445 281.364 129.869 282.145 126.204C281.662 127.957 281.148 129.71 280.634 131.433C277.732 121.115 274.779 110.807 271.777 100.509C268.149 87.9636 264.28 69.2516 259.685 56.8878C258.083 52.565 250.888 46.7004 244.328 48.2421C246.569 49.3702 248.56 50.9359 250.185 52.8465C251.81 54.7572 253.036 56.9742 253.79 59.3665Z" fill="#A1DDF3"/>
</g>
<g style="mix-blend-mode:multiply">
<path d="M405.119 52.1091C400.403 46.2143 393.934 47.484 389.309 50.6278C391.461 51.5254 393.368 52.9232 394.872 54.7055C396.376 56.4878 397.433 58.603 397.955 60.8756C400.736 69.9444 394.932 82.8221 392.09 91.105C387.889 103.197 384.926 115.288 381.419 127.562C376.825 143.583 373.197 172.634 356.269 181.037C358.741 182.234 361.502 182.705 364.231 182.395C366.96 182.084 369.545 181.006 371.686 179.284C376.945 175.082 378.276 167.646 380.18 161.933C383.203 152.864 385.107 143.795 387.798 134.907C392.423 119.4 395.869 104.678 400.948 89.2913C404.424 78.6808 413.372 62.4475 405.119 52.1091Z" fill="#A1DDF3"/>
</g>
</svg>
