<svg width="273" height="185" viewBox="0 0 273 185" fill="none" xmlns="http://www.w3.org/2000/svg">
<path d="M91.0589 89.4947C102.322 74.4559 113.524 59.3859 124.663 44.2848C130.606 36.195 141.714 25.6158 136.611 15.2546C133.282 8.50267 124.538 1.2218 118.253 5.73346C101.171 18.0238 85.2093 43.8181 72.5767 60.4334C61.3131 42.978 47.5292 17.1527 31.8162 4.02218C25.8421 -0.956198 16.601 5.7024 12.805 12.2054C6.95543 22.2555 17.3167 33.519 22.6685 42.0134C32.3763 57.4256 42.167 72.7964 52.0408 88.1256C44.7911 98.0202 37.5102 107.853 29.5759 117.716C19.1213 130.722 -1.25885 149.08 2.44382 167.5C5.71088 183.897 24.7842 177.892 30.6649 171.016C43.2976 156.205 58.6683 132.62 70.5542 116.907L70.8342 117.342C81.5689 133.864 95.7261 159.161 107.363 175.123C112.746 182.404 131.322 189.778 135.771 173.629C140.78 155.583 121.738 135.825 112.248 122.103C104.718 111.151 97.873 100.354 91.0589 89.4947Z" fill="#CC69A9" stroke="#9F5BA3" stroke-width="3.11149" stroke-linecap="round" stroke-linejoin="round"/>
<g style="mix-blend-mode:multiply">
<path d="M61.0947 90.4619L61.4059 90.1196C52.4979 78.526 44.2897 66.4112 36.8251 53.8397C29.1087 40.8959 19.4941 27.2676 15.7915 12.488C15.5087 11.1336 15.5087 9.73532 15.7915 8.38086C14.6889 9.54611 13.7185 10.8296 12.8978 12.208C7.04821 22.2581 17.4095 33.5217 22.7613 42.016C32.4691 57.4282 42.2598 72.799 52.1336 88.1283C44.8838 98.0228 37.603 107.855 29.6688 117.719C19.2142 130.725 -1.16608 149.082 2.53659 167.502C2.53659 167.72 2.53655 167.907 2.69213 168.156C2.94551 166.735 3.28842 165.332 3.71888 163.955C7.3282 152.567 19.8986 140.526 27.4595 131.596C38.8165 117.999 50.5779 104.744 61.0947 90.4619Z" fill="#F9C5D6"/>
</g>
<g style="mix-blend-mode:multiply">
<path d="M91.0583 89.4983C102.322 74.4594 113.523 59.3894 124.662 44.2884C130.605 36.1985 141.713 25.6194 136.611 15.2581C133.281 8.50621 124.538 1.22534 118.253 5.737C117.039 6.60821 115.826 7.57279 114.643 8.56846C117.125 9.84983 119.195 11.8057 120.615 14.211C122.036 16.6163 122.748 19.3735 122.671 22.1656C123.013 34.176 113.337 43.946 105.931 52.5026C96.3167 63.2995 86.3911 73.6297 79.1414 86.0134C88.787 96.7791 95.7256 110.687 104.033 122.2C111.096 131.908 118.222 141.865 124.289 152.257C127.027 156.986 130.512 162.774 130.512 168.468C130.565 173.688 128.976 178.793 125.969 183.061C128.377 182.694 130.609 181.58 132.35 179.878C134.092 178.175 135.255 175.969 135.677 173.571C140.687 155.524 121.644 135.766 112.154 122.044C104.718 111.154 97.8725 100.357 91.0583 89.4983Z" fill="#F9C5D6"/>
</g>
<path d="M247.628 134.832C241.032 126.867 234.934 118.933 228.96 110.967C237.941 98.957 246.882 86.9156 255.781 74.843C260.572 68.3089 269.564 59.8456 265.426 51.4446C262.75 45.9684 252.98 40.0255 247.877 43.6659C234.125 53.5915 223.95 74.5007 213.651 87.8801C213.215 88.409 212.811 88.938 212.406 89.4981C212.327 89.3997 212.254 89.2957 212.189 89.1869C201.765 75.9631 188.573 55.3651 174.633 45.6261C169.499 42.0479 162.56 48.022 159.947 53.5293C155.964 62.0237 165.05 70.3624 169.966 76.8032C178.719 88.3157 187.515 99.7764 196.351 111.185C190.75 118.808 185.088 126.4 178.958 134.023C170.557 144.509 154.066 159.32 157.178 174.13C159.822 187.385 175.193 182.5 179.954 176.962C190.315 164.796 203.103 145.256 212.655 132.592L212.842 132.343C213.247 132.872 213.651 133.37 214.024 133.899C223.826 146.345 236.863 165.761 247.442 177.74C252.265 183.216 267.729 187.852 270.187 174.628C272.863 159.755 256.216 145.194 247.628 134.832Z" fill="#CC69A9" stroke="#9F5BA3" stroke-width="3.11149" stroke-linecap="round" stroke-linejoin="round"/>
<g style="mix-blend-mode:multiply">
<path d="M200.956 109.814C200.911 109.494 200.911 109.169 200.956 108.849C191.622 94.2561 179.176 81.2812 168.441 67.8396C164.486 63.3895 161.875 57.9084 160.911 52.0332C160.6 52.5622 160.32 53.06 160.071 53.5578C156.089 62.0522 165.174 70.391 170.09 76.8318C178.844 88.3442 187.639 99.8049 196.476 111.214C190.875 118.837 185.212 126.429 179.082 134.052C170.681 144.538 154.191 159.348 157.302 174.159C157.622 176.078 158.437 177.879 159.667 179.386C159.511 159.971 202.699 116.939 200.956 109.814Z" fill="#F9C5D6"/>
</g>
<g style="mix-blend-mode:multiply">
<path d="M247.629 134.832C241.033 126.866 234.934 118.932 228.96 110.967C237.942 98.9563 246.882 86.9149 255.781 74.8424C260.573 68.3082 269.565 59.8449 265.427 51.4439C264.001 48.9818 262.01 46.8939 259.619 45.3521C257.228 43.8103 254.505 42.8588 251.674 42.5762C252.662 43.239 253.526 44.0712 254.225 45.0343C259.017 51.8173 253.603 58.9737 249.216 64.3566C237.921 78.1716 225.693 91.2399 216.67 106.704C226.004 121.577 239.85 134.863 250.896 148.491C257.741 157.017 264.618 164.671 262.035 176.215C261.324 178.88 259.775 181.247 257.617 182.967C263.124 183.962 268.88 182.251 270.312 174.597C272.863 159.755 256.217 145.193 247.629 134.832Z" fill="#F9C5D6"/>
</g>
</svg>
