<svg width="211" height="184" viewBox="0 0 211 184" fill="none" xmlns="http://www.w3.org/2000/svg">
<path d="M106.284 11.25C103.528 5.28741 96.2592 -1.1502 91.0331 2.84067C76.7799 13.6731 63.5958 36.4305 53.0247 51.0638C43.6651 35.6704 33.6167 14.7183 20.5513 3.1495C15.6103 -1.22146 6.55951 2.81693 3.40006 8.56569C-1.35098 17.4026 7.15335 27.3561 11.5956 34.839C18.7697 46.9383 26.0071 58.9901 33.3079 70.9944C37.9164 77.8122 40.4345 81.9456 42.4299 85.3901V88.7633C42.5724 102.755 40.5057 123.042 45.3043 136.511C47.0859 141.476 55.7566 141.072 60.8877 138.887C68.7744 135.347 66.8028 125.228 66.8741 118.481C66.9849 106.303 67.0403 94.1083 67.0403 81.8981C76.0435 68.6427 87.8024 49.0208 96.188 36.8819C101.295 29.7078 110.536 20.562 106.284 11.25Z" fill="#00A7E2" stroke="#1A6CB5" stroke-width="2.37552" stroke-linecap="round" stroke-linejoin="round"/>
<g style="mix-blend-mode:multiply" opacity="0.8">
<path d="M16.2996 5.6656C23.64 10.963 29.2224 21.4153 33.6647 29.017C38.8376 38.5253 44.6305 47.6829 51.006 56.4305C51.7676 54.4929 52.3482 52.4889 52.7401 50.4442C43.4756 35.0983 33.5222 14.5738 20.6231 3.14756C19.1495 2.05775 17.3921 1.4173 15.5629 1.30349C13.7337 1.18969 11.9105 1.60736 10.3132 2.50612C12.4602 3.24305 14.4797 4.30894 16.2996 5.6656Z" fill="#00A7E2"/>
</g>
<g style="mix-blend-mode:multiply" opacity="0.8">
<path d="M106.284 11.248C104.075 6.49692 98.944 1.38957 94.4067 1.62712C96.4994 3.58453 98.0614 6.04089 98.9463 8.76631C99.8312 11.4917 100.01 14.3971 99.4665 17.2106C96.3546 28.9456 86.805 39.8968 80.1773 49.874C77.4217 54.0312 55.6619 81.8485 57.8236 84.9842C62.5746 91.7307 61.7432 100.758 61.5057 108.549C61.2206 117.149 64.0237 128.575 60.2229 136.557C59.6783 137.701 59.026 138.791 58.2749 139.811C59.257 139.562 60.2181 139.236 61.1494 138.837C69.0361 135.298 67.0644 125.178 67.1357 118.432C67.2465 106.253 67.302 94.0587 67.302 81.8485C76.3052 68.5931 88.064 48.9713 96.4496 36.8324C101.296 29.7058 110.537 20.56 106.284 11.248Z" fill="#00A7E2"/>
</g>
<path d="M207.862 50.7285C203.538 42.7943 194.939 47.5691 192.73 51.75C187.979 60.9433 182.539 75.2202 178.263 84.651C173.211 95.7368 168.199 106.941 163.226 118.265C159.235 106.656 155.197 95.0637 151.111 83.487C147.642 73.7236 143.604 59.0429 139.518 49.4695C137.665 45.1223 128.923 39.2548 124.529 47.094C119.611 55.9309 126.904 68.2598 130.159 76.4316C134.91 88.3093 138.259 99.8781 142.606 111.922C146.003 121.424 148.735 130.926 153.011 139.929C150.876 144.947 148.216 149.724 145.077 154.183C142.701 157.461 139.494 161.452 135.123 161.998C130.206 162.592 128.401 158.292 126.215 154.871C122.961 149.622 118.542 148.671 112.912 151.664C111.701 152.271 110.65 153.155 109.845 154.245C109.04 155.335 108.503 156.599 108.28 157.936C106.997 172.664 123.745 185.231 139.637 181.691C158.047 177.51 171.564 147.436 179.142 129.287C184.891 115.509 190.331 103.156 196.483 89.6158C201.044 79.4486 212.375 58.9954 207.862 50.7285Z" fill="#00A7E2" stroke="#1A6CB5" stroke-width="2.37552" stroke-linecap="round" stroke-linejoin="round"/>
<g style="mix-blend-mode:multiply" opacity="0.8">
<path d="M138.021 58.6875C147.095 80.3285 151.039 103.822 161.064 125.202C162.428 122.83 163.354 120.23 163.795 117.529C160.018 106.578 156.218 95.6031 152.345 84.6995C148.901 74.9361 144.839 60.2791 140.777 50.7057C139.28 47.19 133.317 42.7002 128.756 45.2183C133.508 47.5225 136.358 54.7203 138.021 58.6875Z" fill="#00A7E2"/>
</g>
<g style="mix-blend-mode:multiply" opacity="0.8">
<path d="M207.862 50.7277C207.452 49.8032 206.854 48.9746 206.105 48.2952C205.356 47.6158 204.474 47.1007 203.514 46.783C202.554 46.4653 201.538 46.352 200.532 46.4504C199.526 46.5488 198.551 46.8568 197.671 47.3544C200.83 47.9721 203.087 50.3951 203.087 55.8351C203.087 65.7648 197.932 74.5067 193.585 83.0823C187.527 94.8412 182.8 107.241 177.123 119.167C170.162 133.776 162.869 148.195 154.864 162.282C151.095 169.665 145.502 175.961 138.615 180.574C137.665 181.144 136.739 181.667 135.812 182.118C137.13 182.037 138.439 181.863 139.732 181.595C158.142 177.414 171.659 147.34 179.237 129.191C184.986 115.413 190.426 103.06 196.578 89.52C201.044 79.4478 212.375 58.9945 207.862 50.7277Z" fill="#00A7E2"/>
</g>
</svg>
