<svg width="283" height="185" viewBox="0 0 283 185" fill="none" xmlns="http://www.w3.org/2000/svg">
<path d="M87.2179 181.995C100.939 181.995 121.021 184.271 134.804 182.681C141.041 181.933 152.392 167.089 144.627 151.092C135.927 133.286 117.186 140.053 105.616 140.77C88.6213 141.799 72.7488 140.552 55.7225 140.77H54.9117C69.6616 123.775 84.2867 109.368 99.3484 92.7472C112.913 77.7478 133.9 59.4742 144.253 37.8639C145.038 36.7372 145.589 35.4649 145.874 34.1219C147.227 31.52 147.892 28.6153 147.804 25.6842C147.717 22.753 146.881 19.8929 145.376 17.3762C136.707 -0.42964 117.123 2.12738 105.554 2.81342C88.5589 3.87367 72.6864 2.62632 55.6601 2.81342C41.1285 3.03171 20.0794 -0.30492 6.10914 7.61574C0.963829 10.5782 1.36922 25.1097 3.77036 33.6853C7.41885 46.9071 17.9278 43.6017 24.913 43.7264C45.7021 44.0798 66.4289 44.163 87.0933 43.9759C89.5256 43.9759 92.1763 43.9759 94.9516 43.9759C81.709 58.1749 68.5078 72.4466 55.3483 86.7911C45.6814 97.3312 36.3262 108.62 27.0022 119.908C22.4182 125.49 17.8654 131.072 13.3126 136.716C5.57901 146.321 -1.37495 152.963 3.77036 171.455C7.41885 184.646 17.9278 181.34 24.913 181.465C45.7437 181.985 66.512 182.161 87.2179 181.995Z" fill="#A8BD3E" stroke="#61782A" stroke-width="3.11837" stroke-linecap="round" stroke-linejoin="round"/>
<g style="mix-blend-mode:multiply">
<path d="M132.434 17.1584C136.675 47.4066 96.9163 73.6632 78.7363 91.7809C67.666 102.789 56.0344 114.42 46.0868 126.457C43.5298 129.576 38.4158 134.877 37.8233 139.274C36.8878 146.134 49.673 142.392 51.7935 141.581C53.1032 141.145 54.3193 140.583 55.5978 140.116C70.1606 123.432 84.5363 109.15 99.255 92.7788C112.82 77.7795 133.807 59.5058 144.16 37.8955C144.944 36.7689 145.496 35.4966 145.781 34.1535C147.134 31.5517 147.798 28.6469 147.711 25.7157C147.623 22.7846 146.787 19.9245 145.282 17.4078C140.074 6.68063 130.875 3.34405 121.863 2.56445C124.617 4.03591 126.999 6.1145 128.831 8.64293C130.662 11.1714 131.895 14.0833 132.434 17.1584Z" fill="#E1E31B"/>
</g>
<g style="mix-blend-mode:multiply">
<path d="M144.627 151.094C139.482 140.585 130.844 138.621 122.237 138.964C129.41 142.082 134.929 147.29 134.025 156.926C132.902 168.588 123.516 172.05 113.007 173.484C91.1783 176.602 68.04 175.199 45.9307 175.23C33.9874 175.23 19.7052 177.382 6.32739 177.101C11.0673 183.837 19.2374 181.623 25.0376 181.717C45.8267 182.07 66.5535 182.164 87.2179 181.997C100.939 181.997 121.021 184.274 134.804 182.683C141.072 181.935 152.392 167.06 144.627 151.094Z" fill="#E1E31B"/>
</g>
<path d="M232.285 182.339C243.324 182.339 259.446 183.96 270.516 182.837C275.568 182.307 284.642 171.736 278.406 160.385C271.42 147.693 256.39 152.496 247.222 153.026C233.595 153.774 220.841 152.87 207.182 153.026H206.527C218.408 140.927 230.133 130.667 242.233 118.724C253.147 108.059 270.017 95.0553 278.343 79.6818C278.874 78.7151 279.528 78.185 279.653 77.0312C280.718 75.2102 281.245 73.1248 281.173 71.0165C281.101 68.9083 280.434 66.8635 279.248 65.119C272.263 52.4585 256.546 54.2671 247.222 54.766C233.595 55.5144 220.841 54.766 207.182 54.766C195.519 54.766 178.618 52.4584 167.392 58.165C163.244 60.2855 163.587 70.6386 165.49 76.7194C168.608 86.0745 176.872 83.7669 182.485 83.8293C199.116 84.0787 215.747 84.1515 232.378 84.0476C234.343 84.0476 236.464 84.0476 238.615 84.0476C227.95 94.1511 217.338 104.307 206.777 114.514C199.043 121.998 191.497 130.106 184.013 138.058C180.333 142.018 176.653 145.978 173.005 150.001C166.768 156.861 161.217 161.57 165.334 174.698C168.452 184.054 176.716 181.746 182.329 181.84C198.981 182.401 215.508 182.432 232.285 182.339Z" fill="#A8BD3E" stroke="#61782A" stroke-width="3.11837" stroke-linecap="round" stroke-linejoin="round"/>
<g style="mix-blend-mode:multiply">
<path d="M266.244 71.2285C265.558 85.8536 249.53 99.6057 239.582 108.368C223.99 122.12 206.964 134.594 195.27 152.025C199.38 153.01 203.672 152.935 207.744 151.807C219.157 140.3 230.446 130.353 242.046 118.971C252.96 108.306 269.831 95.3023 278.157 79.9288C278.687 78.9621 279.342 78.4319 279.466 77.2781C280.531 75.4571 281.058 73.3717 280.986 71.2634C280.915 69.1552 280.247 67.1104 279.061 65.3659C274.508 57.1334 266.307 55.0442 258.542 54.7012C261.129 56.5704 263.195 59.0702 264.543 61.963C265.891 64.8558 266.477 68.0454 266.244 71.2285Z" fill="#E1E31B"/>
</g>
<g style="mix-blend-mode:multiply">
<path d="M278.406 160.381C276.887 157.617 274.617 155.339 271.858 153.811C269.099 152.282 265.964 151.565 262.815 151.743C268.833 159.758 268.677 170.766 255.206 175.038C241.734 179.31 227.733 177.595 213.794 176.971C198.576 176.285 183.515 178.749 168.359 180.089C172.226 183.457 178.057 182.148 182.298 182.21C198.95 182.459 215.602 182.491 232.192 182.397C243.231 182.397 259.353 184.019 270.423 182.896C275.569 182.303 284.643 171.732 278.406 160.381Z" fill="#E1E31B"/>
</g>
</svg>
