<svg width="51" height="60" viewBox="0 0 51 60" fill="none" xmlns="http://www.w3.org/2000/svg">
<g clip-path="url(#clip0_4075_946)">
<path d="M28.9935 1.29181C27.3449 -0.0391401 25.3955 -0.428536 23.1221 1.12081C18.6611 4.16387 15.928 11.9023 13.9012 16.6245C12.9295 18.913 12.0834 21.2514 11.3667 23.6296C8.16561 34.1247 2.86669 45.0443 0.179623 55.6878C-0.656168 58.9678 6.94953 61.6853 8.82171 58.3106C12.6434 51.4271 13.3601 46.845 16.2268 39.6566C16.4358 39.0736 29.2485 39.2219 30.8051 39.3538C31.563 39.4209 32.327 39.3439 33.0555 39.1271C33.7952 41.1874 34.5557 43.2271 35.3058 45.2771C36.9315 49.7129 37.2804 54.7545 40.703 58.1396C43.8372 61.23 49.9426 59.9815 51.0334 56.2358C52.1617 52.3625 49.4161 48.3593 47.8678 45.0731C46.0625 41.2451 44.9739 37.38 43.5551 33.4016C41.4447 27.4885 38.8809 21.6434 36.6139 15.7283C34.8274 11.0556 33.0743 4.58829 28.9935 1.29181ZM19.6807 28.6938C21.0681 24.8204 22.2675 19.9251 24.4134 16.093C26.0557 19.2432 28.093 24.5402 29.0959 27.9706C26.2626 28.7412 22.8233 28.5784 19.6807 28.6855V28.6938Z" fill="#E93C39" stroke="#7B2116" stroke-width="1.12" stroke-linecap="round" stroke-linejoin="round"/>
<g style="mix-blend-mode:multiply">
<path d="M24.4134 16.0806C24.5221 16.2867 24.6224 16.5256 24.7436 16.7482C24.7139 16.2939 24.644 15.843 24.5346 15.4007C23.9078 13.052 22.5705 15.1061 22.0732 16.1445C20.1384 20.1992 18.7301 25.2943 18.4146 29.8908C19.8875 29.5841 21.3326 29.1597 22.7356 28.6217C21.7055 28.6381 20.6733 28.6464 19.6745 28.6814C21.0682 24.8122 22.2675 19.9169 24.4134 16.0806Z" fill="#C9234D"/>
</g>
<g style="mix-blend-mode:multiply">
<path d="M13.3686 42.0775C12.7084 45.8746 10.4246 49.2267 8.61924 52.6489C7.55988 54.6638 5.72113 57.8326 3.60449 59.5241C5.61039 60.1422 7.90882 59.967 8.82819 58.3106C12.6498 51.4271 13.3665 46.845 16.2333 39.6566C16.3608 39.292 21.4298 39.2116 25.5858 39.2446C21.0788 37.3594 14.3904 36.1891 13.3686 42.0775Z" fill="#C9234D"/>
</g>
<g style="mix-blend-mode:multiply">
<path d="M47.8659 45.0732C46.0606 41.2451 44.972 37.38 43.5532 33.4016C41.4449 27.4885 38.8812 21.6434 36.6141 15.7283C34.8276 11.0556 33.0745 4.58829 28.9937 1.29181C27.3451 -0.0391401 25.3957 -0.428536 23.1223 1.12081C22.5987 1.4895 22.1093 1.90317 21.6597 2.35699C28.9311 3.36035 34.2947 22.4367 35.9998 26.8148C39.4432 35.6576 45.1036 44.2552 46.1609 53.8315C46.3594 55.6281 46.4116 58.0984 45.8057 59.8681C48.1898 59.6827 50.4193 58.3662 51.0294 56.2461C52.1619 52.3625 49.4163 48.3593 47.8659 45.0732Z" fill="#C9234D"/>
</g>
</g>
<defs>
<clipPath id="clip0_4075_946">
<rect width="51" height="60" fill="white"/>
</clipPath>
</defs>
</svg>
