<svg width="43" height="60" viewBox="0 0 43 60" fill="none" xmlns="http://www.w3.org/2000/svg">
<g clip-path="url(#clip0_4075_945)">
<path d="M40.1959 34.2578C38.3104 31.6187 36.0217 30.0981 33.4731 29.2521C33.2465 29.087 33.024 28.9178 32.7871 28.7631C32.7434 28.7342 32.6956 28.7177 32.6519 28.6888C32.8349 28.5712 33.0178 28.4515 33.1966 28.3318C38.7782 24.5662 42.8734 18.0481 41.624 11.2391C40.3123 4.0813 33.2278 1.64242 26.9914 0.604552C23.1435 -0.033023 18.408 0.169185 14.5186 0.117602C11.6498 0.0783981 7.86641 0.117602 4.99975 0.278543C3.29513 0.37552 1.3078 0.266163 0.731975 2.07159C-0.251297 5.16662 0.208118 8.18323 0.272561 11.0472C0.364028 15.015 0.247615 18.9869 0.388974 22.9547C0.621799 29.6235 0.480441 36.2964 0.405604 42.9692C0.366107 46.3036 0.35987 49.6359 0.415998 52.9703C0.449259 54.9717 -0.373946 57.3446 1.51153 58.7621C3.65269 60.3695 9.75812 59.7525 12.2194 59.7401C15.4395 59.7195 16.6681 59.8227 19.8881 59.8536C24.8398 59.9031 30.3694 59.4678 34.7744 57.0083C37.0715 55.7249 38.9944 53.7626 40.3871 51.5445C43.6342 46.3469 43.8484 39.3666 40.1959 34.2578ZM13.3939 8.96937C17.7594 9.09317 21.1292 8.74859 25.1787 10.8057C30.463 13.4881 30.0389 21.1039 26.4467 24.8943C22.2475 29.3222 15.1089 28.0553 9.93066 27.327C9.68952 25.732 9.94937 8.94461 9.74981 8.94048C10.9493 8.96937 12.0594 8.93429 13.3939 8.96937ZM27.5942 48.173C26.1224 50.2735 23.6653 50.649 21.5241 50.8904C20.5616 50.9977 10.1032 51.8334 10.0346 51.1112C9.61884 46.871 10.0783 43.9761 9.93066 40.4045C9.84058 38.2792 9.79208 36.1574 9.78515 34.0391C14.0134 33.9132 18.3082 34.1546 22.6197 34.4517C27.1992 34.7612 31.1344 43.1199 27.5942 48.173Z" fill="#6E9ED4" stroke="#1E6DB6" stroke-width="0.333575" stroke-linecap="round" stroke-linejoin="round"/>
<g style="mix-blend-mode:multiply" opacity="0.8">
<path d="M40.1957 34.2578C38.3103 31.6187 36.0215 30.0981 33.4729 29.2521C33.2463 29.087 33.0239 28.9178 32.7869 28.7631C32.7432 28.7342 32.6954 28.7177 32.6518 28.6888C32.8347 28.5712 33.0176 28.4515 33.1964 28.3318C38.778 24.5662 42.8732 18.0481 41.6239 11.2391C40.3121 4.0813 33.2276 1.64242 26.9912 0.604556C25.2705 0.344924 23.5344 0.19948 21.7942 0.169189C27.2926 1.47529 33.0197 3.6418 35.8406 8.7878C39.8756 16.123 33.1528 24.5043 26.723 29.2459C37.2875 33.1374 45.4322 44.8572 34.3522 53.8617C30.1115 57.3074 25.1743 59.0799 19.9565 59.8454C24.8895 59.8887 30.3838 59.4492 34.7659 57C37.063 55.7166 38.9859 53.7544 40.3787 51.5363C43.6341 46.3469 43.8482 39.3666 40.1957 34.2578Z" fill="#6E9ED4"/>
</g>
<g style="mix-blend-mode:multiply">
<path d="M9.74999 8.94255C10.1408 8.94255 10.5233 8.95493 10.9037 8.95699C9.97866 8.00166 9.03281 7.42599 8.57339 8.42052C7.8666 9.97628 7.88115 11.757 7.90818 13.4324C7.9352 15.1078 7.80008 16.7338 7.73772 18.3844C7.65456 20.6541 7.49242 23.0744 7.98302 25.2987C8.37383 27.0732 9.08894 27.5251 9.95372 27.2754C9.68555 25.4019 9.97866 8.94667 9.74999 8.94255Z" fill="#6E9ED4"/>
</g>
<g style="mix-blend-mode:multiply">
<path d="M9.95979 40.4004C9.85446 38.2751 9.79626 36.1533 9.78517 34.0349C9.9681 34.0349 10.151 34.0349 10.334 34.0349C8.44434 32.7453 8.04729 36.284 8.00156 36.8741C7.91009 38.1472 7.93088 39.4079 7.92464 40.683C7.91009 43.3179 7.73755 46.0209 8.07847 48.6414C8.42771 51.3237 9.17608 51.5177 10.0533 50.7728C9.62718 46.7142 10.1344 43.873 9.95979 40.4004Z" fill="#6E9ED4"/>
</g>
</g>
<defs>
<clipPath id="clip0_4075_945">
<rect width="43" height="60" fill="white"/>
</clipPath>
</defs>
</svg>
