<svg width="49" height="60" viewBox="0 0 49 60" fill="none" xmlns="http://www.w3.org/2000/svg">
<g clip-path="url(#clip0_4075_944)">
<path d="M44.2952 36.3182C43.9251 36.3495 43.559 36.4171 43.2022 36.52C38.6822 37.8293 37.8529 44.4224 33.41 46.3026C29.1232 48.1183 23.6339 48.4008 19.3127 46.7808C10.514 43.4802 8.18816 32.475 10.6661 24.3608C11.4671 21.7381 12.7203 19.1517 14.5372 17.0677C16.565 14.7355 20.3955 12.0502 23.494 11.4309C33.2741 9.47396 37.3621 15.5142 42.5553 22.3534C43.8754 24.0965 46.5542 22.5753 47.274 21.0864C49.9913 15.4638 45.7998 9.83912 41.6327 6.19962C36.6828 1.8742 31.0395 -0.234044 24.4471 0.147256C9.21828 1.02081 0.912406 16.7106 0.170231 30.1166C-0.590195 43.8575 5.6453 56.2346 19.8724 59.1679C27.7808 60.7819 36.0725 58.1592 42.0241 52.8936C44.9258 50.3295 47.8439 46.466 48.874 42.7297C49.679 39.7681 47.9209 36.0035 44.2952 36.3182Z" fill="#7BC044" stroke="#4B803B" stroke-width="0.322793" stroke-linecap="round" stroke-linejoin="round"/>
<g style="mix-blend-mode:multiply" opacity="0.4">
<path d="M44.2955 36.3182C43.9254 36.3495 43.5592 36.4171 43.2025 36.52C38.6825 37.8293 37.8531 44.4224 33.4102 46.3026C29.1235 48.1183 23.6342 48.4008 19.313 46.7808C10.5143 43.4802 8.18843 32.475 10.6664 24.3608C11.4674 21.7381 12.7206 19.1517 14.5375 17.0677C16.5653 14.7355 20.3958 12.0502 23.4943 11.4309C33.2744 9.47395 37.3624 15.5142 42.5556 22.3534C43.8757 24.0965 46.5545 22.5753 47.2743 21.0864C48.9838 17.5498 47.9577 14.0132 45.9258 10.9709C45.4371 12.4215 44.2813 13.4302 42.1095 13.2446C39.3679 13.0085 36.5919 10.4847 34.1767 9.34685C29.5534 7.17002 24.5041 6.8674 19.9598 9.49413C7.94509 16.4342 2.60589 37.3169 14.3671 47.0672C21.4056 52.9037 28.7645 50.852 36.0788 46.8816C39.3497 45.1063 42.288 47.5212 41.2051 50.9569C40.4629 53.3193 38.352 55.3792 35.9044 56.9568C38.1168 55.8776 40.1727 54.5061 42.0162 52.8795C44.918 50.3153 47.836 46.4519 48.8661 42.7156C49.6793 39.7681 47.9212 36.0035 44.2955 36.3182Z" fill="#6DAE44"/>
</g>
</g>
<defs>
<clipPath id="clip0_4075_944">
<rect width="49" height="60" fill="white"/>
</clipPath>
</defs>
</svg>
