<svg width="49" height="60" viewBox="0 0 49 60" fill="none" xmlns="http://www.w3.org/2000/svg">
<g clip-path="url(#clip0_4273_2831)">
<g style="mix-blend-mode:multiply">
<path d="M11.5193 56.7246C11.5927 49.9113 11.6093 43.1013 11.5693 36.2946C11.5693 33.4646 11.7593 28.5146 11.8093 25.0746C10.8093 25.5046 9.80933 24.6346 8.80933 25.0746C8.75933 26.2046 8.80933 29.9346 8.80933 31.0746C8.80933 34.0746 8.80933 37.1646 8.86933 40.2146C8.94933 46.5446 9.03933 52.8746 9.05933 59.2146C11.5018 58.9029 13.8884 58.2499 16.1493 57.2746C14.6093 57.2746 13.0793 57.2746 11.5893 57.2746C11.5193 57.1146 11.5193 56.9146 11.5193 56.7246Z" fill="#F79F61"/>
</g>
<path d="M39.3593 7.43461C36.9988 4.93064 34.113 2.98061 30.9093 1.72461C27.2593 0.344615 23.2693 0.144614 19.4093 0.0446143C16.5593 -0.0253857 13.7093 0.0446127 10.8593 0.144613C8.14375 0.102547 5.43338 0.394743 2.78925 1.01461C0.229246 1.79461 0.619249 4.40461 0.449249 6.56461C0.309249 8.34461 0.259258 10.1246 0.239258 11.9046C0.239258 15.9946 0.339254 20.0846 0.329254 24.1846C0.329254 30.5046 0.389249 36.8346 0.449249 43.1846C0.449249 46.3446 0.609249 49.5446 0.449249 52.7146C0.449249 53.3846 0.359244 54.0746 0.319244 54.7746C0.00924438 59.5846 4.76924 59.3246 8.31924 59.1646C10.6092 59.0546 12.8593 59.2246 15.1393 59.0846C26.8293 58.4246 39.3193 56.2946 44.8693 44.5746C46.4653 41.3573 47.5708 37.9192 48.1493 34.3746C48.7599 29.5139 48.2885 24.5783 46.7689 19.921C45.2493 15.2637 42.7191 10.9999 39.3593 7.43461ZM30.5193 43.3546C25.5193 47.8446 18.0893 47.6546 11.5193 47.6946C11.5193 47.4846 11.5193 47.2846 11.5193 47.0946C11.5926 40.2813 11.6092 33.4713 11.5692 26.6646C11.5692 23.4746 11.7893 19.2446 11.8093 15.4446C18.1893 14.8146 24.4493 13.8146 29.9093 18.3046C31.6547 19.7653 33.0425 21.6063 33.9663 23.6863C34.8902 25.7663 35.3256 28.0303 35.2393 30.3046C35.2593 34.6246 34.0193 40.2346 30.5193 43.3546Z" fill="#F79F61" stroke="#D14C27" stroke-linecap="round" stroke-linejoin="round"/>
<g style="mix-blend-mode:multiply">
<path d="M39.359 7.43462C36.9985 4.93065 34.1128 2.98061 30.909 1.72462C27.259 0.344617 23.269 0.144617 19.409 0.0446167C17.849 0.0446167 16.279 0.0446167 14.719 0.0446167C16.6774 0.442223 18.6134 0.942919 20.519 1.54462C26.119 3.30462 31.759 5.63461 35.679 10.2146C42.069 17.6746 43.999 29.2146 40.589 38.4946C36.289 50.1846 25.519 56.9846 13.709 59.1146C14.189 59.1146 14.709 59.1146 15.139 59.0646C26.829 58.4046 39.319 56.2746 44.869 44.5546C46.465 41.3373 47.5706 37.8992 48.149 34.3546C48.7565 29.4971 48.2837 24.5653 46.7642 19.9117C45.2447 15.2581 42.716 10.9976 39.359 7.43462Z" fill="#F79F61"/>
</g>
</g>
<defs>
<clipPath id="clip0_4273_2831">
<rect width="48.1692" height="59.215" fill="white" transform="translate(0.239258 0.0163269)"/>
</clipPath>
</defs>
</svg>
