<svg width="45" height="60" viewBox="0 0 45 60" fill="none" xmlns="http://www.w3.org/2000/svg">
<g clip-path="url(#clip0_4273_2827)">
<path d="M42.3993 52.4246C38.8493 48.0846 31.1593 49.7146 26.3993 49.8846C20.8893 50.0746 15.6392 49.8846 10.2493 49.8846C10.2959 44.7246 10.3259 39.5646 10.3393 34.4046H16.0793C21.7193 34.4046 29.9793 34.9346 35.6293 34.5946C38.2193 34.4346 42.8693 31.2146 39.6893 27.7346C36.1292 23.8446 28.4193 25.3046 23.6893 25.4546C19.1493 25.5946 14.7893 25.5246 10.3793 25.4546V25.3746C10.3793 21.2646 10.6693 15.8046 10.7093 10.8946H18.7093C24.3293 10.8946 32.5693 11.4746 38.2193 11.0946C40.7993 10.9246 45.4493 7.31461 42.2193 3.43461C38.6593 -0.905391 30.9793 0.724608 26.2193 0.894608C19.6293 1.11461 13.4393 0.894608 6.88926 0.894608V1.02461C4.99926 1.18461 3.16927 1.47461 1.70927 2.94461C1.34455 3.30306 1.01007 3.69105 0.709272 4.10461C-0.790728 7.10461 -0.23074 10.8646 -0.24074 15.1046C-0.24074 22.2946 -0.33074 31.4046 -0.24074 38.6046C-0.24074 42.2046 -0.0807425 45.6646 -0.180743 49.2646C-0.250743 51.8946 -0.530718 55.5646 1.21928 57.7646C2.70928 59.6346 5.77925 59.6846 7.99925 59.8846C11.5793 60.2146 15.1793 59.8846 18.7693 59.8846C24.3893 59.8846 32.6293 60.4646 38.2793 60.0846C40.9393 59.9146 45.5793 56.3046 42.3993 52.4246Z" fill="#70C9BD" stroke="#00A4A7" stroke-linecap="round" stroke-linejoin="round"/>
<g style="mix-blend-mode:multiply">
<path d="M40.5192 2.7646C40.8092 4.8946 40.1992 7.29459 37.9092 8.10459C34.2792 9.39459 29.9992 8.68459 26.2192 8.55459C20.1492 8.35459 14.0792 8.15459 8.00917 8.55459C7.91917 13.3546 8.18917 18.1946 8.00917 22.9746C7.92917 24.9146 9.1192 26.1146 10.3592 25.7346C10.3592 21.6746 10.6492 15.6646 10.6892 10.9146H18.6892C24.3092 10.9146 32.5492 11.4946 38.1992 11.1146C40.7792 10.9446 45.4292 7.3346 42.1992 3.4546C41.6411 2.78485 40.9628 2.22525 40.1992 1.8046C40.3538 2.10655 40.4617 2.43024 40.5192 2.7646Z" fill="#95D9F3"/>
</g>
<g style="mix-blend-mode:multiply">
<path d="M35.6892 30.1846C33.8392 34.1846 25.2092 32.8446 22.0192 32.6146C19.5192 32.4346 17.0192 32.3046 14.5192 32.2046C10.7892 32.0646 7.0692 31.1346 7.0092 35.8546C7.0092 39.0646 6.74922 42.1846 6.58922 45.3846C6.47014 46.7177 6.50704 48.0601 6.69921 49.3846C8.49921 51.3846 9.83919 51.4846 10.7492 49.8946H10.2592C10.3059 44.7346 10.3359 39.5746 10.3492 34.4146H16.0892C21.7292 34.4146 29.9892 34.9446 35.6392 34.6046C38.2292 34.4446 42.8792 31.2246 39.6992 27.7446C38.612 26.6349 37.2199 25.8727 35.6992 25.5546C36.0423 26.2784 36.2195 27.0697 36.2178 27.8707C36.216 28.6717 36.0354 29.4623 35.6892 30.1846Z" fill="#95D9F3"/>
</g>
<g style="mix-blend-mode:multiply">
<path d="M42.3989 52.4246C41.7213 51.6065 40.8664 50.9533 39.8989 50.5146C39.9555 50.8852 39.9823 51.2597 39.9789 51.6346C39.8789 55.9046 36.4289 57.5046 32.6089 58.0446C24.9389 59.1146 16.8089 58.4746 9.08893 58.3346C6.71893 58.2846 4.29891 58.3346 1.87891 58.3346C3.47891 59.6446 6.11892 59.7046 8.07892 59.8846C11.6589 60.2146 15.2589 59.8846 18.8489 59.8846C24.4689 59.8846 32.7089 60.4646 38.3589 60.0846C40.9389 59.9146 45.5789 56.3046 42.3989 52.4246Z" fill="#95D9F3"/>
</g>
</g>
<defs>
<clipPath id="clip0_4273_2827">
<rect width="45" height="60" fill="white"/>
</clipPath>
</defs>
</svg>
