<svg width="43" height="63" viewBox="0 0 43 63" fill="none" xmlns="http://www.w3.org/2000/svg">
<path d="M41.5689 2.54462C41.4381 2.31435 41.2691 2.10806 41.0689 1.93462C39.4389 0.584618 35.8489 1.32462 33.8689 1.31462C30.5689 1.31462 27.2689 1.19462 23.9689 1.14462C20.1489 1.08462 16.2989 1.14462 12.4789 1.14462C9.47893 1.14462 4.22893 0.844615 2.68893 3.70461C0.34893 8.03461 0.868932 14.8246 1.01893 19.0346C1.26893 26.2346 0.958932 31.3346 1.01893 38.5346C1.01893 44.6946 1.01893 52.2046 1.68893 58.7046C1.91893 60.9946 6.92893 62.4646 9.01893 61.4546C12.2289 59.9046 11.4289 55.4546 11.4589 52.4546C11.5189 45.8646 11.5289 39.9346 11.5189 33.3446C13.7389 33.8446 16.7689 33.4946 18.8489 33.5046C23.4389 33.5046 29.0689 34.5046 33.4189 32.7746C34.9389 32.1546 36.4189 31.0646 36.4889 29.2846C36.8489 23.8446 25.6189 24.9446 21.5489 24.9746C18.3889 24.9746 14.8489 24.5046 11.6889 24.8446C11.6889 19.6446 11.6889 15.3746 11.7689 10.1746C17.7689 9.92462 23.3389 9.99462 29.1089 10.2346C32.9789 10.4046 38.9989 12.0746 41.6289 8.17462C42.0452 7.29271 42.2561 6.32788 42.2457 5.35272C42.2353 4.37756 42.0039 3.41746 41.5689 2.54462Z" fill="#DDE11F" stroke="#478055" stroke-linecap="round" stroke-linejoin="round"/>
<g style="mix-blend-mode:multiply">
<path d="M41.5693 2.54463C41.4385 2.31436 41.2694 2.10807 41.0693 1.93462C40.1173 1.31938 38.9892 1.03473 37.8593 1.12463C38.1358 1.66266 38.2997 2.2514 38.3409 2.8549C38.3822 3.45839 38.3 4.06397 38.0993 4.63462C37.0993 8.32462 31.6293 8.06463 28.6693 8.03463C25.9293 8.03463 9.06932 6.88462 9.12932 9.43462C9.22932 13.5046 9.01932 17.5546 8.89932 21.6246C8.51932 23.5646 9.64932 24.7146 12.3093 25.0946L12.4793 24.8546C12.2193 24.8546 11.9493 24.8546 11.6893 24.9146C11.6893 19.7146 11.6893 15.4446 11.7693 10.2446C17.7693 9.99462 23.3393 10.0646 29.1093 10.3046C32.9793 10.4746 38.9993 12.1446 41.6293 8.24462C42.0567 7.35344 42.2736 6.37596 42.2632 5.38764C42.2528 4.39933 42.0154 3.42662 41.5693 2.54463Z" fill="#DDE11F"/>
</g>
<g style="mix-blend-mode:multiply">
<path d="M31.8892 25.3346C31.9892 25.4746 32.0992 25.6046 32.1892 25.7546C33.0092 27.0546 33.1892 29.7546 31.5392 30.5546C28.1092 32.2546 23.5392 31.5546 19.8792 31.3746C17.1591 31.1414 14.4278 31.0679 11.6992 31.1546C9.69916 31.2846 7.69916 31.1546 7.97916 33.6746C8.05916 34.6746 8.16916 35.6746 8.28916 36.6746C8.84916 42.6046 8.28916 48.6146 8.41916 54.5546C8.47916 56.4946 8.68916 59.4846 7.88916 61.7546C8.27888 61.7188 8.66037 61.6209 9.01916 61.4646C12.2292 59.9146 11.4292 55.4646 11.4592 52.4646C11.5192 45.8746 11.5292 39.9446 11.5192 33.3546C13.7392 33.8546 16.7692 33.5046 18.8492 33.5146C23.4392 33.5146 29.0692 34.5146 33.4192 32.7846C34.9392 32.1646 36.4192 31.0746 36.4892 29.2946C36.6492 26.9746 34.5992 25.8446 31.8892 25.3346Z" fill="#DDE11F"/>
</g>
</svg>
