<svg width="56" height="60" viewBox="0 0 56 60" fill="none" xmlns="http://www.w3.org/2000/svg">
<path d="M49.9191 48.4946C52.0338 45.4614 53.4853 42.0165 54.1791 38.3846C54.6491 36.1246 55.7791 31.7946 53.7691 29.9146C53.6314 29.7888 53.4805 29.6782 53.3191 29.5846C50.4691 28.0146 47.1191 28.5846 43.9391 28.5846C40.1291 28.5846 36.2091 28.3346 32.4491 29.0146C31.7971 29.1457 31.1958 29.4599 30.7159 29.9203C30.2359 30.3808 29.8971 30.9685 29.7391 31.6146C29.6952 31.7992 29.6618 31.9862 29.6391 32.1746C28.9991 38.1746 36.6391 37.6446 43.3291 37.3646C43.3581 38.2515 43.1979 39.1344 42.8591 39.9546C42.6491 40.3746 42.4291 40.7946 42.2091 41.2046C40.8491 43.1146 39.4491 45.0346 37.1591 45.9046C24.2291 50.8346 8.27914 41.1546 12.5691 26.3746C14.5691 19.5546 19.2091 13.4946 26.5691 12.1746C37.0591 10.2746 41.4391 16.1746 47.0091 22.7446C48.4191 24.4246 51.2891 22.9546 52.0691 21.5146C54.9791 16.0746 50.4791 10.6346 46.0191 7.11459C40.8128 2.89865 34.2024 0.811922 27.5191 1.2746C11.1891 2.1146 2.27914 17.2746 1.51914 30.2746C0.70914 43.5646 7.38914 55.5446 22.6491 58.3746C32.3391 60.1846 43.9591 56.6546 49.9191 48.4946Z" fill="#3AB8D5" stroke="#009ADA" stroke-linecap="round" stroke-linejoin="round"/>
<g style="mix-blend-mode:multiply">
<path d="M53.7891 29.8946C53.6514 29.7688 53.5005 29.6582 53.3391 29.5646C50.4891 27.9946 47.1391 28.5646 43.9591 28.5646C40.1491 28.5646 36.2291 28.3146 32.4691 28.9946C32.0787 29.0729 31.7059 29.222 31.3691 29.4346C31.3691 30.4346 32.2491 31.3646 34.2491 31.4346C35.8621 31.4725 37.4753 31.3654 39.0691 31.1146C41.1806 30.6394 43.3351 30.3814 45.4991 30.3446C47.8291 30.4746 50.6391 31.1646 51.4991 33.6646C53.5991 39.6646 47.7491 47.3546 44.0291 51.5546C40.6975 55.0814 36.3794 57.521 31.6391 58.5546C38.7691 57.6446 45.7391 54.2246 49.9191 48.4946C52.0338 45.4614 53.4853 42.0165 54.1791 38.3846C54.6691 36.1046 55.7991 31.7746 53.7891 29.8946Z" fill="#7AD2F2"/>
</g>
<g style="mix-blend-mode:multiply">
<path d="M26.519 12.1846C33.909 10.8446 38.269 13.3646 42.139 17.2746C40.889 14.3346 36.599 11.3546 34.759 10.7846C31.099 9.65461 26.679 8.97461 22.919 10.1446C19.4248 11.2679 16.2861 13.2874 13.8157 16.0017C11.3453 18.7161 9.62934 22.0305 8.83897 25.6146C7.11897 33.5146 9.38896 42.4146 16.699 46.8546C21.699 49.8546 30.439 50.5746 35.139 46.5546C22.629 49.8246 8.48896 40.4046 12.559 26.3846C14.569 19.5746 19.229 13.5146 26.519 12.1846Z" fill="#7AD2F2"/>
</g>
</svg>
