<svg width="50" height="64" viewBox="0 0 50 64" fill="none" xmlns="http://www.w3.org/2000/svg">
<path d="M48.8491 26.7646C48.8491 20.9546 49.4091 12.4346 49.0191 6.60462C48.8391 3.93462 45.2291 -0.855374 41.3491 2.43463C37.0191 6.11463 38.6691 14.0546 38.8391 18.9746C38.8991 20.8246 38.9191 22.6246 38.9291 24.4246C37.6491 24.3646 36.3391 24.3646 35.0291 24.4246C31.6891 24.3546 28.3591 24.2846 25.0291 24.2446C20.8891 24.1846 17.0291 24.3746 12.1891 24.3746C12.2691 18.7546 12.2791 11.7546 11.9391 6.62463C11.7591 3.95463 8.13909 -0.835377 4.26909 2.45462C-0.0609059 6.13462 1.57908 14.0746 1.75908 18.9946C2.00908 26.1846 1.70908 32.9246 1.75908 40.1246C1.80908 46.2746 0.979097 55.1946 2.9291 61.1246C3.6491 63.3046 7.16908 63.1246 9.25908 62.1246C12.4691 60.5646 11.6691 56.1246 11.6991 53.1246C11.7591 46.5546 11.7691 41.9946 11.7691 35.4246C14.3391 35.7028 16.9265 35.7864 19.5091 35.6746C25.5991 35.4946 32.0191 36.5546 38.2591 35.9246C38.2591 38.0846 37.9891 38.9246 38.0091 41.1746C38.0591 47.3246 38.0591 55.1746 40.0091 61.0946C40.7291 63.2746 44.2591 63.0946 46.3391 62.0946C49.5491 60.5346 48.7491 56.0946 48.7791 53.0946C48.8658 44.328 48.8891 35.5513 48.8491 26.7646Z" fill="#95488B" stroke="#602478" stroke-linecap="round" stroke-linejoin="round"/>
<g style="mix-blend-mode:multiply">
<path d="M38.2693 35.9346C38.2693 36.3146 38.2693 36.6446 38.2693 36.9346C43.1293 32.5146 33.0493 31.8646 29.7993 32.1646C22.5493 32.8246 16.4793 34.2846 9.26929 32.8746C9.26929 37.7946 9.6993 42.7046 9.7493 47.6246C9.7493 51.1546 10.1893 55.9146 8.32928 59.1246C6.98928 61.4346 5.37928 62.2846 3.75928 62.1246C5.10928 63.1246 7.64929 62.8446 9.29929 62.0546C12.5093 60.4946 11.7093 56.0546 11.7393 53.0546C11.7993 46.4846 11.8093 41.9246 11.8093 35.3546C14.3793 35.6328 16.9667 35.7164 19.5493 35.6046C25.6093 35.5046 32.0293 36.5646 38.2693 35.9346Z" fill="#B69AC9"/>
</g>
<g style="mix-blend-mode:multiply">
<path d="M9.07892 8.64465C9.41892 12.2246 9.38893 15.8146 9.39893 19.4146C9.39893 20.7946 9.39893 22.1846 9.46893 23.5646C9.59893 25.5646 10.8189 25.1846 12.1889 24.0046C12.2689 18.4546 12.2689 11.6346 11.9389 6.60464C11.7989 4.60464 9.62891 1.26464 6.87891 1.33464C8.34891 3.27464 8.86892 6.32465 9.07892 8.64465Z" fill="#B69AC9"/>
</g>
<g style="mix-blend-mode:multiply">
<path d="M48.849 26.7646C48.849 20.9546 49.409 12.4346 49.019 6.60462C48.839 3.93462 45.229 -0.855374 41.349 2.43463C41.0827 2.66087 40.8353 2.90835 40.609 3.17462C41.977 3.24694 43.2606 3.8582 44.179 4.87463C47.079 7.66463 46.929 13.0746 46.759 16.6946C46.499 22.5546 46.489 28.3846 46.489 34.2446V45.5346C46.489 48.2246 47.009 51.1046 46.649 53.7646C46.249 56.7646 45.079 59.5346 42.249 60.9546C41.6264 61.2796 40.9477 61.4832 40.249 61.5546C41.249 63.2446 44.439 63.0346 46.369 62.1046C49.579 60.5446 48.779 56.1046 48.809 53.1046C48.8757 44.3313 48.889 35.5513 48.849 26.7646Z" fill="#B69AC9"/>
</g>
</svg>
