<svg width="37" height="64" viewBox="0 0 37 64" fill="none" xmlns="http://www.w3.org/2000/svg">
<path d="M23.5191 26.7646C23.5191 20.9546 24.0791 12.4346 23.6891 6.60462C23.5091 3.93462 19.8991 -0.855374 16.0191 2.43463C11.6891 6.11463 13.3291 14.0546 13.5091 18.9746C13.7591 26.1646 13.4591 32.9046 13.5091 40.1046C13.5591 46.2546 12.7191 55.1746 14.6791 61.1046C15.3991 63.2846 18.9191 63.1046 21.0091 62.1046C24.2191 60.5446 23.4191 56.1046 23.4491 53.1046C23.5358 44.3313 23.5591 35.5513 23.5191 26.7646Z" fill="#FEDC36" stroke="#DE953D" stroke-linecap="round" stroke-linejoin="round"/>
<g style="mix-blend-mode:multiply">
<path d="M23.5189 26.7646C23.5189 20.9546 24.0789 12.4346 23.6889 6.60462C23.5089 3.93462 19.8989 -0.855374 16.0189 2.43463C15.6947 2.71704 15.3968 3.02832 15.1289 3.36463C17.6189 3.61463 19.6489 5.58463 20.2089 9.42463C21.2089 16.0546 20.6289 23.0646 20.3589 29.7246C20.0589 37.0546 20.3589 44.4246 20.0089 51.7246C19.8289 55.1646 20.4189 60.2646 17.4689 62.7846C18.6911 62.8374 19.9082 62.5974 21.0189 62.0846C24.2289 60.5246 23.4289 56.0846 23.4589 53.0846C23.5389 44.3246 23.5589 35.5513 23.5189 26.7646Z" fill="#FECF6C"/>
</g>
</svg>
