<svg width="40" height="61" viewBox="0 0 40 61" fill="none" xmlns="http://www.w3.org/2000/svg">
<path d="M38.8191 28.8746C38.8191 23.1446 38.8191 17.3946 38.7491 11.6646C38.7491 9.81461 38.6891 7.97462 38.5591 6.12462C38.3791 3.46462 34.7691 -1.33538 30.8991 1.95461C26.5591 5.64462 28.2091 13.5846 28.3791 18.4946C28.6091 24.8546 28.3791 30.8746 28.3791 37.1446C28.3378 37.312 28.311 37.4826 28.2991 37.6546C28.2491 44.1246 25.5191 49.2346 20.4191 50.2046C18.5775 50.469 16.6992 50.1561 15.0427 49.3091C13.3862 48.462 12.0329 47.1224 11.1691 45.4746C9.77908 42.9746 9.95909 39.7246 8.27909 37.3946C7.85442 36.8461 7.26201 36.4515 6.5922 36.2709C5.92239 36.0904 5.2119 36.1338 4.56907 36.3946C0.139072 37.9646 0.969072 44.3946 2.31907 47.8046C4.74907 54.0046 10.5791 59.0446 17.3191 59.7446C20.4391 60.0737 23.5912 59.5879 26.4674 58.3347C29.3436 57.0815 31.8457 55.1037 33.7291 52.5946C34.7288 51.2881 35.5525 49.8558 36.1791 48.3346C37.0658 46.1235 37.7129 43.8237 38.1091 41.4746C38.5656 38.5669 38.793 35.6279 38.7891 32.6846C38.8091 31.3946 38.8091 30.1846 38.8191 28.8746Z" fill="#6E9ED4" stroke="#1A6CB5" stroke-linecap="round" stroke-linejoin="round"/>
<g style="mix-blend-mode:multiply">
<path d="M5.44934 36.1846C4.44934 41.4546 8.51935 46.8946 13.2394 49.3146C15.1194 50.3146 17.9594 51.2446 20.0594 50.3146C18.2717 50.4927 16.4716 50.1317 14.8908 49.278C13.31 48.4244 12.0209 47.1171 11.1894 45.5246C9.79936 43.0246 9.97935 39.7746 8.29935 37.4446C7.98071 36.9986 7.54811 36.6463 7.04675 36.4247C6.5454 36.203 5.9937 36.1201 5.44934 36.1846Z" fill="#78A5D8"/>
</g>
<g style="mix-blend-mode:multiply">
<path d="M38.7491 11.6646C38.7491 9.81461 38.6891 7.97462 38.5591 6.12462C38.3791 3.46462 34.7692 -1.33538 30.8992 1.95461C30.6928 2.13778 30.4958 2.33137 30.3092 2.53462C30.7291 2.66832 31.1268 2.86379 31.4892 3.11462C34.9492 5.49462 35.6492 9.50462 35.8192 13.4946C36.0992 20.3746 34.8792 27.1346 34.7292 33.9846C34.6192 39.3246 34.4992 45.7946 31.4492 50.4146C29.4428 53.3331 26.6758 55.6467 23.4481 57.1045C20.2205 58.5623 16.6553 59.1088 13.1392 58.6846C14.4853 59.2022 15.8943 59.5385 17.3292 59.6846C20.4492 60.0137 23.6013 59.5279 26.4775 58.2747C29.3537 57.0215 31.8557 55.0437 33.7391 52.5346C34.7389 51.2281 35.5626 49.7958 36.1891 48.2746C37.0759 46.0635 37.723 43.7637 38.1191 41.4146C38.5756 38.5069 38.8031 35.5679 38.7992 32.6246C38.7992 31.3646 38.7992 30.1046 38.7992 28.8446C38.8292 23.1846 38.8191 17.3946 38.7491 11.6646Z" fill="#78A5D8"/>
</g>
</svg>
