<svg width="49" height="63" viewBox="0 0 49 63" fill="none" xmlns="http://www.w3.org/2000/svg">
<g clip-path="url(#clip0_4273_2836)">
<g style="mix-blend-mode:multiply">
<path d="M41.0591 44.2346C36.8291 38.4046 33.3191 32.6546 29.2591 26.7146C28.8191 26.0846 28.3691 25.3946 27.9091 24.7146L29.4491 23.2146C33.5991 19.1546 40.1191 13.6446 44.0391 9.29463C45.8291 7.29463 46.7491 1.37463 41.6891 0.894634C36.0291 0.344634 31.4791 7.05463 28.0691 10.6046C23.0691 15.7946 18.0691 20.2746 12.9191 25.3246C12.3291 25.9046 11.6891 26.5146 11.0191 27.1446V26.7946C11.0191 20.9846 11.5791 12.4646 11.1891 6.63463C11.0091 3.96463 7.39909 -0.825366 3.51909 2.46463C-0.810906 6.14463 0.829084 14.0846 1.00908 19.0046C1.25908 26.1946 1.00908 32.9346 1.00908 40.1346C1.00908 46.2846 0.219067 55.2046 2.17907 61.1346C2.89907 63.3146 6.41908 63.1346 8.50908 62.1346C11.7191 60.5746 10.9191 56.1346 10.9491 53.1346C10.9491 49.088 10.9724 45.038 11.0191 40.9846C14.2191 37.9246 17.4158 34.8546 20.6091 31.7746C23.1891 35.648 25.7824 39.508 28.3891 43.3546C31.6591 48.1846 35.9391 55.5646 39.5191 60.1846C41.1491 62.2946 46.8291 64.2546 48.2091 59.3646C49.7491 53.8846 43.9491 48.1846 41.0591 44.2346Z" fill="#EF4D8B"/>
</g>
<path d="M41.0591 44.2346C36.8291 38.4046 33.3191 32.6546 29.2591 26.7146C28.8191 26.0846 28.3691 25.3946 27.9091 24.7146L29.4491 23.2146C33.5991 19.1546 40.1191 13.6446 44.0391 9.29463C45.8291 7.29463 46.7491 1.37463 41.6891 0.894634C36.0291 0.344634 31.4791 7.05463 28.0691 10.6046C23.0691 15.7946 18.0691 20.2746 12.9191 25.3246C12.3291 25.9046 11.6891 26.5146 11.0191 27.1446V26.7946C11.0191 20.9846 11.5791 12.4646 11.1891 6.63463C11.0091 3.96463 7.39909 -0.825366 3.51909 2.46463C-0.810906 6.14463 0.829084 14.0846 1.00908 19.0046C1.25908 26.1946 1.00908 32.9346 1.00908 40.1346C1.00908 46.2846 0.219067 55.2046 2.17907 61.1346C2.89907 63.3146 6.41908 63.1346 8.50908 62.1346C11.7191 60.5746 10.9191 56.1346 10.9491 53.1346C10.9491 49.088 10.9724 45.038 11.0191 40.9846C14.2191 37.9246 17.4158 34.8546 20.6091 31.7746C23.1891 35.648 25.7824 39.508 28.3891 43.3546C31.6591 48.1846 35.9391 55.5646 39.5191 60.1846C41.1491 62.2946 46.8291 64.2546 48.2091 59.3646C49.7491 53.8846 43.9491 48.1846 41.0591 44.2346Z" fill="#EE5A82" stroke="#B2327A" stroke-linecap="round" stroke-linejoin="round"/>
<g style="mix-blend-mode:multiply">
<path d="M7.45913 40.9346C7.78913 45.1346 7.25913 49.2746 7.45913 53.4946C7.56913 56.4446 7.85915 59.3946 7.97915 62.3447L8.54915 62.1046C11.7592 60.5446 10.9591 56.1046 10.9891 53.1046C10.9891 49.058 11.0124 45.008 11.0591 40.9547C14.2591 37.8947 17.4558 34.8246 20.6491 31.7446L20.7391 31.8846C20.5505 31.0327 20.2862 30.1994 19.9491 29.3947C15.3391 32.7747 11.9791 37.4846 7.45913 40.9346Z" fill="#EF4D8B"/>
</g>
<g style="mix-blend-mode:multiply">
<path d="M7.62927 3.75463C9.07927 7.22463 8.09927 11.8646 8.06927 15.5146C8.02261 20.4346 8.04595 25.3513 8.13928 30.2646C9.31232 29.3588 10.3262 28.2638 11.1393 27.0246C11.1068 27.0521 11.0767 27.0822 11.0493 27.1146V26.7646C11.0493 20.9546 11.6093 12.4346 11.2193 6.60463C11.0593 4.28463 8.30932 0.364635 5.04932 1.54463C5.63236 1.66185 6.17559 1.92654 6.62726 2.31343C7.07892 2.70032 7.4239 3.1965 7.62927 3.75463Z" fill="#EF4D8B"/>
</g>
<g style="mix-blend-mode:multiply">
<path d="M41.059 44.2346C36.829 38.4046 33.319 32.6546 29.259 26.7146C28.819 26.0846 28.3691 25.3946 27.9091 24.7146L29.449 23.2146C33.599 19.1546 40.1191 13.6446 44.0391 9.29463C45.8291 7.29463 46.749 1.37463 41.689 0.894631C40.9182 0.825209 40.1413 0.882635 39.389 1.06463C40.3975 1.45116 41.2382 2.17947 41.7645 3.1225C42.2909 4.06553 42.4694 5.16341 42.269 6.22463C41.209 9.96463 37.669 12.6046 35.019 15.3346C31.589 18.8746 28.499 22.5746 24.769 25.7746C29.579 30.2946 33.019 36.7746 36.769 42.0846C40.319 47.0846 46.139 52.9446 46.489 59.3846C46.5655 60.4321 46.232 61.4683 45.559 62.2746C46.2215 62.0821 46.8186 61.712 47.2858 61.2043C47.7529 60.6966 48.0722 60.0708 48.209 59.3946C49.749 53.8846 43.949 48.1846 41.059 44.2346Z" fill="#EF4D8B"/>
</g>
</g>
<defs>
<clipPath id="clip0_4273_2836">
<rect width="47.9086" height="61.9846" fill="white" transform="translate(0.556152 0.862793)"/>
</clipPath>
</defs>
</svg>
