<svg width="44" height="60" viewBox="0 0 44 60" fill="none" xmlns="http://www.w3.org/2000/svg">
<path d="M41.5191 51.8046C37.8391 47.4746 30.8891 49.1846 25.0991 49.0046C20.4691 48.8546 16.0191 48.8846 11.5191 48.9346C11.5924 41.1746 11.5924 33.4113 11.5191 25.6446C11.5191 20.0746 12.0791 11.9146 11.6891 6.32463C11.5091 3.77463 8.9591 -0.115374 4.9591 2.19463C0.119097 4.98463 1.5191 11.3846 1.5191 18.1846C1.5191 24.9846 1.7191 30.7446 1.7791 37.6446C1.7791 43.4646 1.7791 49.2746 1.9791 55.0946C1.9791 56.2846 1.9791 57.6046 3.1091 58.3646C4.2391 59.1246 6.1091 59.0946 7.5291 59.0346H17.2691C23.0791 59.0346 31.5991 59.5946 37.4391 59.2046C40.0891 59.0046 44.7591 55.6846 41.5191 51.8046Z" fill="#F8971D" stroke="#D14C27" stroke-linecap="round" stroke-linejoin="round"/>
<g style="mix-blend-mode:multiply">
<path d="M9.56932 14.6946C9.06932 22.4646 8.29932 30.1946 8.28932 37.9946C8.28932 41.5346 8.16932 45.2246 8.48932 48.7446C8.94932 53.6746 10.7293 50.8546 11.5993 48.9346H11.5193C11.5927 41.1746 11.5927 33.4113 11.5193 25.6446C11.5193 20.0746 12.0793 11.9146 11.6893 6.32463C11.5293 4.01463 9.40932 0.624632 6.04932 1.71463C9.67932 5.18463 9.88932 9.85463 9.56932 14.6946Z" fill="#FFC519"/>
</g>
<g style="mix-blend-mode:multiply">
<path d="M41.5192 51.8046C40.4413 50.5696 39.0042 49.7025 37.4092 49.3246C37.6884 50.2231 37.7902 51.1673 37.7092 52.1046C37.4692 55.6046 33.3792 56.2046 30.6492 56.6546C21.1972 58.0763 11.584 58.0527 2.13916 56.5846C2.17671 56.9322 2.28476 57.2684 2.45671 57.5727C2.62865 57.8771 2.86087 58.1431 3.13916 58.3546C4.32916 59.2046 6.13916 59.0846 7.55916 59.0246H17.2992C23.1092 59.0246 31.6292 59.5846 37.4692 59.1946C40.0892 59.0046 44.7592 55.6846 41.5192 51.8046Z" fill="#FFC519"/>
</g>
</svg>
