<svg width="58" height="62" viewBox="0 0 58 62" fill="none" xmlns="http://www.w3.org/2000/svg">
<path d="M56.6889 26.3546C56.6889 20.7246 57.0789 12.0746 56.6889 6.43461C56.3989 2.34461 51.3589 0.10461 47.8889 1.99461C46.6269 2.65802 45.5457 3.61911 44.7389 4.79461C42.0689 9.99461 39.2189 18.0446 36.8889 23.3746C34.1822 29.5746 31.5156 35.7979 28.8889 42.0446C26.2222 35.8046 23.5556 29.5813 20.8889 23.3746C18.5689 18.0446 15.7189 9.99461 13.0489 4.79461C11.5489 1.88461 6.9389 -0.0753806 4.4689 2.39462C0.758895 6.10462 1.46889 14.0946 1.66889 18.8546C1.92889 25.8546 1.8989 31.8546 1.9689 38.8546C1.9689 42.1246 1.82889 45.3946 1.80889 48.6646C1.80889 51.6646 1.80889 55.5146 2.80889 58.4246C3.80889 61.3346 7.1989 61.1946 9.4689 60.1346C12.6789 58.6346 11.8689 54.3246 11.8989 51.4546C11.9789 43.7146 11.9889 35.9646 11.9689 28.2146C13.6089 31.9846 15.2889 35.7046 16.9689 39.5846C18.4689 42.9746 19.7289 46.4646 21.2789 49.8246C22.5789 52.6446 24.1389 57.1546 26.9889 58.7746C27.6365 59.0555 28.3395 59.1852 29.0447 59.1541C29.7498 59.1229 30.4386 58.9316 31.0589 58.5946C32.4389 57.7446 33.2789 56.1146 34.0589 54.7446C35.8178 51.511 37.3741 48.1712 38.7189 44.7446C39.3989 43.0046 40.0989 41.2846 40.8589 39.5746C42.8589 35.0846 44.7889 30.8046 46.6589 26.4146C46.6589 30.5246 46.5489 34.6046 46.5889 38.8446C46.5889 42.2846 46.4189 45.7246 46.4589 49.1746C46.4589 52.1746 46.1789 56.0646 47.5989 58.8546C48.8689 61.3246 51.8389 61.1746 54.0889 60.1246C57.2989 58.6246 56.4989 54.3146 56.5289 51.4446C56.5189 42.9446 56.7189 34.8546 56.6889 26.3546Z" fill="#2CAE4E" stroke="#128869" stroke-linecap="round" stroke-linejoin="round"/>
<g style="mix-blend-mode:multiply">
<path d="M11.899 28.1846C12.899 30.4446 13.899 32.6946 14.899 34.9646C14.159 30.2746 12.739 25.6046 9.75897 23.4546C8.6505 30.6617 8.23527 37.9583 8.51897 45.2446C8.61897 48.8546 8.79897 52.7246 7.39897 56.1246C6.72897 57.7646 4.60897 59.3946 2.78897 58.3246L2.68896 58.2546C2.68896 58.3046 2.68897 58.3646 2.73897 58.4146C3.73897 61.2446 7.12897 61.1846 9.39897 60.1246C12.609 58.6246 11.799 54.3146 11.829 51.4446C11.909 43.7046 11.919 35.9546 11.899 28.1846Z" fill="#BAD532"/>
</g>
<g style="mix-blend-mode:multiply">
<path d="M46.5189 32.2946C47.5189 27.8646 47.9089 23.3846 45.6789 21.0946C39.4289 29.8046 37.1189 40.7146 32.1489 50.0946C31.0289 52.2146 28.7389 56.3746 26.1489 58.0946C26.406 58.31 26.6802 58.504 26.9689 58.6746C27.6165 58.9555 28.3195 59.0852 29.0247 59.0541C29.7299 59.0229 30.4187 58.8316 31.0389 58.4946C32.4189 57.6446 33.2589 56.0146 34.0389 54.6446C35.7978 51.411 37.3541 48.0712 38.6989 44.6446C39.3789 42.9046 40.0789 41.1846 40.8389 39.4746C42.8389 34.9846 44.7689 30.7046 46.6389 26.3146C46.5789 28.3746 46.5189 30.3346 46.5189 32.2946Z" fill="#BAD532"/>
</g>
<g style="mix-blend-mode:multiply">
<path d="M10.609 7.49461C14.419 12.3446 16.669 18.7646 18.969 24.4446C21.599 30.9546 24.189 37.5246 27.969 43.4446C28.119 42.6346 28.689 42.4946 28.819 41.6946C26.319 35.7946 23.359 29.2446 20.819 23.3846C18.499 18.0546 15.649 10.0046 12.979 4.80461C11.479 1.89461 6.86905 -0.0653861 4.39905 2.40461C4.25905 2.54461 4.14904 2.69461 4.01904 2.83461C6.66904 3.34461 8.69904 5.04461 10.609 7.49461Z" fill="#BAD532"/>
</g>
<g style="mix-blend-mode:multiply">
<path d="M56.6889 6.43462C56.4589 3.09462 53.0489 0.99461 49.9189 1.36461C51.0873 2.18142 52.0105 3.3017 52.589 4.60462C55.489 10.5446 54.9989 18.3246 54.9989 24.7446C54.9989 32.4746 54.8489 40.2146 54.9989 47.9346C55.0789 51.8746 55.679 56.7346 53.659 60.2846L54.0289 60.1246C57.2389 58.6246 56.4389 54.3146 56.4689 51.4446C56.5489 42.9446 56.7289 34.8546 56.6989 26.3546C56.6589 20.7246 57.0789 12.0746 56.6889 6.43462Z" fill="#BAD532"/>
</g>
</svg>
