<svg width="46" height="61" viewBox="0 0 46 61" fill="none" xmlns="http://www.w3.org/2000/svg">
<path d="M44.5193 25.4446C44.5193 19.8146 45.0793 11.5746 44.6893 5.93464C44.5093 3.35464 40.8993 -1.28536 37.0193 1.93464C32.6893 5.50464 34.3293 13.1846 34.5093 17.9346C34.7593 24.9346 34.4593 31.4046 34.5093 38.3746V38.7046C30.3793 32.6446 26.8793 26.6546 22.8393 20.4746C19.1993 14.9046 14.7593 6.29463 9.50931 2.05463C9.19479 1.79307 8.81414 1.62351 8.40934 1.56464C7.67787 1.04628 6.78877 0.798682 5.89466 0.864372C5.00055 0.930061 4.15717 1.30494 3.50931 1.92464C-0.820689 5.49464 0.819331 13.1746 0.999331 17.9246C1.24933 24.9246 0.949331 31.3946 0.999331 38.3646C1.04933 44.3146 0.219314 52.9446 2.16931 58.6746C2.88931 60.7846 6.40933 60.6246 8.49933 59.6746C11.7093 58.1746 10.9093 53.8646 10.9393 50.9946C11.0193 42.4946 11.0393 33.9946 10.9993 25.4946C10.9993 24.4946 10.9993 23.4046 10.9993 22.2746C14.4393 27.708 17.906 33.1213 21.3993 38.5146C23.9593 42.5146 26.6993 46.3146 29.3993 50.1446C30.7327 52.0246 32.0926 53.8946 33.4793 55.7546C35.8193 58.9346 37.4293 61.7546 41.9193 59.6746C45.1293 58.1746 44.3293 53.8646 44.3593 50.9946C44.506 42.4546 44.5593 33.938 44.5193 25.4446Z" fill="#EF4054" stroke="#832A18" stroke-linecap="round" stroke-linejoin="round"/>
<g style="mix-blend-mode:multiply">
<path d="M11.4591 6.26463C18.1791 14.6546 23.5291 24.1046 30.3991 32.3746C27.8891 28.4246 25.4791 24.4746 22.8491 20.4446C19.2091 14.8746 14.7691 6.26462 9.51913 2.02462C9.20462 1.76306 8.82394 1.5935 8.41913 1.53463C7.70227 1.025 6.83184 0.77762 5.9541 0.834072C5.07636 0.890525 4.24479 1.24736 3.59912 1.84463C6.68066 2.28028 9.48605 3.85785 11.4591 6.26463Z" fill="#EF4D8B"/>
</g>
<g style="mix-blend-mode:multiply">
<path d="M12.229 24.0546C12.0288 23.0699 11.7478 22.1033 11.389 21.1646C11.099 20.3946 7.55901 13.6646 7.38901 17.7646C7.25901 20.5946 7.64903 23.4346 7.68903 26.2746C7.81903 34.6446 9.38901 43.7646 8.20901 52.0846C7.64901 56.0846 5.71902 59.0846 2.74902 59.4946C4.01902 60.6846 6.749 60.4446 8.539 59.6246C11.749 58.1246 10.949 53.8146 10.979 50.9446C11.059 42.4446 11.079 33.9446 11.039 25.4446C11.039 24.4446 11.039 23.3546 11.039 22.2246C11.439 22.8346 11.839 23.4446 12.229 24.0546Z" fill="#EF4D8B"/>
</g>
<g style="mix-blend-mode:multiply">
<path d="M44.5194 25.4446C44.5194 19.8146 45.0794 11.5746 44.6894 5.93464C44.5094 3.35464 40.8994 -1.28536 37.0194 1.93464L36.8994 2.05463C38.6225 2.81372 40.0092 4.1756 40.7994 5.88464C43.2494 10.5246 41.7994 17.4646 41.7994 22.4746C41.7994 29.0746 41.8894 35.6746 41.7994 42.2746C41.7194 46.3746 42.3094 55.9146 37.6494 58.1246C37.0825 58.3958 36.4797 58.5844 35.8594 58.6846C37.3494 60.2846 39.0594 61.0546 42.0194 59.6846C45.2294 58.1846 44.4294 53.8746 44.4594 51.0046C44.5394 42.458 44.5594 33.938 44.5194 25.4446Z" fill="#EF4D8B"/>
</g>
</svg>
