<svg width="60" height="61" viewBox="0 0 60 61" fill="none" xmlns="http://www.w3.org/2000/svg">
<path d="M42.1294 3.60463C33.0194 -0.835375 22.8194 0.904626 14.1294 5.60463C11.7298 6.88851 9.59275 8.61173 7.82939 10.6846C4.40939 14.6846 2.52938 19.8746 1.69938 25.4946C-0.620617 41.1946 10.8594 58.5746 27.2694 60.0646C35.7694 60.8446 43.0194 57.9346 49.3794 52.3346C53.8594 48.3846 57.6594 40.1146 58.8394 34.3346C61.4494 21.7646 53.2794 9.05463 42.1294 3.60463ZM43.3794 32.4846C42.7594 35.4846 40.7794 39.7846 38.4494 41.8346C36.9221 43.2793 35.1053 44.383 33.1192 45.0726C31.1332 45.7622 29.0234 46.0219 26.9294 45.8346C18.3794 45.0546 12.3994 35.9946 13.6094 27.8346C13.9264 25.0157 15.0321 22.3434 16.7994 20.1246C17.7169 19.0435 18.8296 18.1445 20.0794 17.4746C24.5894 15.0446 29.9094 14.1346 34.6494 16.4746C40.4594 19.3046 44.7094 25.9246 43.3794 32.4846Z" fill="#FEBF34" stroke="#BC6714" stroke-linecap="round" stroke-linejoin="round"/>
<g style="mix-blend-mode:multiply">
<path d="M26.929 45.8746C18.379 45.0946 12.399 36.0346 13.609 27.8746C13.926 25.0557 15.0317 22.3834 16.799 20.1646C17.7165 19.0835 18.8292 18.1845 20.079 17.5146C24.139 15.3246 28.859 14.3746 33.219 15.9046C32.094 15.1257 30.8609 14.5159 29.559 14.0946C24.559 12.5746 18.419 13.4746 14.449 17.1446C9.91899 21.3246 8.67901 27.7446 10.309 33.5946C11.799 38.9746 15.399 44.9346 21.139 46.5946C24.1762 47.4224 27.4076 47.1569 30.269 45.8446C29.1604 45.9806 28.0399 45.9907 26.929 45.8746Z" fill="#FFC519"/>
</g>
<g style="mix-blend-mode:multiply">
<path d="M42.1292 3.60463C37.3579 1.31922 32.0087 0.524674 26.7792 1.32463H26.9092C33.7192 2.60463 40.3092 5.51463 44.9092 10.8346C53.1492 20.2846 55.7492 34.2746 47.6992 44.8346C40.7792 53.8946 28.5092 59.0546 17.1392 56.8946C20.2588 58.6523 23.7139 59.7325 27.2792 60.0646C35.7792 60.8446 43.0292 57.9346 49.3892 52.3346C53.8692 48.3846 57.6692 40.1146 58.8492 34.3346C61.4492 21.7646 53.2792 9.05463 42.1292 3.60463Z" fill="#FFC519"/>
</g>
</svg>
