<svg width="45" height="60" viewBox="0 0 45 60" fill="none" xmlns="http://www.w3.org/2000/svg">
<path d="M38.5193 4.55461C38.1995 4.29642 37.8656 4.05606 37.5193 3.83461C34.3193 1.67461 31.2893 1.43461 27.5193 0.934611C26.1493 0.874611 23.9493 0.874607 22.5793 0.804607C18.4893 0.804607 14.3593 0.594607 10.2693 0.804607C8.35931 0.924607 6.14933 0.524605 4.34933 1.33461C2.06933 2.33461 1.82932 5.08461 1.58932 7.27461C1.58932 9.27461 1.46929 11.2746 1.36929 13.2746C1.42929 14.0946 1.47931 14.8346 1.50931 15.4346C1.75931 22.6246 1.50931 29.3646 1.50931 36.5646C1.50931 42.7146 0.839288 50.6446 2.17929 57.3146C2.62929 59.5646 6.91931 59.5746 9.00931 58.5646C12.2193 57.0046 11.4193 52.5646 11.4493 49.5646C11.4893 44.478 11.5126 39.3913 11.5193 34.3046C19.0093 35.0246 27.7693 34.7246 34.2293 31.5046C36.9861 30.0622 39.3101 27.9132 40.9635 25.2776C42.6169 22.6419 43.5403 19.6143 43.6393 16.5046C43.7007 14.261 43.2748 12.0308 42.3909 9.96768C41.507 7.9046 40.1861 6.05779 38.5193 4.55461ZM25.0693 24.9146C23.8109 25.4971 22.4537 25.8364 21.0693 25.9146C20.2393 25.9146 11.5193 25.6846 11.5193 25.5646V23.8146C11.5193 20.3746 11.7493 15.8146 11.7593 11.7046C15.8993 11.8946 21.0193 11.1446 25.1393 12.7046C28.8293 14.0746 30.8693 19.0446 28.2793 22.3246C27.4061 23.4029 26.3158 24.2853 25.0793 24.9146H25.0693Z" fill="#91CB80" stroke="#709C39" stroke-linecap="round" stroke-linejoin="round"/>
<g style="mix-blend-mode:multiply">
<path d="M38.5193 4.55461C38.1994 4.29643 37.8656 4.05606 37.5193 3.83461C34.5693 1.83461 31.7593 1.48462 28.3693 1.04462C34.8093 3.41462 39.8493 7.79461 39.2393 15.8546C39.0577 18.7083 38.2373 21.4848 36.8388 23.9789C35.4403 26.4731 33.4994 28.6212 31.1593 30.2646C27.6593 32.5746 23.9993 33.1946 19.9393 33.9946C18.7771 34.1543 17.6251 34.3814 16.4893 34.6746C22.6693 34.8246 29.1393 34.0946 34.2093 31.5746C36.966 30.1322 39.29 27.9832 40.9434 25.3475C42.5968 22.7119 43.5203 19.6843 43.6193 16.5746C43.6934 14.3209 43.2756 12.078 42.3948 10.0022C41.5141 7.92634 40.1916 6.06736 38.5193 4.55461Z" fill="#77C043"/>
</g>
<g style="mix-blend-mode:multiply">
<path d="M11.5191 23.7746C11.5191 20.3346 11.7491 15.7746 11.7591 11.6646C11.4891 10.9846 10.969 9.74462 10.679 10.6646C10.1473 12.3903 9.8909 14.1891 9.91909 15.9946C9.91909 18.8446 10.1991 21.6746 10.0191 24.5346C9.88906 26.6246 10.669 26.2046 11.499 25.1746L11.5191 23.7746Z" fill="#77C043"/>
</g>
<g style="mix-blend-mode:multiply">
<path d="M11.8293 34.3946C10.3393 32.5946 9.65936 36.9646 9.65936 37.4646C9.65936 39.0346 9.87935 40.6146 9.82935 42.1846C9.66935 47.1146 11.3594 54.4546 8.35938 58.8446C8.58844 58.7735 8.81229 58.6866 9.02936 58.5846C12.2394 57.0246 11.4394 52.5846 11.4694 49.5846C11.5094 44.4979 11.5327 39.4113 11.5394 34.3246L11.8293 34.3946Z" fill="#77C043"/>
</g>
</svg>
