<svg width="61" height="62" viewBox="0 0 61 62" fill="none" xmlns="http://www.w3.org/2000/svg">
<path d="M56.8291 51.2646C55.1891 50.1379 53.5491 49.018 51.9091 47.9046C54.7069 43.7706 56.7392 39.1674 57.9091 34.3146C60.6491 21.7746 52.6591 8.95462 41.5791 3.31462C32.5791 -1.25538 22.3191 0.31462 13.5791 4.90462C11.1595 6.1548 8.99819 7.85127 7.20906 9.90462C3.73906 13.9046 1.78906 19.0246 0.87906 24.6346C-1.65094 40.2946 9.58906 57.8346 25.9791 59.5546C32.5116 60.2866 39.09 58.6508 44.5191 54.9446C47.7591 57.0546 51.9591 60.8546 56.1291 61.3146C57.6691 61.4846 59.5291 58.5046 60.1291 56.4146C61.1391 53.1846 58.3591 52.3246 56.8291 51.2646ZM27.4591 45.4246C17.8891 44.4246 11.3091 34.1646 12.7991 25.0146C13.1977 21.8536 14.4802 18.8693 16.4991 16.4046C17.5446 15.2063 18.8067 14.2156 20.2191 13.4846C25.3091 10.8246 31.2891 9.89462 36.5691 12.5646C43.0491 15.8346 47.7191 23.3246 46.1091 30.6546C45.2595 34.3217 43.5063 37.7181 41.0091 40.5346C38.336 38.4435 35.5338 36.5231 32.6191 34.7846C31.1191 34.0046 26.8391 35.1146 26.4091 39.4746C26.1091 42.6446 27.9291 44.1846 30.0491 45.4746C29.1857 45.5225 28.3199 45.5058 27.4591 45.4246Z" fill="#EE5A82" stroke="#990036" stroke-linecap="round" stroke-linejoin="round"/>
<g style="mix-blend-mode:multiply">
<path d="M36.519 12.2846C34.8609 11.0198 32.9481 10.1296 30.9126 9.67557C28.8772 9.22152 26.7675 9.21437 24.729 9.65463C21.6443 10.2467 18.7813 11.6742 16.452 13.7813C14.1226 15.8885 12.4163 18.5945 11.519 21.6046C9.35897 28.6046 10.249 35.9546 15.519 41.3846C18.179 44.1046 28.749 51.3846 32.519 45.9846C30.089 43.9846 27.799 41.5046 28.749 37.9846C29.0302 36.5866 29.8397 35.3509 31.009 34.5346C29.7801 34.6733 28.6395 35.2405 27.7873 36.1366C26.935 37.0327 26.4258 38.2004 26.349 39.4346C26.049 42.6046 27.869 44.1446 29.989 45.4346C29.1256 45.4825 28.2599 45.4658 27.399 45.3846C17.829 44.3846 11.249 34.1246 12.739 24.9746C13.1376 21.8137 14.4201 18.8293 16.439 16.3646C17.4846 15.1663 18.7466 14.1757 20.159 13.4446C25.249 10.7846 31.229 9.85463 36.509 12.5246C36.699 12.6146 36.879 12.7246 37.059 12.8246C36.8892 12.6347 36.7089 12.4545 36.519 12.2846Z" fill="#EF4D8B"/>
</g>
<g style="mix-blend-mode:multiply">
<path d="M56.8292 51.2646C55.1892 50.138 53.5492 49.018 51.9092 47.9046C54.7071 43.7706 56.7394 39.1675 57.9092 34.3147C60.6492 21.7747 52.6592 8.95465 41.5792 3.31465C36.3497 0.740339 30.4218 -0.0533344 24.6992 1.05464C38.9192 1.52464 52.3992 10.2546 53.3492 26.5246C53.6992 32.5246 52.5092 38.9946 48.8492 43.8946C47.9792 45.0646 44.9092 48.1447 46.9692 49.7847C48.3166 50.7047 49.7119 51.5525 51.1492 52.3247C52.6639 53.1283 53.8804 54.3973 54.6192 55.9447C54.9958 56.7299 55.085 57.6224 54.8712 58.4666C54.6574 59.3108 54.1542 60.0533 53.4492 60.5647C54.3074 60.9184 55.2085 61.1571 56.1292 61.2746C57.6692 61.4446 59.5292 58.4646 60.1292 56.3746C61.1392 53.1847 58.3592 52.3246 56.8292 51.2646Z" fill="#EF4D8B"/>
</g>
</svg>
