<svg width="49" height="59" viewBox="0 0 49 59" fill="none" xmlns="http://www.w3.org/2000/svg">
<path d="M47.2692 50.5946C42.2692 44.4646 37.4492 37.2646 32.2692 31.9746C33.2378 31.6636 34.1863 31.2929 35.1092 30.8646C37.8761 29.5598 40.237 27.5284 41.94 24.9871C43.643 22.4458 44.6243 19.4899 44.7792 16.4346C44.841 14.2271 44.3995 12.0346 43.4881 10.023C42.5768 8.01148 41.2195 6.23379 39.5192 4.82465C39.1985 4.57682 38.8647 4.34648 38.5192 4.13465C35.2392 2.05465 32.1292 1.81463 28.2292 1.33463C26.8192 1.27463 24.5592 1.33463 23.1592 1.21463C18.9492 1.26463 14.7092 1.01463 10.5192 1.21463C8.51917 1.32463 6.28917 0.944635 4.43917 1.71463C1.70917 2.85464 1.64917 6.39464 1.55917 8.87464C1.24917 17.7646 1.44917 26.7746 1.55917 35.6646C1.61917 41.5946 0.879168 49.2346 2.24917 55.6646C2.70917 57.8346 7.11917 57.8446 9.24917 56.8646C12.5492 55.3746 11.7192 51.0846 11.7492 48.2246C11.8025 43.3246 11.8292 38.4213 11.8292 33.5146C15.1475 33.9056 18.4938 34.0026 21.8292 33.8046C22.0792 33.8046 24.3692 38.0246 24.6592 38.4646C25.6592 39.9946 26.6592 41.5546 27.6092 43.1146C30.7449 48.1812 34.4673 52.8602 38.6992 57.0546C42.5792 61.0446 50.5192 54.5446 47.2692 50.5946ZM11.7892 25.0346V23.3746C11.7892 20.1046 12.0192 15.7246 12.0292 11.8646C16.2192 12.0446 21.4092 11.3246 25.5892 12.7846C29.3292 14.0846 31.3892 18.7846 28.7692 21.9346C27.8738 22.9924 26.7666 23.8509 25.5192 24.4546C24.2323 25.0032 22.8569 25.3149 21.4592 25.3746C20.6192 25.4146 11.7892 25.1846 11.7892 25.0346Z" fill="#355EAA" stroke="#242B6F" stroke-miterlimit="10"/>
<g style="mix-blend-mode:multiply" opacity="0.8">
<path d="M47.2691 50.5946C42.2691 44.4646 37.4491 37.2646 32.2691 31.9746C33.2377 31.6636 34.1862 31.2929 35.1091 30.8646C37.876 29.5598 40.2369 27.5284 41.9399 24.9871C43.6429 22.4458 44.6242 19.4899 44.7791 16.4346C44.8408 14.2271 44.3993 12.0345 43.488 10.023C42.5767 8.01147 41.2194 6.23379 39.5191 4.82465C39.1984 4.57682 38.8646 4.34648 38.5191 4.13464C36.691 2.994 34.6493 2.23858 32.5191 1.91464C36.3491 4.00464 39.9191 7.29463 40.9091 11.6546C42.9091 20.4946 36.5291 27.6546 28.5391 29.8946C33.1391 36.1746 38.8391 41.7946 42.9491 48.3146C44.5491 50.8346 46.3291 55.4846 43.3591 57.8946C43.2405 57.9848 43.117 58.0682 42.9891 58.1446C46.3891 57.2946 49.5191 53.3346 47.2691 50.5946Z" fill="#00A7E2"/>
</g>
<g style="mix-blend-mode:multiply" opacity="0.8">
<path d="M11.7891 23.3746C11.7891 20.1046 12.0191 15.7246 12.0291 11.8646C12.6091 11.8646 13.1991 11.8646 13.8091 11.8646C13.5242 11.4834 13.1498 11.1782 12.7191 10.9759C12.2883 10.7736 11.8144 10.6804 11.3391 10.7046C9.3391 10.9346 10.0791 17.7946 10.0491 19.2646C10.0191 20.7346 10.0491 22.0646 9.95909 23.4546C9.95909 23.9246 9.76909 27.6846 11.1691 25.9746C11.4145 25.6588 11.6351 25.3244 11.8291 24.9746L11.7891 23.3746Z" fill="#00A7E2"/>
</g>
<g style="mix-blend-mode:multiply" opacity="0.8">
<path d="M15.6591 33.8646C13.4291 32.0446 9.39914 30.6246 8.97914 36.9546C8.76914 40.2946 8.84913 43.6246 8.82913 46.9546C8.82913 50.6746 8.67914 54.7846 6.11914 57.5146C7.18317 57.5136 8.23655 57.3029 9.21913 56.8946C12.5191 55.4046 11.6891 51.1146 11.7191 48.2546C11.7725 43.3546 11.7991 38.4513 11.7991 33.5446C13.1591 33.6846 14.4191 33.7946 15.6591 33.8646Z" fill="#00A7E2"/>
</g>
</svg>
