<svg width="45" height="62" viewBox="0 0 45 62" fill="none" xmlns="http://www.w3.org/2000/svg">
<path d="M43.8693 37.9646C43.0893 33.1146 39.4493 28.3546 35.3393 25.8146C29.6293 22.2746 22.8192 22.1446 16.8492 19.2746C14.4892 18.1446 12.6892 14.9746 14.3592 12.6946C16.0292 10.4146 19.2492 9.91461 21.8792 9.69461C25.1992 9.51195 28.4834 10.4563 31.1992 12.3746C33.1992 13.8446 33.5992 15.3746 34.3192 17.5546C34.9092 19.3146 35.6992 20.6046 37.7992 20.1046C39.8992 19.6046 42.0492 15.1546 42.3192 13.3546C42.4399 12.1906 42.3077 11.0143 41.9314 9.90619C41.5551 8.7981 40.9438 7.78442 40.1392 6.9346C36.9492 3.2746 31.5192 2.0746 26.9492 1.3046C24.4109 0.893194 21.8401 0.715783 19.2692 0.774598C9.26925 0.884598 -2.31076 10.8946 2.13924 21.3946C4.46924 26.8846 11.0592 30.3446 16.5192 32.1446C22.9192 34.2546 30.5193 32.9246 34.2493 39.4546C37.7793 45.6646 31.4293 49.4546 26.1193 50.6946C19.7593 52.1246 10.4292 47.4946 10.6292 40.2446C10.8292 32.9946 1.31926 35.4446 1.15926 41.5446C0.839263 54.5446 13.4993 63.0446 25.6593 60.9946C36.8493 59.1846 45.7193 49.5246 43.8693 37.9646Z" fill="#F7EA00" stroke="#CFB600" stroke-linecap="round" stroke-linejoin="round"/>
<g style="mix-blend-mode:multiply">
<path d="M32.9291 10.6546C29.5991 8.8946 26.459 7.18462 22.539 7.07462C17.779 6.93462 9.16904 9.49461 9.84904 15.8546C10.709 23.9446 25.8491 24.4746 31.7191 27.8046C40.7691 32.9346 45.2691 43.4446 40.1891 52.4446C41.7664 50.4145 42.9074 48.0804 43.5406 45.5887C44.1738 43.0971 44.2857 40.5015 43.8691 37.9646C43.0891 33.1146 39.4491 28.3546 35.3391 25.8146C29.6291 22.2746 22.819 22.1446 16.849 19.2746C14.489 18.1446 12.689 14.9746 14.359 12.6946C16.029 10.4146 19.249 9.91461 21.879 9.69461C25.199 9.51195 28.4832 10.4563 31.199 12.3746C33.199 13.8446 33.599 15.3746 34.319 17.5546C34.909 19.3146 35.699 20.6046 37.799 20.1046C39.899 19.6046 42.049 15.1546 42.319 13.3546C42.4397 12.1906 42.3075 11.0143 41.9312 9.90619C41.5549 8.7981 40.9436 7.78442 40.139 6.9346L40.049 6.8446C40.329 10.4546 38.2291 13.4646 32.9291 10.6546Z" fill="#FFDD07"/>
</g>
<g style="mix-blend-mode:multiply">
<path d="M10.6291 40.2646C10.6991 37.4846 9.33914 36.1346 7.62914 35.8746C6.85818 36.3453 6.27618 37.0709 5.98396 37.9257C5.69175 38.7804 5.70775 39.7104 6.02916 40.5546C6.37231 41.9554 6.95778 43.2855 7.75914 44.4846C9.23878 46.7226 11.2129 48.5907 13.5292 49.9446C16.4192 51.4613 19.6256 52.2766 22.8891 52.3246C26.0791 52.3246 29.7191 52.0146 32.3591 50.0246C35.7091 47.5046 36.6292 43.4846 34.7392 40.4546C37.0992 46.0846 31.1591 49.5846 26.1291 50.7146C19.7591 52.1846 10.4291 47.5146 10.6291 40.2646Z" fill="#FFDD07"/>
</g>
</svg>
