<svg width="51" height="63" viewBox="0 0 51 63" fill="none" xmlns="http://www.w3.org/2000/svg">
<path d="M49.429 3.90464C46.489 -0.435358 40.169 1.21465 36.249 1.38465C30.519 1.64465 25.149 1.38465 19.419 1.38465C14.509 1.38465 7.41904 0.594626 2.68904 2.54463C0.949036 3.26463 1.07902 6.79465 1.88902 8.88465C3.12902 12.0947 6.66903 11.2846 9.02903 11.3146C12.839 11.3646 16.639 11.3846 20.449 11.3946C20.499 13.9146 20.809 16.3946 20.879 18.4546C21.129 25.6546 20.829 32.3846 20.879 39.5846C20.939 45.7346 20.099 54.6646 22.049 60.5846C22.769 62.7646 26.299 62.5846 28.379 61.5846C31.599 60.0246 30.789 55.5846 30.819 52.5846C30.899 43.798 30.919 35.008 30.879 26.2146C30.879 22.0046 31.159 16.3746 31.179 11.3646C35.729 11.3646 41.809 11.8746 46.099 11.5146C48.229 11.3846 52.049 7.77464 49.429 3.90464Z" fill="#9ADAEF" stroke="#007EC3" stroke-linecap="round" stroke-linejoin="round"/>
<g style="mix-blend-mode:multiply">
<path d="M20.5691 13.8546C21.2191 12.6346 21.4691 11.4346 20.5691 10.7346C18.2191 8.88462 14.8991 9.87463 12.1891 9.99463C9.5774 10.1482 6.95724 10.0713 4.35907 9.76462C3.57124 9.65881 2.79468 9.48141 2.03906 9.23462C3.39906 12.0446 6.75906 11.3046 9.03906 11.3346C12.8491 11.3846 16.6491 11.4046 20.4591 11.4146C20.5191 12.2346 20.5191 13.0446 20.5691 13.8546Z" fill="#38C6F4"/>
</g>
<g style="mix-blend-mode:multiply">
<path d="M49.4292 3.90463C48.8643 3.10658 48.1326 2.44097 47.2847 1.95401C46.4369 1.46705 45.4932 1.1704 44.5192 1.08463C44.9617 1.45051 45.367 1.85916 45.7292 2.30463C47.0592 3.97463 47.9892 7.41464 45.7892 8.84464C42.8692 10.7446 38.6892 10.2546 35.3692 10.1346C33.4232 9.98308 31.4703 9.93633 29.5192 9.99463C28.1492 10.0946 28.5192 14.3346 28.5192 14.9946C28.5192 18.5446 28.7892 22.0846 28.9592 25.6246C29.3392 33.4746 28.2892 41.2446 28.4992 49.0746C28.6192 53.1846 29.6792 58.7546 26.7192 62.0746C27.2788 61.9598 27.8227 61.7785 28.3392 61.5346C31.5592 59.9746 30.7492 55.5346 30.7792 52.5346C30.8592 43.748 30.8792 34.958 30.8392 26.1646C30.8392 21.9546 31.1192 16.3246 31.1392 11.3146C35.6892 11.3146 41.7692 11.8246 46.0592 11.4646C48.2292 11.3846 52.0492 7.77463 49.4292 3.90463Z" fill="#38C6F4"/>
</g>
</svg>
