<svg width="51" height="60" viewBox="0 0 51 60" fill="none" xmlns="http://www.w3.org/2000/svg">
<path d="M49.8492 16.9446C49.8492 11.8846 49.4491 6.85465 48.1291 2.85465C47.1291 -0.0553498 42.4791 0.174633 39.6991 1.52463C39.0029 1.8568 38.391 2.34228 37.9092 2.94465C35.8092 8.64465 36.8391 15.4246 36.9991 21.3646C37.1591 26.8946 37.9191 32.7846 36.5591 38.2346C35.3991 42.8946 32.7591 46.7846 27.5591 47.2346C26.9163 47.3002 26.2677 47.2834 25.6291 47.1846C23.8918 47.4122 22.1293 47.3582 20.4092 47.0246C17.9692 46.5346 16.8092 45.4646 15.2292 43.5946C12.4692 40.3446 12.4892 34.7146 12.4592 30.7846C12.3892 22.5946 13.5691 14.2646 12.2391 3.61463C11.8691 0.61463 6.53917 0.184648 4.28917 0.914648C0.419169 2.17465 1.16915 6.16463 1.14915 9.49463C1.14915 14.6046 1.00913 19.6946 1.05913 24.7946C1.05913 27.2346 1.11912 29.6746 1.17912 32.1146C1.22579 34.068 1.33915 36.018 1.51915 37.9646C1.68986 40.4702 2.07796 42.9562 2.67912 45.3946C4.17912 50.8146 8.67914 54.8146 13.8891 56.6246C15.3275 57.3964 16.8467 58.0067 18.4192 58.4446C21.7826 59.3214 25.2888 59.5076 28.7262 58.992C32.1636 58.4764 35.461 57.2697 38.4192 55.4446C44.4192 51.6546 45.7091 50.2446 47.8691 42.2446C49.6091 35.7646 50.0192 25.2746 49.8492 16.9446Z" fill="#D41B64" stroke="#8D1437" stroke-linecap="round" stroke-linejoin="round"/>
<g style="mix-blend-mode:multiply">
<path d="M7.3493 2.65464C12.1693 7.05464 9.04926 17.9646 8.98926 23.4346C8.89926 32.3846 7.1193 46.0346 18.3493 49.0846C23.0993 50.3746 26.8793 49.3046 29.4893 46.8746C28.8369 47.0656 28.1668 47.1896 27.4893 47.2446C26.8464 47.3102 26.1978 47.2934 25.5593 47.1946C23.822 47.4222 22.0594 47.3682 20.3393 47.0346C17.8993 46.5446 16.7393 45.4747 15.1593 43.6047C12.3993 40.3547 12.4193 34.7246 12.3893 30.7946C12.3193 22.6046 13.4993 14.2746 12.1693 3.62464C11.7993 0.624642 6.4693 0.19463 4.2193 0.92463L4.0293 1.00465C5.27914 1.20067 6.43833 1.77676 7.3493 2.65464Z" fill="#C31D73"/>
</g>
<g style="mix-blend-mode:multiply">
<path d="M49.8491 16.9446C49.8491 11.8846 49.449 6.85465 48.129 2.85465C47.129 -0.0553498 42.479 0.174633 39.699 1.52463L39.509 1.62464C40.2281 1.56138 40.9527 1.64294 41.6397 1.86451C42.3268 2.08608 42.9624 2.44318 43.509 2.91465C46.799 5.67465 47.059 9.91463 46.699 13.9946C46.259 18.9946 46.189 23.9946 46.119 28.9946C45.969 39.7446 44.669 49.7346 35.679 56.6946C35.459 56.8646 35.219 57.0246 34.999 57.1846C36.168 56.6938 37.2951 56.1085 38.369 55.4346C44.369 51.6446 45.659 50.2346 47.819 42.2346C49.609 35.7646 50.0191 25.2746 49.8491 16.9446Z" fill="#C31D73"/>
</g>
</svg>
