<svg width="52" height="62" viewBox="0 0 52 62" fill="none" xmlns="http://www.w3.org/2000/svg">
<path d="M49.7791 3.45464C47.4492 -1.19536 42.2791 1.95464 41.1091 4.45464C38.5291 9.85464 35.8291 18.1947 33.6091 23.7147C30.9425 30.268 28.3325 36.8347 25.7792 43.4147C23.2058 36.8347 20.5991 30.268 17.9592 23.7147C15.7292 18.1947 13.0391 9.85464 10.4591 4.45464C9.28915 1.98464 4.11915 -1.16536 1.78915 3.45464C-0.820852 8.64464 3.70915 15.5646 5.73915 20.1746C8.73915 26.9246 10.9791 33.4547 13.7391 40.2747C16.2191 46.3547 18.2191 52.4747 21.5391 58.1547C22.1093 59.0371 22.9223 59.7359 23.8803 60.167C24.8384 60.5981 25.9006 60.7432 26.9391 60.5846C29.5991 60.0846 30.5691 57.1646 31.7291 55.0247C33.3091 51.9076 34.6755 48.6869 35.8191 45.3847C36.4591 43.6747 37.0791 41.9646 37.8191 40.2747C40.6091 33.4547 42.8792 26.9246 45.8191 20.1746C47.8591 15.5646 52.3891 8.64464 49.7791 3.45464Z" fill="#FFD453" stroke="#A77F2D" stroke-linecap="round" stroke-linejoin="round"/>
<g style="mix-blend-mode:multiply">
<path d="M3.7192 2.39466C8.7892 5.75466 10.7192 12.7447 12.5692 18.1247C15.8092 27.3647 18.8192 37.1247 23.1092 45.9747C24.8292 49.5247 26.1692 44.3047 26.1892 42.9047C26.1892 42.7247 26.1892 42.5347 26.1892 42.3547C26.0592 42.7047 25.9192 43.0447 25.7792 43.3547C23.2059 36.7747 20.5992 30.208 17.9592 23.6547C15.7292 18.1347 13.0392 9.79467 10.4592 4.39467C9.4592 2.27467 5.5092 -0.335325 2.9292 1.90467C3.20268 2.05106 3.46654 2.21471 3.7192 2.39466Z" fill="#F7B850"/>
</g>
<g style="mix-blend-mode:multiply">
<path d="M49.7791 3.45464C49.502 2.74844 49.0172 2.14293 48.3888 1.71801C47.7603 1.29309 47.0177 1.06877 46.2591 1.07467C46.5304 1.273 46.7816 1.49738 47.0091 1.74465C49.1491 3.97465 48.0091 7.74467 46.8291 10.0747C43.9727 16.0357 41.4521 22.1519 39.2791 28.3946C36.6691 35.5146 34.1991 42.6746 31.2791 49.6746C29.8791 53.0146 28.6491 57.0147 25.2091 58.8447C24.5416 59.2029 23.8419 59.4975 23.1191 59.7247C24.2535 60.4827 25.6302 60.7894 26.9791 60.5846C29.6391 60.0846 30.6091 57.1646 31.7691 55.0247C33.3491 51.9076 34.7155 48.6869 35.8591 45.3847C36.4991 43.6747 37.1191 41.9646 37.8591 40.2747C40.6491 33.4547 42.9191 26.9246 45.8591 20.1746C47.8591 15.5646 52.3891 8.64464 49.7791 3.45464Z" fill="#F7B850"/>
</g>
</svg>
