<svg width="74" height="62" viewBox="0 0 74 62" fill="none" xmlns="http://www.w3.org/2000/svg">
<path d="M71.6693 3.0046C68.5793 -1.0754 63.6693 2.6246 62.7993 5.1246C60.8893 10.5946 59.2693 18.8746 57.7493 24.4246C56.4893 28.9746 55.2493 33.5446 54.0293 38.1046C52.8093 33.5846 51.5893 29.0546 50.3393 24.5446C49.4093 21.1746 48.7793 17.7346 47.9993 14.3246C47.2893 11.1846 46.3793 7.54461 44.5193 4.85461C43.7777 3.80664 42.8303 2.92077 41.735 2.25106C40.6397 1.58136 39.4194 1.14185 38.1486 0.959376C36.8778 0.776898 35.5832 0.855281 34.3437 1.18972C33.1042 1.52416 31.9458 2.10765 30.9393 2.9046C28.6093 4.7246 27.7693 7.3846 27.0293 10.1246C26.1793 13.2746 25.4693 16.4646 24.7093 19.6446C24.3093 21.2746 23.9193 22.9146 23.4693 24.5446C22.2293 29.0546 21.0093 33.5446 19.8093 38.1046C18.5893 33.5446 17.3593 28.9746 16.1093 24.4246C14.5993 18.8746 12.9893 10.5946 11.1093 5.1246C10.2493 2.6246 5.36927 -1.0754 2.30927 3.0046C-1.12073 7.5846 2.58928 14.7646 4.02928 19.4146C6.12928 26.2246 7.55929 32.7246 9.47929 39.5846C10.5793 43.5846 11.3893 47.5846 12.6193 51.5846C13.4093 54.1146 13.9593 57.4046 16.1393 59.2646C16.7469 59.8184 17.4699 60.2303 18.2561 60.4705C19.0424 60.7108 19.8721 60.7734 20.6855 60.6538C21.4988 60.5342 22.2755 60.2353 22.9593 59.7789C23.643 59.3225 24.2169 58.7199 24.6393 58.0146C26.6393 54.5446 27.6393 50.0146 28.5393 46.2446C29.0793 44.0746 29.5393 41.9046 30.1493 39.7546C32.0593 32.8946 33.4893 26.3846 35.5993 19.5746C35.9393 18.4746 36.4093 17.2246 36.8793 15.9046C37.3593 17.2246 37.8293 18.4746 38.1693 19.5746C40.2893 26.3846 41.7293 32.8946 43.6593 39.7546C44.2593 41.9046 44.7393 44.0746 45.2793 46.2446C46.2193 50.0646 47.2093 54.5446 49.1993 58.0146C49.628 58.7212 50.2076 59.3244 50.8966 59.781C51.5856 60.2376 52.367 60.5362 53.1849 60.6557C54.0028 60.7751 54.8369 60.7123 55.6277 60.4719C56.4185 60.2314 57.1464 59.8191 57.7593 59.2646C59.9493 57.4046 60.5093 54.1146 61.2993 51.5846C62.5393 47.6446 63.3493 43.5846 64.4693 39.5846C66.3993 32.7246 67.8293 26.2246 69.9493 19.4146C71.3793 14.7646 75.1093 7.5846 71.6693 3.0046Z" fill="#07B9AB" stroke="#1A6CB5" stroke-linecap="round" stroke-linejoin="round"/>
<path d="M71.6693 3.0046C68.5793 -1.0754 63.6693 2.6246 62.7993 5.1246C60.8893 10.5946 59.2693 18.8746 57.7493 24.4246C56.4893 28.9746 55.2493 33.5446 54.0293 38.1046C52.8093 33.5846 51.5893 29.0546 50.3393 24.5446C49.4093 21.1746 48.7793 17.7346 47.9993 14.3246C47.2893 11.1846 46.3793 7.54461 44.5193 4.85461C43.7777 3.80664 42.8303 2.92077 41.735 2.25106C40.6397 1.58136 39.4194 1.14185 38.1486 0.959376C36.8778 0.776898 35.5832 0.855281 34.3437 1.18972C33.1042 1.52416 31.9458 2.10765 30.9393 2.9046C28.6093 4.7246 27.7693 7.3846 27.0293 10.1246C26.1793 13.2746 25.4693 16.4646 24.7093 19.6446C24.3093 21.2746 23.9193 22.9146 23.4693 24.5446C22.2293 29.0546 21.0093 33.5446 19.8093 38.1046C18.5893 33.5446 17.3593 28.9746 16.1093 24.4246C14.5993 18.8746 12.9893 10.5946 11.1093 5.1246C10.2493 2.6246 5.36927 -1.0754 2.30927 3.0046C-1.12073 7.5846 2.58928 14.7646 4.02928 19.4146C6.12928 26.2246 7.55929 32.7246 9.47929 39.5846C10.5793 43.5846 11.3893 47.5846 12.6193 51.5846C13.4093 54.1146 13.9593 57.4046 16.1393 59.2646C16.7469 59.8184 17.4699 60.2303 18.2561 60.4705C19.0424 60.7108 19.8721 60.7734 20.6855 60.6538C21.4988 60.5342 22.2755 60.2353 22.9593 59.7789C23.643 59.3225 24.2169 58.7199 24.6393 58.0146C26.6393 54.5446 27.6393 50.0146 28.5393 46.2446C29.0793 44.0746 29.5393 41.9046 30.1493 39.7546C32.0593 32.8946 33.4893 26.3846 35.5993 19.5746C35.9393 18.4746 36.4093 17.2246 36.8793 15.9046C37.3593 17.2246 37.8293 18.4746 38.1693 19.5746C40.2893 26.3846 41.7293 32.8946 43.6593 39.7546C44.2593 41.9046 44.7393 44.0746 45.2793 46.2446C46.2193 50.0646 47.2093 54.5446 49.1993 58.0146C49.628 58.7212 50.2076 59.3244 50.8966 59.781C51.5856 60.2376 52.367 60.5362 53.1849 60.6557C54.0028 60.7751 54.8369 60.7123 55.6277 60.4719C56.4185 60.2314 57.1464 59.8191 57.7593 59.2646C59.9493 57.4046 60.5093 54.1146 61.2993 51.5846C62.5393 47.6446 63.3493 43.5846 64.4693 39.5846C66.3993 32.7246 67.8293 26.2246 69.9493 19.4146C71.3793 14.7646 75.1093 7.5846 71.6693 3.0046Z" fill="#07B9AB" stroke="#008280" stroke-linecap="round" stroke-linejoin="round"/>
<g style="mix-blend-mode:multiply">
<path d="M40.9291 6.31459C43.9291 11.1146 45.4391 16.2246 47.1291 21.6046C48.4291 25.7046 49.9491 29.8346 50.9591 34.0046C51.495 36.8454 52.2165 39.6481 53.1191 42.3946C54.1467 40.0651 54.7397 37.5674 54.8691 35.0246C54.5891 36.0246 54.2991 37.0746 54.0291 38.1046C52.8091 33.5846 51.5891 29.0546 50.3391 24.5446C49.4091 21.1746 48.7791 17.7346 47.9991 14.3246C47.2891 11.1846 46.3791 7.5446 44.5191 4.8546C43.6105 3.53285 42.3745 2.46944 40.932 1.76833C39.4895 1.06721 37.8897 0.752389 36.2891 0.854599C38.1147 2.41784 39.6808 4.26072 40.9291 6.31459Z" fill="#A1DDF3"/>
</g>
<g style="mix-blend-mode:multiply">
<path d="M11.3793 16.5446C13.0593 23.8046 14.6793 31.1446 16.8693 38.2646C17.3993 40.0246 18.8693 45.4846 20.0493 40.5746C20.4386 38.822 20.6198 37.0296 20.5893 35.2346C20.3293 36.2346 20.0593 37.1446 19.8093 38.1046C18.5893 33.5446 17.3593 28.9746 16.1093 24.4246C14.5993 18.8746 12.9893 10.5946 11.1093 5.1246C10.4993 3.3546 7.87934 0.994591 5.31934 1.20459C8.72934 4.84459 10.6893 13.5646 11.3793 16.5446Z" fill="#A1DDF3"/>
</g>
<g style="mix-blend-mode:multiply">
<path d="M37.1891 16.7746C37.1948 15.7322 37.0327 14.6956 36.7091 13.7046C36.0391 11.8146 33.7791 18.5446 33.7091 18.9946C33.2991 20.7346 32.9891 22.4946 32.5891 24.2346C30.6791 32.6446 27.6691 40.9546 25.0391 49.1846C24.2291 51.7346 22.8291 57.3546 20.3691 60.6446C21.2484 60.5911 22.1005 60.3189 22.8479 59.8526C23.5953 59.3864 24.2145 58.7408 24.6491 57.9746C26.6491 54.5046 27.6491 49.9746 28.5491 46.2046C29.0891 44.0346 29.5491 41.8646 30.1591 39.7146C32.0691 32.8546 33.4991 26.3446 35.6091 19.5346C35.9491 18.4346 36.4191 17.1846 36.8891 15.8646L37.1891 16.7746Z" fill="#A1DDF3"/>
</g>
<g style="mix-blend-mode:multiply">
<path d="M71.6693 3.00461C69.8893 0.654612 67.5093 0.884612 65.6693 2.00461C66.5171 2.29791 67.2899 2.7743 67.9329 3.39994C68.5758 4.02558 69.0731 4.78512 69.3893 5.62461C70.8093 8.95461 68.5893 13.9346 67.5993 17.0446C65.7394 22.9546 63.8693 28.8446 62.2493 34.8246C60.6293 40.8046 59.3193 46.6446 57.5493 52.4546C56.5493 55.6346 55.6293 58.5946 52.5493 60.1746C52.3893 60.2546 52.2394 60.2946 52.0894 60.3546C53.0566 60.6855 54.0938 60.7572 55.0974 60.5624C56.101 60.3677 57.036 59.9133 57.8093 59.2446C59.9993 57.3846 60.5594 54.0946 61.3493 51.5646C62.5893 47.6246 63.3993 43.5646 64.5193 39.5646C66.4493 32.7046 67.8793 26.2046 69.9993 19.3946C71.3793 14.7646 75.1093 7.58461 71.6693 3.00461Z" fill="#A1DDF3"/>
</g>
</svg>
