<svg width="46" height="60" viewBox="0 0 46 60" fill="none" xmlns="http://www.w3.org/2000/svg">
<path d="M29.6392 28.5347C33.2592 23.7013 36.8592 18.858 40.4392 14.0047C42.3492 11.4047 45.9192 8.00466 44.2792 4.67466C43.2092 2.50466 40.3992 0.164658 38.3792 1.61466C32.8892 5.56466 27.7592 13.8547 23.6992 19.1947C20.0792 13.5847 15.6492 5.28467 10.5992 1.06467C8.67921 -0.535329 5.70923 1.60468 4.48923 3.69468C2.60923 6.92468 5.93924 10.5447 7.65924 13.2747C10.7792 18.228 13.9259 23.168 17.0992 28.0947C14.7692 31.2747 12.4292 34.4347 9.87921 37.6047C6.51921 41.7847 -0.030759 47.6847 1.15924 53.6047C2.20924 58.8747 8.33922 56.9447 10.2292 54.7347C14.2892 49.9747 19.2292 42.3947 23.0492 37.3447L23.1392 37.4847C26.5892 42.7947 31.1392 50.9247 34.8792 56.0547C36.6092 58.3947 42.5792 60.7647 44.0092 55.5747C45.6192 49.7747 39.4992 43.4247 36.4492 39.0147C34.0292 35.4947 31.8292 32.0247 29.6392 28.5347Z" fill="#CC69A9" stroke="#9F5BA3" stroke-linecap="round" stroke-linejoin="round"/>
<g style="mix-blend-mode:multiply">
<path d="M20.009 28.8447L20.109 28.7346C17.2461 25.0086 14.6081 21.115 12.209 17.0747C9.72902 12.9147 6.63901 8.53467 5.44901 3.78467C5.35814 3.34936 5.35814 2.89997 5.44901 2.46466C5.09465 2.83916 4.78277 3.25167 4.51901 3.69467C2.63901 6.92467 5.96903 10.5447 7.68903 13.2747C10.809 18.228 13.9557 23.168 17.129 28.0947C14.799 31.2747 12.459 34.4347 9.90903 37.6047C6.54903 41.7847 -0.000974417 47.6847 1.18903 53.6047C1.18903 53.6747 1.18901 53.7347 1.23901 53.8147C1.32045 53.3582 1.43065 52.9073 1.569 52.4647C2.729 48.8047 6.769 44.9347 9.19901 42.0647C12.849 37.6947 16.629 33.4347 20.009 28.8447Z" fill="#F9C5D6"/>
</g>
<g style="mix-blend-mode:multiply">
<path d="M29.6391 28.5347C33.2591 23.7013 36.8591 18.858 40.4391 14.0047C42.3491 11.4047 45.9191 8.00465 44.2791 4.67465C43.2091 2.50465 40.3991 0.16465 38.3791 1.61465C37.9891 1.89465 37.5991 2.20465 37.2191 2.52465C38.0168 2.93647 38.682 3.56505 39.1384 4.3381C39.5948 5.11115 39.8238 5.99727 39.7991 6.89465C39.9091 10.7546 36.7991 13.8946 34.4191 16.6446C31.3291 20.1146 28.1391 23.4347 25.8091 27.4147C28.9091 30.8747 31.1391 35.3446 33.8091 39.0446C36.0791 42.1646 38.3691 45.3646 40.3191 48.7046C41.1991 50.2246 42.3191 52.0847 42.3191 53.9147C42.3363 55.5924 41.8255 57.2331 40.8591 58.6047C41.6329 58.4867 42.3502 58.129 42.9099 57.5818C43.4696 57.0346 43.8436 56.3256 43.9791 55.5547C45.5891 49.7547 39.4691 43.4047 36.4191 38.9947C34.0291 35.4947 31.8291 32.0247 29.6391 28.5347Z" fill="#F9C5D6"/>
</g>
</svg>
