<svg width="47" height="61" viewBox="0 0 47 61" fill="none" xmlns="http://www.w3.org/2000/svg">
<path d="M45.249 5.2646C44.089 2.7546 41.029 0.0446223 38.829 1.72462C32.829 6.28462 27.279 15.8646 22.829 22.0246C18.889 15.5446 14.659 6.72463 9.15898 1.85463C7.07898 0.0146271 3.26898 1.71463 1.93898 4.13463C-0.0610194 7.85463 3.51896 12.0446 5.38896 15.1946C8.40896 20.288 11.4556 25.3613 14.529 30.4146C16.469 33.2846 17.529 35.0246 18.369 36.4746V37.8946C18.429 43.7846 17.559 52.3246 19.579 57.9946C20.329 60.0846 23.979 59.9146 26.139 58.9946C29.459 57.5046 28.629 53.2446 28.659 50.4046C28.7056 45.2779 28.729 40.1446 28.729 35.0046C32.519 29.4246 37.469 21.1646 40.999 16.0546C43.149 13.0346 47.039 9.1846 45.249 5.2646Z" fill="#00A7E2" stroke="#1A6CB5" stroke-linecap="round" stroke-linejoin="round"/>
<g style="mix-blend-mode:multiply" opacity="0.8">
<path d="M7.36914 2.91461C10.4591 5.14461 12.8091 9.5446 14.6791 12.7446C16.8567 16.7472 19.2953 20.6022 21.9791 24.2846C22.2998 23.469 22.5441 22.6253 22.7091 21.7646C18.8091 15.3046 14.6191 6.66461 9.18915 1.85461C8.56883 1.39585 7.82906 1.12624 7.05902 1.07834C6.28898 1.03043 5.52151 1.20625 4.84912 1.58459C5.7529 1.89481 6.60305 2.34351 7.36914 2.91461Z" fill="#00A7E2"/>
</g>
<g style="mix-blend-mode:multiply" opacity="0.8">
<path d="M45.2491 5.26459C44.3191 3.26459 42.1591 1.1146 40.2491 1.2146C41.1301 2.03859 41.7876 3.07262 42.1601 4.21991C42.5326 5.36721 42.608 6.59025 42.3791 7.7746C41.0691 12.7146 37.0491 17.3246 34.2591 21.5246C33.0991 23.2746 23.9391 34.9846 24.8491 36.3046C26.8491 39.1446 26.4991 42.9446 26.3991 46.2246C26.2791 49.8446 27.4591 54.6546 25.8591 58.0146C25.6298 58.4962 25.3553 58.955 25.0391 59.3846C25.4525 59.2797 25.8571 59.1426 26.2491 58.9746C29.5691 57.4846 28.7391 53.2246 28.7691 50.3846C28.8158 45.2579 28.8391 40.1246 28.8391 34.9846C32.6291 29.4046 37.5791 21.1446 41.1091 16.0346C43.1491 13.0346 47.0391 9.18459 45.2491 5.26459Z" fill="#00A7E2"/>
</g>
</svg>
