<svg width="49" height="60" viewBox="0 0 49 60" fill="none" xmlns="http://www.w3.org/2000/svg">
<path d="M28.3277 58.6294C32.7277 58.6294 39.1677 59.3594 43.5877 58.8494C45.5877 58.6094 49.2278 53.8494 46.7378 48.7194C43.9478 43.0094 37.9378 45.1794 34.2278 45.4094C28.7778 45.7394 23.6878 45.3394 18.2278 45.4094H17.9677C22.6977 39.9594 27.3877 35.3394 32.2177 30.0094C36.5677 25.1994 43.2978 19.3394 46.6178 12.4094C46.8694 12.0481 47.0462 11.6401 47.1377 11.2094C47.5715 10.3751 47.7846 9.44357 47.7566 8.5036C47.7286 7.56363 47.4605 6.64647 46.9778 5.83942C44.1978 0.129418 37.9177 0.949405 34.2077 1.1694C28.7577 1.5094 23.6677 1.1094 18.2077 1.1694C13.5477 1.2394 6.79772 0.169413 2.31772 2.70941C0.66772 3.65941 0.79772 8.3194 1.56772 11.0694C2.73772 15.3094 6.10775 14.2494 8.34775 14.2894C15.0144 14.4027 21.6611 14.4294 28.2878 14.3694C29.0678 14.3694 29.9178 14.3694 30.8078 14.3694C26.5611 18.9228 22.3278 23.4994 18.1078 28.0994C15.0078 31.4794 12.0077 35.0994 9.01773 38.7194C7.54773 40.5094 6.08772 42.2994 4.62772 44.1094C2.14772 47.1894 -0.0822798 49.3194 1.56772 55.2494C2.73772 59.4794 6.10775 58.4194 8.34775 58.4594C15.0278 58.6261 21.6877 58.6827 28.3277 58.6294Z" fill="#A8BD3E" stroke="#61782A" stroke-linecap="round" stroke-linejoin="round"/>
<g style="mix-blend-mode:multiply">
<path d="M42.8278 5.76941C44.1878 15.4694 31.4378 23.8894 25.6078 29.6994C22.0578 33.2294 18.3278 36.9594 15.1378 40.8194C14.3178 41.8194 12.6778 43.5194 12.4878 44.9294C12.1878 47.1294 16.2878 45.9294 16.9678 45.6694C17.3878 45.5294 17.7778 45.3494 18.1878 45.1994C22.8578 39.8494 27.4678 35.2694 32.1878 30.0194C36.5378 25.2094 43.2678 19.3494 46.5878 12.4194C46.8395 12.0581 47.0163 11.6501 47.1078 11.2194C47.5416 10.3851 47.7546 9.45355 47.7266 8.51358C47.6986 7.57361 47.4305 6.65644 46.9478 5.8494C45.2778 2.4094 42.3278 1.33942 39.4378 1.08942C40.3208 1.56128 41.0849 2.22785 41.6722 3.03867C42.2595 3.84948 42.6547 4.7833 42.8278 5.76941Z" fill="#E1E31B"/>
</g>
<g style="mix-blend-mode:multiply">
<path d="M46.7377 48.7194C45.0877 45.3494 42.3177 44.7194 39.5577 44.8294C41.8577 45.8294 43.6277 47.4994 43.3377 50.5894C42.9777 54.3294 39.9677 55.4394 36.5977 55.8994C29.5977 56.8994 22.1777 56.4494 15.0877 56.4594C11.2577 56.4594 6.6777 57.1494 2.3877 57.0594C3.9077 59.2194 6.5277 58.5094 8.3877 58.5394C15.0544 58.6527 21.701 58.6827 28.3277 58.6294C32.7277 58.6294 39.1677 59.3594 43.5877 58.8494C45.5977 58.6094 49.2277 53.8394 46.7377 48.7194Z" fill="#E1E31B"/>
</g>
</svg>
